<svg width="30" height="46" viewBox="0 0 30 46" fill="none" xmlns="http://www.w3.org/2000/svg">
<path d="M8.93538 18.8986C8.61042 14.2682 12.8967 10.5153 15.8555 9.95206L15.8987 9.9488C16.059 9.93738 16.2151 9.88356 16.3754 9.88301C17.3615 9.88138 17.1341 9.49483 17.0866 8.82177L16.5347 0.960891C16.4948 0.391128 15.9748 -0.0399994 15.3798 0.00295027L15.1571 0.0192604C6.11778 0.68036 -0.659038 9.44101 0.0510873 19.5483L8.93538 18.8986Z" fill="#FF2853"/>
<path d="M14.7765 14.3806C13.8985 14.2934 13.1428 15.0268 13.1428 15.949V21.318C13.1428 22.0901 13.6842 22.7352 14.413 22.8599C17.8514 23.4476 20.4724 26.3802 20.4724 29.8983C20.4724 33.4164 17.8519 36.349 14.4135 36.9367C13.6853 37.0615 13.1434 37.7066 13.1434 38.4786V43.8471C13.1434 44.7814 13.9159 45.5032 14.805 45.4133C22.8491 44.6004 29.1428 37.9522 29.1428 29.8983C29.1428 21.8351 22.8349 15.1808 14.7765 14.3806Z" fill="#FF2853"/>
<ellipse cx="11.4286" cy="29.8975" rx="5.71429" ry="5.74951" fill="#FF2853"/>
</svg>
