<svg width="456" height="352" viewBox="0 0 456 352" fill="none" xmlns="http://www.w3.org/2000/svg">
<path d="M333.28 37.2185C333.084 27.3294 324.571 19.6455 314.677 20.4183L298.968 21.6497C295.841 20.6696 292.511 20.1419 289.055 20.1419C286.23 20.1419 283.487 20.5 280.87 21.1597C280.889 20.8204 280.895 20.4811 280.895 20.1419C280.895 9.47368 272.212 0.822266 261.504 0.822266C250.797 0.822266 242.113 9.47368 242.113 20.1419C242.113 29.987 249.504 38.1044 259.058 39.3044C257.128 43.4825 256.043 48.1317 256.043 53.0323C256.043 70.5927 269.86 84.9364 287.252 85.8725V86.1804C287.409 86.0924 287.58 85.9981 287.763 85.8913C288.191 85.9102 288.62 85.9228 289.055 85.9228C307.286 85.9228 322.067 71.1959 322.067 53.0323C322.067 47.5726 320.724 42.4269 318.359 37.8971C319.192 38.0478 320.056 38.1044 320.939 38.0416L322.244 37.9473C324.42 37.7902 326.501 38.274 328.317 39.2416C330.108 40.1966 331.64 41.629 332.756 43.3882C333.153 41.8866 333.349 40.3159 333.317 38.695L333.286 37.2185H333.28ZM304.341 22.4916C303.61 22.567 302.884 22.6927 302.178 22.8498C301.258 22.4539 300.312 22.0958 299.347 21.7817C301.081 21.5366 302.796 21.8005 304.335 22.4916H304.341Z" fill="url(#paint0_linear_1071_103969)"/>
<path d="M231.445 127.829C238.212 111.475 251.637 101.215 266.273 101.215L310.964 98.539C325.916 97.6406 339.802 108.302 346.026 125.461L365.442 178.996H209.305L231.445 127.829Z" fill="#CDDBFE"/>
<path d="M286.984 57.2616C286.984 57.3936 286.997 57.5192 287.029 57.6449L287.085 57.8899L287.073 55.9736C287.029 56.426 286.991 56.8595 286.984 57.2616Z" fill="#F8F8FF"/>
<path d="M333.163 58.0967L329.783 53.5919C329.6 53.3469 329.486 53.0579 329.461 52.7501L328.326 39.374C328.326 39.33 328.313 39.286 328.313 39.242C326.497 38.2745 324.416 37.7907 322.241 37.9478L320.935 38.042C315.165 38.463 310.114 34.0776 309.357 28.1592C308.115 30.1131 307.402 32.4064 307.402 34.8504C307.402 35.7551 307.402 36.3205 307.402 36.3205C307.402 43.0683 301.651 48.5343 294.551 48.5343C290.086 50.0987 287.192 54.1637 287.248 58.6308L288.169 62.7083C288.503 63.4057 288.926 64.0654 289.437 64.6748C290.704 66.1701 292.35 68.1303 293.592 69.6005C294.753 70.9765 295.427 72.6602 295.528 74.4194V74.5388C295.774 78.6917 293.567 82.6248 289.815 84.7421C288.8 85.3138 287.885 85.8353 287.261 86.1871L279.706 75.255C279.94 79.609 279.284 84.1138 277.802 88.3044C275.727 94.1663 271.521 99.0417 266.066 102.057L298.669 110.47C303.278 111.658 307.711 108.02 307.428 103.289L306.803 92.9851C306.557 89.8563 307.869 86.8091 310.284 84.9054L319.163 85.9986C325.98 86.8405 330.791 82.8195 330.249 76.0153C330.249 75.965 330.249 75.921 330.249 75.8708L330.527 66.434C330.546 65.8183 330.905 65.2717 331.46 65.0078C334.09 63.7575 334.916 60.4276 333.175 58.103L333.163 58.0967Z" fill="#F8F8FF"/>
<path d="M264.445 145.873C259.407 136.247 249.418 130.21 238.521 130.21L200.641 128.287C194.379 127.967 188.54 131.428 185.822 137.058L150.23 210.868H299.122L264.439 145.873H264.445Z" fill="url(#paint1_linear_1071_103969)"/>
<path d="M221.584 102L218.652 89.6664L218.696 89.4717C220.714 97.5514 227.581 103.501 235.88 104.393L236.05 105.964C235.817 110.287 236.466 114.754 237.935 118.913C239.991 124.731 244.166 129.562 249.576 132.553L204.892 140.758C201.852 141.317 199.38 138.327 200.515 135.462L203.517 127.872C204.368 125.723 204.362 123.411 203.637 121.363L216.426 120.477C224.024 120.358 222.719 110.582 221.584 102Z" fill="#F8F8FF"/>
<path d="M180.31 92.3808L186.913 80.8205L187.625 72.4769L188.142 66.4077C188.275 64.8433 188.678 63.3606 189.277 61.9909C190.097 62.1857 190.949 62.2736 191.812 62.2422L205.244 61.7522C208.599 61.6579 211.21 64.6485 210.649 67.947L210.333 70.0266C209.419 76.0895 209.886 82.2844 211.695 88.1462L213.467 93.8824C212.269 97.3065 209.356 99.8762 205.761 100.618L194.146 103.011L193.774 101.704C192.948 98.8207 190.242 96.8793 187.241 97.0175L185.879 97.0803C185.86 96.7851 185.822 96.5714 185.746 96.4521L185.607 96.2259L182.328 96.0562C180.493 95.962 179.402 93.9766 180.31 92.3871V92.3808Z" fill="#F8F8FF"/>
<path d="M186.326 50.3991L191.364 50.5373C194.606 47.4839 199.039 45.5739 204.26 45.7561C204.456 45.7624 204.651 45.775 204.853 45.7875L220.908 46.7865C221.16 46.8054 221.413 46.8242 221.665 46.8493C241.693 48.8221 253.296 70.4915 244.215 88.3786L236.074 104.412C236.011 104.412 235.948 104.393 235.885 104.387C227.593 103.495 220.719 97.5452 218.701 89.4655L218.657 89.6603L221.482 101.529L221.595 101.993C222.731 110.576 224.036 120.352 216.437 120.471L203.649 121.357L192.159 122.149C187.19 122.551 183.103 118.316 183.709 113.384L185.702 97.0803H185.884L187.247 97.0112C190.255 96.873 192.953 98.8143 193.78 101.698L194.152 103.005L205.767 100.611C209.362 99.8699 212.281 97.3002 213.473 93.8761L211.701 88.1399C209.891 82.278 209.425 76.0895 210.339 70.0203L210.655 67.9407C211.216 64.6422 208.611 61.6516 205.25 61.7458L191.818 62.2359C190.954 62.2673 190.103 62.1794 189.283 61.9846C188.678 63.3542 188.281 64.837 188.148 66.4014L187.631 72.4706C185.575 68.6255 185.096 64.3783 185.897 60.4202C184.957 59.7353 184.131 58.8746 183.488 57.8568L183.028 57.128C180.77 54.4013 182.782 50.2923 186.332 50.3928L186.326 50.3991Z" fill="#08216E"/>
<path d="M187.97 209.342L116.983 193.427L116.692 157.044C116.554 139.684 129.948 125.19 147.327 123.902L164.48 122.834C177.962 121.992 189.13 133.125 188.279 146.558L187.976 209.342H187.97Z" fill="#08216E"/>
<path d="M87.2741 230.659C94.6333 213.186 109.238 202.229 125.154 202.229L173.761 199.364C190.025 198.409 205.128 209.794 211.894 228.121L233.013 285.313H63.1914L87.2741 230.653V230.659Z" fill="url(#paint2_linear_1071_103969)"/>
<path d="M192.547 162.937L187.975 156.837L187.13 146.878C187.074 146.878 187.023 146.878 186.966 146.878L187.793 156.604C187.736 156.46 187.698 156.303 187.685 156.146L186.55 142.769C186.55 142.725 186.538 142.682 186.538 142.638C184.722 141.67 182.641 141.186 180.465 141.343L179.16 141.438C173.39 141.858 168.338 137.473 167.582 131.555C166.339 133.509 165.627 135.802 165.627 138.246C165.627 139.151 165.627 139.716 165.627 139.716C165.627 146.414 159.951 151.848 152.914 151.924L152.983 163.333C152.327 170.684 149.578 177.683 145.044 183.444L140.888 177.432C141.109 181.534 140.491 185.775 139.097 189.727C137.143 195.25 133.182 199.842 128.043 202.682L128.365 202.764C128.314 202.789 128.27 202.82 128.22 202.846L158.93 210.768C163.275 211.887 167.449 208.462 167.178 204.002L166.592 194.295C166.365 191.348 167.601 188.477 169.871 186.686L178.239 187.717C184.684 188.508 189.401 185.04 188.852 178.588C188.852 178.588 189.016 170.332 188.833 168.567L188.966 168.353L191.519 167.14C193.115 166.38 193.619 164.357 192.56 162.944L192.547 162.937Z" fill="#F8F8FF"/>
<path d="M379.28 94.3287L352.291 107.799L342.371 88.2596C333.284 70.3724 344.894 48.7031 364.922 46.7303C365.174 46.7051 365.426 46.6863 365.678 46.6674L381.733 45.6685C381.929 45.6559 382.124 45.6496 382.326 45.6371C398.507 45.0716 407.153 64.5106 396.118 76.316L379.28 94.3287Z" fill="url(#paint3_linear_1071_103969)"/>
<path d="M322.129 145.841C327.168 136.159 337.156 130.09 348.053 130.09L378.12 128.337C385.599 127.904 392.662 131.824 396.263 138.409L435.77 210.73H295.02L322.135 145.835L322.129 145.841Z" fill="#08216E"/>
<path d="M348.637 118.788C350.106 114.629 350.756 110.162 350.523 105.839L350.693 104.287C372.802 104.168 371.402 89.5668 371.402 89.5668C373.155 83.906 384.865 85.8913 377.077 71.5037C376.459 70.3603 376.049 69.11 375.854 67.822C375.293 64.5235 377.897 61.5329 381.258 61.6272L394.69 62.1172C395.554 62.1486 396.405 62.0607 397.225 61.8659C397.83 63.2356 398.228 64.7183 398.36 66.2827L398.877 72.3582C398.902 72.3142 398.921 72.2765 398.94 72.2325L399.659 80.6955L406.262 92.2558C407.17 93.8454 406.079 95.8307 404.244 95.925L400.964 96.0946L400.826 96.3208C400.517 97.9103 400.315 105.098 400.315 105.098C400.315 111.908 396.456 117.324 389.664 116.489L387.325 116.2C387.205 116.262 387.091 116.325 386.978 116.388C383.005 118.625 381.378 123.513 383.055 127.741L386.057 135.331C387.192 138.196 384.72 141.186 381.681 140.627L336.996 132.422C342.407 129.431 346.581 124.593 348.637 118.782V118.788Z" fill="#F8F8FF"/>
<path d="M425.679 134.997C425.496 125.68 417.475 118.442 408.155 119.171L393.355 120.333C390.41 119.41 387.269 118.907 384.015 118.907C366.838 118.907 352.914 132.78 352.914 149.894C352.914 167.008 365.93 179.951 382.313 180.83V181.119C382.458 181.038 382.622 180.944 382.792 180.849C383.196 180.862 383.599 180.881 384.009 180.881C401.187 180.881 415.11 167.008 415.11 149.894C415.11 144.748 413.843 139.904 411.617 135.632C412.405 135.77 413.212 135.827 414.045 135.77C414.045 135.77 414.518 135.739 415.274 135.682C417.324 135.532 419.285 135.99 420.994 136.907C422.678 137.806 424.122 139.157 425.169 140.809C425.541 139.395 425.73 137.913 425.698 136.386L425.673 134.991L425.679 134.997ZM398.418 121.125C397.725 121.2 397.05 121.314 396.382 121.464C395.511 121.087 394.622 120.754 393.714 120.459C395.347 120.227 396.968 120.478 398.418 121.125Z" fill="#CDDBFE"/>
<path d="M329.745 220.355C336.12 204.95 348.764 195.287 362.555 195.287L404.654 192.761C418.742 191.919 431.82 201.959 437.679 218.118L455.972 268.55H308.891L329.745 220.349V220.355Z" fill="#CDDBFE"/>
<path d="M426.694 156.17L422.123 150.07L421 136.907C419.291 135.99 417.33 135.538 415.28 135.682C414.524 135.739 414.051 135.77 414.051 135.77C408.615 136.166 403.854 132.038 403.141 126.459C401.975 128.3 401.3 130.455 401.3 132.767V134.149C401.3 140.501 395.877 145.653 389.192 145.653C388.499 145.898 387.849 146.212 387.238 146.577L387.345 164.382C387.673 164.771 387.994 165.148 388.284 165.5C389.375 166.795 390.012 168.384 390.107 170.036V170.15C390.34 174.064 388.259 177.764 384.721 179.762C383.769 180.303 382.899 180.793 382.313 181.119L375.193 170.822C375.414 174.924 374.796 179.165 373.402 183.117C371.447 188.64 367.487 193.233 362.348 196.072L393.058 203.995C397.403 205.113 401.577 201.689 401.306 197.228L400.72 187.521C400.493 184.575 401.729 181.704 403.999 179.913L412.367 180.943C418.812 181.735 423.352 177.921 422.804 171.475L423.094 161.58L425.648 160.367C427.243 159.607 427.747 157.584 426.688 156.17H426.694Z" fill="#F8F8FF"/>
<path d="M326.246 203.902C322.645 204.203 319.757 200.515 320.532 196.608L320.81 193.68C320.93 192.417 320.81 191.192 320.501 190.048C322.008 188.716 323.231 186.712 323.799 183.564C325.476 174.291 319.227 166.57 316.042 166.318C312.574 166.048 309.005 164.289 308.986 160.306L308.677 157.378C308.4 154.777 307.182 152.527 305.467 150.963C304.156 136.883 292.811 125.549 278.37 124.475L263.129 123.526C251.147 122.778 241.221 132.674 241.978 144.611L244.406 182.911L277.399 184.733C279.196 186.197 281.366 187.077 283.434 187.045C283.85 187.039 284.26 186.963 284.67 186.888C286.234 188.628 287.192 191.003 287.224 193.567V193.711C287.249 195.433 286.814 197.066 285.982 198.455C285.13 199.868 284.027 201.722 283.194 203.11C282.419 204.411 282.028 205.95 282.084 207.527V207.634C282.261 212.491 286.019 216.995 290.144 217.755C290.591 217.837 291.045 217.843 291.499 217.85C302.478 217.982 313.463 218.088 324.442 218.208C328.383 217.875 331.499 214.463 331.852 210.09C332.135 206.56 329.418 203.563 326.246 203.914V203.902Z" fill="#FF2853"/>
<path d="M361.212 247.385C351.451 221.067 332.079 204.562 310.953 204.562L246.468 200.252C224.889 198.807 204.861 215.965 195.881 243.572L167.863 329.728H393.159L361.212 247.385Z" fill="#08216E"/>
<path d="M284.785 186.862C284.343 186.944 283.896 187.032 283.442 187.038C279.248 187.107 274.664 183.438 273.528 178.713L273.503 178.607C273.138 177.074 273.207 175.49 273.711 174.058C274.247 172.531 274.966 170.496 275.515 168.944C276.057 167.417 276.152 165.727 275.786 164.049L275.755 163.911C274.853 159.752 271.561 156.598 267.702 156.183C262.499 157.697 256.906 154.229 255.209 148.443C255.209 148.443 255.064 147.959 254.837 147.18C253.236 141.727 248.386 138.208 243.423 138.604C243.556 138.045 242.238 140.91 242.049 143.14L240.825 157.515L236.254 163.616C235.194 165.03 235.699 167.053 237.294 167.813L239.848 169.025L239.98 169.239C240.27 170.973 240.34 177.916 240.34 177.916C240.233 184.286 244.13 189.181 250.575 188.389L258.943 187.359C261.213 189.149 262.449 192.02 262.222 194.967L261.635 204.674C261.364 209.135 265.539 212.559 269.884 211.441L300.594 203.518C295.455 200.678 291.494 196.085 289.54 190.563C289.085 189.275 288.72 187.955 288.436 186.623C287.282 186.548 286.071 186.611 284.785 186.856V186.862Z" fill="#F8F8FF"/>
<path d="M261.27 123.802C261.471 123.796 261.673 123.802 261.875 123.796H261.894C261.686 123.796 261.478 123.796 261.27 123.802Z" fill="#FF2853"/>
<path d="M152.513 286.193C157.551 276.568 167.54 270.53 178.437 270.53L216.317 268.607C222.579 268.287 228.418 271.749 231.136 277.378L266.728 351.188H117.836L152.519 286.199L152.513 286.193Z" fill="#CDDBFE"/>
<path d="M195.375 242.326L198.308 229.993L198.263 229.798C196.246 237.878 189.378 243.827 181.08 244.719L180.909 246.29C181.143 250.613 180.493 255.08 179.024 259.239C176.968 265.057 172.793 269.888 167.383 272.879L212.067 281.084C215.107 281.643 217.579 278.653 216.444 275.788L213.442 268.198C212.591 266.05 212.597 263.738 213.322 261.689L200.534 260.803C192.935 260.684 194.24 250.908 195.375 242.326Z" fill="#F8F8FF"/>
<path d="M236.645 232.707L230.043 221.147L229.33 212.803L228.813 206.734C228.681 205.169 228.277 203.687 227.678 202.317C226.858 202.512 226.007 202.6 225.143 202.568L211.711 202.078C208.357 201.984 205.746 204.975 206.307 208.273L206.622 210.353C207.537 216.416 207.07 222.611 205.26 228.472L203.488 234.209C204.686 237.633 207.6 240.202 211.194 240.944L222.81 243.337L223.182 242.031C224.008 239.147 226.713 237.205 229.715 237.344L231.077 237.406C231.096 237.111 231.134 236.898 231.21 236.778L231.348 236.552L234.627 236.382C236.462 236.288 237.553 234.303 236.645 232.713V232.707Z" fill="#F8F8FF"/>
<path d="M230.637 190.726L225.598 190.864C222.357 187.81 217.924 185.907 212.703 186.083C212.507 186.089 212.312 186.101 212.11 186.114L196.055 187.113C195.802 187.132 195.55 187.157 195.298 187.176C175.27 189.149 163.667 210.818 172.748 228.705L180.889 244.739C180.952 244.732 181.015 244.72 181.078 244.714C189.37 243.821 196.244 237.872 198.262 229.792L198.306 229.987L195.481 241.855L195.367 242.32C194.232 250.902 192.927 260.678 200.526 260.798L213.314 261.683L224.804 262.475C229.773 262.877 233.859 258.643 233.254 253.711L231.261 237.407H231.078L229.716 237.338C226.708 237.199 224.009 239.141 223.183 242.025L222.811 243.331L211.195 240.938C207.601 240.196 204.681 237.627 203.489 234.202L205.261 228.466C207.071 222.604 207.538 216.416 206.624 210.347L206.308 208.267C205.747 204.969 208.351 201.978 211.712 202.072L225.144 202.562C226.008 202.594 226.86 202.506 227.679 202.311C228.285 203.681 228.682 205.163 228.814 206.728L229.332 212.797C231.387 208.952 231.867 204.705 231.066 200.747C232.005 200.062 232.831 199.201 233.475 198.183L233.935 197.454C236.193 194.728 234.181 190.619 230.631 190.719L230.637 190.726Z" fill="#FF2853"/>
<path d="M337.093 234.781L364.082 248.251L374.002 228.712C383.089 210.825 371.479 189.155 351.451 187.182C351.199 187.157 350.947 187.138 350.695 187.12L334.64 186.121C334.444 186.108 334.249 186.102 334.047 186.089C317.866 185.524 309.22 204.963 320.256 216.768L337.093 234.781Z" fill="url(#paint4_linear_1071_103969)"/>
<path d="M394.239 286.293C389.2 276.611 379.211 270.542 368.314 270.542L338.247 268.789C330.768 268.356 323.706 272.276 320.105 278.861L280.598 351.182H421.348L394.232 286.287L394.239 286.293Z" fill="#CDDBFE"/>
<path d="M367.732 259.24C366.262 255.081 365.613 250.614 365.846 246.291L365.676 244.74C343.567 244.62 344.967 230.019 344.967 230.019C343.214 224.358 331.504 226.343 339.292 211.956C339.909 210.812 340.319 209.562 340.515 208.274C341.076 204.976 338.472 201.985 335.111 202.079L321.679 202.569C320.815 202.601 319.964 202.513 319.144 202.318C318.538 203.688 318.141 205.17 318.009 206.735L317.492 212.81C317.466 212.766 317.447 212.729 317.428 212.685L316.71 221.148L310.107 232.708C309.199 234.298 310.29 236.283 312.125 236.377L315.404 236.547L315.543 236.773C315.852 238.362 316.054 245.55 316.054 245.55C316.054 252.354 319.913 257.776 326.705 256.941L329.044 256.652C329.164 256.715 329.278 256.777 329.391 256.84C333.364 259.077 334.991 263.965 333.313 268.193L330.312 275.783C329.177 278.648 331.649 281.638 334.688 281.079L379.373 272.874C373.962 269.883 369.787 265.046 367.732 259.234V259.24Z" fill="#F8F8FF"/>
<path d="M71.1168 188.452C70.8646 188.427 70.6123 188.408 70.3601 188.389L67.2386 188.195C57.1742 181.975 44.0955 183.533 35.7841 191.996C32.2402 191.895 30.2222 196.004 32.4798 198.731L32.9401 199.46C33.5833 200.477 34.4094 201.338 35.349 202.023C34.2581 207.407 35.5193 213.332 39.9209 218.038L56.758 236.051L83.7478 249.521L85.5261 246.015L93.6672 229.981C102.754 212.094 91.1448 190.425 71.1168 188.452Z" fill="#CDDBFE"/>
<path d="M127.259 287.268C126.477 285.948 125.531 284.585 124.44 283.215C114.994 271.316 99.8087 265.454 84.7121 267.433L64.6841 270.066C56.3223 269.638 48.4272 273.49 44.4102 279.967L0.261719 351.07H157.559L127.259 287.274V287.268Z" fill="#08216E"/>
<path d="M93.3321 269.877C90.6962 267.251 88.6467 264.065 87.3918 260.509C85.9225 256.35 85.1154 250.469 85.3487 246.147L85.3361 246.015C63.1514 245.927 64.5514 231.294 64.5514 231.294C62.7983 225.633 51.088 227.619 58.876 213.231C59.494 212.088 59.9038 210.838 60.0993 209.55C60.6606 206.251 58.0562 203.26 54.6951 203.355L41.2632 203.845C40.3993 203.876 39.548 203.788 38.7282 203.593C38.1228 204.963 37.7255 206.446 37.5931 208.01L36.3697 222.423L29.7673 233.983C28.8593 235.573 29.9502 237.558 31.7853 237.653L35.0644 237.822L35.2031 238.048C35.3292 239.55 35.55 246.649 35.55 246.649C35.3671 257.412 39.5732 259.052 46.3648 258.216L48.7043 257.927C48.7422 257.946 48.7863 257.971 48.8241 257.99C52.778 260.101 54.6005 265.366 52.9546 269.525L49.9782 277.058C48.8431 279.923 51.315 282.914 54.3545 282.355L91.5097 275.531C94.1645 275.041 95.2428 271.774 93.3384 269.871L93.3321 269.877Z" fill="#F8F8FF"/>
<path d="M187.269 294.116C182.438 294.525 178.629 290.34 179.733 285.848L180.155 282.481C180.899 276.581 176.466 271.429 170.539 270.713L170.627 259.963C170.753 244.533 158.847 231.653 143.398 230.503L128.156 229.554C116.174 228.807 106.249 238.702 107.005 250.639L109.433 288.939L132.204 290.196C131.309 291.459 130.357 292.803 129.581 293.903C128.515 295.404 127.973 297.182 128.023 298.986V299.105C128.175 304.672 133.138 309.779 138.655 310.584C139.254 310.672 139.86 310.672 140.472 310.672C145.769 310.659 151.072 310.64 156.369 310.628C165.79 310.603 175.205 310.571 184.626 310.546C189.917 310.1 194.148 306.135 194.691 301.115C195.132 297.057 191.538 293.67 187.275 294.123L187.269 294.116Z" fill="#08216E"/>
<path d="M185.059 322.595C180.279 313.454 170.788 307.724 160.446 307.724L128.866 306.229C118.297 305.726 108.484 311.682 104.089 321.27L90.3672 351.188H200.71L185.065 322.595H185.059Z" fill="url(#paint5_linear_1071_103969)"/>
<path d="M139.505 297.451C134.662 296.785 130.279 292.305 130.147 287.417V287.311C130.103 285.734 130.576 284.188 131.503 282.875C132.493 281.468 133.817 279.602 134.832 278.175C135.829 276.774 136.358 275.128 136.358 273.407V273.262C136.358 269.009 133.376 265.289 129.062 264.177C122.737 264.705 117.201 260.263 116.69 254.257C116.69 254.257 116.646 253.754 116.576 252.95C116.393 250.77 115.586 248.784 114.331 247.132C112.118 244.223 107.395 245.48 107.067 249.117V249.18L105.837 263.555L101.265 269.656C100.206 271.07 100.71 273.093 102.306 273.853L104.86 275.065L104.992 275.279C104.86 276.85 105.352 284.615 105.352 284.615C104.803 291.061 109.141 295.221 115.586 294.429L123.954 293.399C126.225 295.189 127.46 298.06 127.233 301.007L126.647 310.714C126.376 315.175 130.55 318.599 134.895 317.481L165.606 309.558C160.737 306.869 156.929 302.609 154.885 297.47C150.181 297.482 145.477 297.501 140.779 297.514C140.356 297.514 139.928 297.514 139.505 297.451Z" fill="#F8F8FF"/>
<path d="M129.734 231.124C129.968 231.155 130.195 231.193 130.428 231.225H130.453C130.214 231.187 129.974 231.155 129.734 231.124Z" fill="#08216E"/>
<path d="M301.023 332.894L224.102 332.404C224.102 332.404 239.873 257.833 239.98 256.79C241.38 242.805 252.687 231.571 267.065 230.503L282.306 229.554C294.288 228.807 304.213 238.702 303.457 250.639L301.029 332.888L301.023 332.894Z" fill="url(#paint6_linear_1071_103969)"/>
<path d="M225.394 322.596C230.174 313.455 239.664 307.725 250.006 307.725L281.587 306.23C292.156 305.727 301.968 311.683 306.363 321.271L320.085 351.189H209.742L225.387 322.596H225.394Z" fill="#FF2853"/>
<path d="M309.182 269.658L304.61 263.557L303.487 250.395C301.778 249.477 299.817 249.025 297.768 249.17C297.011 249.226 296.538 249.258 296.538 249.258C292.874 249.521 289.52 247.731 287.502 244.828C287.369 245.588 287.3 246.361 287.3 247.159V248.793C287.3 256.288 280.906 262.363 273.023 262.363C271.825 262.784 270.734 263.375 269.756 264.085L269.731 267.729C269.649 278.271 264.97 288.23 256.974 295.134C256.917 295.185 256.861 295.229 256.804 295.279C256.413 295.618 256.098 296.058 255.902 296.605C253.947 302.127 249.987 306.72 244.848 309.56L275.558 317.482C279.903 318.601 284.077 315.177 283.806 310.716L283.22 301.009C282.993 298.062 284.229 295.191 286.499 293.4L294.867 294.431C301.312 295.222 306.029 291.754 305.48 285.302C305.48 285.302 305.644 277.046 305.461 275.281L305.594 275.067L308.148 273.855C309.743 273.094 310.248 271.071 309.188 269.664L309.182 269.658Z" fill="#F8F8FF"/>
<path d="M286.993 234.348C285.605 233.877 284.136 233.582 282.61 233.5L281.216 233.425C280.958 233.412 280.699 233.406 280.441 233.4C270.137 233.337 262.607 243.157 264.903 253.165L269.821 274.609L269.903 250.608C269.846 241.297 277.666 233.858 286.999 234.342L286.993 234.348Z" fill="#CDDBFE"/>
<defs>
<linearGradient id="paint0_linear_1071_103969" x1="287.717" y1="0.822266" x2="287.717" y2="86.1804" gradientUnits="userSpaceOnUse">
<stop stop-color="#89A9FF"/>
<stop offset="0.9999" stop-color="#4260D1"/>
<stop offset="1" stop-color="#000E87"/>
</linearGradient>
<linearGradient id="paint1_linear_1071_103969" x1="224.676" y1="128.267" x2="224.676" y2="210.868" gradientUnits="userSpaceOnUse">
<stop stop-color="#89A9FF"/>
<stop offset="0.9999" stop-color="#4260D1"/>
<stop offset="1" stop-color="#000E87"/>
</linearGradient>
<linearGradient id="paint2_linear_1071_103969" x1="148.102" y1="199.309" x2="148.102" y2="285.313" gradientUnits="userSpaceOnUse">
<stop stop-color="#89A9FF"/>
<stop offset="0.9999" stop-color="#4260D1"/>
<stop offset="1" stop-color="#000E87"/>
</linearGradient>
<linearGradient id="paint3_linear_1071_103969" x1="370.151" y1="45.625" x2="370.151" y2="107.799" gradientUnits="userSpaceOnUse">
<stop stop-color="#89A9FF"/>
<stop offset="0.9999" stop-color="#4260D1"/>
<stop offset="1" stop-color="#000E87"/>
</linearGradient>
<linearGradient id="paint4_linear_1071_103969" x1="346.222" y1="186.077" x2="346.222" y2="248.251" gradientUnits="userSpaceOnUse">
<stop stop-color="#89A9FF"/>
<stop offset="0.9999" stop-color="#4260D1"/>
<stop offset="1" stop-color="#000E87"/>
</linearGradient>
<linearGradient id="paint5_linear_1071_103969" x1="145.539" y1="306.199" x2="145.539" y2="351.188" gradientUnits="userSpaceOnUse">
<stop stop-color="#89A9FF"/>
<stop offset="0.9999" stop-color="#4260D1"/>
<stop offset="1" stop-color="#000E87"/>
</linearGradient>
<linearGradient id="paint6_linear_1071_103969" x1="263.799" y1="229.515" x2="263.799" y2="332.894" gradientUnits="userSpaceOnUse">
<stop stop-color="#89A9FF"/>
<stop offset="0.9999" stop-color="#4260D1"/>
<stop offset="1" stop-color="#000E87"/>
</linearGradient>
</defs>
</svg>
