<svg width="24" height="24" viewBox="0 0 24 24" fill="none" xmlns="http://www.w3.org/2000/svg">
<path d="M11.999 1.99316C6.48502 1.99416 1.99902 6.48016 1.99902 11.9942C1.99902 17.5082 6.48502 21.9942 12 21.9942C17.513 21.9942 21.999 17.5082 22 11.9942C22 6.48016 17.514 1.99416 11.999 1.99316ZM12 19.9942C7.58802 19.9942 3.99902 16.4052 3.99902 11.9942C3.99902 7.58316 7.58802 3.99416 11.999 3.99316C16.411 3.99416 20 7.58316 20 11.9942C19.999 16.4052 16.41 19.9942 12 19.9942Z" fill="#FCFBFC"/>
<path d="M12 10.9942H8V12.9942H12V16.0002L16.005 11.9952L12 7.99121V10.9942Z" fill="#FCFBFC"/>
</svg>
