<svg width="5" height="9" viewBox="0 0 5 9" fill="none" xmlns="http://www.w3.org/2000/svg">
<path d="M4.82834 0.176134C4.77429 0.120302 4.71008 0.0760055 4.63939 0.0457815C4.5687 0.0155575 4.49291 0 4.41638 0C4.33984 0 4.26406 0.0155575 4.19337 0.0457815C4.12267 0.0760055 4.05846 0.120302 4.00441 0.176134L0.136132 4.1618C0.0929787 4.20617 0.0587425 4.25888 0.0353832 4.3169C0.0120239 4.37492 0 4.43712 0 4.49994C0 4.56275 0.0120239 4.62495 0.0353832 4.68297C0.0587425 4.74099 0.0929787 4.7937 0.136132 4.83807L4.00441 8.82374C4.23251 9.05875 4.60025 9.05875 4.82834 8.82374C5.05644 8.58872 5.05644 8.20982 4.82834 7.97481L1.45814 4.49754L4.833 1.02027C5.05644 0.790052 5.05644 0.406353 4.82834 0.176134Z" fill="#09216A"/>
</svg>
