<svg width="16" height="16" viewBox="0 0 16 16" fill="none" xmlns="http://www.w3.org/2000/svg">
<ellipse cx="7.86687" cy="7.72425" rx="7.86687" ry="7.34241" fill="#F7931A"/>
<ellipse cx="7.86687" cy="7.72425" rx="7.86687" ry="7.34241" fill="#F3BA2C"/>
<path d="M9.70663 8.43857L10.7881 9.44842L7.86138 12.1824L4.93509 9.44879L6.01653 8.43857L7.86178 10.1712L9.70663 8.43857ZM11.5523 6.71483L12.6425 7.72468L11.5618 8.73453L10.4804 7.72468L11.5523 6.71483ZM7.86178 6.71483L8.94282 7.71576L7.86138 8.72598L6.78034 7.72468L7.86138 6.7152L7.86178 6.71483ZM4.17088 6.71483L5.24316 7.72468L4.17168 8.72561L3.08984 7.72468L4.17088 6.71483ZM7.86218 3.2666L10.7885 5.99202L9.70703 7.0015L7.86178 5.27776L6.01693 7.01042L4.93549 6.00057L7.86178 3.26697L7.86218 3.2666Z" fill="white"/>
</svg>
