<svg width="88" height="88" viewBox="0 0 88 88" fill="none" xmlns="http://www.w3.org/2000/svg">
<circle cx="44" cy="44" r="44" fill="#E7EDFF"/>
<path d="M44 21C38.7927 21 33.712 22.842 29.5813 26.207C29.0507 25.9505 28.4559 25.8066 27.8281 25.8066C25.5988 25.8066 23.7852 27.6203 23.7852 29.8496C23.7852 32.0789 25.5988 33.8926 27.8281 33.8926C30.0574 33.8926 31.8711 32.0789 31.8711 29.8496C31.8711 29.2364 31.7332 28.655 31.4878 28.1338C35.1005 25.2643 39.4996 23.6953 44 23.6953C55.1961 23.6953 64.3047 32.8039 64.3047 44C64.3047 46.1516 63.8833 48.4262 63.0523 50.7607L65.5915 51.6647C66.5262 49.0391 67 46.4604 67 44C67 31.354 56.6442 21 44 21V21ZM27.8281 31.1973C27.085 31.1973 26.4805 30.5927 26.4805 29.8496C26.4805 29.1065 27.085 28.502 27.8281 28.502C28.5712 28.502 29.1758 29.1065 29.1758 29.8496C29.1758 30.5927 28.5712 31.1973 27.8281 31.1973Z" fill="#000F3B"/>
<path d="M44 58.8242C52.1741 58.8242 58.8242 52.1741 58.8242 44C58.8242 35.8259 52.1741 29.1758 44 29.1758C35.8259 29.1758 29.1758 35.8259 29.1758 44C29.1758 52.1741 35.8259 58.8242 44 58.8242ZM31.9464 45.3477H35.9465C36.0954 48.5019 36.8007 51.9736 38.3459 54.7275C34.8758 52.8912 32.3987 49.4207 31.9464 45.3477ZM45.3477 55.6864V45.3477H49.3562C49.0887 50.5667 47.2925 54.4261 45.3477 55.6864ZM45.3477 42.6523V32.3136C47.2925 33.5739 49.0887 37.4333 49.3562 42.6523H45.3477ZM42.6523 32.3136V42.6523H38.6438C38.9113 37.4333 40.7075 33.5739 42.6523 32.3136ZM42.6523 45.3477V55.6864C40.7075 54.4261 38.9113 50.5667 38.6438 45.3477H42.6523ZM49.6541 54.7275C51.1993 51.9736 51.9046 48.5019 52.0535 45.3477H56.0536C55.6013 49.4207 53.1242 52.8912 49.6541 54.7275ZM56.0536 42.6523H52.0535C51.9046 39.4981 51.1993 36.0264 49.6541 33.2725C53.1242 35.1088 55.6013 38.5793 56.0536 42.6523ZM38.3459 33.2725C36.8007 36.0264 36.0954 39.4981 35.9465 42.6523H31.9464C32.3987 38.5793 34.8758 35.1088 38.3459 33.2725Z" fill="#000F3B"/>
<path d="M60.1719 54.1074C57.9426 54.1074 56.1289 55.9211 56.1289 58.1504C56.1289 58.7636 56.2668 59.345 56.5122 59.8662C52.8995 62.7358 48.5004 64.3047 44 64.3047C32.8039 64.3047 23.6953 55.1961 23.6953 44C23.6953 41.8484 24.1167 39.5739 24.9477 37.2393L22.4085 36.3354C21.4738 38.961 21 41.5396 21 44C21 56.6461 31.3558 67 44 67C49.2073 67 54.288 65.158 58.4187 61.793C58.9493 62.0494 59.5441 62.1934 60.1719 62.1934C62.4012 62.1934 64.2148 60.3797 64.2148 58.1504C64.2148 55.9211 62.4012 54.1074 60.1719 54.1074ZM60.1719 59.4981C59.4288 59.4981 58.8242 58.8935 58.8242 58.1504C58.8242 57.4073 59.4288 56.8028 60.1719 56.8028C60.915 56.8028 61.5195 57.4073 61.5195 58.1504C61.5195 58.8935 60.915 59.4981 60.1719 59.4981Z" fill="#000F3B"/>
</svg>
