<svg width="26" height="26" viewBox="0 0 26 26" fill="none" xmlns="http://www.w3.org/2000/svg">
<circle cx="13" cy="13" r="13" fill="#F7931A"/>
<path d="M10.5 18V19.25C10.5 19.388 10.612 19.5 10.75 19.5H11.75C11.8163 19.5 11.8798 19.4737 11.9267 19.4268C11.9736 19.3799 12 19.3163 12 19.25V18H12.5V19.25C12.5 19.388 12.612 19.5 12.75 19.5H13.75C13.8163 19.5 13.8798 19.4737 13.9267 19.4268C13.9736 19.3799 14 19.3163 14 19.25V18H14.084C16.076 18 17.5 16.967 17.5 15.18C17.5 13.678 16.493 12.857 15.314 12.74V12.652C16.284 12.41 16.997 11.678 16.997 10.462C16.997 8.93 15.847 8 14.092 8H14V6.75C14 6.6837 13.9736 6.62011 13.9267 6.57322C13.8798 6.52634 13.8163 6.5 13.75 6.5H12.75C12.6836 6.5 12.6201 6.52634 12.5732 6.57322C12.5263 6.62011 12.5 6.6837 12.5 6.75V8H11.927V6.75C11.927 6.6837 11.9006 6.62011 11.8537 6.57322C11.8068 6.52634 11.7433 6.5 11.677 6.5H10.75C10.6836 6.5 10.6201 6.52634 10.5732 6.57322C10.5263 6.62011 10.5 6.6837 10.5 6.75V8L8.50195 8.011C8.43565 8.011 8.37206 8.03734 8.32518 8.08422C8.27829 8.13111 8.25195 8.1947 8.25195 8.261V9.25C8.25195 9.387 8.36195 9.5 8.49995 9.5L9.25495 9.495C9.453 9.49632 9.64248 9.57592 9.78205 9.71643C9.92163 9.85694 9.99996 10.047 9.99995 10.245V15.75C9.99995 15.9489 9.92094 16.1397 9.78028 16.2803C9.63963 16.421 9.44887 16.5 9.24995 16.5L8.50195 16.511C8.43565 16.511 8.37206 16.5373 8.32518 16.5842C8.27829 16.6311 8.25195 16.6947 8.25195 16.761V17.761C8.25195 17.899 8.36395 18.011 8.50195 18.011L10.5 18ZM11.927 9.487H13.646C14.552 9.487 15.084 9.985 15.084 10.799C15.084 11.67 14.509 12.161 13.207 12.161H11.927V9.487ZM11.927 13.538H13.767C14.904 13.538 15.523 14.118 15.523 15.062C15.523 16.015 14.897 16.512 13.365 16.512H11.927V13.539V13.538Z" fill="white"/>
</svg>
