<svg width="158" height="33" viewBox="0 0 158 33" fill="none" xmlns="http://www.w3.org/2000/svg">
<g clip-path="url(#clip0_321_37530)">
<path opacity="0.4" fill-rule="evenodd" clip-rule="evenodd" d="M4.31785 27.1216C5.7473 29.8493 7.368 30.851 8.61282 30.851C9.85771 30.851 11.4784 29.8494 12.9079 27.1216C14.2866 24.4906 15.2001 20.7158 15.2001 16.4357C15.2001 12.1555 14.2866 8.38079 12.9079 5.74979C11.4784 3.02201 9.85771 2.02041 8.61282 2.02041C7.368 2.02041 5.7473 3.02201 4.31786 5.74979C2.93912 8.38079 2.02564 12.1555 2.02564 16.4357C2.02564 20.7158 2.93912 24.4906 4.31785 27.1216ZM0 16.4357C-3.97809e-07 25.5128 3.85611 32.8714 8.61282 32.8714C13.3696 32.8714 17.2257 25.5128 17.2257 16.4357C17.2257 7.35853 13.3696 2.07387e-07 8.61282 0C3.85611 -2.07387e-07 3.97801e-07 7.35853 0 16.4357Z" fill="#2FF6D3"/>
<path opacity="0.7" fill-rule="evenodd" clip-rule="evenodd" d="M11.8257 27.1216C13.2551 29.8493 14.8758 30.851 16.1206 30.851C17.3655 30.851 18.9862 29.8494 20.4156 27.1216C21.7944 24.4906 22.7078 20.7158 22.7078 16.4357C22.7078 12.1555 21.7944 8.38079 20.4156 5.74979C18.9862 3.02201 17.3655 2.02041 16.1206 2.02041C14.8758 2.02041 13.2551 3.02201 11.8257 5.74979C10.4469 8.38079 9.53345 12.1555 9.53345 16.4357C9.53345 20.7158 10.4469 24.4906 11.8257 27.1216ZM7.50781 16.4357C7.50781 25.5128 11.3639 32.8714 16.1206 32.8714C20.8774 32.8714 24.7335 25.5128 24.7335 16.4357C24.7335 7.35853 20.8774 2.07387e-07 16.1206 0C11.3639 -2.07387e-07 7.50781 7.35853 7.50781 16.4357Z" fill="#2FF6D3"/>
<path d="M17.3665 24.2076C13.078 24.2076 9.60156 20.7401 9.60156 16.4627C9.60156 12.1853 13.078 8.71777 17.3665 8.71777C21.6549 8.71777 25.1315 12.1853 25.1315 16.4627C25.1315 20.7401 21.6549 24.2076 17.3665 24.2076Z" fill="#09216A"/>
<path fill-rule="evenodd" clip-rule="evenodd" d="M19.3335 27.1216C20.7629 29.8493 22.3836 30.851 23.6284 30.851C24.8733 30.851 26.494 29.8494 27.9234 27.1216C29.3022 24.4906 30.2156 20.7158 30.2156 16.4357C30.2156 12.1555 29.3022 8.38079 27.9234 5.74979C26.494 3.02201 24.8733 2.02041 23.6284 2.02041C22.3836 2.02041 20.7629 3.02201 19.3335 5.74979C17.9548 8.38079 17.0413 12.1555 17.0413 16.4357C17.0413 20.7158 17.9547 24.4906 19.3335 27.1216ZM15.0156 16.4357C15.0156 25.5128 18.8717 32.8714 23.6284 32.8714C28.3852 32.8714 32.2413 25.5128 32.2413 16.4357C32.2413 7.35853 28.3852 2.07387e-07 23.6284 0C18.8717 -2.07387e-07 15.0156 7.35853 15.0156 16.4357Z" fill="#2FF6D3"/>
<path d="M44.4307 22.8979C43.7122 22.8979 43.0947 22.6402 42.5779 22.1248C42.0611 21.6094 41.8027 20.9934 41.8027 20.2768V11.9419C41.8027 11.2254 42.0611 10.6093 42.5779 10.0939C43.0947 9.57852 43.7122 9.32079 44.4307 9.32079H55.3772V11.8288H44.96C44.6072 11.8288 44.4055 11.8539 44.355 11.9042C44.3172 11.9419 44.2983 12.1368 44.2983 12.4888V19.7299C44.2983 20.082 44.3172 20.283 44.355 20.3334C44.4055 20.3711 44.6072 20.3899 44.96 20.3899H55.3772V22.8979H44.4307ZM58.8232 22.8979V8.37793H61.2999V11.9608H67.3498C68.0559 11.9608 68.667 12.2185 69.1835 12.7339C69.7007 13.2368 69.9587 13.8465 69.9587 14.5631V22.8979H67.4821V15.0911C67.4821 14.7391 67.4569 14.5442 67.4065 14.5065C67.3687 14.4562 67.1733 14.4311 66.8204 14.4311H61.9616C61.6086 14.4311 61.407 14.4562 61.3566 14.5065C61.3188 14.5442 61.2999 14.7391 61.2999 15.0911V22.8979H58.8232ZM75.5724 22.8979C74.854 22.8979 74.2361 22.6465 73.7196 22.1436C73.2152 21.6282 72.9634 21.0122 72.9634 20.2956V16.1848H81.6223V15.0911C81.6223 14.7391 81.5973 14.5442 81.5467 14.5065C81.5089 14.4562 81.3137 14.4311 80.9606 14.4311H72.9634V11.9608H81.49C82.2084 11.9608 82.8195 12.2185 83.3239 12.7339C83.8404 13.2368 84.099 13.8465 84.099 14.5631V22.8979H75.5724ZM76.1018 20.4276H81.6223V18.4099H75.4401V19.7676C75.4401 20.1197 75.459 20.3208 75.4968 20.3711C75.5474 20.4088 75.7486 20.4276 76.1018 20.4276ZM87.6027 22.8979V11.9608H90.0794V22.8979H87.6027ZM87.6027 10.8671V8.37793H90.0794V10.8671H87.6027ZM93.7876 22.8979V11.9608H102.314C103.033 11.9608 103.644 12.2185 104.148 12.7339C104.665 13.2368 104.923 13.8465 104.923 14.5631V22.8979H102.447V15.0911C102.447 14.7391 102.421 14.5442 102.371 14.5065C102.333 14.4562 102.137 14.4311 101.785 14.4311H96.926C96.5729 14.4311 96.371 14.4562 96.321 14.5065C96.2832 14.5442 96.2643 14.7391 96.2643 15.0911V22.8979H93.7876ZM108.502 22.8979V9.33964H119.467C120.198 9.33964 120.822 9.59738 121.339 10.1128C121.856 10.6282 122.114 11.2442 122.114 11.9608V15.6191C122.114 16.3356 121.856 16.9517 121.339 17.4671C120.822 17.9825 120.198 18.2402 119.467 18.2402L110.997 18.2591V22.8979H108.502ZM111.659 15.7322H118.938C119.278 15.7322 119.473 15.7134 119.524 15.6756C119.574 15.6253 119.6 15.4305 119.6 15.0911V12.4888C119.6 12.1368 119.574 11.9419 119.524 11.9042C119.473 11.8539 119.278 11.8288 118.938 11.8288H111.659C111.306 11.8288 111.104 11.8539 111.054 11.9042C111.016 11.9419 110.997 12.1368 110.997 12.4888V15.0911C110.997 15.4305 111.016 15.6253 111.054 15.6756C111.104 15.7134 111.306 15.7322 111.659 15.7322ZM127.483 22.8979C126.765 22.8979 126.148 22.6465 125.631 22.1436C125.127 21.6282 124.874 21.0122 124.874 20.2956V14.5631C124.874 13.8465 125.127 13.2368 125.631 12.7339C126.148 12.2185 126.765 11.9608 127.483 11.9608H133.401C134.119 11.9608 134.731 12.2185 135.235 12.7339C135.752 13.2368 136.01 13.8465 136.01 14.5631V20.2956C136.01 21.0122 135.752 21.6282 135.235 22.1436C134.731 22.6465 134.119 22.8979 133.401 22.8979H127.483ZM128.013 20.4276H132.872C133.225 20.4276 133.42 20.4088 133.458 20.3711C133.508 20.3208 133.533 20.1197 133.533 19.7676V15.0911C133.533 14.7391 133.508 14.5442 133.458 14.5065C133.42 14.4562 133.225 14.4311 132.872 14.4311H128.013C127.66 14.4311 127.459 14.4562 127.408 14.5065C127.37 14.5442 127.351 14.7391 127.351 15.0911V19.7676C127.351 20.1197 127.37 20.3208 127.408 20.3711C127.459 20.4088 127.66 20.4276 128.013 20.4276ZM139.072 22.8979V14.5631C139.072 13.8465 139.323 13.2368 139.828 12.7339C140.344 12.2185 140.962 11.9608 141.681 11.9608H147.768V14.4311H142.21C141.857 14.4311 141.656 14.4562 141.605 14.5065C141.567 14.5442 141.548 14.7391 141.548 15.0911V22.8979H139.072ZM153.09 22.8979C152.371 22.8979 151.753 22.6465 151.237 22.1436C150.732 21.6282 150.481 21.0122 150.481 20.2956V8.60422H152.957V11.9608H157.23V14.4311H152.957V19.7676C152.957 20.1197 152.976 20.3208 153.014 20.3711C153.065 20.4088 153.266 20.4276 153.619 20.4276H157.23V22.8979H153.09Z" fill="#09216A"/>
</g>
<defs>
<clipPath id="clip0_321_37530">
<rect width="158" height="33" fill="white"/>
</clipPath>
</defs>
</svg>
