<svg width="322" height="115" viewBox="0 0 322 115" fill="none" xmlns="http://www.w3.org/2000/svg">
<path d="M12.3461 98.0316H0V114C0 114.552 0.447712 115 0.999997 115H321C321.552 115 322 114.552 322 114V0L308.306 16.3272C307.828 16.8974 306.917 16.7641 306.622 16.0809L300.976 2.99955C300.818 2.63313 300.457 2.39583 300.058 2.39583H280.365C280.115 2.39583 279.874 2.48932 279.69 2.6579L271.531 10.1199C271.346 10.2885 271.106 10.3819 270.856 10.3819H264.936C264.778 10.3819 264.621 10.3443 264.48 10.272L254.122 4.96706C253.902 4.85416 253.647 4.82708 253.408 4.89106L243.037 7.66432C242.923 7.69486 242.815 7.74541 242.718 7.81363L238.122 11.0606C238.01 11.1397 237.916 11.241 237.845 11.3582L235.842 14.6557C235.794 14.7344 235.735 14.8061 235.668 14.8688L227.671 22.3058C227.613 22.3602 227.548 22.4074 227.478 22.4464L220.488 26.3542L215.13 29.0983C215.064 29.1322 214.994 29.1586 214.922 29.177L204.2 31.9228C204.143 31.9372 204.086 31.9467 204.028 31.9511L193.975 32.7254C193.824 32.737 193.678 32.7828 193.547 32.8594L188.498 35.8147C188.36 35.8954 188.244 36.008 188.158 36.143L174.938 57.0347C174.755 57.3244 174.436 57.5 174.093 57.5H168.23C168.14 57.5 168.051 57.488 167.965 57.4644L155.246 53.9748C155.083 53.9298 154.91 53.9274 154.745 53.9676L148.675 55.4481C148.525 55.4845 148.386 55.5549 148.268 55.6539L134.003 67.6374C133.815 67.7949 133.692 68.0158 133.657 68.2582L132.114 78.7915C132.088 78.9689 132.015 79.136 131.902 79.2754L128.826 83.0801C128.682 83.2576 128.482 83.3806 128.259 83.4288L113.298 86.6549C113.04 86.7104 112.816 86.8648 112.672 87.0849L106.617 96.3367C106.492 96.5278 106.305 96.6703 106.088 96.7406L102.646 97.8541C102.307 97.9639 101.934 97.8845 101.669 97.6456L93.6107 90.3855C93.4271 90.2201 93.1886 90.1285 92.9414 90.1285H88.8462C88.5701 90.1285 88.3064 90.2426 88.1173 90.4438L73.9742 105.501C73.7852 105.702 73.5214 105.816 73.2453 105.816H68.7482C68.4179 105.816 68.1089 105.653 67.9225 105.38L65.0711 101.208C64.9886 101.087 64.8805 100.986 64.7545 100.911L60.3861 98.3284C60.0759 98.145 59.691 98.1426 59.3786 98.3223L52.1778 102.463C52.0803 102.519 51.974 102.558 51.8635 102.579L43.3131 104.182C43.1825 104.206 43.0484 104.204 42.9185 104.176L34.1755 102.295C33.9564 102.248 33.7595 102.128 33.6163 101.956L24.7747 91.3012C24.635 91.1328 24.4439 91.0149 24.2307 90.9656L21.1583 90.2541C20.821 90.176 20.4674 90.2779 20.2234 90.5234L13.0555 97.7365C12.8678 97.9254 12.6124 98.0316 12.3461 98.0316Z" fill="url(#paint0_linear_765_31687)"/>
<defs>
<linearGradient id="paint0_linear_765_31687" x1="327.534" y1="-9.58337" x2="-69.7145" y2="152.133" gradientUnits="userSpaceOnUse">
<stop stop-color="#81A0F5"/>
<stop offset="1" stop-color="white" stop-opacity="0"/>
</linearGradient>
</defs>
</svg>
