<svg width="21" height="18" viewBox="0 0 21 18" fill="none" xmlns="http://www.w3.org/2000/svg">
<path d="M2.56865 1.70924C2.1087 2.1972 2.13141 2.96564 2.61938 3.42559L17.0665 17.0433C17.5544 17.5032 18.3229 17.4805 18.7828 16.9925C19.2428 16.5046 19.2201 15.7361 18.7321 15.2762L4.285 1.65851C3.79704 1.19856 3.0286 1.22127 2.56865 1.70924Z" fill="white"/>
<path d="M1.69709 16.9624C2.13001 17.4745 2.89609 17.5387 3.40819 17.1058L19.1942 3.76056C19.7063 3.32764 19.7705 2.56155 19.3376 2.04946C18.9047 1.53736 18.1386 1.47317 17.6265 1.90609L1.84046 15.2513C1.32836 15.6842 1.26417 16.4503 1.69709 16.9624Z" fill="white"/>
</svg>
