<svg width="220" height="195" viewBox="0 0 220 195" fill="none" xmlns="http://www.w3.org/2000/svg">
<path opacity="0.2" d="M38.3886 147.32C38.3886 148.451 39.2005 149.665 40.8012 150.574L63.884 172.859C66.7839 174.566 71.2207 174.748 73.7435 173.276L115.733 148.61C116.957 147.894 117.508 146.927 117.427 145.918C117.431 145.977 117.431 146.035 117.427 146.094V149.302C117.427 150.222 116.847 151.102 115.716 151.759L73.7667 176.413C71.2381 177.891 66.8071 177.709 63.9072 176.003L40.8244 153.718C39.2005 152.774 38.3828 151.56 38.406 150.41C38.3886 150.223 38.348 148.111 38.3886 147.32Z" fill="url(#paint0_linear_1294_2766)"/>
<g opacity="0.2">
<path opacity="0.09" d="M66.7014 123.468L38.7933 140.006L38.4453 140.211C37.4596 140.747 36.6472 141.559 36.1052 142.549C35.5632 143.539 35.3145 144.665 35.3889 145.794C35.5164 148.046 37.1868 150.556 39.5994 151.964L62.2704 173.827C64.5828 175.118 67.207 175.727 69.8449 175.586C71.9212 175.548 73.9573 175.001 75.778 173.991L117.339 149.583C119.455 148.351 120.656 146.404 120.644 144.252C120.644 141.906 119.177 139.701 116.625 138.212L80.0001 123.979C79.1543 123.502 78.2647 123.109 77.3439 122.806C75.845 122.312 74.2804 122.053 72.7041 122.037C70.6133 121.969 68.542 122.463 66.7014 123.468V123.468Z" fill="black"/>
<path opacity="0.18" d="M66.8641 123.752L38.9211 140.307L38.5732 140.513C37.6178 141.055 36.8512 141.882 36.3779 142.881C35.9046 143.88 35.7477 145.003 35.9285 146.096C36.1605 148.107 38.0048 150.822 40.1797 152.089L62.4273 173.559C64.809 174.881 67.5293 175.447 70.2337 175.183C72.2686 175.05 74.2492 174.463 76.0334 173.465L117.159 149.315C119.189 148.142 120.326 146.277 120.303 144.236C120.303 142.014 118.893 139.926 116.452 138.501L80.0584 124.344C79.2085 123.889 78.3218 123.509 77.4079 123.206C75.9311 122.697 74.3861 122.418 72.8262 122.38C70.7534 122.291 68.6949 122.765 66.8641 123.752V123.752Z" fill="black"/>
<path opacity="0.27" d="M67.0205 124.033L39.0485 140.606L38.7005 140.811C36.5141 142.16 35.7079 144.33 36.4677 146.388C36.4677 148.194 38.8281 151.08 40.7536 152.211L62.5895 173.283C65.0389 174.64 67.8564 175.16 70.6221 174.766C72.2982 174.766 75.1284 173.629 76.329 172.925L117.014 149.033C118.963 147.895 120.03 146.142 120.001 144.212C119.972 142.119 118.638 140.142 116.306 138.782L80.1452 124.707C79.2922 124.272 78.4105 123.898 77.5063 123.587C76.0468 123.065 74.5178 122.769 72.971 122.707C70.9049 122.591 68.8468 123.049 67.0205 124.033V124.033Z" fill="black"/>
<path opacity="0.36" d="M67.1828 124.314L39.176 140.905C39.1354 140.905 38.8686 141.087 38.8338 141.116C36.6473 142.477 35.9978 144.635 37.0069 146.687C37.0069 148.265 39.6458 151.344 41.3335 152.335L62.746 173.001C65.2636 174.398 68.1804 174.874 71.0048 174.35C72.4721 174.35 75.5459 173.001 76.6015 172.391L116.851 148.752C118.707 147.667 119.716 146.007 119.676 144.189C119.629 142.23 118.365 140.36 116.138 139.064L80.2089 125.089C79.3588 124.669 78.4854 124.299 77.5932 123.98C76.15 123.441 74.6348 123.125 73.0985 123.042C71.0482 122.905 69.0006 123.346 67.1828 124.314V124.314Z" fill="black"/>
<path opacity="0.45" d="M67.3391 124.596L39.3034 141.204C39.2512 141.204 39.0076 141.38 38.9612 141.415C36.7805 142.799 36.2818 145.01 37.5461 146.981C37.5461 148.335 40.4459 151.608 41.9133 152.452L62.9082 172.72C65.4986 174.154 68.516 174.588 71.3989 173.94C72.6575 173.94 75.9807 172.38 76.8797 171.852L116.683 148.47C118.452 147.438 119.397 145.872 119.345 144.166C119.293 142.336 118.092 140.583 115.975 139.345L80.2725 125.458C79.8259 125.194 78.173 124.555 77.6626 124.367C76.2373 123.813 74.7378 123.479 73.2142 123.376C71.1815 123.218 69.1457 123.641 67.3391 124.596V124.596Z" fill="black"/>
<path opacity="0.55" d="M67.5018 124.876L39.4371 141.502C39.3675 141.537 39.1471 141.672 39.0891 141.713C36.9142 143.12 36.572 145.361 38.0858 147.278C38.0858 148.404 41.2814 151.87 42.4877 152.556L63.0709 172.419C65.7271 173.891 68.84 174.28 71.7704 173.504C72.8143 173.504 76.4102 171.745 77.1351 171.293L116.509 148.17C118.197 147.19 119.073 145.718 119.015 144.123C118.951 142.422 117.814 140.78 115.802 139.607L80.3308 125.808C79.9596 125.591 78.1559 124.899 77.7325 124.735C76.3255 124.164 74.8416 123.81 73.3305 123.685C71.3154 123.516 69.2941 123.929 67.5018 124.876V124.876Z" fill="black"/>
<path opacity="0.64" d="M67.6642 125.153L39.5473 141.802L39.1993 142.014C37.0302 143.439 36.8388 145.72 38.6193 147.573C38.6193 148.476 42.0991 152.136 43.0619 152.699L63.2274 172.157C65.8431 173.688 69.6071 174.045 72.1764 173.107C73.0115 173.107 76.8161 171.131 77.3961 170.761L116.341 147.89C117.936 146.957 118.748 145.579 118.661 144.101C118.586 142.53 117.501 140.999 115.616 139.885L80.3713 126.18C80.0755 126.004 78.1268 125.259 77.7847 125.124C76.3948 124.54 74.9269 124.169 73.4291 124.021C71.4398 123.831 69.4385 124.224 67.6642 125.153V125.153Z" fill="black"/>
<path opacity="0.73" d="M67.8211 125.434L39.6926 142.101C39.6056 142.154 39.4258 142.259 39.3446 142.318C37.1871 143.761 37.1465 146.071 39.1706 147.872C39.1706 148.546 42.9172 152.393 43.6422 152.821L63.3902 171.875C66.0812 173.447 70.0076 173.769 72.5711 172.69C73.1974 172.69 77.2572 170.503 77.7096 170.239L116.214 147.631C117.728 146.746 118.476 145.461 118.395 144.113C118.313 142.764 117.304 141.251 115.495 140.201L80.4877 126.584C80.2615 126.455 78.1678 125.651 77.9126 125.546C76.5396 124.941 75.0854 124.546 73.5976 124.373C71.6109 124.148 69.6026 124.517 67.8211 125.434Z" fill="black"/>
<path opacity="0.82" d="M67.9659 125.74L39.8026 142.424C39.704 142.483 39.5474 142.576 39.4604 142.641C37.3029 144.101 37.4131 146.453 39.6924 148.189C39.6924 148.64 43.7174 152.681 44.2046 152.962L63.535 171.623C66.3014 173.236 70.3902 173.512 72.9421 172.304C73.3597 172.304 77.6688 169.905 77.9704 169.729L116.04 147.374C117.461 146.541 118.145 145.35 118.052 144.095C117.959 142.84 117.02 141.474 115.326 140.489L80.5281 126.959C80.3773 126.871 78.1328 126.009 77.9646 125.939C76.6099 125.32 75.171 124.911 73.6961 124.725C71.7288 124.482 69.7345 124.835 67.9659 125.74V125.74Z" fill="black"/>
<path opacity="0.91" d="M68.1464 125.997L39.9483 142.699L39.6061 142.916C37.4544 144.4 37.7212 146.78 40.2499 148.464C40.2499 148.686 44.5532 152.921 44.7968 153.061L63.7096 171.318C66.5573 172.977 70.8085 173.206 73.3487 171.863C73.5575 171.863 78.1103 169.253 78.2611 169.165L115.895 147.068C117.235 146.288 117.85 145.191 117.751 144.048C117.653 142.904 116.771 141.667 115.188 140.746L80.639 127.305C80.5636 127.263 78.1741 126.337 78.0871 126.302C76.7497 125.669 75.3268 125.24 73.8649 125.029C71.9058 124.761 69.9123 125.098 68.1464 125.997V125.997Z" fill="black"/>
<path opacity="0.2" d="M73.7656 171.447L115.761 146.787C118.29 145.309 117.977 142.728 115.054 141.028L78.1966 126.689C75.2967 124.988 70.8599 124.801 68.3371 126.278L40.1157 142.998C37.5871 144.476 37.9002 147.05 40.8233 148.757L63.9061 171.042C66.8059 172.743 71.2079 172.925 73.7656 171.447Z" fill="black"/>
</g>
<path d="M73.7662 171.388L115.762 146.757C116.893 146.101 117.45 145.221 117.473 144.3V141.092C117.473 139.972 116.632 141.919 115.054 140.998L78.1972 126.66C75.2974 124.953 70.8606 124.771 68.3377 126.249L40.1164 142.969C39.2696 143.461 38.6606 141.368 38.4403 142.036C38.3649 142.253 38.4403 145.192 38.4055 145.42C38.4055 146.593 39.2 147.766 40.8239 148.728L63.9067 171.013C66.8066 172.655 71.2086 172.866 73.7662 171.388Z" fill="url(#paint1_linear_1294_2766)"/>
<path d="M73.7662 168.24L115.762 143.58C118.291 142.102 117.977 139.521 115.054 137.821L78.1972 123.482C75.2973 121.781 70.8606 121.594 68.3377 123.071L40.0816 139.815C37.5529 141.292 37.8661 143.867 40.7891 145.573L63.8719 167.859C66.8066 169.53 71.2085 169.723 73.7662 168.24Z" fill="url(#paint2_linear_1294_2766)"/>
<path style="mix-blend-mode:multiply" opacity="0.82" d="M40.0818 139.815L68.3031 123.095C70.8318 121.617 75.2627 121.805 78.1626 123.505L96.7216 130.73C96.5393 130.879 96.3453 131.012 96.1417 131.129L54.146 155.795C53.5168 156.147 52.8382 156.4 52.1335 156.546L40.7661 145.573C37.8663 143.843 37.5531 141.269 40.0818 139.815Z" fill="url(#paint3_linear_1294_2766)"/>
<path style="mix-blend-mode:screen" opacity="0.6" d="M40.7888 145.015L63.8717 167.3C66.7715 169.001 71.2083 169.189 73.7312 167.711L115.727 143.051C116.168 142.838 116.552 142.521 116.846 142.125C117.14 141.73 117.335 141.269 117.415 140.781C117.548 141.825 116.997 142.846 115.727 143.584L73.7659 168.239C71.2373 169.717 66.8063 169.529 63.9065 167.828L40.8236 145.543C39.0837 144.546 38.3066 143.25 38.4284 142.025C38.5212 143.098 39.3331 144.165 40.7888 145.015Z" fill="url(#paint4_radial_1294_2766)"/>
<path d="M18.8725 168.38L122.009 108.146C127.286 105.067 131.561 96.8095 131.561 89.7017V9.90953C131.561 2.80177 127.286 -0.464751 122.009 2.6141L18.8725 62.8717C13.6006 65.9506 9.32617 74.2078 9.32617 81.3214V161.078C9.32617 168.186 13.6006 171.482 18.8725 168.38Z" fill="url(#paint5_linear_1294_2766)"/>
<path d="M17.6416 162.826L119.328 103.454C123.573 100.727 126.195 95.2733 126.195 89.7021V9.38793C126.195 9.08605 126.116 8.78945 125.967 8.52819C125.817 8.26694 125.602 8.05032 125.343 7.90028C125.084 7.75025 124.79 7.67213 124.491 7.67386C124.193 7.67558 123.9 7.75707 123.643 7.91008L123.341 8.08602L21.568 67.5695C16.5165 70.5017 14.7012 75.7446 14.7012 81.3217V161.348C14.7008 161.672 14.7845 161.99 14.9439 162.271C15.1033 162.551 15.3328 162.785 15.6094 162.947C15.886 163.11 16.2001 163.196 16.5201 163.198C16.8401 163.199 17.1548 163.116 17.4328 162.955L17.6416 162.826Z" fill="white"/>
<g style="mix-blend-mode:multiply">
<path d="M14.6904 81.3217V161.348C14.6901 161.672 14.7738 161.99 14.9332 162.271C15.0926 162.551 15.3221 162.785 15.5987 162.947C15.8753 163.11 16.1893 163.196 16.5093 163.198C16.8293 163.199 17.1441 163.116 17.4221 162.955L17.6425 162.826L119.329 103.454C123.574 100.727 126.195 95.2733 126.195 89.7021V9.38793C126.196 9.08605 126.117 8.78945 125.968 8.52819C125.818 8.26694 125.603 8.05032 125.344 7.90028C125.085 7.75025 124.791 7.67213 124.492 7.67386C124.194 7.67558 123.901 7.75707 123.644 7.91008L123.342 8.08602L21.5689 67.5695C16.5057 70.5135 14.6904 75.7446 14.6904 81.3217ZM15.7576 81.3217C15.7576 77.1579 16.8595 71.5573 22.0909 68.5078L124.166 8.8484C124.26 8.78949 124.368 8.75897 124.479 8.76043C124.562 8.75809 124.645 8.77255 124.722 8.80296C124.8 8.83338 124.871 8.87913 124.931 8.93756C124.991 8.99598 125.039 9.0659 125.072 9.14324C125.104 9.22057 125.122 9.30375 125.123 9.38793V89.6727C125.123 94.9801 122.623 100.018 118.789 102.481L16.8885 162.011C16.7766 162.08 16.6483 162.116 16.5173 162.117C16.3179 162.114 16.1276 162.031 15.9876 161.888C15.8476 161.744 15.7692 161.55 15.7692 161.348L15.7576 81.3217Z" fill="#BCBEC0"/>
</g>
<path d="M16.1693 61.4177L119.305 1.16012C121.393 -0.059693 123.319 -0.282544 124.89 0.327363C125.093 0.409466 127.756 1.8404 127.941 1.94596C126.311 1.14253 124.247 1.295 121.996 2.60865L18.872 62.8721C13.6 65.951 9.32565 74.2082 9.32565 81.3218V161.079C9.32565 165.518 10.9902 168.456 13.5246 169.289C13.2249 169.276 12.9352 169.176 12.6895 169.002C12.5677 168.931 9.67943 167.283 9.56344 167.201C7.74813 165.917 6.61719 163.278 6.61719 159.624V79.8674C6.61719 72.7538 10.8916 64.4966 16.1693 61.4177Z" fill="url(#paint6_linear_1294_2766)"/>
<path style="mix-blend-mode:screen" opacity="0.6" d="M18.4135 62.6423L121.55 2.37882C123.713 1.11795 125.702 0.936156 127.303 1.63403C125.69 1.45227 124.064 1.83743 122.698 2.72482L19.5618 62.9883C14.2899 66.0671 10.0097 74.3243 10.0097 81.4321V161.189C10.0097 165.382 11.5061 168.226 13.8085 169.229C10.8623 168.76 8.86719 165.711 8.86719 160.843V81.0861C8.86719 73.9783 13.1416 65.7211 18.4135 62.6423Z" fill="url(#paint7_radial_1294_2766)"/>
<g style="mix-blend-mode:screen">
<g style="mix-blend-mode:screen">
<path d="M55.0624 126.749C54.9855 126.749 54.9118 126.718 54.8574 126.663C54.803 126.608 54.7725 126.533 54.7725 126.455V125.282C54.7725 125.205 54.803 125.13 54.8574 125.075C54.9118 125.02 54.9855 124.989 55.0624 124.989C55.1389 124.991 55.2118 125.022 55.2659 125.077C55.3199 125.131 55.3509 125.205 55.3524 125.282V126.455C55.3524 126.533 55.3219 126.608 55.2675 126.663C55.2131 126.718 55.1394 126.749 55.0624 126.749ZM55.0624 123.816C54.9855 123.816 54.9118 123.785 54.8574 123.73C54.803 123.675 54.7725 123.601 54.7725 123.523V122.35C54.7725 122.272 54.803 122.198 54.8574 122.143C54.9118 122.088 54.9855 122.057 55.0624 122.057C55.1389 122.058 55.2118 122.09 55.2659 122.144C55.3199 122.199 55.3509 122.273 55.3524 122.35V123.523C55.3524 123.601 55.3219 123.675 55.2675 123.73C55.2131 123.785 55.1394 123.816 55.0624 123.816ZM55.0624 120.884C54.9855 120.884 54.9118 120.853 54.8574 120.798C54.803 120.743 54.7725 120.669 54.7725 120.591V119.418C54.7725 119.34 54.803 119.266 54.8574 119.211C54.9118 119.156 54.9855 119.125 55.0624 119.125C55.1389 119.126 55.2118 119.158 55.2659 119.212C55.3199 119.267 55.3509 119.341 55.3524 119.418V120.591C55.3524 120.669 55.3219 120.743 55.2675 120.798C55.2131 120.853 55.1394 120.884 55.0624 120.884ZM55.0624 117.952C54.9855 117.952 54.9118 117.921 54.8574 117.866C54.803 117.811 54.7725 117.736 54.7725 117.659V116.486C54.7725 116.408 54.803 116.333 54.8574 116.278C54.9118 116.223 54.9855 116.192 55.0624 116.192C55.1389 116.194 55.2118 116.225 55.2659 116.28C55.3199 116.335 55.3509 116.408 55.3524 116.486V117.659C55.3524 117.736 55.3219 117.811 55.2675 117.866C55.2131 117.921 55.1394 117.952 55.0624 117.952ZM55.0624 115.02C54.9855 115.02 54.9118 114.989 54.8574 114.934C54.803 114.879 54.7725 114.804 54.7725 114.726V113.553C54.7725 113.476 54.803 113.401 54.8574 113.346C54.9118 113.291 54.9855 113.26 55.0624 113.26C55.1389 113.262 55.2118 113.293 55.2659 113.348C55.3199 113.402 55.3509 113.476 55.3524 113.553V114.726C55.3524 114.804 55.3219 114.879 55.2675 114.934C55.2131 114.989 55.1394 115.02 55.0624 115.02ZM55.0624 112.087C54.9855 112.087 54.9118 112.056 54.8574 112.001C54.803 111.946 54.7725 111.872 54.7725 111.794V110.621C54.7725 110.543 54.803 110.469 54.8574 110.414C54.9118 110.359 54.9855 110.328 55.0624 110.328C55.1389 110.329 55.2118 110.361 55.2659 110.416C55.3199 110.47 55.3509 110.544 55.3524 110.621V111.794C55.3524 111.872 55.3219 111.946 55.2675 112.001C55.2131 112.056 55.1394 112.087 55.0624 112.087ZM55.0624 109.155C54.9855 109.155 54.9118 109.124 54.8574 109.069C54.803 109.014 54.7725 108.94 54.7725 108.862V107.689C54.7725 107.611 54.803 107.537 54.8574 107.482C54.9118 107.427 54.9855 107.396 55.0624 107.396C55.1389 107.397 55.2118 107.429 55.2659 107.483C55.3199 107.538 55.3509 107.612 55.3524 107.689V108.862C55.3524 108.94 55.3219 109.014 55.2675 109.069C55.2131 109.124 55.1394 109.155 55.0624 109.155ZM55.0624 106.223C54.9855 106.223 54.9118 106.192 54.8574 106.137C54.803 106.082 54.7725 106.007 54.7725 105.93V104.757C54.7725 104.679 54.803 104.604 54.8574 104.549C54.9118 104.494 54.9855 104.463 55.0624 104.463C55.1389 104.465 55.2118 104.496 55.2659 104.551C55.3199 104.606 55.3509 104.679 55.3524 104.757V105.93C55.3524 106.007 55.3219 106.082 55.2675 106.137C55.2131 106.192 55.1394 106.223 55.0624 106.223ZM55.0624 103.291C54.9855 103.291 54.9118 103.26 54.8574 103.205C54.803 103.15 54.7725 103.075 54.7725 102.997V101.824C54.7725 101.747 54.803 101.672 54.8574 101.617C54.9118 101.562 54.9855 101.531 55.0624 101.531C55.1389 101.533 55.2118 101.564 55.2659 101.619C55.3199 101.673 55.3509 101.747 55.3524 101.824V102.997C55.3524 103.075 55.3219 103.15 55.2675 103.205C55.2131 103.26 55.1394 103.291 55.0624 103.291Z" fill="#25054D"/>
</g>
</g>
<g style="mix-blend-mode:screen">
<g style="mix-blend-mode:screen">
<path d="M23.1699 145.403C23.093 145.403 23.0192 145.372 22.9648 145.317C22.9104 145.262 22.8799 145.188 22.8799 145.11V143.937C22.8799 143.859 22.9104 143.785 22.9648 143.73C23.0192 143.675 23.093 143.644 23.1699 143.644C23.2468 143.644 23.3205 143.675 23.3749 143.73C23.4293 143.785 23.4599 143.859 23.4599 143.937V145.11C23.4599 145.188 23.4293 145.262 23.3749 145.317C23.3205 145.372 23.2468 145.403 23.1699 145.403ZM23.1699 142.471C23.093 142.471 23.0192 142.44 22.9648 142.385C22.9104 142.33 22.8799 142.255 22.8799 142.178V141.005C22.8799 140.927 22.9104 140.852 22.9648 140.797C23.0192 140.742 23.093 140.712 23.1699 140.712C23.2468 140.712 23.3205 140.742 23.3749 140.797C23.4293 140.852 23.4599 140.927 23.4599 141.005V142.178C23.4599 142.255 23.4293 142.33 23.3749 142.385C23.3205 142.44 23.2468 142.471 23.1699 142.471ZM23.1699 139.539C23.093 139.539 23.0192 139.508 22.9648 139.453C22.9104 139.398 22.8799 139.323 22.8799 139.245V138.073C22.8799 137.995 22.9104 137.92 22.9648 137.865C23.0192 137.81 23.093 137.779 23.1699 137.779C23.2468 137.779 23.3205 137.81 23.3749 137.865C23.4293 137.92 23.4599 137.995 23.4599 138.073V139.245C23.4599 139.323 23.4293 139.398 23.3749 139.453C23.3205 139.508 23.2468 139.539 23.1699 139.539Z" fill="#25054D"/>
</g>
</g>
<g style="mix-blend-mode:screen">
<g style="mix-blend-mode:screen">
<path d="M39.0673 135.738C38.9904 135.738 38.9167 135.707 38.8623 135.652C38.8079 135.597 38.7773 135.523 38.7773 135.445V134.272C38.7773 134.194 38.8079 134.12 38.8623 134.065C38.9167 134.01 38.9904 133.979 39.0673 133.979C39.1442 133.979 39.218 134.01 39.2724 134.065C39.3268 134.12 39.3573 134.194 39.3573 134.272V135.445C39.3573 135.523 39.3268 135.597 39.2724 135.652C39.218 135.707 39.1442 135.738 39.0673 135.738ZM39.0673 132.806C38.9904 132.806 38.9167 132.775 38.8623 132.72C38.8079 132.665 38.7773 132.59 38.7773 132.513V131.34C38.7773 131.262 38.8079 131.187 38.8623 131.132C38.9167 131.077 38.9904 131.047 39.0673 131.047C39.1442 131.047 39.218 131.077 39.2724 131.132C39.3268 131.187 39.3573 131.262 39.3573 131.34V132.513C39.3573 132.59 39.3268 132.665 39.2724 132.72C39.218 132.775 39.1442 132.806 39.0673 132.806ZM39.0673 129.874C38.9904 129.874 38.9167 129.843 38.8623 129.788C38.8079 129.733 38.7773 129.658 38.7773 129.58V128.408C38.7773 128.33 38.8079 128.255 38.8623 128.2C38.9167 128.145 38.9904 128.114 39.0673 128.114C39.1442 128.114 39.218 128.145 39.2724 128.2C39.3268 128.255 39.3573 128.33 39.3573 128.408V129.58C39.3573 129.658 39.3268 129.733 39.2724 129.788C39.218 129.843 39.1442 129.874 39.0673 129.874ZM39.0673 126.941C38.9904 126.941 38.9167 126.911 38.8623 126.856C38.8079 126.801 38.7773 126.726 38.7773 126.648V125.475C38.7773 125.398 38.8079 125.323 38.8623 125.268C38.9167 125.213 38.9904 125.182 39.0673 125.182C39.1442 125.182 39.218 125.213 39.2724 125.268C39.3268 125.323 39.3573 125.398 39.3573 125.475V126.648C39.3573 126.726 39.3268 126.801 39.2724 126.856C39.218 126.911 39.1442 126.941 39.0673 126.941ZM39.0673 124.009C38.9904 124.009 38.9167 123.978 38.8623 123.923C38.8079 123.868 38.7773 123.794 38.7773 123.716V122.543C38.7773 122.465 38.8079 122.391 38.8623 122.336C38.9167 122.281 38.9904 122.25 39.0673 122.25C39.1442 122.25 39.218 122.281 39.2724 122.336C39.3268 122.391 39.3573 122.465 39.3573 122.543V123.716C39.3573 123.794 39.3268 123.868 39.2724 123.923C39.218 123.978 39.1442 124.009 39.0673 124.009ZM39.0673 121.077C38.9904 121.077 38.9167 121.046 38.8623 120.991C38.8079 120.936 38.7773 120.861 38.7773 120.784V119.611C38.7773 119.533 38.8079 119.458 38.8623 119.403C38.9167 119.348 38.9904 119.318 39.0673 119.318C39.1442 119.318 39.218 119.348 39.2724 119.403C39.3268 119.458 39.3573 119.533 39.3573 119.611V120.784C39.3573 120.861 39.3268 120.936 39.2724 120.991C39.218 121.046 39.1442 121.077 39.0673 121.077ZM39.0673 118.145C38.9904 118.145 38.9167 118.114 38.8623 118.059C38.8079 118.004 38.7773 117.929 38.7773 117.851V116.679C38.7773 116.601 38.8079 116.526 38.8623 116.471C38.9167 116.416 38.9904 116.385 39.0673 116.385C39.1442 116.385 39.218 116.416 39.2724 116.471C39.3268 116.526 39.3573 116.601 39.3573 116.679V117.851C39.3573 117.929 39.3268 118.004 39.2724 118.059C39.218 118.114 39.1442 118.145 39.0673 118.145ZM39.0673 115.212C38.9904 115.212 38.9167 115.182 38.8623 115.127C38.8079 115.072 38.7773 114.997 38.7773 114.919V113.746C38.7773 113.669 38.8079 113.594 38.8623 113.539C38.9167 113.484 38.9904 113.453 39.0673 113.453C39.1442 113.453 39.218 113.484 39.2724 113.539C39.3268 113.594 39.3573 113.669 39.3573 113.746V114.919C39.3573 114.997 39.3268 115.072 39.2724 115.127C39.218 115.182 39.1442 115.212 39.0673 115.212Z" fill="#25054D"/>
</g>
</g>
<g style="mix-blend-mode:screen">
<g style="mix-blend-mode:screen">
<path d="M70.9589 117.613C70.882 117.613 70.8083 117.582 70.7539 117.527C70.6995 117.472 70.6689 117.397 70.6689 117.32V116.147C70.6689 116.069 70.6995 115.994 70.7539 115.939C70.8083 115.884 70.882 115.853 70.9589 115.853C71.0358 115.853 71.1096 115.884 71.164 115.939C71.2184 115.994 71.2489 116.069 71.2489 116.147V117.32C71.2489 117.397 71.2184 117.472 71.164 117.527C71.1096 117.582 71.0358 117.613 70.9589 117.613ZM70.9589 114.68C70.882 114.68 70.8083 114.65 70.7539 114.595C70.6995 114.54 70.6689 114.465 70.6689 114.387V113.214C70.6689 113.137 70.6995 113.062 70.7539 113.007C70.8083 112.952 70.882 112.921 70.9589 112.921C71.0358 112.921 71.1096 112.952 71.164 113.007C71.2184 113.062 71.2489 113.137 71.2489 113.214V114.387C71.2489 114.465 71.2184 114.54 71.164 114.595C71.1096 114.65 71.0358 114.68 70.9589 114.68ZM70.9589 111.748C70.882 111.748 70.8083 111.717 70.7539 111.662C70.6995 111.607 70.6689 111.533 70.6689 111.455V110.282C70.6689 110.204 70.6995 110.13 70.7539 110.075C70.8083 110.02 70.882 109.989 70.9589 109.989C71.0358 109.989 71.1096 110.02 71.164 110.075C71.2184 110.13 71.2489 110.204 71.2489 110.282V111.455C71.2489 111.533 71.2184 111.607 71.164 111.662C71.1096 111.717 71.0358 111.748 70.9589 111.748ZM70.9589 108.816C70.882 108.816 70.8083 108.785 70.7539 108.73C70.6995 108.675 70.6689 108.601 70.6689 108.523V107.35C70.6689 107.272 70.6995 107.198 70.7539 107.143C70.8083 107.088 70.882 107.057 70.9589 107.057C71.0358 107.057 71.1096 107.088 71.164 107.143C71.2184 107.198 71.2489 107.272 71.2489 107.35V108.523C71.2489 108.601 71.2184 108.675 71.164 108.73C71.1096 108.785 71.0358 108.816 70.9589 108.816ZM70.9589 105.884C70.882 105.884 70.8083 105.853 70.7539 105.798C70.6995 105.743 70.6689 105.668 70.6689 105.591V104.418C70.6689 104.34 70.6995 104.265 70.7539 104.21C70.8083 104.155 70.882 104.124 70.9589 104.124C71.0358 104.124 71.1096 104.155 71.164 104.21C71.2184 104.265 71.2489 104.34 71.2489 104.418V105.591C71.2489 105.668 71.2184 105.743 71.164 105.798C71.1096 105.853 71.0358 105.884 70.9589 105.884ZM70.9589 102.952C70.882 102.952 70.8083 102.921 70.7539 102.866C70.6995 102.811 70.6689 102.736 70.6689 102.658V101.485C70.6689 101.408 70.6995 101.333 70.7539 101.278C70.8083 101.223 70.882 101.192 70.9589 101.192C71.0358 101.192 71.1096 101.223 71.164 101.278C71.2184 101.333 71.2489 101.408 71.2489 101.485V102.658C71.2489 102.736 71.2184 102.811 71.164 102.866C71.1096 102.921 71.0358 102.952 70.9589 102.952ZM70.9589 100.019C70.882 100.019 70.8083 99.9884 70.7539 99.9334C70.6995 99.8784 70.6689 99.8038 70.6689 99.726V98.5531C70.6689 98.4754 70.6995 98.4008 70.7539 98.3458C70.8083 98.2908 70.882 98.2599 70.9589 98.2599C71.0358 98.2599 71.1096 98.2908 71.164 98.3458C71.2184 98.4008 71.2489 98.4754 71.2489 98.5531V99.726C71.2489 99.8038 71.2184 99.8784 71.164 99.9334C71.1096 99.9884 71.0358 100.019 70.9589 100.019ZM70.9589 97.087C70.882 97.087 70.8083 97.0561 70.7539 97.0011C70.6995 96.9462 70.6689 96.8716 70.6689 96.7938V95.6209C70.6689 95.5431 70.6995 95.4686 70.7539 95.4136C70.8083 95.3586 70.882 95.3277 70.9589 95.3277C71.0358 95.3277 71.1096 95.3586 71.164 95.4136C71.2184 95.4686 71.2489 95.5431 71.2489 95.6209V96.7938C71.2489 96.8716 71.2184 96.9462 71.164 97.0011C71.1096 97.0561 71.0358 97.087 70.9589 97.087ZM70.9589 94.1548C70.882 94.1548 70.8083 94.1239 70.7539 94.0689C70.6995 94.0139 70.6689 93.9393 70.6689 93.8616V92.6887C70.6689 92.6109 70.6995 92.5363 70.7539 92.4813C70.8083 92.4263 70.882 92.3954 70.9589 92.3954C71.0358 92.3954 71.1096 92.4263 71.164 92.4813C71.2184 92.5363 71.2489 92.6109 71.2489 92.6887V93.8616C71.2489 93.9393 71.2184 94.0139 71.164 94.0689C71.1096 94.1239 71.0358 94.1548 70.9589 94.1548ZM70.9589 91.2225C70.882 91.2225 70.8083 91.1917 70.7539 91.1367C70.6995 91.0817 70.6689 91.0071 70.6689 90.9293V89.7564C70.6689 89.6787 70.6995 89.6041 70.7539 89.5491C70.8083 89.4941 70.882 89.4632 70.9589 89.4632C71.0358 89.4632 71.1096 89.4941 71.164 89.5491C71.2184 89.6041 71.2489 89.6787 71.2489 89.7564V90.9293C71.2489 91.0071 71.2184 91.0817 71.164 91.1367C71.1096 91.1917 71.0358 91.2225 70.9589 91.2225ZM70.9589 88.2903C70.882 88.2903 70.8083 88.2594 70.7539 88.2044C70.6995 88.1494 70.6689 88.0748 70.6689 87.9971V86.8242C70.6689 86.7464 70.6995 86.6718 70.7539 86.6168C70.8083 86.5619 70.882 86.531 70.9589 86.531C71.0358 86.531 71.1096 86.5619 71.164 86.6168C71.2184 86.6718 71.2489 86.7464 71.2489 86.8242V87.9971C71.2489 88.0748 71.2184 88.1494 71.164 88.2044C71.1096 88.2594 71.0358 88.2903 70.9589 88.2903ZM70.9589 85.3581C70.882 85.3581 70.8083 85.3272 70.7539 85.2722C70.6995 85.2172 70.6689 85.1426 70.6689 85.0648V83.8919C70.6689 83.8142 70.6995 83.7396 70.7539 83.6846C70.8083 83.6296 70.882 83.5987 70.9589 83.5987C71.0358 83.5987 71.1096 83.6296 71.164 83.6846C71.2184 83.7396 71.2489 83.8142 71.2489 83.8919V85.0648C71.2489 85.1426 71.2184 85.2172 71.164 85.2722C71.1096 85.3272 71.0358 85.3581 70.9589 85.3581ZM70.9589 82.4258C70.882 82.4258 70.8083 82.3949 70.7539 82.3399C70.6995 82.2849 70.6689 82.2104 70.6689 82.1326V80.9597C70.6689 80.8819 70.6995 80.8073 70.7539 80.7524C70.8083 80.6974 70.882 80.6665 70.9589 80.6665C71.0358 80.6665 71.1096 80.6974 71.164 80.7524C71.2184 80.8073 71.2489 80.8819 71.2489 80.9597V82.1326C71.2489 82.2104 71.2184 82.2849 71.164 82.3399C71.1096 82.3949 71.0358 82.4258 70.9589 82.4258ZM70.9589 79.4936C70.882 79.4936 70.8083 79.4627 70.7539 79.4077C70.6995 79.3527 70.6689 79.2781 70.6689 79.2003V78.0275C70.6689 77.9497 70.6995 77.8751 70.7539 77.8201C70.8083 77.7651 70.882 77.7342 70.9589 77.7342C71.0358 77.7342 71.1096 77.7651 71.164 77.8201C71.2184 77.8751 71.2489 77.9497 71.2489 78.0275V79.2003C71.2489 79.2781 71.2184 79.3527 71.164 79.4077C71.1096 79.4627 71.0358 79.4936 70.9589 79.4936ZM70.9589 76.5613C70.882 76.5613 70.8083 76.5304 70.7539 76.4754C70.6995 76.4205 70.6689 76.3459 70.6689 76.2681V75.0952C70.6689 75.0174 70.6995 74.9429 70.7539 74.8879C70.8083 74.8329 70.882 74.802 70.9589 74.802C71.0358 74.802 71.1096 74.8329 71.164 74.8879C71.2184 74.9429 71.2489 75.0174 71.2489 75.0952V76.2681C71.2489 76.3459 71.2184 76.4205 71.164 76.4754C71.1096 76.5304 71.0358 76.5613 70.9589 76.5613ZM70.9589 73.6291C70.882 73.6291 70.8083 73.5982 70.7539 73.5432C70.6995 73.4882 70.6689 73.4136 70.6689 73.3359V72.163C70.6689 72.0852 70.6995 72.0106 70.7539 71.9556C70.8083 71.9006 70.882 71.8697 70.9589 71.8697C71.0358 71.8697 71.1096 71.9006 71.164 71.9556C71.2184 72.0106 71.2489 72.0852 71.2489 72.163V73.3359C71.2489 73.4136 71.2184 73.4882 71.164 73.5432C71.1096 73.5982 71.0358 73.6291 70.9589 73.6291ZM70.9589 70.6968C70.882 70.6968 70.8083 70.666 70.7539 70.611C70.6995 70.556 70.6689 70.4814 70.6689 70.4036V69.2307C70.6689 69.153 70.6995 69.0784 70.7539 69.0234C70.8083 68.9684 70.882 68.9375 70.9589 68.9375C71.0358 68.9375 71.1096 68.9684 71.164 69.0234C71.2184 69.0784 71.2489 69.153 71.2489 69.2307V70.4036C71.2489 70.4814 71.2184 70.556 71.164 70.611C71.1096 70.666 71.0358 70.6968 70.9589 70.6968Z" fill="#25054D"/>
</g>
</g>
<g style="mix-blend-mode:screen">
<g style="mix-blend-mode:screen">
<path d="M86.8564 108.293C86.7795 108.293 86.7057 108.262 86.6513 108.207C86.597 108.152 86.5664 108.077 86.5664 108V106.827C86.5664 106.749 86.597 106.674 86.6513 106.619C86.7057 106.564 86.7795 106.534 86.8564 106.534C86.9333 106.534 87.007 106.564 87.0614 106.619C87.1158 106.674 87.1464 106.749 87.1464 106.827V108C87.1464 108.077 87.1158 108.152 87.0614 108.207C87.007 108.262 86.9333 108.293 86.8564 108.293ZM86.8564 105.361C86.7795 105.361 86.7057 105.33 86.6513 105.275C86.597 105.22 86.5664 105.145 86.5664 105.067V103.895C86.5664 103.817 86.597 103.742 86.6513 103.687C86.7057 103.632 86.7795 103.601 86.8564 103.601C86.9333 103.601 87.007 103.632 87.0614 103.687C87.1158 103.742 87.1464 103.817 87.1464 103.895V105.067C87.1464 105.145 87.1158 105.22 87.0614 105.275C87.007 105.33 86.9333 105.361 86.8564 105.361ZM86.8564 102.428C86.7795 102.428 86.7057 102.397 86.6513 102.343C86.597 102.288 86.5664 102.213 86.5664 102.135V100.962C86.5664 100.885 86.597 100.81 86.6513 100.755C86.7057 100.7 86.7795 100.669 86.8564 100.669C86.9333 100.669 87.007 100.7 87.0614 100.755C87.1158 100.81 87.1464 100.885 87.1464 100.962V102.135C87.1464 102.213 87.1158 102.288 87.0614 102.343C87.007 102.397 86.9333 102.428 86.8564 102.428ZM86.8564 99.4961C86.7795 99.4961 86.7057 99.4653 86.6513 99.4103C86.597 99.3553 86.5664 99.2807 86.5664 99.2029V98.03C86.5664 97.9523 86.597 97.8777 86.6513 97.8227C86.7057 97.7677 86.7795 97.7368 86.8564 97.7368C86.9333 97.7368 87.007 97.7677 87.0614 97.8227C87.1158 97.8777 87.1464 97.9523 87.1464 98.03V99.2029C87.1464 99.2807 87.1158 99.3553 87.0614 99.4103C87.007 99.4653 86.9333 99.4961 86.8564 99.4961ZM86.8564 96.5639C86.7795 96.5639 86.7057 96.533 86.6513 96.478C86.597 96.423 86.5664 96.3485 86.5664 96.2707V95.0978C86.5664 95.02 86.597 94.9454 86.6513 94.8904C86.7057 94.8355 86.7795 94.8046 86.8564 94.8046C86.9333 94.8046 87.007 94.8355 87.0614 94.8904C87.1158 94.9454 87.1464 95.02 87.1464 95.0978V96.2707C87.1464 96.3485 87.1158 96.423 87.0614 96.478C87.007 96.533 86.9333 96.5639 86.8564 96.5639ZM86.8564 93.6317C86.7795 93.6317 86.7057 93.6008 86.6513 93.5458C86.597 93.4908 86.5664 93.4162 86.5664 93.3384V92.1655C86.5664 92.0878 86.597 92.0132 86.6513 91.9582C86.7057 91.9032 86.7795 91.8723 86.8564 91.8723C86.9333 91.8723 87.007 91.9032 87.0614 91.9582C87.1158 92.0132 87.1464 92.0878 87.1464 92.1655V93.3384C87.1464 93.4162 87.1158 93.4908 87.0614 93.5458C87.007 93.6008 86.9333 93.6317 86.8564 93.6317ZM86.8564 90.6994C86.7795 90.6994 86.7057 90.6685 86.6513 90.6135C86.597 90.5585 86.5664 90.484 86.5664 90.4062V89.2333C86.5664 89.1555 86.597 89.081 86.6513 89.026C86.7057 88.971 86.7795 88.9401 86.8564 88.9401C86.9333 88.9401 87.007 88.971 87.0614 89.026C87.1158 89.081 87.1464 89.1555 87.1464 89.2333V90.4062C87.1464 90.484 87.1158 90.5585 87.0614 90.6135C87.007 90.6685 86.9333 90.6994 86.8564 90.6994ZM86.8564 87.7672C86.7795 87.7672 86.7057 87.7363 86.6513 87.6813C86.597 87.6263 86.5664 87.5517 86.5664 87.474V86.3011C86.5664 86.2233 86.597 86.1487 86.6513 86.0937C86.7057 86.0387 86.7795 86.0078 86.8564 86.0078C86.9333 86.0078 87.007 86.0387 87.0614 86.0937C87.1158 86.1487 87.1464 86.2233 87.1464 86.3011V87.474C87.1464 87.5517 87.1158 87.6263 87.0614 87.6813C87.007 87.7363 86.9333 87.7672 86.8564 87.7672ZM86.8564 84.8349C86.7795 84.8349 86.7057 84.804 86.6513 84.749C86.597 84.6941 86.5664 84.6195 86.5664 84.5417V83.3688C86.5664 83.291 86.597 83.2165 86.6513 83.1615C86.7057 83.1065 86.7795 83.0756 86.8564 83.0756C86.9333 83.0756 87.007 83.1065 87.0614 83.1615C87.1158 83.2165 87.1464 83.291 87.1464 83.3688V84.5417C87.1464 84.6195 87.1158 84.6941 87.0614 84.749C87.007 84.804 86.9333 84.8349 86.8564 84.8349ZM86.8564 81.9027C86.7795 81.9027 86.7057 81.8718 86.6513 81.8168C86.597 81.7618 86.5664 81.6872 86.5664 81.6095V80.4366C86.5664 80.3588 86.597 80.2842 86.6513 80.2292C86.7057 80.1742 86.7795 80.1433 86.8564 80.1433C86.9333 80.1433 87.007 80.1742 87.0614 80.2292C87.1158 80.2842 87.1464 80.3588 87.1464 80.4366V81.6095C87.1464 81.6872 87.1158 81.7618 87.0614 81.8168C87.007 81.8718 86.9333 81.9027 86.8564 81.9027ZM86.8564 78.9704C86.7795 78.9704 86.7057 78.9396 86.6513 78.8846C86.597 78.8296 86.5664 78.755 86.5664 78.6772V77.5043C86.5664 77.4266 86.597 77.352 86.6513 77.297C86.7057 77.242 86.7795 77.2111 86.8564 77.2111C86.9333 77.2111 87.007 77.242 87.0614 77.297C87.1158 77.352 87.1464 77.4266 87.1464 77.5043V78.6772C87.1464 78.755 87.1158 78.8296 87.0614 78.8846C87.007 78.9396 86.9333 78.9704 86.8564 78.9704ZM86.8564 76.0382C86.7795 76.0382 86.7057 76.0073 86.6513 75.9523C86.597 75.8973 86.5664 75.8227 86.5664 75.745V74.5721C86.5664 74.4943 86.597 74.4197 86.6513 74.3647C86.7057 74.3098 86.7795 74.2789 86.8564 74.2789C86.9333 74.2789 87.007 74.3098 87.0614 74.3647C87.1158 74.4197 87.1464 74.4943 87.1464 74.5721V75.745C87.1464 75.8227 87.1158 75.8973 87.0614 75.9523C87.007 76.0073 86.9333 76.0382 86.8564 76.0382ZM86.8564 73.106C86.7795 73.106 86.7057 73.0751 86.6513 73.0201C86.597 72.9651 86.5664 72.8905 86.5664 72.8127V71.6398C86.5664 71.5621 86.597 71.4875 86.6513 71.4325C86.7057 71.3775 86.7795 71.3466 86.8564 71.3466C86.9333 71.3466 87.007 71.3775 87.0614 71.4325C87.1158 71.4875 87.1464 71.5621 87.1464 71.6398V72.8127C87.1464 72.8905 87.1158 72.9651 87.0614 73.0201C87.007 73.0751 86.9333 73.106 86.8564 73.106ZM86.8564 70.1737C86.7795 70.1737 86.7057 70.1428 86.6513 70.0878C86.597 70.0328 86.5664 69.9583 86.5664 69.8805V68.7076C86.5664 68.6298 86.597 68.5552 86.6513 68.5003C86.7057 68.4453 86.7795 68.4144 86.8564 68.4144C86.9333 68.4144 87.007 68.4453 87.0614 68.5003C87.1158 68.5552 87.1464 68.6298 87.1464 68.7076V69.8805C87.1464 69.9583 87.1158 70.0328 87.0614 70.0878C87.007 70.1428 86.9333 70.1737 86.8564 70.1737ZM86.8564 67.2415C86.7795 67.2415 86.7057 67.2106 86.6513 67.1556C86.597 67.1006 86.5664 67.026 86.5664 66.9483V65.7754C86.5664 65.6976 86.597 65.623 86.6513 65.568C86.7057 65.513 86.7795 65.4821 86.8564 65.4821C86.9333 65.4821 87.007 65.513 87.0614 65.568C87.1158 65.623 87.1464 65.6976 87.1464 65.7754V66.9483C87.1464 67.026 87.1158 67.1006 87.0614 67.1556C87.007 67.2106 86.9333 67.2415 86.8564 67.2415ZM86.8564 64.3092C86.7795 64.3092 86.7057 64.2783 86.6513 64.2233C86.597 64.1684 86.5664 64.0938 86.5664 64.016V62.8431C86.5664 62.7653 86.597 62.6908 86.6513 62.6358C86.7057 62.5808 86.7795 62.5499 86.8564 62.5499C86.9333 62.5499 87.007 62.5808 87.0614 62.6358C87.1158 62.6908 87.1464 62.7653 87.1464 62.8431V64.016C87.1464 64.0938 87.1158 64.1684 87.0614 64.2233C87.007 64.2783 86.9333 64.3092 86.8564 64.3092ZM86.8564 61.377C86.7795 61.377 86.7057 61.3461 86.6513 61.2911C86.597 61.2361 86.5664 61.1615 86.5664 61.0838V59.9109C86.5664 59.8331 86.597 59.7585 86.6513 59.7035C86.7057 59.6485 86.7795 59.6176 86.8564 59.6176C86.9333 59.6176 87.007 59.6485 87.0614 59.7035C87.1158 59.7585 87.1464 59.8331 87.1464 59.9109V61.0838C87.1464 61.1615 87.1158 61.2361 87.0614 61.2911C87.007 61.3461 86.9333 61.377 86.8564 61.377ZM86.8564 58.4447C86.7795 58.4447 86.7057 58.4139 86.6513 58.3589C86.597 58.3039 86.5664 58.2293 86.5664 58.1515V56.9786C86.5664 56.9009 86.597 56.8263 86.6513 56.7713C86.7057 56.7163 86.7795 56.6854 86.8564 56.6854C86.9333 56.6854 87.007 56.7163 87.0614 56.7713C87.1158 56.8263 87.1464 56.9009 87.1464 56.9786V58.1515C87.1464 58.2293 87.1158 58.3039 87.0614 58.3589C87.007 58.4139 86.9333 58.4447 86.8564 58.4447ZM86.8564 55.5125C86.7795 55.5125 86.7057 55.4816 86.6513 55.4266C86.597 55.3716 86.5664 55.297 86.5664 55.2193V54.0464C86.5664 53.9686 86.597 53.894 86.6513 53.839C86.7057 53.7841 86.7795 53.7532 86.8564 53.7532C86.9333 53.7532 87.007 53.7841 87.0614 53.839C87.1158 53.894 87.1464 53.9686 87.1464 54.0464V55.2193C87.1464 55.297 87.1158 55.3716 87.0614 55.4266C87.007 55.4816 86.9333 55.5125 86.8564 55.5125ZM86.8564 52.5803C86.7795 52.5803 86.7057 52.5494 86.6513 52.4944C86.597 52.4394 86.5664 52.3648 86.5664 52.287V51.1141C86.5664 51.0364 86.597 50.9618 86.6513 50.9068C86.7057 50.8518 86.7795 50.8209 86.8564 50.8209C86.9333 50.8209 87.007 50.8518 87.0614 50.9068C87.1158 50.9618 87.1464 51.0364 87.1464 51.1141V52.287C87.1464 52.3648 87.1158 52.4394 87.0614 52.4944C87.007 52.5494 86.9333 52.5803 86.8564 52.5803ZM86.8564 49.648C86.7795 49.648 86.7057 49.6171 86.6513 49.5621C86.597 49.5071 86.5664 49.4326 86.5664 49.3548V48.1819C86.5664 48.1041 86.597 48.0295 86.6513 47.9746C86.7057 47.9196 86.7795 47.8887 86.8564 47.8887C86.9333 47.8887 87.007 47.9196 87.0614 47.9746C87.1158 48.0295 87.1464 48.1041 87.1464 48.1819V49.3548C87.1464 49.4326 87.1158 49.5071 87.0614 49.5621C87.007 49.6171 86.9333 49.648 86.8564 49.648Z" fill="#25054D"/>
</g>
</g>
<g style="mix-blend-mode:screen">
<g style="mix-blend-mode:screen">
<path d="M118.656 89.4376C118.579 89.4376 118.506 89.4067 118.451 89.3517C118.397 89.2967 118.366 89.2221 118.366 89.1444V87.9715C118.366 87.8937 118.397 87.8191 118.451 87.7641C118.506 87.7091 118.579 87.6782 118.656 87.6782C118.733 87.6797 118.806 87.7111 118.86 87.7658C118.914 87.8204 118.945 87.8942 118.946 87.9715V89.1444C118.946 89.2221 118.916 89.2967 118.861 89.3517C118.807 89.4067 118.733 89.4376 118.656 89.4376ZM118.656 86.5053C118.579 86.5053 118.506 86.4744 118.451 86.4194C118.397 86.3645 118.366 86.2899 118.366 86.2121V85.0392C118.366 84.9614 118.397 84.8869 118.451 84.8319C118.506 84.7769 118.579 84.746 118.656 84.746C118.733 84.7475 118.806 84.7789 118.86 84.8335C118.914 84.8882 118.945 84.9619 118.946 85.0392V86.2121C118.946 86.2899 118.916 86.3645 118.861 86.4194C118.807 86.4744 118.733 86.5053 118.656 86.5053ZM118.656 83.5731C118.579 83.5731 118.506 83.5422 118.451 83.4872C118.397 83.4322 118.366 83.3576 118.366 83.2799V82.107C118.366 82.0292 118.397 81.9546 118.451 81.8996C118.506 81.8446 118.579 81.8137 118.656 81.8137C118.733 81.8152 118.806 81.8466 118.86 81.9013C118.914 81.956 118.945 82.0297 118.946 82.107V83.2799C118.946 83.3576 118.916 83.4322 118.861 83.4872C118.807 83.5422 118.733 83.5731 118.656 83.5731ZM118.656 80.6408C118.579 80.6408 118.506 80.61 118.451 80.555C118.397 80.5 118.366 80.4254 118.366 80.3476V79.1747C118.366 79.097 118.397 79.0224 118.451 78.9674C118.506 78.9124 118.579 78.8815 118.656 78.8815C118.733 78.883 118.806 78.9144 118.86 78.969C118.914 79.0237 118.945 79.0974 118.946 79.1747V80.3476C118.946 80.4254 118.916 80.5 118.861 80.555C118.807 80.61 118.733 80.6408 118.656 80.6408ZM118.656 77.7086C118.579 77.7086 118.506 77.6777 118.451 77.6227C118.397 77.5677 118.366 77.4931 118.366 77.4154V76.2425C118.366 76.1647 118.397 76.0901 118.451 76.0351C118.506 75.9801 118.579 75.9493 118.656 75.9493C118.733 75.9508 118.806 75.9821 118.86 76.0368C118.914 76.0915 118.945 76.1652 118.946 76.2425V77.4154C118.946 77.4931 118.916 77.5677 118.861 77.6227C118.807 77.6777 118.733 77.7086 118.656 77.7086ZM118.656 74.7764C118.579 74.7764 118.506 74.7455 118.451 74.6905C118.397 74.6355 118.366 74.5609 118.366 74.4831V73.3102C118.366 73.2325 118.397 73.1579 118.451 73.1029C118.506 73.0479 118.579 73.017 118.656 73.017C118.733 73.0185 118.806 73.0499 118.86 73.1046C118.914 73.1592 118.945 73.2329 118.946 73.3102V74.4831C118.946 74.5609 118.916 74.6355 118.861 74.6905C118.807 74.7455 118.733 74.7764 118.656 74.7764ZM118.656 71.8441C118.579 71.8441 118.506 71.8132 118.451 71.7582C118.397 71.7032 118.366 71.6287 118.366 71.5509V70.378C118.366 70.3002 118.397 70.2256 118.451 70.1707C118.506 70.1157 118.579 70.0848 118.656 70.0848C118.733 70.0863 118.806 70.1176 118.86 70.1723C118.914 70.227 118.945 70.3007 118.946 70.378V71.5509C118.946 71.6287 118.916 71.7032 118.861 71.7582C118.807 71.8132 118.733 71.8441 118.656 71.8441ZM118.656 68.9119C118.579 68.9119 118.506 68.881 118.451 68.826C118.397 68.771 118.366 68.6964 118.366 68.6186V67.4458C118.366 67.368 118.397 67.2934 118.451 67.2384C118.506 67.1834 118.579 67.1525 118.656 67.1525C118.733 67.154 118.806 67.1854 118.86 67.2401C118.914 67.2947 118.945 67.3685 118.946 67.4458V68.6186C118.946 68.6964 118.916 68.771 118.861 68.826C118.807 68.881 118.733 68.9119 118.656 68.9119ZM118.656 65.9796C118.579 65.9796 118.506 65.9487 118.451 65.8937C118.397 65.8388 118.366 65.7642 118.366 65.6864V64.5135C118.366 64.4357 118.397 64.3612 118.451 64.3062C118.506 64.2512 118.579 64.2203 118.656 64.2203C118.733 64.2218 118.806 64.2532 118.86 64.3078C118.914 64.3625 118.945 64.4362 118.946 64.5135V65.6864C118.946 65.7642 118.916 65.8388 118.861 65.8937C118.807 65.9487 118.733 65.9796 118.656 65.9796ZM118.656 63.0474C118.579 63.0474 118.506 63.0165 118.451 62.9615C118.397 62.9065 118.366 62.8319 118.366 62.7542C118.366 62.6764 118.397 62.6018 118.451 62.5468C118.506 62.4918 118.579 62.4609 118.656 62.4609C118.733 62.4609 118.807 62.4918 118.861 62.5468C118.916 62.6018 118.946 62.6764 118.946 62.7542C118.945 62.8315 118.914 62.9052 118.86 62.9598C118.806 63.0145 118.733 63.0459 118.656 63.0474Z" fill="#25054D"/>
</g>
</g>
<g style="mix-blend-mode:screen">
<g style="mix-blend-mode:screen">
<path d="M25.0484 150.141C25.0692 150.794 24.9587 151.445 24.7236 152.053C24.5293 152.534 24.1825 152.937 23.7377 153.197C23.3163 153.443 22.9915 153.443 22.7634 153.197C22.4927 152.743 22.3766 152.211 22.4328 151.684C22.4104 151.025 22.5209 150.369 22.7576 149.754C22.9548 149.271 23.3059 148.869 23.7551 148.611C24.1843 148.359 24.5091 148.364 24.7294 148.611C24.9994 149.072 25.1116 149.61 25.0484 150.141V150.141ZM23.0591 151.314C23.0297 151.726 23.085 152.139 23.2215 152.528C23.3317 152.722 23.4999 152.751 23.7377 152.616C23.9914 152.455 24.1773 152.204 24.2597 151.912C24.3847 151.46 24.4395 150.992 24.4221 150.523C24.4496 150.124 24.3943 149.725 24.2597 149.35C24.1495 149.144 23.9755 149.115 23.7377 149.25C23.4858 149.41 23.3017 149.658 23.2215 149.948C23.1088 150.388 23.06 150.842 23.0765 151.297L23.0591 151.314Z" fill="#25054D"/>
</g>
<g style="mix-blend-mode:screen">
<path d="M39.983 143.662L39.3682 144.02V141.14C39.3682 140.794 39.3682 140.519 39.3682 140.308C39.3276 140.384 39.2754 140.466 39.2174 140.56L38.6375 141.463L38.3301 141.193L39.49 139.498L40.0004 139.199L39.983 143.662Z" fill="#25054D"/>
</g>
<g style="mix-blend-mode:screen">
<path d="M43.984 139.092C44.0059 139.747 43.8974 140.399 43.6651 141.01C43.4697 141.489 43.123 141.889 42.6791 142.148C42.2499 142.402 41.9251 142.402 41.7048 142.148C41.4341 141.693 41.318 141.162 41.3742 140.635C41.3525 139.976 41.4629 139.32 41.699 138.705C41.8939 138.229 42.2384 137.832 42.6791 137.573C43.1083 137.319 43.4331 137.319 43.6535 137.573C43.9238 138.03 44.0398 138.563 43.984 139.092V139.092ZM42.0005 140.265C41.9684 140.675 42.0238 141.087 42.1629 141.473C42.2673 141.667 42.4413 141.696 42.6791 141.561C42.9334 141.404 43.1182 141.154 43.1953 140.863C43.3231 140.41 43.3798 139.939 43.3635 139.468C43.3893 139.069 43.332 138.669 43.1953 138.295C43.0909 138.089 42.9169 138.06 42.6791 138.195C42.4268 138.354 42.2426 138.603 42.1629 138.893C42.0414 139.336 41.9866 139.794 42.0005 140.253V140.265Z" fill="#25054D"/>
</g>
<g style="mix-blend-mode:screen">
<path d="M56.2222 134.178L53.6182 135.703V135.158L54.6099 133.398C54.8999 132.882 55.0971 132.519 55.1899 132.319C55.2775 132.149 55.3475 131.97 55.3987 131.785C55.4421 131.639 55.4636 131.487 55.4625 131.334C55.4625 131.135 55.4103 131.006 55.3059 130.953C55.2336 130.929 55.1567 130.923 55.0819 130.937C55.0071 130.95 54.9366 130.982 54.8767 131.029C54.7193 131.125 54.575 131.241 54.4475 131.375C54.2723 131.569 54.1132 131.776 53.9719 131.997L53.6356 131.721C53.8163 131.428 54.0262 131.155 54.2619 130.906C54.4545 130.711 54.6708 130.541 54.9057 130.401C55.0255 130.307 55.1654 130.242 55.3144 130.211C55.4633 130.181 55.6173 130.186 55.7641 130.226C55.9787 130.313 56.0888 130.542 56.0888 130.912C56.0881 131.124 56.0568 131.336 55.996 131.539C55.9206 131.79 55.8235 132.033 55.7061 132.266C55.5785 132.53 55.3639 132.917 55.0623 133.439L54.3953 134.577L56.2222 133.515V134.178Z" fill="#25054D"/>
</g>
<g style="mix-blend-mode:screen">
<path d="M59.429 130.079C59.4515 130.731 59.343 131.382 59.11 131.99C58.9146 132.469 58.568 132.869 58.1241 133.128C57.6949 133.38 57.3701 133.374 57.1497 133.128C56.8799 132.674 56.7638 132.142 56.8191 131.615C56.7981 130.957 56.9065 130.301 57.1381 129.686C57.3368 129.209 57.6827 128.81 58.1241 128.548C58.5533 128.302 58.878 128.302 59.0984 128.548C59.37 129.008 59.4861 129.546 59.429 130.079V130.079ZM57.4455 131.252C57.4123 131.661 57.4677 132.074 57.6079 132.46C57.7123 132.659 57.8863 132.688 58.1241 132.548C58.3784 132.391 58.5632 132.141 58.6402 131.85C58.7676 131.398 58.8244 130.929 58.8084 130.46C58.8392 130.052 58.7818 129.641 58.6402 129.258C58.5359 129.052 58.3619 129.017 58.1241 129.158C57.8698 129.315 57.6849 129.565 57.6079 129.856C57.4836 130.304 57.4288 130.769 57.4455 131.234V131.252Z" fill="#25054D"/>
</g>
<g style="mix-blend-mode:screen">
<path d="M71.6544 121.735C71.6521 122.025 71.5805 122.311 71.4456 122.567C71.3003 122.845 71.1034 123.092 70.8657 123.295C70.9692 123.231 71.0854 123.192 71.2058 123.18C71.3262 123.168 71.4478 123.183 71.5616 123.224C71.6516 123.289 71.7213 123.379 71.7624 123.483C71.8035 123.587 71.8143 123.701 71.7936 123.811C71.7902 124.249 71.6524 124.675 71.3993 125.03C71.1077 125.445 70.727 125.788 70.2857 126.033C69.961 126.246 69.5915 126.378 69.207 126.42V125.781C69.3743 125.79 69.5421 125.776 69.7057 125.74C69.8889 125.682 70.0657 125.605 70.2335 125.511C70.4958 125.368 70.7236 125.168 70.9005 124.925C71.0506 124.716 71.128 124.462 71.1209 124.204C71.1209 123.963 71.0397 123.834 70.8773 123.822C70.6012 123.842 70.3361 123.94 70.1117 124.104L69.7753 124.297V123.711L70.1175 123.517C70.3707 123.409 70.5899 123.232 70.7513 123.007C70.9128 122.782 71.0104 122.516 71.0339 122.239C71.0339 122.051 70.9817 121.934 70.8773 121.893C70.7943 121.876 70.7088 121.878 70.6267 121.898C70.5445 121.919 70.4677 121.957 70.4017 122.01C70.2524 122.101 70.1125 122.208 69.9841 122.327C69.8084 122.509 69.6474 122.705 69.5027 122.913L69.2012 122.591C69.5202 122.113 69.9401 121.712 70.4307 121.418C70.6908 121.224 71.0146 121.138 71.3355 121.177C71.55 121.195 71.6544 121.394 71.6544 121.735Z" fill="#25054D"/>
</g>
<g style="mix-blend-mode:screen">
<path d="M75.0065 120.983C75.029 121.636 74.9205 122.286 74.6875 122.895C74.4932 123.376 74.1464 123.778 73.7016 124.039C73.2724 124.285 72.9476 124.285 72.7272 124.039C72.4566 123.584 72.3404 123.053 72.3966 122.526C72.3743 121.867 72.4848 121.21 72.7214 120.596C72.9164 120.12 73.2608 119.723 73.7016 119.464C74.1307 119.212 74.4555 119.218 74.6759 119.464C74.9451 119.921 75.061 120.454 75.0065 120.983V120.983ZM73.023 122.156C72.9898 122.566 73.0452 122.978 73.1854 123.364C73.2956 123.564 73.4638 123.593 73.7016 123.458C73.9553 123.296 74.1412 123.046 74.2235 122.754C74.3486 122.302 74.4034 121.833 74.3859 121.364C74.4134 120.966 74.3581 120.567 74.2235 120.191C74.1133 119.986 73.9394 119.957 73.7016 120.092C73.4496 120.251 73.2656 120.5 73.1854 120.79C73.0644 121.228 73.0096 121.683 73.023 122.138V122.156Z" fill="#25054D"/>
</g>
<g style="mix-blend-mode:screen">
<path d="M87.5177 114.938L87.0015 115.243V116.211L86.4216 116.563V115.595L84.6816 116.616V116.064L86.4216 112.094L87.0015 111.742V114.674L87.5177 114.375V114.938ZM86.3983 114.997V113.877C86.3983 113.478 86.3983 113.15 86.3983 112.886C86.3461 113.044 86.2708 113.255 86.1664 113.507L85.2094 115.677L86.3983 114.997Z" fill="#25054D"/>
</g>
<g style="mix-blend-mode:screen">
<path d="M90.5849 111.888C90.6057 112.541 90.4952 113.192 90.2601 113.8C90.0712 114.292 89.7239 114.705 89.2741 114.973C88.8507 115.219 88.526 115.213 88.3056 114.973C88.0325 114.519 87.9143 113.988 87.9692 113.46C87.9475 112.801 88.0579 112.145 88.294 111.53C88.4889 111.055 88.8334 110.657 89.2741 110.399C89.7033 110.148 90.0281 110.148 90.2485 110.399C90.5178 110.845 90.6359 111.368 90.5849 111.888ZM88.5956 113.061C88.5661 113.473 88.6214 113.886 88.7579 114.275C88.8681 114.469 89.0363 114.498 89.2741 114.363C89.5279 114.201 89.7137 113.951 89.7961 113.659C89.9211 113.207 89.9759 112.738 89.9585 112.269C89.9896 111.862 89.9342 111.452 89.7961 111.067C89.6859 110.862 89.5119 110.833 89.2741 110.967C89.0222 111.127 88.8381 111.376 88.7579 111.665C88.6385 112.114 88.5857 112.579 88.6014 113.043L88.5956 113.061Z" fill="#25054D"/>
</g>
<g style="mix-blend-mode:screen">
<path d="M101.657 104.867C101.785 104.765 101.936 104.696 102.097 104.666C102.257 104.635 102.423 104.644 102.579 104.691C102.805 104.797 102.915 105.055 102.915 105.465C102.916 105.939 102.783 106.403 102.533 106.802C102.26 107.238 101.883 107.597 101.436 107.846C101.139 108.055 100.789 108.175 100.427 108.192V107.559C100.592 107.561 100.757 107.538 100.914 107.489C101.092 107.432 101.263 107.358 101.425 107.266C101.681 107.126 101.9 106.924 102.063 106.679C102.208 106.452 102.285 106.187 102.283 105.917C102.283 105.389 101.987 105.289 101.402 105.635C101.297 105.698 101.196 105.766 101.1 105.841C100.978 105.929 100.874 106.011 100.781 106.093L100.503 106.064L100.653 103.8L102.649 102.627V103.266L101.193 104.111L101.112 105.284C101.17 105.231 101.245 105.172 101.332 105.108C101.436 105.021 101.544 104.941 101.657 104.867V104.867Z" fill="#25054D"/>
</g>
<g style="mix-blend-mode:screen">
<path d="M106.169 102.792C106.189 103.444 106.079 104.095 105.844 104.703C105.656 105.194 105.311 105.608 104.864 105.876C104.434 106.123 104.11 106.123 103.889 105.876C103.619 105.422 103.503 104.891 103.559 104.363C103.535 103.705 103.644 103.049 103.878 102.434C104.074 101.957 104.421 101.559 104.864 101.302C105.293 101.048 105.618 101.048 105.838 101.302C106.102 101.75 106.218 102.272 106.169 102.792V102.792ZM104.185 103.964C104.153 104.374 104.208 104.786 104.348 105.172C104.452 105.366 104.626 105.395 104.864 105.26C105.114 105.097 105.297 104.847 105.38 104.557C105.505 104.105 105.56 103.636 105.542 103.167C105.573 102.759 105.518 102.349 105.38 101.965C105.27 101.759 105.096 101.73 104.864 101.865C104.609 102.022 104.425 102.272 104.348 102.563C104.223 103.015 104.168 103.484 104.185 103.953V103.964Z" fill="#25054D"/>
</g>
<g style="mix-blend-mode:screen">
<path d="M115.941 97.4136C115.941 95.6542 116.556 94.4403 117.78 93.7248C117.935 93.6278 118.1 93.5491 118.273 93.4902V94.0767C118.109 94.12 117.953 94.1872 117.809 94.2761C117.421 94.492 117.099 94.8128 116.881 95.2027C116.658 95.6457 116.542 96.1363 116.545 96.6336H116.574C116.655 96.4194 116.773 96.221 116.922 96.0471C117.071 95.8712 117.25 95.7224 117.449 95.6073C117.797 95.4021 118.07 95.3669 118.261 95.5018C118.374 95.6068 118.46 95.738 118.512 95.8841C118.563 96.0302 118.579 96.1868 118.557 96.3404C118.559 96.7991 118.441 97.2502 118.215 97.6481C117.998 98.0415 117.679 98.3679 117.293 98.5923C117.084 98.7363 116.831 98.8026 116.579 98.78C116.474 98.7593 116.376 98.7118 116.293 98.6421C116.211 98.5723 116.148 98.4825 116.11 98.3812C115.983 98.0752 115.926 97.7447 115.941 97.4136V97.4136ZM117.287 98C117.495 97.8764 117.664 97.6953 117.774 97.4781C117.893 97.2361 117.953 96.9685 117.948 96.6981C117.963 96.6061 117.956 96.5119 117.928 96.4231C117.9 96.3344 117.851 96.2538 117.786 96.1879C117.676 96.0999 117.519 96.1234 117.299 96.2465C117.161 96.3321 117.038 96.439 116.933 96.5632C116.824 96.6922 116.734 96.8364 116.666 96.9913C116.607 97.1202 116.573 97.2597 116.568 97.4018C116.559 97.5085 116.573 97.6159 116.608 97.7169C116.642 97.818 116.698 97.9104 116.771 97.9883C116.841 98.0429 116.927 98.0735 117.015 98.0756C117.104 98.0777 117.191 98.0512 117.264 98H117.287Z" fill="#25054D"/>
</g>
<g style="mix-blend-mode:screen">
<path d="M121.747 93.6958C121.769 94.3502 121.66 95.0023 121.428 95.6135C121.232 96.0924 120.886 96.4925 120.442 96.7512C120.013 97.0053 119.688 97.0053 119.467 96.7512C119.197 96.2969 119.081 95.7655 119.137 95.2382C119.112 94.5793 119.223 93.9223 119.462 93.3088C119.657 92.8329 120.001 92.4352 120.442 92.1769C120.871 91.9228 121.196 91.9228 121.416 92.1769C121.686 92.6335 121.803 93.1667 121.747 93.6958V93.6958ZM119.763 94.8687C119.731 95.2785 119.786 95.6905 119.926 96.0768C120.03 96.2703 120.204 96.2996 120.442 96.1648C120.694 96.0052 120.878 95.7563 120.958 95.4669C121.085 95.0133 121.142 94.5424 121.126 94.0711C121.152 93.6726 121.095 93.273 120.958 92.8982C120.848 92.693 120.68 92.6637 120.442 92.7986C120.189 92.9577 120.005 93.2067 119.926 93.4964C119.804 93.939 119.749 94.3978 119.763 94.857V94.8687Z" fill="#25054D"/>
</g>
</g>
<g style="mix-blend-mode:color-dodge">
<path style="mix-blend-mode:color-dodge" d="M94.813 50.1574C94.1054 48.7909 93.479 47.6063 92.8643 46.6387C93.4094 47.5477 93.972 48.615 94.6042 49.8172C95.3465 51.254 96.1237 52.7495 97.0053 54.1452C96.2049 52.8433 95.4915 51.471 94.813 50.1574Z" fill="url(#paint8_radial_1294_2766)"/>
</g>
<path d="M171.875 117.99V73.043L164.323 72.8312L152.114 76.642L139.068 70.9082L126.333 84.8576L113.706 106.934L101.066 117.779L81.7363 146.007V170.295C81.7363 171.083 81.9757 171.877 82.5203 171.877C82.7607 171.861 82.9933 171.786 83.1966 171.659L169.374 122.783C170.72 122.036 171.875 119.825 171.875 117.99Z" fill="url(#paint9_linear_1294_2766)"/>
<path d="M171.781 120.889V76.0663L164.468 75.8552L152.642 79.6554L139.999 73.9375L127.663 87.8481L115.42 109.857L103.182 120.672L84.4551 148.821V173.071C84.4551 173.857 84.6871 174.648 85.209 174.648C85.4438 174.633 85.6711 174.558 85.8702 174.431L169.357 125.692C170.656 124.917 171.781 122.718 171.781 120.889Z" fill="url(#paint10_linear_1294_2766)"/>
<defs>
<linearGradient id="paint0_linear_1294_2766" x1="114.272" y1="161.664" x2="30.8721" y2="161.664" gradientUnits="userSpaceOnUse">
<stop offset="0.06" stop-color="#200041"/>
<stop offset="0.26" stop-color="#210243"/>
<stop offset="0.36" stop-color="#25084B"/>
<stop offset="0.43" stop-color="#2C1358"/>
<stop offset="0.47" stop-color="#311B61"/>
<stop offset="0.48" stop-color="#351F65"/>
<stop offset="0.5" stop-color="#422C73"/>
<stop offset="0.51" stop-color="#584188"/>
<stop offset="0.52" stop-color="#765FA7"/>
<stop offset="0.53" stop-color="#8770B8"/>
<stop offset="0.54" stop-color="#7E67AE"/>
<stop offset="0.56" stop-color="#5C468D"/>
<stop offset="0.59" stop-color="#442E75"/>
<stop offset="0.61" stop-color="#362066"/>
<stop offset="0.63" stop-color="#311B61"/>
<stop offset="0.67" stop-color="#2A1155"/>
<stop offset="0.75" stop-color="#230446"/>
<stop offset="0.81" stop-color="#200041"/>
<stop offset="1" stop-color="#200041"/>
</linearGradient>
<linearGradient id="paint1_linear_1294_2766" x1="114.271" y1="148.804" x2="30.8716" y2="148.804" gradientUnits="userSpaceOnUse">
<stop offset="0.06" stop-color="#200041"/>
<stop offset="0.26" stop-color="#210243"/>
<stop offset="0.36" stop-color="#25084B"/>
<stop offset="0.43" stop-color="#2C1358"/>
<stop offset="0.47" stop-color="#311B61"/>
<stop offset="0.48" stop-color="#351F65"/>
<stop offset="0.5" stop-color="#422C73"/>
<stop offset="0.51" stop-color="#584188"/>
<stop offset="0.52" stop-color="#765FA7"/>
<stop offset="0.53" stop-color="#8770B8"/>
<stop offset="0.54" stop-color="#7E67AE"/>
<stop offset="0.56" stop-color="#5C468D"/>
<stop offset="0.59" stop-color="#442E75"/>
<stop offset="0.61" stop-color="#362066"/>
<stop offset="0.63" stop-color="#311B61"/>
<stop offset="0.67" stop-color="#2A1155"/>
<stop offset="0.75" stop-color="#230446"/>
<stop offset="0.81" stop-color="#200041"/>
<stop offset="1" stop-color="#200041"/>
</linearGradient>
<linearGradient id="paint2_linear_1294_2766" x1="91.9541" y1="154.229" x2="53.956" y2="133.44" gradientUnits="userSpaceOnUse">
<stop stop-color="white"/>
<stop offset="1" stop-color="white"/>
</linearGradient>
<linearGradient id="paint3_linear_1294_2766" x1="71.9047" y1="144.23" x2="64.3588" y2="131.719" gradientUnits="userSpaceOnUse">
<stop stop-color="white"/>
<stop offset="1"/>
</linearGradient>
<radialGradient id="paint4_radial_1294_2766" cx="0" cy="0" r="1" gradientUnits="userSpaceOnUse" gradientTransform="translate(71.6549 161.325) rotate(180) scale(29.6713 30.0027)">
<stop stop-color="#AF8AFC"/>
<stop offset="1" stop-color="#10054D"/>
</radialGradient>
<linearGradient id="paint5_linear_1294_2766" x1="10.7065" y1="169.078" x2="140.198" y2="-8.13024" gradientUnits="userSpaceOnUse">
<stop stop-color="#311B61"/>
<stop offset="0.2" stop-color="#290F52"/>
<stop offset="0.49" stop-color="#200041"/>
<stop offset="1" stop-color="#0F001F"/>
</linearGradient>
<linearGradient id="paint6_linear_1294_2766" x1="-16.4134" y1="172.96" x2="85.6546" y2="11.6745" gradientUnits="userSpaceOnUse">
<stop offset="0.06" stop-color="#200041"/>
<stop offset="0.26" stop-color="#210243"/>
<stop offset="0.36" stop-color="#25084B"/>
<stop offset="0.43" stop-color="#2C1358"/>
<stop offset="0.47" stop-color="#311B61"/>
<stop offset="0.48" stop-color="#351F65"/>
<stop offset="0.5" stop-color="#422C73"/>
<stop offset="0.51" stop-color="#584188"/>
<stop offset="0.52" stop-color="#765FA7"/>
<stop offset="0.53" stop-color="#8770B8"/>
<stop offset="0.54" stop-color="#7E67AE"/>
<stop offset="0.56" stop-color="#5C468D"/>
<stop offset="0.59" stop-color="#442E75"/>
<stop offset="0.61" stop-color="#362066"/>
<stop offset="0.63" stop-color="#311B61"/>
<stop offset="0.67" stop-color="#2A1155"/>
<stop offset="0.75" stop-color="#230446"/>
<stop offset="0.81" stop-color="#200041"/>
<stop offset="1" stop-color="#200041"/>
</linearGradient>
<radialGradient id="paint7_radial_1294_2766" cx="0" cy="0" r="1" gradientUnits="userSpaceOnUse" gradientTransform="translate(12.086 80.5289) rotate(180) scale(17.0975 17.2885)">
<stop stop-color="white"/>
<stop offset="1" stop-color="#10054D"/>
</radialGradient>
<radialGradient id="paint8_radial_1294_2766" cx="0" cy="0" r="1" gradientUnits="userSpaceOnUse" gradientTransform="translate(94.929 50.3802) scale(3.00426 3.0378)">
<stop stop-color="white"/>
<stop offset="1"/>
</radialGradient>
<linearGradient id="paint9_linear_1294_2766" x1="152" y1="57.4993" x2="78.5" y2="162.999" gradientUnits="userSpaceOnUse">
<stop stop-color="#D7D7D7"/>
<stop offset="1" stop-color="white"/>
</linearGradient>
<linearGradient id="paint10_linear_1294_2766" x1="122.222" y1="40.4623" x2="151.516" y2="163.803" gradientUnits="userSpaceOnUse">
<stop offset="0.28125" stop-color="#0A216A"/>
<stop offset="0.890625" stop-color="#0A216A"/>
</linearGradient>
</defs>
</svg>
