<svg width="13" height="14" viewBox="0 0 13 14" fill="none" xmlns="http://www.w3.org/2000/svg">
<path fill-rule="evenodd" clip-rule="evenodd" d="M6.5 0C6.74623 0 6.98237 0.0921771 7.15648 0.256253C7.33059 0.420329 7.4284 0.642864 7.4284 0.874902V11.0115L11.4131 7.25469C11.4994 7.17334 11.6019 7.10882 11.7147 7.06479C11.8275 7.02077 11.9484 6.99811 12.0704 6.99811C12.1925 6.99811 12.3134 7.02077 12.4262 7.06479C12.5389 7.10882 12.6414 7.17334 12.7277 7.25469C12.8141 7.33603 12.8825 7.4326 12.9292 7.53889C12.976 7.64517 13 7.75908 13 7.87412C13 7.98916 12.976 8.10307 12.9292 8.20935C12.8825 8.31564 12.8141 8.41221 12.7277 8.49355L7.15731 13.743C7.07107 13.8244 6.96862 13.8891 6.85583 13.9332C6.74303 13.9773 6.62212 14 6.5 14C6.37788 14 6.25697 13.9773 6.14417 13.9332C6.03138 13.8891 5.92893 13.8244 5.84269 13.743L0.272267 8.49355C0.185948 8.41221 0.117475 8.31564 0.0707599 8.20935C0.0240443 8.10307 0 7.98916 0 7.87412C0 7.75908 0.0240443 7.64517 0.0707599 7.53889C0.117475 7.4326 0.185948 7.33603 0.272267 7.25469C0.446596 7.09041 0.683038 6.99811 0.929577 6.99811C1.05165 6.99811 1.17253 7.02077 1.28531 7.06479C1.39809 7.10882 1.50057 7.17334 1.58689 7.25469L5.5716 11.0115V0.874902C5.5716 0.642864 5.66941 0.420329 5.84352 0.256253C6.01763 0.0921771 6.25377 0 6.5 0V0Z" fill="#FF2853"/>
</svg>
