<svg width="12" height="7" viewBox="0 0 12 7" fill="none" xmlns="http://www.w3.org/2000/svg">
<path d="M11.3825 0.256188C11.2184 0.0921511 10.9959 0 10.7639 0C10.5318 0 10.3093 0.0921511 10.1452 0.256188L5.81399 4.58744L1.48274 0.256188C1.31771 0.0968 1.09668 0.00860451 0.867261 0.0105981C0.637838 0.0125917 0.418378 0.104615 0.256145 0.266847C0.0939131 0.429079 0.00189209 0.64854 -0.000102043 0.877962C-0.00209522 1.10738 0.0860996 1.32841 0.245488 1.49344L5.19536 6.44331C5.35945 6.60735 5.58197 6.6995 5.81399 6.6995C6.046 6.6995 6.26852 6.60735 6.43261 6.44331L11.3825 1.49344C11.5465 1.32935 11.6387 1.10683 11.6387 0.874813C11.6387 0.642794 11.5465 0.420275 11.3825 0.256188Z" fill="#000F3C"/>
</svg>
