<svg width="88" height="88" viewBox="0 0 88 88" fill="none" xmlns="http://www.w3.org/2000/svg">
<circle cx="44" cy="44" r="44" fill="#E7EDFF"/>
<path d="M58.3347 25.0848H46.8663L49.0166 22.9345C49.5648 22.3863 49.5648 21.4974 49.0166 20.9492C48.4684 20.401 47.5792 20.401 47.0311 20.9492L43.4765 24.5035L40.0627 21.0894C39.5148 20.5415 38.6256 20.5412 38.0775 21.0894C37.5293 21.6376 37.5293 22.5268 38.0775 23.075L40.0873 25.0848H28.7594C27.984 25.0848 27.3555 25.7137 27.3555 26.489V55.4255C27.3555 56.2008 27.984 56.8294 28.7594 56.8294H35.0774L28.923 64.9344C28.4538 65.5521 28.5743 66.4324 29.192 66.9013C29.4457 67.0945 29.7436 67.1875 30.0397 67.1875C30.4637 67.1875 30.8828 66.996 31.1589 66.6324L33.628 63.3809H53.6661L56.3068 66.8581C56.5829 67.2218 57.0017 67.4132 57.426 67.4132C57.7216 67.4132 58.02 67.3196 58.2738 67.1274C58.8915 66.6582 59.0119 65.7775 58.5427 65.1601L52.217 56.8294H58.3347C59.11 56.8294 59.7383 56.2008 59.7383 55.4255V26.489C59.7383 25.7137 59.11 25.0848 58.3347 25.0848ZM51.534 60.573H35.76L38.6027 56.8291H48.6916L51.534 60.573ZM56.9305 54.0216H30.1633V27.8929H56.9305V54.0216Z" fill="#000F3B"/>
<path d="M37.4793 39.0965C37.0387 38.8459 36.4971 38.8522 36.0622 39.1134L32.9466 40.9851C32.2822 41.3845 32.0671 42.2468 32.4662 42.9117C32.7294 43.35 33.1943 43.5929 33.6712 43.5929C33.9173 43.5929 34.1665 43.5279 34.3925 43.392L36.8046 41.9429L39.3824 43.4092C39.8777 43.6904 40.4939 43.6452 40.9426 43.2936L44.6951 40.353L48.2199 43.1077C48.5495 43.3654 48.9772 43.4624 49.386 43.3726C49.7949 43.2825 50.1422 43.0147 50.3333 42.6424L54.3516 34.8127C54.7058 34.1229 54.4332 33.2769 53.7437 32.9227C53.0542 32.5688 52.2079 32.8411 51.8537 33.5306L48.6107 39.8495L45.5583 37.4643C45.0499 37.0672 44.336 37.0677 43.8282 37.4657L39.9521 40.503L37.4793 39.0965Z" fill="#000F3B"/>
<path d="M35.9584 46.3389H33.6695C32.8942 46.3389 32.2656 46.9671 32.2656 47.7425C32.2656 48.5178 32.8942 49.1464 33.6695 49.1464H35.9584C36.7331 49.1464 37.362 48.5178 37.362 47.7425C37.362 46.9671 36.7331 46.3389 35.9584 46.3389Z" fill="#000F3B"/>
<path d="M53.4248 46.3389H40.7161C39.9414 46.3389 39.3125 46.9671 39.3125 47.7425C39.3125 48.5178 39.9414 49.1464 40.7161 49.1464H53.4248C54.2001 49.1464 54.829 48.5178 54.829 47.7425C54.829 46.9671 54.2001 46.3389 53.4248 46.3389Z" fill="#000F3B"/>
</svg>
