<svg width="19" height="19" viewBox="0 0 19 19" fill="none" xmlns="http://www.w3.org/2000/svg">
<path fill-rule="evenodd" clip-rule="evenodd" d="M7.84401 2.94405C8.57076 1.65205 10.4299 1.65205 11.1557 2.94405L16.4567 12.3681C17.1692 13.6354 16.2544 15.1991 14.8018 15.1991H4.19886C2.74536 15.1991 1.83051 13.6354 2.54301 12.3681L7.84401 2.94405ZM10.4499 12.35C10.4499 12.602 10.3498 12.8436 10.1716 13.0218C9.99345 13.1999 9.75181 13.3 9.49986 13.3C9.2479 13.3 9.00627 13.1999 8.82811 13.0218C8.64995 12.8436 8.54986 12.602 8.54986 12.35C8.54986 12.098 8.64995 11.8564 8.82811 11.6783C9.00627 11.5001 9.2479 11.4 9.49986 11.4C9.75181 11.4 9.99345 11.5001 10.1716 11.6783C10.3498 11.8564 10.4499 12.098 10.4499 12.35ZM9.49986 4.75C9.2479 4.75 9.00627 4.85009 8.82811 5.02825C8.64995 5.20641 8.54986 5.44805 8.54986 5.7V8.55C8.54986 8.80196 8.64995 9.04359 8.82811 9.22175C9.00627 9.39991 9.2479 9.5 9.49986 9.5C9.75181 9.5 9.99345 9.39991 10.1716 9.22175C10.3498 9.04359 10.4499 8.80196 10.4499 8.55V5.7C10.4499 5.44805 10.3498 5.20641 10.1716 5.02825C9.99345 4.85009 9.75181 4.75 9.49986 4.75Z" fill="#FF2853"/>
</svg>
