<svg width="160" height="38" viewBox="0 0 160 38" fill="none" xmlns="http://www.w3.org/2000/svg">
<g clip-path="url(#clip0_264_19872)">
<path d="M26.6665 11.364H33.0578C34.6214 11.364 35.8392 11.75 36.7096 12.5233C37.5814 13.2952 38.0166 14.3787 38.0166 15.7737C38.0166 17.1687 37.5814 18.2549 36.7096 19.0352C35.8378 19.814 34.6201 20.2041 33.0578 20.2041H29.3433V23.3704C29.3433 24.7255 28.2315 25.8241 26.8604 25.8241H26.6665V11.364ZM32.7258 18.1736C34.5657 18.1736 35.4863 17.381 35.4863 15.7944C35.4863 14.988 35.2575 14.3897 34.8014 13.9996C34.3453 13.6095 33.6534 13.4152 32.7258 13.4152H29.3433V18.1736H32.7258ZM44.4093 11.5928V13.207C44.4093 13.4579 44.2028 13.6619 43.9489 13.6619H42.0045C41.7506 13.6619 41.5442 13.4579 41.5442 13.207V11.5928C41.5442 11.342 41.7506 11.1379 42.0045 11.1379H43.9489C44.2028 11.1393 44.4093 11.342 44.4093 11.5928ZM41.6906 15.7944H43.8248C44.0787 15.7944 44.2851 15.9984 44.2851 16.2493V25.3692C44.2851 25.6201 44.0787 25.8241 43.8248 25.8241H42.151C41.8971 25.8241 41.6906 25.6201 41.6906 25.3692V15.7944ZM54.6602 23.9976L54.536 25.9054C54.1203 25.9468 53.7409 25.9675 53.395 25.9675C51.9694 25.9675 50.9177 25.6435 50.2412 24.9929C49.5633 24.3436 49.2243 23.3759 49.2243 22.0912V17.7229H47.2743V15.7958H49.2243V12.8017H51.8188V15.7958H54.4956V17.7229H51.8188V22.0499C51.8188 23.3897 52.4479 24.0597 53.7075 24.0597C54.0101 24.0597 54.3282 24.039 54.6602 23.9976ZM59.5882 25.3513C58.8071 24.9281 58.2087 24.3257 57.793 23.5469C57.3774 22.768 57.1709 21.8583 57.1709 20.8189C57.1709 19.7795 57.3885 18.8601 57.8251 18.0606C58.2603 17.2611 58.8796 16.6421 59.6831 16.2052C60.4851 15.7682 61.4127 15.549 62.4645 15.549C63.1842 15.549 63.8858 15.6621 64.5707 15.8867C65.2556 16.1128 65.8052 16.4161 66.2208 16.7993L65.4732 18.6037C65.0436 18.2618 64.5916 18.0027 64.1146 17.8249C63.6375 17.647 63.1633 17.5588 62.6932 17.5588C61.7935 17.5588 61.0947 17.8359 60.5967 18.39C60.0988 18.9442 59.8491 19.7409 59.8491 20.7789C59.8491 21.8045 60.0988 22.5944 60.5967 23.1471C61.0947 23.7013 61.7935 23.9783 62.6932 23.9783C63.1633 23.9783 63.6375 23.8901 64.1146 23.7123C64.5916 23.5345 65.045 23.2753 65.4732 22.9335L66.2208 24.7172C65.7787 25.1142 65.211 25.4243 64.5191 25.6504C63.8272 25.8765 63.1075 25.9881 62.3612 25.9881C61.2928 25.9868 60.3694 25.7745 59.5882 25.3513ZM78.027 16.5732C78.6212 17.2569 78.9197 18.2894 78.9197 19.6693V25.8213H76.3253V19.814C76.3253 19.0352 76.176 18.4672 75.8789 18.1116C75.5818 17.7559 75.1145 17.5781 74.4785 17.5781C73.7308 17.5781 73.1324 17.8111 72.6833 18.2756C72.2341 18.7402 72.0082 19.3632 72.0082 20.1421V25.8227H69.4137V11.364H72.0082V17.188C72.3541 16.6546 72.8144 16.2479 73.3877 15.9681C73.961 15.6882 74.6012 15.5476 75.307 15.5476C76.5247 15.5476 77.4314 15.8895 78.027 16.5732ZM85.1437 25.5567C84.1617 25.2562 83.3317 24.8316 82.6538 24.2857L83.5465 22.3586C84.2523 22.8921 84.9958 23.2808 85.7769 23.5276C86.558 23.7743 87.4061 23.897 88.3184 23.897C89.3283 23.897 90.1066 23.7233 90.6534 23.3746C91.2002 23.0258 91.4736 22.5378 91.4736 21.9079C91.4736 21.3606 91.2211 20.9443 90.7162 20.6562C90.2112 20.3695 89.3701 20.0952 88.1942 19.836C86.9765 19.5769 85.9875 19.275 85.2273 18.9332C84.4657 18.5913 83.8925 18.1543 83.5047 17.6209C83.1169 17.0874 82.923 16.4106 82.923 15.5904C82.923 14.7426 83.1588 13.9845 83.6288 13.3145C84.0989 12.6446 84.7628 12.1222 85.6207 11.7458C86.4785 11.3695 87.4675 11.182 88.5876 11.182C89.6114 11.182 90.5864 11.3364 91.514 11.6438C92.4402 11.9512 93.2018 12.3717 93.7974 12.9051L92.9047 14.8322C91.6047 13.8066 90.1652 13.2939 88.589 13.2939C87.6474 13.2939 86.904 13.4813 86.3586 13.8576C85.8118 14.234 85.5384 14.7564 85.5384 15.4263C85.5384 15.9874 85.7797 16.4175 86.2651 16.718C86.7491 17.0185 87.5721 17.2997 88.734 17.5588C89.9657 17.8331 90.9644 18.1364 91.733 18.4714C92.5002 18.8063 93.0888 19.2337 93.4975 19.7533C93.9048 20.273 94.1099 20.9292 94.1099 21.7218C94.1099 22.5833 93.8783 23.3387 93.4152 23.988C92.9521 24.6372 92.2812 25.1362 91.4024 25.485C90.5237 25.8337 89.4901 26.0074 88.3002 26.0074C87.1774 26.0074 86.127 25.8572 85.1437 25.5567ZM106.519 16.5732C107.113 17.2569 107.411 18.2894 107.411 19.6693V25.8213H104.817V19.814C104.817 19.0352 104.668 18.4672 104.371 18.1116C104.073 17.7559 103.606 17.5781 102.97 17.5781C102.222 17.5781 101.624 17.8111 101.175 18.2756C100.726 18.7402 100.5 19.3632 100.5 20.1421V25.8227H97.9053V11.364H100.5V17.188C100.846 16.6546 101.306 16.2479 101.879 15.9681C102.453 15.6882 103.093 15.5476 103.799 15.5476C105.018 15.5476 105.923 15.8895 106.519 16.5732ZM113.501 25.3513C112.72 24.9281 112.115 24.3188 111.685 23.5262C111.256 22.7336 111.042 21.81 111.042 20.7582C111.042 19.7051 111.257 18.7857 111.685 17.9999C112.113 17.2142 112.719 16.6091 113.501 16.1845C114.282 15.7613 115.193 15.549 116.23 15.549C117.268 15.549 118.177 15.7613 118.958 16.1845C119.739 16.6091 120.342 17.2128 120.763 17.9999C121.184 18.7857 121.396 19.7051 121.396 20.7582C121.396 21.8114 121.186 22.7336 120.763 23.5262C120.34 24.3188 119.739 24.9281 118.958 25.3513C118.177 25.7759 117.268 25.9868 116.23 25.9868C115.193 25.9868 114.282 25.7745 113.501 25.3513ZM118.139 23.1774C118.581 22.6302 118.803 21.8238 118.803 20.7569C118.803 19.7037 118.581 18.9014 118.139 18.3473C117.696 17.7932 117.06 17.5161 116.23 17.5161C115.4 17.5161 114.76 17.7932 114.31 18.3473C113.861 18.9014 113.635 19.7037 113.635 20.7569C113.635 21.8238 113.857 22.6302 114.299 23.1774C114.741 23.7247 115.379 23.9976 116.209 23.9976C117.053 23.9976 117.697 23.7247 118.139 23.1774ZM141.153 15.7944L137.17 25.8227H134.907L132.417 19.3632L129.989 25.8227H127.747L123.742 15.7944H126.398L128.993 22.7667L131.059 17.2128C131.375 16.3609 132.197 15.7944 133.116 15.7944H133.455L136.049 22.808L138.623 15.7944H141.153Z" fill="#000F3C"/>
<path d="M7.29042 13.6922C7.07377 10.6585 9.93132 8.19964 11.9038 7.83062L11.9326 7.82848C12.0395 7.821 12.1436 7.78574 12.2505 7.78538C12.9078 7.78431 12.7562 7.53106 12.7246 7.09009L12.3567 1.93985C12.33 1.56656 11.9834 1.2841 11.5867 1.31224L11.4382 1.32292C5.41202 1.75606 0.894137 7.49579 1.36755 14.1178L7.29042 13.6922Z" fill="#FF2853"/>
<path d="M11.1844 10.7322C10.599 10.675 10.0952 11.1555 10.0952 11.7597V15.2774C10.0952 15.7832 10.4562 16.2059 10.942 16.2876C13.2343 16.6726 14.9816 18.594 14.9816 20.899C14.9816 23.2039 13.2346 25.1253 10.9423 25.5103C10.4569 25.592 10.0956 26.0147 10.0956 26.5205V30.0378C10.0956 30.6499 10.6106 31.1229 11.2034 31.0639C16.5661 30.5314 20.7619 26.1756 20.7619 20.899C20.7619 15.6162 16.5566 11.2564 11.1844 10.7322Z" fill="#FF2853"/>
<ellipse cx="8.95259" cy="20.8983" rx="3.80953" ry="3.76692" fill="#FF2853"/>
</g>
<defs>
<clipPath id="clip0_264_19872">
<rect width="160" height="38" fill="white"/>
</clipPath>
</defs>
</svg>
