<svg width="123" height="65" viewBox="0 0 123 65" fill="none" xmlns="http://www.w3.org/2000/svg">
<path d="M53.8808 4.24015C53.3205 4.23856 52.7836 4.01417 52.3879 3.61619C51.9923 3.2182 51.7701 2.6791 51.7701 2.11706C51.7701 1.55558 51.9925 1.0171 52.3883 0.620073C52.7841 0.223047 53.321 -1.16978e-07 53.8808 -9.25086e-08C54.4412 -2.33605e-06 54.9787 0.222852 55.3755 0.619706C55.7723 1.01656 55.996 1.55503 55.9976 2.11706C55.996 2.67965 55.7724 3.21874 55.3758 3.61656C54.9792 4.01437 54.4417 4.23856 53.8808 4.24015Z" fill="black"/>
<path d="M53.8808 24.4743C53.4636 24.4732 53.0561 24.348 52.7098 24.1146C52.3635 23.8813 52.0939 23.5502 51.935 23.1633C51.7762 22.7763 51.7353 22.3509 51.8174 21.9406C51.8995 21.5303 52.101 21.1537 52.3964 20.8582C52.6919 20.5627 53.068 20.3617 53.4772 20.2805C53.8865 20.1993 54.3106 20.2416 54.696 20.402C55.0813 20.5624 55.4106 20.8337 55.6422 21.1817C55.8739 21.5298 55.9976 21.9388 55.9976 22.3573C55.9976 22.6358 55.9428 22.9116 55.8363 23.1688C55.7299 23.4261 55.5739 23.6597 55.3772 23.8564C55.1806 24.0531 54.9472 24.2089 54.6904 24.3149C54.4336 24.421 54.1585 24.4751 53.8808 24.4743Z" fill="black"/>
<path d="M53.8808 44.7203C53.4624 44.7203 53.0534 44.5959 52.7054 44.3629C52.3575 44.1299 52.0862 43.7987 51.9258 43.4111C51.7654 43.0235 51.7231 42.5969 51.8043 42.1852C51.8855 41.7736 52.0865 41.3953 52.3819 41.0981C52.6774 40.8009 53.054 40.5983 53.4642 40.5157C53.8744 40.4331 54.2998 40.4742 54.6867 40.634C55.0736 40.7938 55.4046 41.065 55.6379 41.4133C55.8712 41.7617 55.9964 42.1715 55.9975 42.5912C55.9983 42.8705 55.9442 43.1472 55.8382 43.4055C55.7321 43.6638 55.5763 43.8986 55.3797 44.0963C55.1831 44.2941 54.9495 44.451 54.6922 44.5581C54.435 44.6652 54.1593 44.7203 53.8808 44.7203Z" fill="black"/>
<path d="M53.8808 64.9543C53.4636 64.9531 53.0561 64.828 52.7098 64.5946C52.3635 64.3613 52.0939 64.0302 51.935 63.6433C51.7762 63.2563 51.7353 62.8308 51.8174 62.4206C51.8995 62.0103 52.101 61.6336 52.3964 61.3382C52.6919 61.0427 53.068 60.8417 53.4772 60.7605C53.8865 60.6793 54.3106 60.7215 54.696 60.8819C55.0813 61.0424 55.4106 61.3137 55.6422 61.6617C55.8739 62.0097 55.9976 62.4188 55.9976 62.8373C55.9976 63.1158 55.9428 63.3916 55.8363 63.6488C55.7299 63.9061 55.5739 64.1397 55.3772 64.3364C55.1806 64.5331 54.9472 64.6889 54.6904 64.7949C54.4336 64.9009 54.1585 64.9551 53.8808 64.9543Z" fill="black"/>
<path d="M36.6705 4.24015C36.1096 4.23856 35.5721 4.01437 35.1755 3.61656C34.7789 3.21874 34.5553 2.67965 34.5537 2.11706C34.5553 1.55503 34.7791 1.01656 35.1758 0.619706C35.5726 0.222852 36.1101 -2.38398e-06 36.6705 -9.14573e-08C37.2272 0.00477223 37.7594 0.229925 38.1514 0.626434C38.5433 1.02294 38.7632 1.5587 38.7632 2.11706C38.7632 2.67598 38.5435 3.21238 38.1517 3.60985C37.76 4.00732 37.2277 4.2338 36.6705 4.24015Z" fill="black"/>
<path d="M36.6705 24.4743C36.2523 24.4779 35.8424 24.3568 35.493 24.1263C35.1435 23.8959 34.8701 23.5665 34.7076 23.18C34.5451 22.7935 34.5007 22.3673 34.5801 21.9554C34.6595 21.5435 34.8591 21.1646 35.1535 20.8667C35.448 20.5689 35.8241 20.3654 36.234 20.2823C36.6439 20.1991 37.0692 20.2399 37.456 20.3996C37.8427 20.5593 38.1734 20.8307 38.4062 21.1792C38.6389 21.5277 38.7632 21.9377 38.7632 22.3572C38.7616 22.9151 38.5412 23.4499 38.1496 23.8461C37.758 24.2423 37.2267 24.4679 36.6705 24.4743Z" fill="black"/>
<path d="M36.6705 44.7202C36.2511 44.725 35.8397 44.6047 35.4886 44.3746C35.1375 44.1445 34.8625 43.8149 34.6984 43.4278C34.5343 43.0406 34.4886 42.6133 34.5671 42.2001C34.6455 41.7868 34.8446 41.4063 35.139 41.1067C35.4335 40.8071 35.81 40.602 36.2209 40.5175C36.6317 40.4329 37.0584 40.4726 37.4467 40.6317C37.835 40.7907 38.1674 41.0619 38.4018 41.4107C38.6362 41.7596 38.762 42.1704 38.7632 42.591C38.7632 43.1505 38.5437 43.6876 38.1521 44.086C37.7605 44.4844 37.2283 44.7122 36.6705 44.7202Z" fill="black"/>
<path d="M36.6705 64.9543C36.2523 64.9578 35.8424 64.8367 35.493 64.6063C35.1435 64.3759 34.8701 64.0465 34.7076 63.66C34.5451 63.2735 34.5007 62.8472 34.5801 62.4354C34.6595 62.0235 34.8591 61.6446 35.1535 61.3467C35.448 61.0488 35.8241 60.8454 36.234 60.7622C36.6439 60.6791 37.0692 60.7199 37.456 60.8796C37.8427 61.0393 38.1734 61.3106 38.4062 61.6592C38.6389 62.0077 38.7632 62.4177 38.7632 62.8372C38.7616 63.3951 38.5412 63.9299 38.1496 64.3261C37.758 64.7223 37.2267 64.9479 36.6705 64.9543Z" fill="black"/>
<path d="M19.4537 4.24015C18.8934 4.23856 18.3565 4.01417 17.9608 3.61619C17.5652 3.2182 17.343 2.6791 17.343 2.11706C17.343 1.83904 17.3976 1.56375 17.5037 1.3069C17.6097 1.05004 17.7652 0.81666 17.9612 0.620073C18.1572 0.423486 18.3899 0.267544 18.646 0.161152C18.9021 0.0547595 19.1765 -1.04379e-07 19.4537 -9.22631e-08C20.0135 -6.77934e-08 20.5504 0.223047 20.9462 0.620073C21.3421 1.0171 21.5645 1.55558 21.5645 2.11706C21.5645 2.6791 21.3423 3.2182 20.9466 3.61619C20.5509 4.01417 20.0141 4.23856 19.4537 4.24015Z" fill="black"/>
<path d="M19.4537 24.4744C19.0363 24.4744 18.6282 24.3502 18.2811 24.1176C17.934 23.8849 17.6634 23.5543 17.5037 23.1675C17.3439 22.7806 17.3021 22.3549 17.3835 21.9443C17.465 21.5336 17.666 21.1564 17.9612 20.8603C18.2564 20.5642 18.6325 20.3626 19.0419 20.2809C19.4514 20.1992 19.8758 20.2412 20.2615 20.4014C20.6471 20.5616 20.9768 20.833 21.2087 21.1811C21.4407 21.5293 21.5645 21.9386 21.5645 22.3573C21.5645 22.9188 21.3421 23.4573 20.9462 23.8543C20.5504 24.2513 20.0135 24.4744 19.4537 24.4744Z" fill="black"/>
<path d="M19.4537 44.7203C19.0351 44.7215 18.6255 44.5981 18.2767 44.3658C17.9279 44.1335 17.6557 43.8027 17.4944 43.4153C17.3331 43.0278 17.29 42.601 17.3705 42.1889C17.451 41.7769 17.6515 41.398 17.9467 41.1002C18.2419 40.8025 18.6185 40.5992 19.0288 40.5161C19.4392 40.433 19.8649 40.4738 20.2522 40.6334C20.6394 40.793 20.9708 41.0642 21.2044 41.4127C21.4379 41.7611 21.5633 42.1713 21.5644 42.5912C21.5652 42.87 21.5113 43.1462 21.4056 43.4041C21.3 43.662 21.1447 43.8965 20.9487 44.0942C20.7527 44.2919 20.5198 44.449 20.2633 44.5564C20.0068 44.6638 19.7317 44.7195 19.4537 44.7203Z" fill="black"/>
<path d="M19.4537 64.9543C19.0363 64.9543 18.6282 64.8302 18.2811 64.5976C17.934 64.3649 17.6634 64.0343 17.5037 63.6474C17.3439 63.2606 17.3021 62.8349 17.3835 62.4243C17.465 62.0136 17.666 61.6364 17.9612 61.3403C18.2564 61.0442 18.6325 60.8426 19.0419 60.7609C19.4514 60.6792 19.8758 60.7211 20.2615 60.8814C20.6471 61.0416 20.9768 61.313 21.2087 61.6611C21.4407 62.0092 21.5645 62.4186 21.5645 62.8373C21.5645 63.3988 21.3421 63.9372 20.9462 64.3343C20.5504 64.7313 20.0135 64.9543 19.4537 64.9543Z" fill="black"/>
<path d="M2.23725 4.24015C1.6769 4.23856 1.14004 4.01417 0.744375 3.61619C0.348707 3.2182 0.126516 2.6791 0.126518 2.11706C0.126518 1.55558 0.348902 1.0171 0.744742 0.620073C1.14058 0.223047 1.67745 -1.16979e-07 2.23725 -9.25089e-08C2.79761 -2.33605e-06 3.3351 0.222852 3.7319 0.619706C4.12869 1.01656 4.35241 1.55503 4.354 2.11706C4.35242 2.67965 4.12889 3.21874 3.73227 3.61656C3.33564 4.01437 2.79816 4.23856 2.23725 4.24015Z" fill="black"/>
<path d="M2.23725 24.4743C1.82004 24.4732 1.41255 24.348 1.06623 24.1146C0.719916 23.8813 0.450313 23.5502 0.291478 23.1633C0.132643 22.7763 0.0917038 22.3509 0.173825 21.9406C0.255946 21.5303 0.457447 21.1537 0.752877 20.8582C1.04831 20.5627 1.42441 20.3617 1.83369 20.2805C2.24296 20.1993 2.66706 20.2416 3.0524 20.402C3.43773 20.5624 3.76703 20.8337 3.9987 21.1817C4.23036 21.5298 4.354 21.9388 4.354 22.3573C4.354 22.6358 4.29922 22.9116 4.19277 23.1688C4.08631 23.4261 3.9303 23.6597 3.73366 23.8564C3.53702 24.0531 3.30363 24.2089 3.04685 24.3149C2.79006 24.421 2.51494 24.4751 2.23725 24.4743Z" fill="black"/>
<path d="M2.23725 44.7203C1.81886 44.7203 1.40985 44.5959 1.06189 44.3629C0.713921 44.1299 0.442612 43.7987 0.282226 43.4111C0.121839 43.0235 0.0795678 42.5969 0.160757 42.1852C0.241945 41.7736 0.442953 41.3953 0.738383 41.0981C1.03381 40.8009 1.41041 40.5983 1.82063 40.5157C2.23084 40.4331 2.65625 40.4742 3.04314 40.634C3.43002 40.7938 3.76103 41.065 3.99434 41.4133C4.22765 41.7617 4.35281 42.1715 4.354 42.5912C4.35479 42.8705 4.30062 43.1472 4.1946 43.4055C4.08858 43.6638 3.93279 43.8986 3.73615 44.0963C3.53951 44.2941 3.3059 44.451 3.04869 44.5581C2.79148 44.6652 2.51573 44.7203 2.23725 44.7203Z" fill="black"/>
<path d="M2.23725 64.9543C1.82004 64.9531 1.41255 64.828 1.06623 64.5946C0.719916 64.3613 0.450313 64.0302 0.291478 63.6433C0.132643 63.2563 0.0917038 62.8308 0.173825 62.4206C0.255946 62.0103 0.457447 61.6336 0.752877 61.3382C1.04831 61.0427 1.42441 60.8417 1.83369 60.7605C2.24296 60.6793 2.66706 60.7215 3.0524 60.8819C3.43773 61.0424 3.76703 61.3137 3.9987 61.6617C4.23036 62.0097 4.354 62.4188 4.354 62.8373C4.354 63.1158 4.29922 63.3916 4.19277 63.6488C4.08631 63.9061 3.9303 64.1397 3.73366 64.3364C3.53702 64.5331 3.30363 64.6889 3.04685 64.7949C2.79006 64.9009 2.51494 64.9551 2.23725 64.9543Z" fill="black"/>
<path d="M120.889 4.24015C120.329 4.23856 119.792 4.01417 119.396 3.61619C119.001 3.2182 118.779 2.6791 118.779 2.11706C118.779 1.55558 119.001 1.0171 119.397 0.620073C119.793 0.223047 120.329 -1.16733e-07 120.889 -9.22631e-08C121.449 -6.77934e-08 121.986 0.223047 122.382 0.620073C122.778 1.0171 123 1.55558 123 2.11706C123 2.6791 122.778 3.2182 122.382 3.61619C121.986 4.01417 121.45 4.23856 120.889 4.24015Z" fill="black"/>
<path d="M120.889 24.4744C120.329 24.4744 119.793 24.2513 119.397 23.8543C119.001 23.4573 118.779 22.9188 118.779 22.3573C118.779 21.7958 119.001 21.2573 119.397 20.8603C119.793 20.4633 120.329 20.2402 120.889 20.2402C121.449 20.2402 121.986 20.4633 122.382 20.8603C122.778 21.2573 123 21.7958 123 22.3573C123 22.9188 122.778 23.4573 122.382 23.8543C121.986 24.2513 121.449 24.4744 120.889 24.4744Z" fill="black"/>
<path d="M120.889 44.7203C120.611 44.7195 120.336 44.6638 120.08 44.5564C119.823 44.449 119.59 44.2919 119.394 44.0942C119.198 43.8965 119.043 43.662 118.937 43.4041C118.832 43.1462 118.778 42.87 118.779 42.5912C118.779 42.0297 119.001 41.4912 119.397 41.0942C119.793 40.6972 120.329 40.4741 120.889 40.4741C121.449 40.4741 121.986 40.6972 122.382 41.0942C122.778 41.4912 123 42.0297 123 42.5912C123.001 42.87 122.947 43.1462 122.841 43.4041C122.736 43.662 122.58 43.8965 122.384 44.0942C122.188 44.2919 121.955 44.449 121.699 44.5564C121.442 44.6638 121.167 44.7195 120.889 44.7203Z" fill="black"/>
<path d="M120.889 64.9543C120.329 64.9543 119.793 64.7313 119.397 64.3343C119.001 63.9372 118.779 63.3988 118.779 62.8373C118.779 62.2758 119.001 61.7373 119.397 61.3403C119.793 60.9433 120.329 60.7202 120.889 60.7202C121.449 60.7202 121.986 60.9433 122.382 61.3403C122.778 61.7373 123 62.2758 123 62.8373C123 63.3988 122.778 63.9372 122.382 64.3343C121.986 64.7313 121.449 64.9543 120.889 64.9543Z" fill="black"/>
<path d="M103.673 4.24015C103.112 4.23856 102.576 4.01417 102.18 3.61619C101.784 3.2182 101.562 2.6791 101.562 2.11706C101.562 1.55558 101.784 1.0171 102.18 0.620073C102.576 0.223047 103.113 -1.16978e-07 103.673 -9.25085e-08C104.233 -2.33605e-06 104.771 0.222852 105.167 0.619706C105.564 1.01656 105.788 1.55503 105.79 2.11706C105.788 2.67965 105.564 3.21874 105.168 3.61656C104.771 4.01437 104.234 4.23856 103.673 4.24015Z" fill="black"/>
<path d="M103.673 24.4744C103.113 24.4744 102.576 24.2513 102.18 23.8543C101.784 23.4573 101.562 22.9188 101.562 22.3573C101.562 21.7958 101.784 21.2573 102.18 20.8603C102.576 20.4633 103.113 20.2402 103.673 20.2402C104.233 20.2402 104.771 20.4631 105.167 20.8599C105.564 21.2568 105.788 21.7953 105.79 22.3573C105.788 22.9193 105.564 23.4578 105.167 23.8546C104.771 24.2515 104.233 24.4744 103.673 24.4744Z" fill="black"/>
<path d="M103.673 44.7203C103.395 44.7195 103.12 44.6638 102.863 44.5564C102.607 44.449 102.374 44.2919 102.178 44.0942C101.982 43.8965 101.827 43.662 101.721 43.4041C101.615 43.1462 101.561 42.87 101.562 42.5912C101.562 42.0297 101.784 41.4912 102.18 41.0942C102.576 40.6972 103.113 40.4741 103.673 40.4741C104.233 40.4741 104.771 40.697 105.167 41.0938C105.564 41.4907 105.788 42.0291 105.79 42.5912C105.79 43.1548 105.567 43.6955 105.17 44.0946C104.773 44.4937 104.235 44.7187 103.673 44.7203Z" fill="black"/>
<path d="M103.673 64.9543C103.113 64.9543 102.576 64.7313 102.18 64.3343C101.784 63.9372 101.562 63.3988 101.562 62.8373C101.562 62.2758 101.784 61.7373 102.18 61.3403C102.576 60.9433 103.113 60.7202 103.673 60.7202C104.233 60.7202 104.771 60.9431 105.167 61.3399C105.564 61.7368 105.788 62.2752 105.79 62.8373C105.788 63.3993 105.564 63.9378 105.167 64.3346C104.771 64.7315 104.233 64.9543 103.673 64.9543Z" fill="black"/>
<path d="M86.462 4.24015C85.9017 4.23856 85.3648 4.01417 84.9691 3.61619C84.5735 3.2182 84.3513 2.6791 84.3513 2.11706C84.3513 1.55558 84.5737 1.0171 84.9695 0.620073C85.3653 0.223047 85.9022 -1.16733e-07 86.462 -9.2263e-08C87.0218 -6.77933e-08 87.5587 0.223047 87.9545 0.620073C88.3504 1.0171 88.5728 1.55558 88.5728 2.11706C88.5728 2.6791 88.3506 3.2182 87.9549 3.61619C87.5592 4.01417 87.0224 4.23856 86.462 4.24015Z" fill="black"/>
<path d="M86.462 24.4744C86.0446 24.4744 85.6365 24.3502 85.2894 24.1176C84.9423 23.8849 84.6717 23.5543 84.512 23.1675C84.3522 22.7806 84.3104 22.3549 84.3918 21.9443C84.4733 21.5336 84.6743 21.1564 84.9695 20.8603C85.2647 20.5642 85.6408 20.3626 86.0502 20.2809C86.4597 20.1992 86.8841 20.2412 87.2698 20.4014C87.6555 20.5616 87.9851 20.833 88.217 21.1811C88.449 21.5293 88.5728 21.9386 88.5728 22.3573C88.5728 22.9188 88.3504 23.4573 87.9545 23.8543C87.5587 24.2513 87.0218 24.4744 86.462 24.4744Z" fill="black"/>
<path d="M86.4621 44.7082C86.1841 44.7074 85.909 44.6518 85.6525 44.5443C85.396 44.4369 85.1631 44.2798 84.9671 44.0821C84.7711 43.8844 84.6158 43.6499 84.5102 43.3921C84.4045 43.1342 84.3505 42.8579 84.3513 42.5791C84.3537 42.1609 84.4795 41.7528 84.7129 41.4062C84.9463 41.0597 85.2767 40.7902 85.6626 40.6318C86.0485 40.4734 86.4725 40.4332 86.8812 40.5163C87.2898 40.5993 87.6648 40.8019 87.9588 41.0985C88.2528 41.395 88.4526 41.7722 88.5331 42.1826C88.6135 42.5929 88.571 43.018 88.4109 43.4041C88.2508 43.7902 87.9803 44.1202 87.6335 44.3523C87.2866 44.5844 86.879 44.7082 86.4621 44.7082Z" fill="black"/>
<path d="M86.462 64.9421C86.0446 64.9421 85.6365 64.818 85.2894 64.5853C84.9423 64.3527 84.6717 64.0221 84.512 63.6352C84.3522 63.2484 84.3104 62.8227 84.3918 62.4121C84.4733 62.0014 84.6743 61.6242 84.9695 61.3281C85.2647 61.032 85.6408 60.8304 86.0502 60.7487C86.4597 60.667 86.8841 60.7089 87.2698 60.8692C87.6555 61.0294 87.9851 61.3007 88.217 61.6489C88.449 61.997 88.5728 62.4064 88.5728 62.8251C88.5728 63.3865 88.3504 63.925 87.9545 64.3221C87.5587 64.7191 87.0218 64.9421 86.462 64.9421Z" fill="black"/>
<path d="M69.2457 4.24015C68.6854 4.23856 68.1485 4.01417 67.7528 3.61619C67.3572 3.2182 67.135 2.6791 67.135 2.11706C67.135 1.55558 67.3574 1.0171 67.7532 0.620073C68.149 0.223047 68.6859 -1.16733e-07 69.2457 -9.22631e-08C69.8055 -6.77934e-08 70.3424 0.223047 70.7382 0.620073C71.1341 1.0171 71.3564 1.55558 71.3564 2.11706C71.3564 2.6791 71.1343 3.2182 70.7386 3.61619C70.3429 4.01417 69.8061 4.23856 69.2457 4.24015Z" fill="black"/>
<path d="M69.2457 24.4744C68.8282 24.4744 68.4202 24.3502 68.073 24.1176C67.7259 23.8849 67.4554 23.5543 67.2956 23.1675C67.1359 22.7806 67.0941 22.3549 67.1755 21.9443C67.257 21.5336 67.458 21.1564 67.7532 20.8603C68.0484 20.5642 68.4245 20.3626 68.8339 20.2809C69.2434 20.1992 69.6678 20.2412 70.0535 20.4014C70.4391 20.5616 70.7688 20.833 71.0007 21.1811C71.2327 21.5293 71.3564 21.9386 71.3564 22.3573C71.3564 22.9188 71.1341 23.4573 70.7382 23.8543C70.3424 24.2513 69.8055 24.4744 69.2457 24.4744Z" fill="black"/>
<path d="M69.2457 44.7203C68.8271 44.7215 68.4175 44.5981 68.0687 44.3658C67.7199 44.1335 67.4477 43.8027 67.2864 43.4153C67.1251 43.0278 67.082 42.601 67.1625 42.1889C67.243 41.7769 67.4435 41.398 67.7387 41.1002C68.0339 40.8025 68.4105 40.5992 68.8208 40.5161C69.2312 40.433 69.6569 40.4738 70.0442 40.6334C70.4314 40.793 70.7628 41.0642 70.9964 41.4127C71.2299 41.7611 71.3552 42.1713 71.3564 42.5912C71.3572 42.87 71.3033 43.1462 71.1976 43.4041C71.092 43.662 70.9367 43.8965 70.7407 44.0942C70.5447 44.2919 70.3118 44.449 70.0553 44.5564C69.7988 44.6638 69.5237 44.7195 69.2457 44.7203Z" fill="black"/>
<path d="M69.2457 64.9543C68.8282 64.9543 68.4202 64.8302 68.073 64.5976C67.7259 64.3649 67.4554 64.0343 67.2956 63.6474C67.1359 63.2606 67.0941 62.8349 67.1755 62.4243C67.257 62.0136 67.458 61.6364 67.7532 61.3403C68.0484 61.0442 68.4245 60.8426 68.8339 60.7609C69.2434 60.6792 69.6678 60.7211 70.0535 60.8814C70.4391 61.0416 70.7688 61.313 71.0007 61.6611C71.2327 62.0092 71.3564 62.4186 71.3564 62.8373C71.3564 63.3988 71.1341 63.9372 70.7382 64.3343C70.3424 64.7313 69.8055 64.9543 69.2457 64.9543Z" fill="black"/>
</svg>
