<svg width="89" height="89" viewBox="0 0 89 89" fill="none" xmlns="http://www.w3.org/2000/svg">
<g filter="url(#filter0_d_0_1)">
<circle cx="44.5" cy="40.5" r="38.5" fill="#09216A"/>
</g>
<path d="M57.4753 30.1563C55.1804 29.1597 52.7205 28.4231 50.1481 28.0043C50.1251 28 50.1014 28.0028 50.0802 28.0121C50.059 28.0214 50.0413 28.0368 50.0296 28.0563C49.7146 28.5892 49.3636 29.284 49.1176 29.8328C46.3893 29.4403 43.6156 29.4403 40.8873 29.8328C40.6133 29.2245 40.3044 28.6314 39.9618 28.0563C39.9502 28.0366 39.9327 28.0208 39.9115 28.011C39.8903 28.0012 39.8666 27.9978 39.8433 28.0014C37.2724 28.4202 34.8125 29.1569 32.5161 30.1549C32.4963 30.1629 32.4796 30.1765 32.4681 30.1939C27.8002 36.8018 26.5207 43.2465 27.1492 49.6103C27.151 49.6259 27.156 49.641 27.164 49.6546C27.172 49.6683 27.1828 49.6802 27.1957 49.6897C29.9202 51.5998 32.9591 53.0548 36.185 53.9939C36.2074 54.0006 36.2315 54.0005 36.254 53.9938C36.2765 53.9871 36.2963 53.9741 36.311 53.9563C37.0051 53.0624 37.6203 52.114 38.1499 51.1211C38.1572 51.1075 38.1615 51.0926 38.1623 51.0773C38.1632 51.062 38.1606 51.0467 38.1547 51.0325C38.1489 51.0182 38.14 51.0053 38.1285 50.9947C38.1171 50.9841 38.1034 50.976 38.0884 50.9709C37.1194 50.6195 36.1806 50.1955 35.2805 49.7027C35.2643 49.6938 35.2507 49.6812 35.2408 49.666C35.231 49.6508 35.2252 49.6335 35.224 49.6156C35.2228 49.5977 35.2262 49.5798 35.234 49.5635C35.2418 49.5472 35.2536 49.533 35.2685 49.5222C35.4575 49.3879 35.6465 49.2478 35.8265 49.1077C35.8427 49.0951 35.8622 49.087 35.8828 49.0845C35.9035 49.0819 35.9245 49.085 35.9435 49.0932C41.8338 51.641 48.2131 51.641 54.0344 49.0932C54.0535 49.0845 54.0747 49.081 54.0956 49.0833C54.1166 49.0856 54.1364 49.0936 54.1529 49.1062C54.3329 49.2478 54.5204 49.3879 54.7109 49.5222C54.7259 49.5328 54.738 49.5468 54.746 49.5629C54.754 49.5791 54.7577 49.5969 54.7568 49.6148C54.7559 49.6327 54.7505 49.6501 54.7409 49.6654C54.7313 49.6808 54.7179 49.6936 54.7019 49.7027C53.8049 50.1996 52.872 50.6199 51.8925 50.9694C51.8775 50.9747 51.8638 50.983 51.8523 50.9937C51.8409 51.0045 51.8319 51.0175 51.8261 51.0318C51.8203 51.0462 51.8177 51.0616 51.8186 51.077C51.8194 51.0924 51.8236 51.1074 51.831 51.1211C52.371 52.1133 52.989 53.0579 53.6684 53.9549C53.6826 53.9733 53.7023 53.9871 53.7248 53.9943C53.7474 54.0015 53.7717 54.0019 53.7944 53.9953C57.0259 53.0589 60.0697 51.6032 62.7972 49.6897C62.8105 49.6808 62.8217 49.6692 62.8299 49.6557C62.8382 49.6423 62.8434 49.6273 62.8452 49.6117C63.5952 42.2542 61.5882 35.8615 57.5218 30.1968C57.5119 30.1784 57.4954 30.164 57.4753 30.1563ZM39.0304 45.7351C37.2574 45.7351 35.795 44.1911 35.795 42.2975C35.795 40.4026 37.2289 38.86 39.0304 38.86C40.8453 38.86 42.2943 40.4156 42.2658 42.2975C42.2658 44.1925 40.8318 45.7351 39.0304 45.7351ZM50.9925 45.7351C49.2181 45.7351 47.7571 44.1911 47.7571 42.2975C47.7571 40.4026 49.1896 38.86 50.9925 38.86C52.8075 38.86 54.2564 40.4156 54.2279 42.2975C54.2279 44.1925 52.809 45.7351 50.9925 45.7351Z" fill="white"/>
<defs>
<filter id="filter0_d_0_1" x="0" y="0" width="89" height="89" filterUnits="userSpaceOnUse" color-interpolation-filters="sRGB">
<feFlood flood-opacity="0" result="BackgroundImageFix"/>
<feColorMatrix in="SourceAlpha" type="matrix" values="0 0 0 0 0 0 0 0 0 0 0 0 0 0 0 0 0 0 127 0" result="hardAlpha"/>
<feMorphology radius="2" operator="dilate" in="SourceAlpha" result="effect1_dropShadow_0_1"/>
<feOffset dy="4"/>
<feGaussianBlur stdDeviation="2"/>
<feComposite in2="hardAlpha" operator="out"/>
<feColorMatrix type="matrix" values="0 0 0 0 0.341176 0 0 0 0 0.501961 0 0 0 0 1 0 0 0 0.5 0"/>
<feBlend mode="normal" in2="BackgroundImageFix" result="effect1_dropShadow_0_1"/>
<feBlend mode="normal" in="SourceGraphic" in2="effect1_dropShadow_0_1" result="shape"/>
</filter>
</defs>
</svg>
