<svg width="323" height="171" viewBox="0 0 323 171" fill="none" xmlns="http://www.w3.org/2000/svg">
<path d="M322.499 11.8252L234.581 14.3531L231.801 39.6867L322.499 11.8252Z" fill="url(#paint0_linear_2_11718)"/>
<path style="mix-blend-mode:multiply" d="M322.499 11.8252L234.581 14.3531L231.801 39.6867L322.499 11.8252Z" fill="url(#paint1_linear_2_11718)"/>
<path d="M322.5 11.8254L234.581 14.3533L222.07 9.89356L217.777 0.097168L322.5 11.8254Z" fill="url(#paint2_linear_2_11718)"/>
<path d="M322.499 11.8252L244.928 28.4448L231.801 39.6867L322.499 11.8252Z" fill="url(#paint3_linear_2_11718)"/>
<path style="mix-blend-mode:multiply" d="M322.499 11.8252L244.928 28.4448L231.801 39.6867L322.499 11.8252Z" fill="url(#paint4_linear_2_11718)"/>
<path d="M322.5 11.8252L244.928 28.4448L249.729 42.6188L259.254 51.6821L322.5 11.8252Z" fill="url(#paint5_linear_2_11718)"/>
<path d="M259.254 51.6824L249.729 42.619L244.928 28.4451L231.801 39.6869L234.581 14.3533L222.07 9.89357L217.777 0.097168L222.42 9.80451L234.828 14.3602L232.274 38.7827L244.928 28.4451L249.954 42.2011L259.254 51.6824Z" fill="white"/>
<path d="M22.4991 135.239L6.91357 154.592L11.844 159.833L22.4991 135.239Z" fill="url(#paint6_linear_2_11718)"/>
<path style="mix-blend-mode:multiply" d="M22.4991 135.239L6.91357 154.592L11.844 159.833L22.4991 135.239Z" fill="url(#paint7_linear_2_11718)"/>
<path d="M22.4994 135.239L6.91392 154.592L3.66124 156.463L0.771484 155.586L22.4994 135.239Z" fill="url(#paint8_linear_2_11718)"/>
<path d="M22.4994 135.239L11.8374 154.955L11.8443 159.833L22.4994 135.239Z" fill="url(#paint9_linear_2_11718)"/>
<path style="mix-blend-mode:multiply" d="M22.4994 135.239L11.8374 154.955L11.8443 159.833L22.4994 135.239Z" fill="url(#paint10_linear_2_11718)"/>
<path d="M22.4994 135.239L11.8374 154.955L15.7612 156.524L19.4521 156.141L22.4994 135.239Z" fill="url(#paint11_linear_2_11718)"/>
<path d="M59.0045 91.752L34.6265 109.057L38.6119 116.743L59.0045 91.752Z" fill="url(#paint12_linear_2_11718)"/>
<path style="mix-blend-mode:multiply" d="M59.0045 91.752L34.6265 109.057L38.6119 116.743L59.0045 91.752Z" fill="url(#paint13_linear_2_11718)"/>
<path d="M59.0046 91.752L34.6266 109.057L30.2441 110.153L27.1831 108.193L59.0046 91.752Z" fill="url(#paint14_linear_2_11718)"/>
<path d="M59.0044 91.752L40.2073 111.091L38.6118 116.743L59.0044 91.752Z" fill="url(#paint15_linear_2_11718)"/>
<path style="mix-blend-mode:multiply" d="M59.0044 91.752L40.2073 111.091L38.6118 116.743L59.0044 91.752Z" fill="url(#paint16_linear_2_11718)"/>
<path d="M59.0046 91.752L40.2075 111.091L44.234 114.188L48.6371 114.955L59.0046 91.752Z" fill="url(#paint17_linear_2_11718)"/>
<path d="M48.6371 114.955L44.234 114.188L40.2075 111.091L38.612 116.743L34.6266 109.057L30.2441 110.153L27.1831 108.193L30.3262 110.064L34.6951 109.009L38.5778 116.4L40.2075 111.091L44.2203 114.03L48.6371 114.955Z" fill="white"/>
<path d="M120.025 56.4365L77.4253 70.2063L79.6714 82.9827L120.025 56.4365Z" fill="url(#paint18_linear_2_11718)"/>
<path style="mix-blend-mode:multiply" d="M120.025 56.4365L77.4253 70.2063L79.6714 82.9827L120.025 56.4365Z" fill="url(#paint19_linear_2_11718)"/>
<path d="M120.025 56.4365L77.4249 70.2063L70.673 69.8158L67.1807 65.6369L120.025 56.4365Z" fill="url(#paint20_linear_2_11718)"/>
<path d="M120.025 56.4365L84.4854 75.6183L79.6714 82.9827L120.025 56.4365Z" fill="url(#paint21_linear_2_11718)"/>
<path style="mix-blend-mode:multiply" d="M120.025 56.4365L84.4854 75.6183L79.6714 82.9827L120.025 56.4365Z" fill="url(#paint22_linear_2_11718)"/>
<path d="M120.025 56.4365L84.4854 75.6183L88.8542 81.866L94.7981 84.9351L120.025 56.4365Z" fill="url(#paint23_linear_2_11718)"/>
<path d="M94.7977 84.9349L88.8538 81.8659L84.485 75.6181L79.671 82.9825L77.4249 70.2061L70.673 69.8156L67.1807 65.6367L70.8305 69.7197L77.5413 70.1787L79.7737 82.4756L84.485 75.6181L88.9018 81.6261L94.7977 84.9349Z" fill="white"/>
<path d="M206.793 28.9932L138.993 41.6668L139.918 61.6296L206.793 28.9932Z" fill="url(#paint24_linear_2_11718)"/>
<path style="mix-blend-mode:multiply" d="M206.793 28.9932L138.993 41.6668L139.918 61.6296L206.793 28.9932Z" fill="url(#paint25_linear_2_11718)"/>
<path d="M206.793 28.9932L138.993 41.6668L128.756 39.7418L124.236 32.672L206.793 28.9932Z" fill="url(#paint26_linear_2_11718)"/>
<path d="M206.793 28.9932L148.724 51.3262L139.918 61.6296L206.793 28.9932Z" fill="url(#paint27_linear_2_11718)"/>
<path style="mix-blend-mode:multiply" d="M206.793 28.9932L148.724 51.3262L139.918 61.6296L206.793 28.9932Z" fill="url(#paint28_linear_2_11718)"/>
<path d="M206.793 28.9932L148.724 51.3262L154.168 61.7255L162.652 67.5827L206.793 28.9932Z" fill="url(#paint29_linear_2_11718)"/>
<path d="M162.652 67.5827L154.168 61.7254L148.724 51.3261L139.918 61.6295L138.993 41.6667L128.756 39.7417L124.236 32.6719L129.016 39.6321L139.178 41.6393L140.178 60.8759L148.724 51.3261L154.291 61.3691L162.652 67.5827Z" fill="white"/>
<defs>
<linearGradient id="paint0_linear_2_11718" x1="273.98" y1="47.0675" x2="279.717" y2="4.39977" gradientUnits="userSpaceOnUse">
<stop stop-color="#D4D1D8"/>
<stop offset="1" stop-color="white"/>
</linearGradient>
<linearGradient id="paint1_linear_2_11718" x1="277.087" y1="21.6431" x2="276.945" y2="12.8699" gradientUnits="userSpaceOnUse">
<stop stop-color="white"/>
<stop offset="1" stop-color="#E6E7E8"/>
</linearGradient>
<linearGradient id="paint2_linear_2_11718" x1="224.162" y1="-56.0236" x2="269.339" y2="6.7051" gradientUnits="userSpaceOnUse">
<stop stop-color="#EFEFEF"/>
<stop offset="1" stop-color="white"/>
</linearGradient>
<linearGradient id="paint3_linear_2_11718" x1="244.193" y1="16.5029" x2="277.235" y2="25.7638" gradientUnits="userSpaceOnUse">
<stop stop-color="#D4D1D8"/>
<stop offset="1" stop-color="white"/>
</linearGradient>
<linearGradient id="paint4_linear_2_11718" x1="262.334" y1="55.8114" x2="270.622" y2="39.0085" gradientUnits="userSpaceOnUse">
<stop stop-color="white"/>
<stop offset="1" stop-color="#DEDFE0"/>
</linearGradient>
<linearGradient id="paint5_linear_2_11718" x1="314.336" y1="69.869" x2="280.142" y2="18.2282" gradientUnits="userSpaceOnUse">
<stop stop-color="white"/>
<stop offset="1" stop-color="white"/>
</linearGradient>
<linearGradient id="paint6_linear_2_11718" x1="21.1811" y1="152.108" x2="13.0698" y2="143.047" gradientUnits="userSpaceOnUse">
<stop stop-color="#D4D1D8"/>
<stop offset="1" stop-color="white"/>
</linearGradient>
<linearGradient id="paint7_linear_2_11718" x1="16.2904" y1="146.773" x2="14.3797" y2="145.197" gradientUnits="userSpaceOnUse">
<stop stop-color="white"/>
<stop offset="1" stop-color="#E6E7E8"/>
</linearGradient>
<linearGradient id="paint8_linear_2_11718" x1="-10.0879" y1="143.891" x2="11.6652" y2="145.703" gradientUnits="userSpaceOnUse">
<stop stop-color="#F0F0F0"/>
<stop offset="1" stop-color="white"/>
</linearGradient>
<linearGradient id="paint9_linear_2_11718" x1="9.14949" y1="152.897" x2="17.2101" y2="147.502" gradientUnits="userSpaceOnUse">
<stop stop-color="#D4D1D8"/>
<stop offset="1" stop-color="white"/>
</linearGradient>
<linearGradient id="paint10_linear_2_11718" x1="20.9244" y1="156.211" x2="18.8296" y2="151.349" gradientUnits="userSpaceOnUse">
<stop stop-color="white"/>
<stop offset="1" stop-color="#DEDFE0"/>
</linearGradient>
<linearGradient id="paint11_linear_2_11718" x1="33.4752" y1="147.619" x2="16.1201" y2="145.486" gradientUnits="userSpaceOnUse">
<stop stop-color="#F2F2F2"/>
<stop offset="1" stop-color="white"/>
</linearGradient>
<linearGradient id="paint12_linear_2_11718" x1="51.8764" y1="110.887" x2="45.4488" y2="97.7401" gradientUnits="userSpaceOnUse">
<stop stop-color="#D4D1D8"/>
<stop offset="1" stop-color="white"/>
</linearGradient>
<linearGradient id="paint13_linear_2_11718" x1="47.9624" y1="103.113" x2="46.2678" y2="100.655" gradientUnits="userSpaceOnUse">
<stop stop-color="white"/>
<stop offset="1" stop-color="#E6E7E8"/>
</linearGradient>
<linearGradient id="paint14_linear_2_11718" x1="18.3591" y1="91.1349" x2="42.9555" y2="100.352" gradientUnits="userSpaceOnUse">
<stop stop-color="#F4F4F4"/>
<stop offset="1" stop-color="white"/>
</linearGradient>
<linearGradient id="paint15_linear_2_11718" x1="37.6898" y1="107.861" x2="48.7802" y2="104.257" gradientUnits="userSpaceOnUse">
<stop stop-color="#D4D1D8"/>
<stop offset="1" stop-color="white"/>
</linearGradient>
<linearGradient id="paint16_linear_2_11718" x1="50.2302" y1="115.554" x2="49.4097" y2="109.242" gradientUnits="userSpaceOnUse">
<stop stop-color="white"/>
<stop offset="1" stop-color="#DEDFE0"/>
</linearGradient>
<linearGradient id="paint17_linear_2_11718" x1="67.5776" y1="109.716" x2="48.1827" y2="101.568" gradientUnits="userSpaceOnUse">
<stop stop-color="#E7E7E7"/>
<stop offset="1" stop-color="white"/>
</linearGradient>
<linearGradient id="paint18_linear_2_11718" x1="102.237" y1="82.0836" x2="99.0429" y2="60.4294" gradientUnits="userSpaceOnUse">
<stop stop-color="#D4D1D8"/>
<stop offset="1" stop-color="white"/>
</linearGradient>
<linearGradient id="paint19_linear_2_11718" x1="87" y1="78" x2="98.8829" y2="64.9517" gradientUnits="userSpaceOnUse">
<stop stop-color="white"/>
<stop offset="1" stop-color="#E8EDFF"/>
</linearGradient>
<linearGradient id="paint20_linear_2_11718" x1="63.4341" y1="38.724" x2="94.3073" y2="63.0146" gradientUnits="userSpaceOnUse">
<stop stop-color="#E4E9FB"/>
<stop offset="1" stop-color="white"/>
</linearGradient>
<linearGradient id="paint21_linear_2_11718" x1="83.3949" y1="71.3294" x2="100.836" y2="71.2199" gradientUnits="userSpaceOnUse">
<stop stop-color="#D4D1D8"/>
<stop offset="1" stop-color="white"/>
</linearGradient>
<linearGradient id="paint22_linear_2_11718" x1="88.5" y1="89.5" x2="107.502" y2="76.5028" gradientUnits="userSpaceOnUse">
<stop stop-color="white"/>
<stop offset="1" stop-color="#E4E9FB"/>
</linearGradient>
<linearGradient id="paint23_linear_2_11718" x1="125.147" y1="87.5424" x2="101.201" y2="67.1255" gradientUnits="userSpaceOnUse">
<stop stop-color="#E2E8FA"/>
<stop offset="1" stop-color="white"/>
</linearGradient>
<linearGradient id="paint24_linear_2_11718" x1="173.48" y1="62.2015" x2="172.719" y2="28.444" gradientUnits="userSpaceOnUse">
<stop stop-color="#D4D1D8"/>
<stop offset="1" stop-color="white"/>
</linearGradient>
<linearGradient id="paint25_linear_2_11718" x1="172.786" y1="42.1228" x2="171.612" y2="35.3409" gradientUnits="userSpaceOnUse">
<stop stop-color="white"/>
<stop offset="1" stop-color="#E6E7E8"/>
</linearGradient>
<linearGradient id="paint26_linear_2_11718" x1="122.329" y1="-11.5954" x2="164.97" y2="31.4944" gradientUnits="userSpaceOnUse">
<stop stop-color="#D4D1D8"/>
<stop offset="1" stop-color="white"/>
</linearGradient>
<linearGradient id="paint27_linear_2_11718" x1="146.678" y1="42.1458" x2="173.402" y2="45.303" gradientUnits="userSpaceOnUse">
<stop stop-color="#D4D1D8"/>
<stop offset="1" stop-color="white"/>
</linearGradient>
<linearGradient id="paint28_linear_2_11718" x1="165.529" y1="70.3891" x2="169.9" y2="56.3646" gradientUnits="userSpaceOnUse">
<stop stop-color="white"/>
<stop offset="1" stop-color="#DEDFE0"/>
</linearGradient>
<linearGradient id="paint29_linear_2_11718" x1="207.515" y1="74.9368" x2="174.74" y2="39.1095" gradientUnits="userSpaceOnUse">
<stop stop-color="#F7F7F7"/>
<stop offset="1" stop-color="white"/>
</linearGradient>
</defs>
</svg>
