<svg width="257" height="194" viewBox="0 0 257 194" fill="none" xmlns="http://www.w3.org/2000/svg">
<path d="M9.96938 135.511L35.0494 108.833C36.5967 107.201 38.3399 107.041 38.9666 108.473L44.9306 122.322C45.5574 123.764 44.8131 126.258 43.2658 127.89L18.1858 154.568C16.6483 156.21 14.9051 156.37 14.2686 154.928L8.31435 141.049C7.6876 139.637 8.43187 137.143 9.96938 135.511Z" fill="url(#paint0_linear_2_12311)"/>
<path d="M10.7038 135.761L35.7838 109.084C37.3213 107.451 39.0743 107.291 39.701 108.723L45.665 122.573C46.2819 124.015 45.5377 126.508 44.0002 128.141L18.9202 154.818C17.3826 156.46 15.6297 156.621 15.0029 155.179L9.02912 141.329C8.42195 139.887 9.16625 137.394 10.7038 135.761Z" fill="url(#paint1_linear_2_12311)"/>
<path style="mix-blend-mode:color-dodge" d="M10.704 135.761L35.784 109.084C36.9102 107.882 38.1539 107.481 38.9766 107.922C38.0501 108.051 37.2028 108.525 36.5969 109.254L11.4874 135.921C9.94991 137.564 9.20563 140.057 9.82259 141.499L15.7964 155.339C15.933 155.687 16.1864 155.975 16.5113 156.15C16.1848 156.175 15.8592 156.091 15.5836 155.91C15.308 155.73 15.0974 155.462 14.9836 155.148L9.00975 141.299C8.42217 139.887 9.16648 137.393 10.704 135.761Z" fill="url(#paint2_radial_2_12311)"/>
<g style="mix-blend-mode:multiply">
<path d="M37.6937 107.842H37.7524L29.2423 136.352L9.23504 138.174C9.22681 138.148 9.22681 138.12 9.23504 138.094L28.3609 134.389L37.6937 107.842Z" fill="#BCBEC0"/>
</g>
<g style="mix-blend-mode:multiply">
<g style="mix-blend-mode:multiply">
<path d="M23.5718 136.842L16.9223 155.869H16.8635L22.5141 136.952L23.5718 136.842Z" fill="#D1D3D4"/>
</g>
<g style="mix-blend-mode:multiply">
<path d="M32.0526 126.738L45.332 125.526V125.606L31.6217 128.26L32.0526 126.738Z" fill="#D1D3D4"/>
</g>
</g>
<path d="M36.5282 113.9C36.945 113.759 37.3194 113.51 37.6159 113.179C37.9124 112.848 38.1212 112.444 38.2224 112.007C38.477 111.056 38.1244 110.375 37.4389 110.485C37.0207 110.63 36.6456 110.882 36.3492 111.217C36.0527 111.552 35.8446 111.958 35.7447 112.398C35.4999 113.329 35.8427 114.01 36.5282 113.9Z" fill="#603913"/>
<path d="M36.7532 112.929C36.844 112.929 36.9335 112.906 37.0137 112.862C37.0939 112.818 37.1625 112.755 37.2135 112.679L63.1455 73.4934L62.225 72.8525L36.763 111.337L11.301 72.8525L10.3707 73.4934L36.3027 112.679C36.3539 112.753 36.4212 112.814 36.4993 112.858C36.5774 112.901 36.6643 112.925 36.7532 112.929Z" fill="white"/>
<path d="M36.7536 112.929C36.8719 112.928 36.9868 112.889 37.0819 112.817C37.1769 112.745 37.2471 112.644 37.2824 112.529L49.9351 73.3537L48.8774 72.9932L36.7536 110.536L24.6396 72.9531L23.5819 73.3136L36.2248 112.489C36.2544 112.611 36.3219 112.72 36.4173 112.799C36.5127 112.879 36.6307 112.924 36.7536 112.929Z" fill="white"/>
<path d="M3.36885 61.3966C3.37191 59.9506 3.4898 58.5071 3.72139 57.0806C3.89951 55.464 4.16763 53.8592 4.52443 52.2738C5.68871 47.7526 7.72287 43.5141 10.508 39.8063C20.301 28.4904 36.8905 31.8651 36.8905 31.8651C36.8905 31.8651 53.4212 28.5004 63.2534 39.7963C66.0397 43.5108 68.0739 47.756 69.237 52.2838C69.5904 53.8694 69.8552 55.4742 70.0302 57.0906C70.2667 58.5132 70.3846 59.9537 70.3828 61.3966C70.3828 65.3021 69.5504 69.4079 64.1936 71.8814C58.1219 76.4979 48.1623 79.5021 36.8905 79.5021C25.6187 79.5021 15.6493 76.4979 9.57762 71.8814C4.45585 69.8485 3.36885 65.3322 3.36885 61.3966Z" fill="white"/>
<path d="M47.5161 78.5609C42.9623 82.6567 30.8679 82.8569 26.226 78.5609C26.3729 52.6645 31.1225 31.8652 36.8711 31.8652C42.6196 31.8652 47.3594 52.6645 47.5161 78.5609Z" fill="white"/>
<path d="M30.7308 26.9477C34.7835 26.1463 38.9488 26.1463 43.0015 26.9477C40.8054 28.3774 38.7521 30.0243 36.871 31.8646C34.9852 30.0258 32.9287 28.379 30.7308 26.9477Z" fill="white"/>
<path d="M36.8708 31.895C51.6779 31.895 63.7332 49.7101 64.1641 71.9513C64.1641 78.3804 52.0109 80.964 47.5159 78.6207C47.3592 52.6642 42.6585 31.895 36.8708 31.895Z" fill="#5780FF"/>
<path d="M36.8711 31.895C31.0736 31.895 26.3729 52.6642 26.1771 78.5607C22.3186 80.8839 9.99891 78.3203 9.52884 71.8913C9.99891 49.68 22.0542 31.895 36.8711 31.895Z" fill="#5780FF"/>
<path d="M63.2339 39.7963C53.4408 28.5004 36.871 31.8652 36.871 31.8652C38.752 30.0248 40.8054 28.3779 43.0014 26.9482C51.064 28.5337 58.2695 33.1093 63.2339 39.7963Z" fill="#5780FF"/>
<path d="M10.5081 39.8063C15.4764 33.117 22.6845 28.5384 30.7504 26.9482C32.9483 28.3796 35.0048 30.0263 36.8906 31.8652C36.8906 31.8652 20.3012 28.4904 10.5081 39.8063Z" fill="#5780FF"/>
<path style="mix-blend-mode:screen" d="M13.2205 43.9116C13.2205 52.9243 23.6892 60.3046 36.6063 60.3046C49.5234 60.3046 60.002 52.9643 60.002 43.9116C60.002 34.8589 49.5331 27.5186 36.6063 27.5186C23.6794 27.5186 13.2205 34.8989 13.2205 43.9116Z" fill="url(#paint3_linear_2_12311)"/>
<path d="M-6.10352e-05 141.489C-6.10352e-05 144.193 0.920439 146.115 2.39919 147.037L4.98458 148.679C6.53188 149.56 5.54278 147.557 7.9225 146.165C12.6428 143.382 16.4719 136.632 16.4719 131.084C16.4719 128.35 18.9495 128.33 17.4512 127.419L14.5818 125.737C13.0345 124.886 10.929 125.036 8.60803 126.408C3.82901 129.202 -6.10352e-05 135.951 -6.10352e-05 141.489Z" fill="url(#paint4_linear_2_12311)"/>
<path d="M2.80072 143.192C2.80072 148.729 6.62979 150.963 11.3501 148.199C16.0703 145.435 19.8994 138.655 19.8994 133.117C19.8994 127.58 16.0703 125.347 11.3501 128.11C6.62979 130.874 2.80072 137.654 2.80072 143.192Z" fill="url(#paint5_linear_2_12311)"/>
<path style="mix-blend-mode:color-dodge" d="M10.9391 127.91C13.2013 126.568 15.2578 126.388 16.8149 127.169C15.9404 126.983 15.0384 126.975 14.161 127.147C13.2836 127.319 12.4482 127.667 11.7029 128.17C6.98268 130.954 3.15361 137.704 3.15361 143.252C3.15361 146.136 4.19168 148.118 5.8565 148.97C3.77058 148.369 2.41913 146.246 2.41913 142.961C2.38975 137.443 6.21885 130.694 10.9391 127.91Z" fill="url(#paint6_radial_2_12311)"/>
<path d="M105.158 172.513L130.248 145.835C131.785 144.203 133.538 144.043 134.165 145.485L140.139 159.324C140.756 160.766 140.011 163.26 138.474 164.902L113.335 191.569C111.797 193.212 110.045 193.372 109.418 191.93L103.542 178.1C102.886 176.648 103.62 174.155 105.158 172.513Z" fill="url(#paint7_linear_2_12311)"/>
<path d="M105.893 172.763L130.963 146.056C132.51 144.423 134.253 144.263 134.88 145.705L140.854 159.575C141.481 161.017 140.736 163.51 139.189 165.153L114.119 191.82C112.572 193.462 110.828 193.623 110.202 192.181L104.238 178.331C103.611 176.889 104.355 174.396 105.893 172.763Z" fill="url(#paint8_linear_2_12311)"/>
<path style="mix-blend-mode:color-dodge" d="M105.892 172.763L130.963 146.056C132.099 144.854 133.333 144.464 134.155 144.894C133.229 145.024 132.381 145.498 131.776 146.226L106.695 172.904C105.158 174.536 104.414 177.029 105.031 178.471L111.004 192.321C111.148 192.666 111.404 192.949 111.729 193.122C111.401 193.148 111.074 193.064 110.797 192.884C110.52 192.703 110.307 192.435 110.192 192.121L104.228 178.271C103.611 176.889 104.355 174.396 105.892 172.763Z" fill="url(#paint9_radial_2_12311)"/>
<g style="mix-blend-mode:multiply">
<path d="M132.921 144.844L124.431 173.344L104.424 175.166V175.086L123.559 171.391L132.921 144.844Z" fill="#BCBEC0"/>
</g>
<g style="mix-blend-mode:multiply">
<g style="mix-blend-mode:multiply">
<path d="M118.761 173.845L112.111 192.871H112.052L117.703 173.955L118.761 173.845Z" fill="#D1D3D4"/>
</g>
<g style="mix-blend-mode:multiply">
<path d="M127.29 163.741L140.58 162.529V162.609L126.869 165.263L127.29 163.741Z" fill="#D1D3D4"/>
</g>
</g>
<path d="M131.727 150.903C132.144 150.759 132.519 150.507 132.814 150.172C133.109 149.837 133.315 149.43 133.411 148.99C133.666 148.039 133.323 147.358 132.637 147.468C132.218 147.61 131.841 147.861 131.544 148.196C131.248 148.531 131.041 148.939 130.943 149.38C130.689 150.332 131.041 151.063 131.727 150.903Z" fill="#603913"/>
<path d="M131.942 149.931C132.033 149.931 132.122 149.908 132.203 149.864C132.283 149.82 132.351 149.757 132.402 149.68L158.383 110.495L157.463 109.854L132.001 148.339L106.539 109.854L105.608 110.495L131.55 149.68C131.593 149.749 131.651 149.808 131.719 149.851C131.786 149.894 131.863 149.921 131.942 149.931Z" fill="#F7F7F7"/>
<path d="M131.942 149.931C132.059 149.929 132.172 149.891 132.267 149.821C132.361 149.751 132.433 149.653 132.471 149.54L145.114 110.355L144.056 109.995L131.942 147.537L119.828 110.005L118.77 110.365L131.413 149.55C131.453 149.661 131.525 149.757 131.62 149.825C131.714 149.893 131.827 149.93 131.942 149.931Z" fill="#F7F7F7"/>
<path d="M98.5575 98.3984C98.5589 96.9519 98.6801 95.508 98.9198 94.0824C99.0949 92.466 99.3597 90.8612 99.7131 89.2756C100.878 84.7583 102.904 80.5211 105.677 76.8081C115.519 65.5022 132.06 68.8669 132.06 68.8669C132.06 68.8669 148.59 65.5022 158.383 76.7981C161.167 80.5131 163.197 84.7584 164.357 89.2856C164.715 90.8702 164.98 92.4754 165.15 94.0924C165.39 95.5147 165.511 96.9552 165.513 98.3984C165.513 102.304 164.68 106.46 159.323 108.883C153.252 113.5 143.282 116.514 132.011 116.514C120.739 116.514 110.779 113.51 104.708 108.883C99.6249 106.85 98.5575 102.334 98.5575 98.3984Z" fill="url(#paint10_linear_2_12311)"/>
<path d="M142.714 115.573C138.161 119.659 126.066 119.859 121.424 115.573C121.571 89.6664 126.321 68.8672 132.069 68.8672C137.818 68.8672 142.558 89.6664 142.714 115.573Z" fill="url(#paint11_linear_2_12311)"/>
<path d="M125.929 63.9399C129.983 63.1522 134.146 63.1522 138.2 63.9399C136.004 65.375 133.948 67.0214 132.059 68.8568C130.173 67.0229 128.12 65.3765 125.929 63.9399Z" fill="url(#paint12_linear_2_12311)"/>
<path d="M132.06 68.8672C146.877 68.8672 158.922 86.6822 159.353 108.924C159.353 115.363 147.21 117.936 142.705 115.603C142.558 89.6664 137.818 68.8672 132.06 68.8672Z" fill="#0A216A"/>
<path d="M132.06 68.8672C126.272 68.8672 121.561 89.6664 121.415 115.573C117.556 117.886 105.236 115.333 104.766 108.893C105.197 86.6822 117.252 68.8672 132.06 68.8672Z" fill="#0A216A"/>
<path d="M158.383 76.7983C148.541 65.5024 132.011 68.8671 132.011 68.8671C133.899 67.0317 135.955 65.3853 138.151 63.9502C146.21 65.5437 153.413 70.1176 158.383 76.7983Z" fill="#0A216A"/>
<path d="M105.677 76.8085C110.649 70.1163 117.86 65.5344 125.929 63.9404C128.12 65.3771 130.173 67.0234 132.06 68.8574C132.06 68.8574 115.519 65.5026 105.677 76.8085Z" fill="#0A216A"/>
<path style="mix-blend-mode:screen" d="M108.439 80.9643C108.439 89.977 118.917 97.3574 131.834 97.3574C144.751 97.3574 155.201 89.977 155.201 80.9643C155.201 71.9517 144.722 64.5713 131.805 64.5713C118.888 64.5713 108.439 71.8716 108.439 80.9643Z" fill="url(#paint13_linear_2_12311)"/>
<path d="M95.1986 178.491C95.1986 181.195 96.1094 183.118 97.5979 184.039L100.174 185.681C101.721 186.563 100.732 184.56 103.111 183.168C107.832 180.384 111.651 173.634 111.651 168.097C111.651 165.353 114.138 165.333 112.63 164.421L109.761 162.739C108.223 161.888 106.118 162.048 103.797 163.42C99.0277 166.204 95.1986 172.953 95.1986 178.491Z" fill="url(#paint14_linear_2_12311)"/>
<path d="M97.9897 180.194C97.9897 185.742 101.819 187.965 106.549 185.201C111.279 182.437 115.088 175.668 115.088 170.12C115.088 164.572 111.259 162.349 106.549 165.113C101.838 167.877 97.9897 174.656 97.9897 180.194Z" fill="url(#paint15_linear_2_12311)"/>
<path style="mix-blend-mode:color-dodge" d="M106.128 164.912C108.4 163.57 110.446 163.39 112.003 164.171C111.13 163.984 110.23 163.977 109.354 164.148C108.478 164.32 107.645 164.668 106.901 165.172C102.181 167.966 98.3519 174.716 98.3519 180.253C98.3519 183.138 99.3899 185.12 101.055 185.971C98.959 185.371 97.6174 183.248 97.6174 179.963C97.588 174.445 101.407 167.696 106.128 164.912Z" fill="url(#paint16_radial_2_12311)"/>
<path d="M106.344 180.105C106.281 180.007 106.247 179.892 106.247 179.774V171.572L104.232 172.205C104.201 172.223 104.166 172.233 104.13 172.233C104.095 172.233 104.06 172.223 104.029 172.205C103.912 172.136 103.822 172.025 103.777 171.894L103.196 170.659C103.16 170.577 103.14 170.488 103.138 170.398C103.138 170.278 103.138 170.197 103.283 170.167L106.276 169.163C106.395 169.154 106.515 169.186 106.615 169.254L107.816 169.976C107.911 170.033 107.988 170.117 108.039 170.217C108.102 170.316 108.135 170.431 108.136 170.549V180.918C108.141 180.959 108.135 181.001 108.118 181.039C108.101 181.076 108.073 181.108 108.039 181.129C108.005 181.15 107.967 181.162 107.927 181.162C107.888 181.162 107.85 181.15 107.816 181.129L106.567 180.386C106.47 180.314 106.393 180.217 106.344 180.105Z" fill="white"/>
<path d="M12.3437 143.105C12.2809 143.007 12.2472 142.892 12.2469 142.774V134.572L10.2322 135.205C10.2013 135.223 10.1662 135.233 10.1305 135.233C10.0948 135.233 10.0597 135.223 10.0288 135.205C9.91155 135.136 9.82215 135.025 9.77697 134.894L9.19581 133.659C9.16024 133.577 9.1405 133.488 9.1377 133.398C9.1377 133.278 9.13769 133.197 9.28298 133.167L12.2759 132.163C12.3955 132.154 12.5147 132.186 12.6149 132.254L13.816 132.976C13.911 133.033 13.9883 133.117 14.0388 133.217C14.1016 133.316 14.1353 133.431 14.1356 133.549V143.918C14.1413 143.959 14.1352 144.001 14.1179 144.039C14.1007 144.076 14.0732 144.108 14.0388 144.129C14.0053 144.15 13.9667 144.162 13.9274 144.162C13.8881 144.162 13.8495 144.15 13.816 144.129L12.5665 143.386C12.4697 143.314 12.3929 143.217 12.3437 143.105Z" fill="white"/>
<path d="M195.744 109.164L220.824 82.4861C222.361 80.8538 224.114 80.6936 224.741 82.1256L230.705 95.9851C231.332 97.4271 230.578 99.9206 229.04 101.553L203.96 128.23C202.422 129.873 200.67 130.033 200.043 128.591L194.069 114.741C193.462 113.289 194.206 110.796 195.744 109.164Z" fill="url(#paint17_linear_2_12311)"/>
<path d="M196.478 109.414L221.558 82.7367C223.096 81.0944 224.849 80.9342 225.475 82.3762L231.449 96.2257C232.066 97.6677 231.322 100.161 229.784 101.794L204.704 128.471C203.167 130.103 201.414 130.264 200.787 128.832L194.813 115.012C194.196 113.54 194.941 111.006 196.478 109.414Z" fill="url(#paint18_linear_2_12311)"/>
<path style="mix-blend-mode:color-dodge" d="M196.478 109.414L221.558 82.7363C222.685 81.5347 223.919 81.1341 224.751 81.5747C223.821 81.6928 222.97 82.1691 222.371 82.9066L197.291 109.574C195.754 111.216 195 113.71 195.626 115.152L201.59 129.031C201.734 129.379 201.99 129.665 202.315 129.843C201.988 129.87 201.662 129.786 201.386 129.605C201.11 129.424 200.9 129.156 200.787 128.841L194.814 115.012C194.197 113.54 194.941 111.006 196.478 109.414Z" fill="url(#paint19_radial_2_12311)"/>
<g style="mix-blend-mode:multiply">
<path d="M223.468 81.4849H223.517L215.017 110.005L195 111.838V111.757L214.204 108.002L223.468 81.4849Z" fill="#BCBEC0"/>
</g>
<g style="mix-blend-mode:multiply">
<g style="mix-blend-mode:multiply">
<path d="M209.308 110.496L202.658 129.522H202.599L208.24 110.606L209.308 110.496Z" fill="#D1D3D4"/>
</g>
<g style="mix-blend-mode:multiply">
<path d="M217.876 100.391L231.156 99.1797V99.2598L217.445 101.914L217.876 100.391Z" fill="#D1D3D4"/>
</g>
</g>
<path d="M222.303 87.5535C222.722 87.4101 223.098 87.1588 223.395 86.8238C223.691 86.4889 223.899 86.0814 223.997 85.6408C224.242 84.6894 223.899 84.0085 223.213 84.1186C222.794 84.2611 222.417 84.5121 222.12 84.8472C221.824 85.1824 221.616 85.5902 221.519 86.0313C221.274 86.9726 221.617 87.6636 222.303 87.5535Z" fill="#603913"/>
<path d="M222.528 86.5822C222.619 86.582 222.708 86.559 222.789 86.5154C222.869 86.4718 222.937 86.4088 222.988 86.3319L248.92 47.1468L248 46.5059L222.538 84.99L197.076 46.5059L196.155 47.1468L222.038 86.3319C222.092 86.4131 222.165 86.4788 222.251 86.5227C222.337 86.5665 222.432 86.587 222.528 86.5822Z" fill="white"/>
<path d="M222.528 86.5817C222.645 86.58 222.758 86.5417 222.853 86.4718C222.947 86.4019 223.019 86.3039 223.057 86.1911L235.749 47.006L234.691 46.6455L222.567 84.1883L210.453 46.6455L209.395 47.006L222.038 86.1911C222.073 86.2985 222.138 86.3929 222.225 86.4625C222.312 86.532 222.418 86.5735 222.528 86.5817Z" fill="white"/>
<path d="M189.143 35.0395C189.147 33.5968 189.265 32.1567 189.496 30.7334C189.675 29.1137 189.943 27.5056 190.299 25.9167C191.456 21.3994 193.483 17.1639 196.263 13.4591C206.056 2.14323 222.645 5.51798 222.645 5.51798C222.645 5.51798 239.176 2.14323 249.008 13.4491C251.795 17.1636 253.829 21.4089 254.992 25.9367C255.342 27.5225 255.603 29.1273 255.775 30.7435C256.015 32.1624 256.136 33.5996 256.138 35.0395C256.138 38.955 255.305 43.1108 249.948 45.5343C243.877 50.1507 233.907 53.155 222.645 53.155C211.383 53.155 201.404 50.1507 195.333 45.5343C190.23 43.5014 189.143 38.975 189.143 35.0395Z" fill="white"/>
<path d="M233.281 52.2137C228.737 56.3095 216.633 56.4998 211.991 52.2137C212.138 26.3173 216.887 5.51807 222.645 5.51807C228.404 5.51807 233.134 26.3173 233.281 52.2137Z" fill="white"/>
<path d="M216.505 0.601003C220.558 -0.200334 224.723 -0.200334 228.776 0.601003C226.58 2.03068 224.526 3.67757 222.645 5.51792C220.76 3.67908 218.703 2.03234 216.505 0.601003Z" fill="white"/>
<path d="M222.645 5.51758C237.452 5.51758 249.508 23.3226 249.938 45.5739C249.938 52.003 237.785 54.5866 233.29 52.2433C233.134 26.3168 228.433 5.51758 222.645 5.51758Z" fill="#FF2853"/>
<path d="M222.646 5.51758C216.848 5.51758 212.138 26.3168 211.991 52.2132C208.132 54.5365 195.813 51.9729 195.342 45.5439C195.773 23.3226 207.829 5.51758 222.646 5.51758Z" fill="#FF2853"/>
<path d="M249.008 13.4491C239.215 2.14324 222.645 5.51799 222.645 5.51799C224.526 3.67764 226.58 2.03076 228.776 0.601074C236.838 2.18651 244.044 6.76215 249.008 13.4491Z" fill="#FF2853"/>
<path d="M196.263 13.4592C201.228 6.76633 208.438 2.18677 216.505 0.601074C218.703 2.03242 220.76 3.67916 222.646 5.51799C222.646 5.51799 206.095 2.14324 196.263 13.4592Z" fill="#FF2853"/>
<path style="mix-blend-mode:screen" d="M198.995 17.5747C198.995 26.5874 209.464 33.9678 222.381 33.9678C235.298 33.9678 245.777 26.6274 245.777 17.5747C245.777 8.52196 235.298 1.18164 222.381 1.18164C209.464 1.18164 198.995 8.52196 198.995 17.5747Z" fill="url(#paint20_linear_2_12311)"/>
<path d="M185.804 115.142C185.804 117.846 186.715 119.759 188.203 120.69L190.7 122.322C192.248 123.214 191.259 121.201 193.638 119.819C198.359 117.035 202.188 110.285 202.188 104.748C202.188 102.004 204.665 101.984 203.167 101.062L200.288 99.3901C198.75 98.5389 196.645 98.6891 194.324 100.061C189.604 102.855 185.804 109.604 185.804 115.142Z" fill="url(#paint21_linear_2_12311)"/>
<path d="M188.575 116.844C188.575 122.382 192.404 124.615 197.124 121.851C201.845 119.088 205.674 112.308 205.674 106.77C205.674 101.232 201.845 98.9994 197.124 101.763C192.404 104.527 188.575 111.307 188.575 116.844Z" fill="url(#paint22_linear_2_12311)"/>
<path style="mix-blend-mode:color-dodge" d="M196.714 101.563C198.976 100.221 201.032 100.041 202.589 100.822C201.715 100.633 200.813 100.625 199.935 100.796C199.057 100.968 198.222 101.317 197.477 101.823C192.757 104.607 188.928 111.357 188.928 116.904C188.928 119.778 189.966 121.771 191.631 122.622C189.545 122.022 188.194 119.899 188.194 116.614C188.164 111.096 191.993 104.347 196.714 101.563Z" fill="url(#paint23_radial_2_12311)"/>
<path d="M197.344 117.105C197.281 117.007 197.247 116.892 197.247 116.774V108.572L195.232 109.205C195.201 109.223 195.166 109.233 195.13 109.233C195.095 109.233 195.06 109.223 195.029 109.205C194.912 109.136 194.822 109.025 194.777 108.894L194.196 107.659C194.16 107.577 194.14 107.488 194.138 107.398C194.138 107.278 194.138 107.197 194.283 107.167L197.276 106.163C197.395 106.154 197.515 106.186 197.615 106.254L198.816 106.976C198.911 107.033 198.988 107.117 199.039 107.217C199.102 107.316 199.135 107.431 199.136 107.549V117.918C199.141 117.959 199.135 118.001 199.118 118.039C199.101 118.076 199.073 118.108 199.039 118.129C199.005 118.15 198.967 118.162 198.927 118.162C198.888 118.162 198.85 118.15 198.816 118.129L197.567 117.386C197.47 117.314 197.393 117.217 197.344 117.105Z" fill="white"/>
<defs>
<linearGradient id="paint0_linear_2_12311" x1="35.1278" y1="134.309" x2="-22.6238" y2="117.393" gradientUnits="userSpaceOnUse">
<stop offset="0.04" stop-color="#FFA98C"/>
<stop offset="0.32" stop-color="#FFB892"/>
<stop offset="0.86" stop-color="#FEE1A3"/>
<stop offset="1" stop-color="#FEECA8"/>
</linearGradient>
<linearGradient id="paint1_linear_2_12311" x1="78.746" y1="143.732" x2="-26.5437" y2="120.652" gradientUnits="userSpaceOnUse">
<stop offset="0.04" stop-color="#FFA98C"/>
<stop offset="0.32" stop-color="#FFB892"/>
<stop offset="0.86" stop-color="#FEE1A3"/>
<stop offset="1" stop-color="#FEECA8"/>
</linearGradient>
<radialGradient id="paint2_radial_2_12311" cx="0" cy="0" r="1" gradientUnits="userSpaceOnUse" gradientTransform="translate(23.8952 131.946) rotate(180) scale(19.8408 20.2885)">
<stop stop-color="white"/>
<stop offset="0.07" stop-color="#D8D8D8"/>
<stop offset="0.16" stop-color="#A6A6A6"/>
<stop offset="0.26" stop-color="#797979"/>
<stop offset="0.37" stop-color="#545454"/>
<stop offset="0.47" stop-color="#353535"/>
<stop offset="0.59" stop-color="#1E1E1E"/>
<stop offset="0.7" stop-color="#0D0D0D"/>
<stop offset="0.84" stop-color="#030303"/>
<stop offset="1"/>
</radialGradient>
<linearGradient id="paint3_linear_2_12311" x1="52.8628" y1="13.9595" x2="30.1586" y2="53.9865" gradientUnits="userSpaceOnUse">
<stop stop-color="white"/>
<stop offset="1"/>
</linearGradient>
<linearGradient id="paint4_linear_2_12311" x1="1.01842" y1="146.155" x2="16.2223" y2="126.242" gradientUnits="userSpaceOnUse">
<stop offset="0.04" stop-color="#5780FF"/>
<stop offset="0.87" stop-color="#7597FF"/>
</linearGradient>
<linearGradient id="paint5_linear_2_12311" x1="35.0297" y1="143.572" x2="-13.4787" y2="132.939" gradientUnits="userSpaceOnUse">
<stop offset="0.04" stop-color="#5780FF"/>
<stop offset="1" stop-color="#A5BBFF"/>
</linearGradient>
<radialGradient id="paint6_radial_2_12311" cx="0" cy="0" r="1" gradientUnits="userSpaceOnUse" gradientTransform="translate(5.90546 136.722) rotate(180) scale(9.23486 9.44328)">
<stop stop-color="white"/>
<stop offset="0.07" stop-color="#D8D8D8"/>
<stop offset="0.16" stop-color="#A6A6A6"/>
<stop offset="0.26" stop-color="#797979"/>
<stop offset="0.37" stop-color="#545454"/>
<stop offset="0.47" stop-color="#353535"/>
<stop offset="0.59" stop-color="#1E1E1E"/>
<stop offset="0.7" stop-color="#0D0D0D"/>
<stop offset="0.84" stop-color="#030303"/>
<stop offset="1"/>
</radialGradient>
<linearGradient id="paint7_linear_2_12311" x1="130.326" y1="171.311" x2="72.5646" y2="154.395" gradientUnits="userSpaceOnUse">
<stop offset="0.04" stop-color="#FFA98C"/>
<stop offset="0.32" stop-color="#FFB892"/>
<stop offset="0.86" stop-color="#FEE1A3"/>
<stop offset="1" stop-color="#FEECA8"/>
</linearGradient>
<linearGradient id="paint8_linear_2_12311" x1="173.945" y1="180.735" x2="68.6452" y2="157.654" gradientUnits="userSpaceOnUse">
<stop offset="0.04" stop-color="#FFA98C"/>
<stop offset="0.32" stop-color="#FFB892"/>
<stop offset="0.86" stop-color="#FEE1A3"/>
<stop offset="1" stop-color="#FEECA8"/>
</linearGradient>
<radialGradient id="paint9_radial_2_12311" cx="0" cy="0" r="1" gradientUnits="userSpaceOnUse" gradientTransform="translate(119.094 168.958) rotate(180) scale(19.8408 20.2885)">
<stop stop-color="white"/>
<stop offset="0.07" stop-color="#D8D8D8"/>
<stop offset="0.16" stop-color="#A6A6A6"/>
<stop offset="0.26" stop-color="#797979"/>
<stop offset="0.37" stop-color="#545454"/>
<stop offset="0.47" stop-color="#353535"/>
<stop offset="0.59" stop-color="#1E1E1E"/>
<stop offset="0.7" stop-color="#0D0D0D"/>
<stop offset="0.84" stop-color="#030303"/>
<stop offset="1"/>
</radialGradient>
<linearGradient id="paint10_linear_2_12311" x1="132.035" y1="68.3979" x2="132.035" y2="116.514" gradientUnits="userSpaceOnUse">
<stop stop-color="white"/>
<stop offset="1" stop-color="#F5F8FF"/>
</linearGradient>
<linearGradient id="paint11_linear_2_12311" x1="132.069" y1="68.8672" x2="132.069" y2="118.713" gradientUnits="userSpaceOnUse">
<stop stop-color="white"/>
<stop offset="1" stop-color="#F5F8FF"/>
</linearGradient>
<linearGradient id="paint12_linear_2_12311" x1="132.064" y1="63.3491" x2="132.064" y2="68.8568" gradientUnits="userSpaceOnUse">
<stop stop-color="white"/>
<stop offset="1" stop-color="#F5F8FF"/>
</linearGradient>
<linearGradient id="paint13_linear_2_12311" x1="148.062" y1="50.9621" x2="125.357" y2="90.9891" gradientUnits="userSpaceOnUse">
<stop stop-color="white"/>
<stop offset="1"/>
</linearGradient>
<linearGradient id="paint14_linear_2_12311" x1="96.2171" y1="183.168" x2="111.411" y2="163.244" gradientUnits="userSpaceOnUse">
<stop offset="0.04" stop-color="#243B84"/>
<stop offset="0.87" stop-color="#30468F"/>
</linearGradient>
<linearGradient id="paint15_linear_2_12311" x1="130.228" y1="180.584" x2="81.71" y2="169.941" gradientUnits="userSpaceOnUse">
<stop offset="0.04" stop-color="#0A216A"/>
<stop offset="1" stop-color="#5369B1"/>
</linearGradient>
<radialGradient id="paint16_radial_2_12311" cx="0" cy="0" r="1" gradientUnits="userSpaceOnUse" gradientTransform="translate(101.094 173.724) rotate(180) scale(9.23486 9.44327)">
<stop stop-color="white"/>
<stop offset="0.07" stop-color="#D8D8D8"/>
<stop offset="0.16" stop-color="#A6A6A6"/>
<stop offset="0.26" stop-color="#797979"/>
<stop offset="0.37" stop-color="#545454"/>
<stop offset="0.47" stop-color="#353535"/>
<stop offset="0.59" stop-color="#1E1E1E"/>
<stop offset="0.7" stop-color="#0D0D0D"/>
<stop offset="0.84" stop-color="#030303"/>
<stop offset="1"/>
</radialGradient>
<linearGradient id="paint17_linear_2_12311" x1="220.902" y1="107.962" x2="163.141" y2="91.0457" gradientUnits="userSpaceOnUse">
<stop offset="0.04" stop-color="#FFA98C"/>
<stop offset="0.32" stop-color="#FFB892"/>
<stop offset="0.86" stop-color="#FEE1A3"/>
<stop offset="1" stop-color="#FEECA8"/>
</linearGradient>
<linearGradient id="paint18_linear_2_12311" x1="264.52" y1="117.385" x2="159.231" y2="94.3047" gradientUnits="userSpaceOnUse">
<stop offset="0.04" stop-color="#FFA98C"/>
<stop offset="0.32" stop-color="#FFB892"/>
<stop offset="0.86" stop-color="#FEE1A3"/>
<stop offset="1" stop-color="#FEECA8"/>
</linearGradient>
<radialGradient id="paint19_radial_2_12311" cx="0" cy="0" r="1" gradientUnits="userSpaceOnUse" gradientTransform="translate(209.67 105.598) rotate(180) scale(19.8407 20.2885)">
<stop stop-color="white"/>
<stop offset="0.07" stop-color="#D8D8D8"/>
<stop offset="0.16" stop-color="#A6A6A6"/>
<stop offset="0.26" stop-color="#797979"/>
<stop offset="0.37" stop-color="#545454"/>
<stop offset="0.47" stop-color="#353535"/>
<stop offset="0.59" stop-color="#1E1E1E"/>
<stop offset="0.7" stop-color="#0D0D0D"/>
<stop offset="0.84" stop-color="#030303"/>
<stop offset="1"/>
</radialGradient>
<linearGradient id="paint20_linear_2_12311" x1="238.638" y1="-12.3874" x2="215.934" y2="27.6395" gradientUnits="userSpaceOnUse">
<stop stop-color="white"/>
<stop offset="1"/>
</linearGradient>
<linearGradient id="paint21_linear_2_12311" x1="186.793" y1="119.809" x2="201.997" y2="99.8957" gradientUnits="userSpaceOnUse">
<stop offset="0.04" stop-color="#FF2853"/>
<stop offset="0.87" stop-color="#FF5F7F"/>
</linearGradient>
<linearGradient id="paint22_linear_2_12311" x1="220.804" y1="117.225" x2="172.286" y2="106.592" gradientUnits="userSpaceOnUse">
<stop offset="0.04" stop-color="#FF2853"/>
<stop offset="1" stop-color="#FF859D"/>
</linearGradient>
<radialGradient id="paint23_radial_2_12311" cx="0" cy="0" r="1" gradientUnits="userSpaceOnUse" gradientTransform="translate(191.67 110.375) rotate(180) scale(9.23487 9.44328)">
<stop stop-color="white"/>
<stop offset="0.07" stop-color="#D8D8D8"/>
<stop offset="0.16" stop-color="#A6A6A6"/>
<stop offset="0.26" stop-color="#797979"/>
<stop offset="0.37" stop-color="#545454"/>
<stop offset="0.47" stop-color="#353535"/>
<stop offset="0.59" stop-color="#1E1E1E"/>
<stop offset="0.7" stop-color="#0D0D0D"/>
<stop offset="0.84" stop-color="#030303"/>
<stop offset="1"/>
</radialGradient>
</defs>
</svg>
