<svg width="319" height="354" viewBox="0 0 319 354" fill="none" xmlns="http://www.w3.org/2000/svg">
<g filter="url(#filter0_d_762_1839)">
<rect x="30.8613" y="26.0615" width="243.057" height="293.098" rx="10" fill="#5780FF"/>
</g>
<path d="M51.6438 89.8057H54.1838V76.0257H51.6438V89.8057ZM59.7204 84.8257C59.7204 83.2057 60.6404 82.6457 61.7604 82.6457C62.8204 82.6457 63.5404 83.3657 63.5404 84.7257V89.8057H65.9804V84.2857C65.9804 81.6257 64.6804 80.2657 62.5004 80.2657C61.4004 80.2657 60.2604 80.8257 59.7204 81.8457V80.4657H57.2804V89.8057H59.7204V84.8257ZM77.628 85.1057C77.628 82.1457 75.528 80.2657 72.888 80.2657C70.228 80.2657 68.048 82.1457 68.048 85.1057C68.048 88.0457 70.228 90.0057 72.888 90.0057C74.608 90.0057 76.388 89.3457 77.248 87.7457C76.628 87.4257 75.968 87.0657 75.388 86.7457C74.928 87.5457 73.988 87.9457 73.048 87.9457C71.668 87.9457 70.628 87.2057 70.468 85.9457H77.588C77.608 85.7257 77.628 85.3457 77.628 85.1057ZM70.448 84.2857C70.628 83.0057 71.628 82.3057 72.908 82.3057C74.108 82.3057 75.068 83.0057 75.248 84.2857H70.448ZM82.1227 86.5057C82.1227 84.0257 82.8027 82.5457 84.4627 82.5457C84.7027 82.5457 85.3027 82.5457 85.8827 82.8057L86.3027 80.6057C85.9227 80.3857 85.4227 80.2657 84.7627 80.2657C83.7027 80.2657 82.6027 80.9657 82.1227 82.6657V80.4657H79.6827V89.8057H82.1227V86.5057ZM96.5654 80.4657H93.9654L91.6254 86.2857L89.3054 80.4657H86.7054L90.3454 89.0857L88.2054 94.3657H90.7854L96.5654 80.4657Z" fill="white"/>
<g clip-path="url(#clip0_762_1839)">
<path d="M225 281.7C224.972 281.7 224.944 281.695 224.918 281.685C224.891 281.675 224.867 281.659 224.847 281.64C224.827 281.62 224.81 281.597 224.799 281.571C224.788 281.545 224.782 281.517 224.781 281.489C224.783 281.43 224.806 281.375 224.846 281.332L224.914 281.285C224.954 281.268 224.998 281.263 225.04 281.272C225.082 281.28 225.121 281.301 225.151 281.332C225.191 281.375 225.214 281.43 225.216 281.489C225.214 281.545 225.191 281.599 225.151 281.639C225.133 281.66 225.109 281.675 225.083 281.682C225.057 281.695 225.029 281.701 225 281.7Z" fill="#6AE1C1"/>
<path d="M248.927 235.621C248.87 235.621 248.816 235.598 248.776 235.557C248.754 235.535 248.736 235.51 248.722 235.482C248.72 235.456 248.72 235.43 248.722 235.403C248.72 235.376 248.72 235.349 248.722 235.321C248.735 235.295 248.754 235.272 248.776 235.253C248.793 235.229 248.817 235.21 248.845 235.2C248.885 235.185 248.929 235.183 248.971 235.192C249.013 235.202 249.051 235.223 249.082 235.253C249.102 235.272 249.118 235.295 249.128 235.321C249.136 235.348 249.136 235.377 249.128 235.403C249.136 235.429 249.136 235.456 249.128 235.482C249.117 235.51 249.101 235.535 249.082 235.557C249.041 235.598 248.985 235.621 248.927 235.621Z" fill="#6AE1C1"/>
<path d="M59.8072 233.53C59.7809 233.533 59.7544 233.533 59.7281 233.53C59.6993 233.52 59.6743 233.501 59.6562 233.477C59.6336 233.46 59.6172 233.436 59.6095 233.409C59.6041 233.382 59.6041 233.354 59.6095 233.327C59.6088 233.269 59.6308 233.214 59.6706 233.173C59.6911 233.153 59.7156 233.137 59.7425 233.126C59.7955 233.105 59.8548 233.105 59.9078 233.126C59.9333 233.139 59.9574 233.155 59.9796 233.173C60.0195 233.214 60.0414 233.269 60.0407 233.327C60.0462 233.354 60.0462 233.382 60.0407 233.409C60.029 233.434 60.0133 233.457 59.994 233.477C59.9732 233.5 59.9474 233.518 59.9186 233.53C59.8815 233.534 59.8442 233.534 59.8072 233.53Z" fill="#6AE1C1"/>
<path d="M86.4365 249.137C86.3872 249.107 86.3514 249.059 86.3367 249.003C86.322 248.947 86.3294 248.888 86.3575 248.837C86.3892 248.789 86.4378 248.755 86.4937 248.741C86.5496 248.727 86.6087 248.735 86.6593 248.762C86.7085 248.792 86.744 248.839 86.7582 248.895C86.7723 248.95 86.7639 249.009 86.7348 249.059C86.7156 249.091 86.6883 249.118 86.6555 249.137C86.6228 249.156 86.5857 249.166 86.5479 249.166C86.509 249.165 86.4708 249.156 86.4365 249.137ZM85.4484 248.555C85.4235 248.541 85.4017 248.522 85.3841 248.5C85.3664 248.478 85.3534 248.452 85.3457 248.425C85.338 248.398 85.3359 248.369 85.3393 248.341C85.3427 248.313 85.3517 248.286 85.3657 248.262C85.3963 248.212 85.4447 248.177 85.5009 248.162C85.557 248.148 85.6167 248.155 85.6676 248.183C85.6923 248.197 85.7139 248.216 85.7311 248.239C85.7483 248.262 85.7608 248.288 85.7679 248.315C85.7749 248.343 85.7763 248.372 85.7721 248.4C85.7678 248.428 85.7579 248.455 85.743 248.48C85.7245 248.512 85.6973 248.539 85.6643 248.558C85.6313 248.576 85.5939 248.585 85.5562 248.583C85.518 248.586 85.4799 248.576 85.4484 248.555ZM84.4566 247.986C84.4075 247.957 84.3719 247.909 84.3571 247.854C84.3424 247.798 84.3497 247.74 84.3776 247.69C84.392 247.664 84.4114 247.643 84.4346 247.625C84.4578 247.608 84.4842 247.595 84.5124 247.588C84.5406 247.581 84.57 247.58 84.5986 247.584C84.6273 247.589 84.6548 247.599 84.6794 247.614C84.7284 247.643 84.7638 247.691 84.778 247.746C84.7921 247.8 84.7838 247.859 84.7549 247.908C84.7349 247.939 84.7075 247.966 84.6749 247.984C84.6423 248.003 84.6056 248.014 84.568 248.015C84.5291 248.014 84.491 248.004 84.4566 247.986ZM83.4613 247.407C83.4135 247.376 83.3791 247.329 83.3651 247.274C83.3511 247.218 83.3585 247.16 83.3859 247.11C83.4164 247.061 83.4648 247.026 83.521 247.011C83.5772 246.996 83.6369 247.004 83.6877 247.032C83.7352 247.064 83.7691 247.112 83.783 247.168C83.7969 247.223 83.7898 247.282 83.7631 247.332C83.7432 247.364 83.7151 247.391 83.6817 247.409C83.6483 247.427 83.6108 247.436 83.5727 247.436C83.533 247.434 83.4944 247.422 83.4613 247.4V247.407ZM82.466 246.821C82.4169 246.791 82.3812 246.744 82.3665 246.688C82.3517 246.633 82.3591 246.574 82.3869 246.524C82.4014 246.499 82.4207 246.477 82.4439 246.46C82.4671 246.442 82.4936 246.43 82.5218 246.423C82.5499 246.416 82.5793 246.414 82.608 246.419C82.6367 246.423 82.6642 246.434 82.6888 246.449C82.7371 246.479 82.7718 246.526 82.7853 246.581C82.7987 246.636 82.7899 246.694 82.7606 246.742C82.741 246.775 82.7132 246.803 82.6799 246.822C82.6466 246.842 82.6088 246.852 82.5702 246.853C82.5333 246.851 82.4975 246.84 82.466 246.821ZM81.4706 246.242C81.4237 246.211 81.39 246.164 81.3761 246.11C81.3621 246.055 81.3689 245.998 81.3952 245.949C81.4238 245.899 81.4707 245.863 81.5257 245.848C81.5808 245.833 81.6397 245.839 81.6898 245.866C81.7398 245.896 81.7763 245.944 81.7917 246C81.8071 246.056 81.8002 246.116 81.7725 246.167C81.7531 246.199 81.7257 246.225 81.6929 246.243C81.6601 246.261 81.6231 246.271 81.5856 246.27C81.5493 246.268 81.5138 246.258 81.4814 246.242H81.4706ZM80.4825 245.659C80.4342 245.629 80.3994 245.582 80.3854 245.528C80.3713 245.473 80.3791 245.415 80.407 245.366C80.4211 245.341 80.44 245.32 80.4626 245.303C80.4852 245.286 80.5109 245.273 80.5384 245.266C80.5659 245.259 80.5945 245.258 80.6225 245.262C80.6506 245.266 80.6775 245.276 80.7017 245.291C80.7266 245.305 80.7485 245.323 80.766 245.345C80.7835 245.368 80.7964 245.393 80.8038 245.421C80.8111 245.448 80.8129 245.477 80.8089 245.505C80.805 245.533 80.7954 245.56 80.7807 245.584C80.7611 245.617 80.7333 245.645 80.7 245.664C80.6667 245.683 80.6289 245.694 80.5903 245.695C80.5555 245.691 80.5222 245.679 80.4933 245.659H80.4825ZM79.4907 245.084C79.4432 245.053 79.4089 245.006 79.3949 244.952C79.3809 244.897 79.3882 244.84 79.4153 244.79C79.4439 244.741 79.4908 244.705 79.5458 244.69C79.6009 244.674 79.6598 244.681 79.71 244.708C79.7599 244.738 79.7964 244.786 79.8118 244.842C79.8272 244.898 79.8203 244.957 79.7926 245.008C79.7726 245.041 79.7446 245.067 79.7112 245.085C79.6778 245.104 79.6402 245.113 79.6022 245.112C79.567 245.11 79.5327 245.1 79.5015 245.084H79.4907ZM78.5134 244.501C78.4884 244.487 78.4665 244.469 78.449 244.446C78.4315 244.424 78.4189 244.398 78.4118 244.371C78.4047 244.343 78.4034 244.314 78.4079 244.286C78.4124 244.258 78.4226 244.232 78.4379 244.208C78.452 244.183 78.4709 244.162 78.4935 244.145C78.516 244.128 78.5418 244.115 78.5693 244.108C78.5968 244.101 78.6254 244.1 78.6534 244.104C78.6815 244.108 78.7084 244.118 78.7326 244.133C78.7575 244.146 78.7794 244.165 78.7969 244.187C78.8144 244.21 78.8273 244.235 78.8347 244.263C78.842 244.29 78.8438 244.318 78.8398 244.346C78.8359 244.375 78.8263 244.401 78.8116 244.426C78.7922 244.459 78.7643 244.485 78.7308 244.504C78.6972 244.522 78.6594 244.531 78.6212 244.529C78.5831 244.532 78.5453 244.522 78.5134 244.501ZM77.5216 243.925C77.4722 243.895 77.4366 243.847 77.4225 243.79C77.4084 243.734 77.4169 243.675 77.4462 243.625C77.4766 243.578 77.5239 243.544 77.5786 243.53C77.6333 243.516 77.6913 243.523 77.7408 243.55C77.7908 243.58 77.8273 243.628 77.8427 243.684C77.8581 243.74 77.8512 243.799 77.8235 243.85C77.803 243.882 77.7749 243.908 77.7416 243.926C77.7083 243.944 77.671 243.954 77.633 243.954C77.5942 243.953 77.5561 243.943 77.5216 243.925ZM76.5335 243.339C76.5085 243.325 76.4866 243.307 76.4691 243.284C76.4517 243.262 76.439 243.236 76.4319 243.209C76.4249 243.181 76.4235 243.153 76.428 243.125C76.4325 243.097 76.4427 243.07 76.4581 243.046C76.4721 243.021 76.491 243 76.5136 242.983C76.5361 242.966 76.5619 242.953 76.5894 242.946C76.6169 242.939 76.6455 242.938 76.6736 242.942C76.7016 242.946 76.7285 242.956 76.7527 242.971C76.7776 242.985 76.7995 243.003 76.817 243.025C76.8345 243.048 76.8474 243.073 76.8548 243.101C76.8621 243.128 76.8639 243.157 76.8599 243.185C76.856 243.213 76.8464 243.24 76.8317 243.264C76.8123 243.297 76.7844 243.324 76.7509 243.342C76.7173 243.36 76.6795 243.369 76.6413 243.368C76.6032 243.37 76.5654 243.36 76.5335 243.339ZM75.5418 242.764C75.5169 242.749 75.4952 242.729 75.478 242.706C75.4607 242.683 75.4482 242.657 75.4412 242.629C75.4342 242.601 75.4328 242.572 75.4371 242.544C75.4414 242.515 75.4513 242.488 75.4663 242.463C75.4967 242.416 75.5441 242.382 75.5988 242.368C75.6534 242.354 75.7114 242.361 75.761 242.388C75.8107 242.417 75.8471 242.465 75.8625 242.52C75.8779 242.575 75.8711 242.634 75.8436 242.685C75.8233 242.717 75.7953 242.744 75.762 242.762C75.7288 242.781 75.6913 242.791 75.6531 242.792C75.6146 242.792 75.5765 242.784 75.5418 242.767V242.764ZM74.5608 242.188C74.5357 242.174 74.5137 242.155 74.4962 242.132C74.4787 242.11 74.466 242.084 74.459 242.056C74.4519 242.028 74.4506 241.999 74.4552 241.971C74.4597 241.943 74.4699 241.915 74.4853 241.891C74.4995 241.867 74.5183 241.845 74.5408 241.828C74.5633 241.811 74.5889 241.798 74.6163 241.791C74.6436 241.784 74.6722 241.782 74.7003 241.786C74.7284 241.789 74.7554 241.799 74.78 241.813C74.83 241.842 74.8665 241.89 74.8819 241.946C74.8972 242.002 74.8904 242.062 74.8626 242.113C74.8414 242.145 74.8125 242.171 74.7787 242.189C74.7448 242.207 74.707 242.216 74.6686 242.217C74.6307 242.217 74.5933 242.207 74.5608 242.188ZM73.5691 241.609C73.5443 241.594 73.5227 241.575 73.5055 241.553C73.4883 241.53 73.4758 241.504 73.4688 241.476C73.4617 241.449 73.4603 241.42 73.4646 241.392C73.4689 241.364 73.4787 241.336 73.4936 241.312C73.5077 241.288 73.5266 241.266 73.5491 241.249C73.5717 241.232 73.5975 241.22 73.625 241.213C73.6525 241.206 73.6811 241.204 73.7091 241.208C73.7372 241.213 73.764 241.222 73.7882 241.237C73.8132 241.251 73.8351 241.269 73.8526 241.292C73.8701 241.314 73.8827 241.34 73.8898 241.367C73.8969 241.395 73.8982 241.423 73.8937 241.451C73.8892 241.479 73.879 241.506 73.8637 241.53C73.8456 241.563 73.8191 241.59 73.7869 241.609C73.7546 241.628 73.7179 241.638 73.6804 241.637C73.6392 241.638 73.5985 241.628 73.5619 241.609H73.5691ZM72.5809 241.03C72.5559 241.016 72.534 240.997 72.5165 240.975C72.4991 240.953 72.4864 240.927 72.4793 240.899C72.4723 240.872 72.4709 240.843 72.4754 240.815C72.4799 240.787 72.4901 240.761 72.5055 240.737C72.5193 240.712 72.5379 240.69 72.5602 240.673C72.5826 240.655 72.6082 240.642 72.6356 240.634C72.6629 240.627 72.6916 240.625 72.7198 240.628C72.7481 240.631 72.7753 240.64 72.8001 240.654C72.8249 240.669 72.8466 240.689 72.8639 240.712C72.8811 240.735 72.8937 240.761 72.9007 240.789C72.9077 240.817 72.9091 240.846 72.9048 240.874C72.9005 240.903 72.8905 240.93 72.8756 240.955C72.8564 240.987 72.8291 241.013 72.7962 241.032C72.7634 241.05 72.7263 241.059 72.6887 241.058C72.6483 241.061 72.6079 241.051 72.5737 241.03H72.5809ZM71.5892 240.454C71.5397 240.424 71.5041 240.375 71.49 240.319C71.4759 240.263 71.4844 240.204 71.5137 240.154C71.5274 240.129 71.5461 240.107 71.5687 240.09C71.5912 240.072 71.6171 240.06 71.6447 240.053C71.6723 240.046 71.7011 240.045 71.7292 240.049C71.7574 240.053 71.7843 240.064 71.8084 240.079C71.8334 240.093 71.8553 240.111 71.8727 240.134C71.8902 240.156 71.9029 240.182 71.9099 240.209C71.917 240.237 71.9183 240.265 71.9138 240.293C71.9093 240.321 71.8991 240.348 71.8838 240.372C71.8659 240.405 71.8395 240.433 71.8073 240.452C71.7751 240.472 71.7382 240.482 71.7006 240.483C71.6594 240.482 71.619 240.472 71.582 240.454H71.5892ZM70.6082 239.872C70.5587 239.843 70.5224 239.796 70.5069 239.742C70.4915 239.687 70.4982 239.628 70.5256 239.578C70.5556 239.529 70.6037 239.492 70.6599 239.477C70.7161 239.462 70.7761 239.469 70.8274 239.496C70.8522 239.511 70.8739 239.53 70.8912 239.553C70.9084 239.576 70.921 239.603 70.928 239.631C70.935 239.659 70.9364 239.688 70.9321 239.716C70.9278 239.744 70.9178 239.772 70.9029 239.796C70.8837 239.829 70.8564 239.855 70.8235 239.873C70.7907 239.892 70.7536 239.901 70.716 239.9C70.678 239.902 70.6404 239.892 70.6082 239.872ZM69.6165 239.289C69.5919 239.275 69.5704 239.256 69.5531 239.234C69.5359 239.211 69.5232 239.186 69.5159 239.159C69.5085 239.131 69.5067 239.103 69.5104 239.075C69.5141 239.047 69.5232 239.02 69.5374 238.996C69.5515 238.971 69.5705 238.949 69.5934 238.931C69.6162 238.914 69.6424 238.901 69.6703 238.894C69.6982 238.887 69.7273 238.886 69.7557 238.891C69.7841 238.895 69.8113 238.905 69.8356 238.921C69.8606 238.934 69.8825 238.953 69.9 238.975C69.9175 238.998 69.9302 239.023 69.9372 239.051C69.9443 239.078 69.9456 239.107 69.9411 239.135C69.9366 239.163 69.9264 239.19 69.9111 239.214C69.8938 239.247 69.8676 239.275 69.8352 239.295C69.8029 239.314 69.7657 239.325 69.7278 239.325C69.683 239.328 69.6383 239.315 69.6021 239.289H69.6165ZM68.6283 238.713C68.5788 238.685 68.5425 238.638 68.5271 238.583C68.5116 238.529 68.5183 238.47 68.5457 238.42C68.5757 238.37 68.6238 238.334 68.68 238.319C68.7362 238.303 68.7962 238.31 68.8475 238.338C68.8723 238.353 68.894 238.372 68.9113 238.395C68.9286 238.418 68.9411 238.445 68.9481 238.472C68.9551 238.5 68.9565 238.529 68.9522 238.558C68.9479 238.586 68.9379 238.614 68.923 238.638C68.9028 238.669 68.8752 238.695 68.8426 238.713C68.81 238.731 68.7734 238.741 68.7361 238.742C68.6932 238.749 68.6493 238.738 68.6139 238.713H68.6283ZM67.6366 238.131C67.612 238.117 67.5905 238.098 67.5733 238.075C67.556 238.053 67.5433 238.028 67.536 238C67.5286 237.973 67.5268 237.945 67.5305 237.917C67.5342 237.889 67.5434 237.862 67.5575 237.837C67.572 237.813 67.5912 237.791 67.6141 237.774C67.637 237.757 67.6631 237.745 67.6908 237.738C67.7186 237.731 67.7475 237.729 67.7758 237.734C67.8041 237.738 67.8313 237.748 67.8558 237.762C67.904 237.792 67.9388 237.839 67.9529 237.894C67.967 237.948 67.9592 238.006 67.9312 238.056C67.9124 238.089 67.8848 238.118 67.8513 238.137C67.8178 238.157 67.7796 238.167 67.7408 238.166C67.6981 238.17 67.6556 238.157 67.6222 238.131H67.6366ZM66.6484 237.555C66.5989 237.527 66.5626 237.48 66.5472 237.425C66.5317 237.37 66.5384 237.312 66.5658 237.262C66.5958 237.212 66.6439 237.176 66.7001 237.161C66.7563 237.145 66.8164 237.152 66.8676 237.18C66.9161 237.21 66.951 237.258 66.9651 237.313C66.9791 237.368 66.9713 237.427 66.9431 237.476C66.9239 237.509 66.8966 237.536 66.8638 237.554C66.8311 237.573 66.794 237.583 66.7562 237.584C66.7136 237.586 66.6711 237.576 66.6341 237.555H66.6484ZM65.6531 236.972C65.6041 236.943 65.5687 236.896 65.5545 236.841C65.5404 236.786 65.5487 236.728 65.5776 236.679C65.5921 236.655 65.6113 236.633 65.6342 236.616C65.6571 236.599 65.6832 236.586 65.7109 236.579C65.7387 236.572 65.7676 236.571 65.7959 236.575C65.8242 236.58 65.8514 236.589 65.8759 236.604C65.9241 236.634 65.959 236.681 65.973 236.736C65.9871 236.79 65.9793 236.848 65.9513 236.897C65.9326 236.931 65.905 236.959 65.8714 236.979C65.8379 236.998 65.7997 237.008 65.7609 237.008C65.7172 237.011 65.6738 236.998 65.6387 236.972H65.6531ZM64.6614 236.397C64.6135 236.366 64.5792 236.318 64.5652 236.263C64.5512 236.208 64.5586 236.15 64.5859 236.1C64.6157 236.052 64.6631 236.017 64.718 236.003C64.773 235.989 64.8312 235.997 64.8805 236.025C64.93 236.054 64.9664 236.1 64.9818 236.155C64.9972 236.21 64.9905 236.268 64.9632 236.318C64.9434 236.351 64.9155 236.378 64.8821 236.397C64.8488 236.415 64.8111 236.425 64.7727 236.425C64.7291 236.427 64.6857 236.417 64.647 236.397H64.6614ZM63.6588 235.832C63.6096 235.802 63.5741 235.755 63.56 235.699C63.5459 235.644 63.5543 235.585 63.5834 235.535C63.5978 235.511 63.6169 235.49 63.6396 235.473C63.6623 235.457 63.6881 235.445 63.7156 235.438C63.743 235.431 63.7715 235.43 63.7994 235.435C63.8273 235.439 63.8541 235.449 63.878 235.464C63.9026 235.478 63.9241 235.497 63.9413 235.519C63.9586 235.541 63.9713 235.567 63.9786 235.594C63.986 235.621 63.9878 235.65 63.9841 235.678C63.9804 235.706 63.9712 235.733 63.9571 235.757C63.9371 235.789 63.909 235.816 63.8757 235.834C63.8423 235.852 63.8047 235.861 63.7666 235.861C63.7287 235.861 63.6913 235.851 63.6588 235.832ZM62.6671 235.256C62.6196 235.224 62.5857 235.176 62.5718 235.121C62.5579 235.065 62.5649 235.007 62.5916 234.956C62.6214 234.908 62.6688 234.874 62.7237 234.86C62.7787 234.846 62.8369 234.853 62.8863 234.881C62.9358 234.91 62.9721 234.956 62.9875 235.011C63.003 235.066 62.9963 235.124 62.9689 235.174C62.9493 235.207 62.9215 235.235 62.8882 235.254C62.8549 235.274 62.8171 235.284 62.7785 235.285C62.739 235.278 62.7012 235.263 62.6671 235.242V235.256ZM61.6789 234.674C61.654 234.66 61.6321 234.642 61.6146 234.619C61.5971 234.597 61.5844 234.571 61.5774 234.543C61.5703 234.516 61.569 234.487 61.5735 234.459C61.5779 234.431 61.5882 234.405 61.6035 234.381C61.6173 234.356 61.636 234.334 61.6583 234.317C61.6806 234.299 61.7062 234.286 61.7336 234.279C61.761 234.271 61.7896 234.269 61.8179 234.272C61.8461 234.276 61.8734 234.284 61.8981 234.298C61.9475 234.329 61.9833 234.377 61.998 234.433C62.0127 234.489 62.0052 234.548 61.9772 234.599C61.9572 234.631 61.9292 234.657 61.8958 234.676C61.8624 234.694 61.8248 234.703 61.7867 234.702C61.7473 234.699 61.7096 234.684 61.6789 234.659V234.674ZM60.6872 234.098C60.6623 234.084 60.6407 234.064 60.6234 234.041C60.6061 234.018 60.5936 233.992 60.5866 233.964C60.5796 233.936 60.5782 233.907 60.5825 233.878C60.5868 233.85 60.5968 233.823 60.6117 233.798C60.6255 233.773 60.6442 233.751 60.6667 233.734C60.6892 233.717 60.7151 233.704 60.7427 233.697C60.7703 233.69 60.7991 233.689 60.8273 233.693C60.8554 233.697 60.8823 233.708 60.9064 233.723C60.9559 233.751 60.9922 233.798 61.0076 233.853C61.0231 233.908 61.0164 233.966 60.989 234.016C60.9689 234.049 60.941 234.076 60.9078 234.095C60.8746 234.115 60.8371 234.125 60.7986 234.127C60.7586 234.122 60.7204 234.107 60.6872 234.084V234.098Z" fill="#6AE1C1"/>
<path d="M87.5356 249.742H87.4494C87.425 249.729 87.4021 249.713 87.3811 249.695C87.3415 249.653 87.3185 249.599 87.3164 249.541C87.316 249.513 87.3215 249.485 87.3327 249.459C87.3438 249.434 87.3603 249.41 87.3811 249.391C87.4011 249.371 87.425 249.355 87.4512 249.345C87.4774 249.334 87.5055 249.328 87.5338 249.328C87.5622 249.328 87.5903 249.334 87.6165 249.345C87.6427 249.355 87.6665 249.371 87.6866 249.391C87.7079 249.41 87.7248 249.433 87.736 249.459C87.7472 249.485 87.7524 249.513 87.7513 249.541C87.7512 249.569 87.7451 249.595 87.7333 249.62C87.7277 249.65 87.7111 249.677 87.6866 249.695C87.6681 249.716 87.6447 249.732 87.6183 249.742C87.5909 249.746 87.563 249.746 87.5356 249.742Z" fill="#6AE1C1"/>
<path d="M83.2023 222.123V258.035L62.3613 246.063L83.2023 222.123Z" fill="#D0D0D0"/>
<path d="M83.2065 258.246C83.1688 258.245 83.1319 258.235 83.0987 258.217L62.2578 246.245C62.2315 246.23 62.2089 246.208 62.1915 246.183C62.1742 246.158 62.1624 246.129 62.1571 246.099C62.1522 246.069 62.1537 246.038 62.1618 246.008C62.1699 245.978 62.1842 245.951 62.2039 245.927L83.0448 221.976C83.072 221.943 83.1088 221.92 83.15 221.909C83.1912 221.898 83.2349 221.9 83.2748 221.915C83.3149 221.931 83.3494 221.958 83.3737 221.993C83.3981 222.028 83.4112 222.069 83.4113 222.112V258.035C83.4111 258.072 83.4014 258.108 83.3831 258.14C83.3649 258.172 83.3387 258.198 83.3071 258.217C83.2765 258.235 83.2419 258.245 83.2065 258.246ZM62.7033 246.009L83.0089 257.674V222.684L62.7033 246.009Z" fill="white"/>
<path d="M249.941 222.123L270.782 246.063L249.941 258.035V222.123Z" fill="white"/>
<path d="M249.941 258.246C249.904 258.245 249.868 258.235 249.837 258.217C249.805 258.198 249.779 258.171 249.761 258.139C249.742 258.107 249.733 258.071 249.732 258.035V222.122C249.733 222.08 249.745 222.039 249.769 222.004C249.793 221.969 249.826 221.942 249.865 221.926C249.906 221.911 249.95 221.909 249.992 221.92C250.033 221.931 250.071 221.954 250.099 221.987L270.94 245.938C270.961 245.961 270.976 245.988 270.985 246.018C270.993 246.047 270.995 246.079 270.99 246.109C270.984 246.14 270.972 246.168 270.954 246.194C270.936 246.219 270.913 246.24 270.886 246.256L250.045 258.228C250.012 258.242 249.977 258.248 249.941 258.246ZM250.149 222.684V257.674L270.458 246.009L250.149 222.684Z" fill="#D0D0D0"/>
<path d="M83.2031 258.035V222.123L104.048 234.095L83.2031 258.035Z" fill="#D0D0D0"/>
<path d="M83.2062 258.246C83.1811 258.25 83.1557 258.25 83.1307 258.246C83.0903 258.232 83.0556 258.205 83.0311 258.169C83.0067 258.134 82.9937 258.092 82.9942 258.05V222.123C82.9944 222.086 83.0041 222.05 83.0223 222.018C83.0406 221.986 83.0668 221.96 83.0984 221.941C83.1309 221.923 83.1673 221.914 83.2044 221.914C83.2414 221.914 83.2778 221.923 83.3104 221.941L104.151 233.913C104.178 233.928 104.201 233.95 104.219 233.975C104.237 234 104.25 234.029 104.256 234.059C104.26 234.09 104.258 234.121 104.249 234.151C104.24 234.18 104.225 234.208 104.205 234.231L83.3643 258.182C83.3437 258.203 83.3191 258.219 83.2919 258.23C83.2647 258.241 83.2355 258.247 83.2062 258.246ZM83.4146 222.498V257.492L103.724 234.163L83.4146 222.498Z" fill="white"/>
<path d="M249.942 258.035L229.098 234.095L249.942 222.123V258.035Z" fill="white"/>
<path d="M249.941 258.246C249.911 258.246 249.881 258.24 249.854 258.227C249.827 258.215 249.802 258.197 249.783 258.174L228.942 234.223C228.921 234.2 228.906 234.173 228.897 234.143C228.888 234.113 228.886 234.082 228.892 234.052C228.897 234.021 228.909 233.992 228.927 233.966C228.945 233.941 228.969 233.92 228.996 233.905L249.837 221.933C249.869 221.915 249.905 221.905 249.942 221.905C249.979 221.905 250.015 221.915 250.046 221.934C250.078 221.952 250.104 221.979 250.123 222.011C250.141 222.043 250.15 222.079 250.149 222.115V258.035C250.15 258.078 250.137 258.119 250.112 258.155C250.088 258.19 250.053 258.217 250.013 258.231C249.99 258.24 249.966 258.245 249.941 258.246ZM229.431 234.148L249.74 257.477V222.484L229.431 234.148Z" fill="#D0D0D0"/>
<path d="M229.098 234.095L249.942 258.035L229.098 270.007V234.095Z" fill="white"/>
<path d="M229.101 270.218C229.064 270.218 229.028 270.208 228.996 270.189C228.964 270.171 228.936 270.145 228.917 270.113C228.898 270.081 228.889 270.044 228.889 270.007V234.095C228.888 234.052 228.901 234.01 228.926 233.975C228.95 233.94 228.985 233.913 229.025 233.898C229.066 233.883 229.11 233.881 229.152 233.892C229.194 233.902 229.231 233.926 229.259 233.959L250.1 257.91C250.119 257.934 250.134 257.961 250.142 257.991C250.151 258.02 250.154 258.051 250.15 258.082C250.144 258.112 250.132 258.141 250.114 258.166C250.096 258.191 250.073 258.212 250.046 258.228L229.205 270.2C229.172 270.215 229.136 270.221 229.101 270.218ZM229.309 234.652V269.646L249.618 257.996L229.309 234.652Z" fill="#D0D0D0"/>
<path d="M104.048 234.095V270.007L83.2031 258.035L104.048 234.095Z" fill="#D0D0D0"/>
<path d="M104.049 270.218C104.012 270.218 103.976 270.208 103.945 270.19L83.1036 258.218C83.0773 258.202 83.0547 258.181 83.0373 258.155C83.02 258.13 83.0082 258.101 83.003 258.071C82.9977 258.041 82.9995 258.009 83.0082 257.98C83.0169 257.95 83.0323 257.923 83.0533 257.9L103.894 233.949C103.921 233.915 103.958 233.892 103.999 233.881C104.041 233.87 104.084 233.872 104.124 233.888C104.165 233.903 104.199 233.929 104.224 233.965C104.248 234 104.261 234.042 104.261 234.084V270.007C104.261 270.044 104.251 270.08 104.233 270.112C104.214 270.144 104.188 270.171 104.157 270.19C104.124 270.208 104.087 270.218 104.049 270.218ZM83.5455 257.996L103.855 269.661V234.653L83.5455 257.996Z" fill="white"/>
<path d="M104.048 198.179V234.095L83.2031 222.123L104.048 198.179Z" fill="#AFAFAF"/>
<path d="M104.047 234.302C104.01 234.303 103.974 234.293 103.943 234.274L83.1019 222.302C83.0751 222.287 83.0521 222.266 83.0346 222.241C83.017 222.215 83.0054 222.187 83.0006 222.157C82.9958 222.126 82.9978 222.095 83.0066 222.066C83.0155 222.037 83.0308 222.01 83.0515 221.987L103.892 198.036C103.921 198.007 103.957 197.986 103.997 197.977C104.037 197.968 104.079 197.971 104.118 197.985C104.156 198 104.189 198.025 104.213 198.058C104.237 198.092 104.25 198.131 104.252 198.172V234.095C104.252 234.131 104.242 234.167 104.224 234.198C104.206 234.23 104.179 234.256 104.148 234.274C104.118 234.293 104.083 234.303 104.047 234.302ZM83.5438 222.069L103.853 233.734V198.74L83.5438 222.069Z" fill="white"/>
<path d="M229.098 198.179L249.942 222.123L229.098 234.095V198.179Z" fill="white"/>
<path d="M229.101 234.302C229.064 234.304 229.027 234.294 228.996 234.274C228.964 234.257 228.936 234.231 228.917 234.2C228.898 234.168 228.888 234.132 228.889 234.095V198.179C228.888 198.137 228.902 198.096 228.926 198.061C228.95 198.027 228.985 198 229.025 197.986C229.065 197.971 229.109 197.969 229.151 197.979C229.193 197.989 229.23 198.012 229.259 198.044L250.1 221.995C250.119 222.018 250.134 222.046 250.143 222.075C250.151 222.105 250.154 222.136 250.15 222.166C250.145 222.196 250.132 222.225 250.114 222.249C250.096 222.274 250.073 222.295 250.046 222.309L229.205 234.281C229.173 234.298 229.137 234.306 229.101 234.302ZM229.309 198.741V233.734L249.618 222.07L229.309 198.741Z" fill="#D0D0D0"/>
<path d="M229.097 234.095L208.256 210.151L229.097 198.179V234.095Z" fill="white"/>
<path d="M229.1 234.303C229.07 234.303 229.04 234.297 229.013 234.284C228.985 234.272 228.961 234.254 228.941 234.231L208.101 210.28C208.081 210.257 208.066 210.23 208.058 210.201C208.05 210.172 208.049 210.142 208.054 210.112C208.058 210.082 208.069 210.052 208.087 210.027C208.104 210.002 208.127 209.981 208.154 209.965L228.995 197.994C229.027 197.976 229.063 197.967 229.1 197.967C229.136 197.967 229.172 197.976 229.204 197.994C229.235 198.012 229.262 198.038 229.28 198.069C229.298 198.1 229.308 198.136 229.308 198.172V234.095C229.308 234.138 229.295 234.179 229.271 234.213C229.246 234.248 229.212 234.274 229.171 234.288C229.149 234.298 229.124 234.303 229.1 234.303ZM208.589 210.205L228.895 233.534V198.54L208.589 210.205Z" fill="#D0D0D0"/>
<path d="M229.097 270.007L208.256 246.063L229.097 234.095V270.007Z" fill="white"/>
<path d="M229.1 270.218C229.07 270.218 229.04 270.211 229.013 270.198C228.986 270.185 228.961 270.166 228.942 270.143L208.101 246.192C208.081 246.168 208.067 246.141 208.058 246.111C208.05 246.082 208.049 246.051 208.054 246.02C208.059 245.99 208.071 245.961 208.088 245.936C208.106 245.911 208.128 245.889 208.155 245.874L228.996 233.902C229.028 233.883 229.064 233.874 229.101 233.874C229.138 233.874 229.174 233.884 229.206 233.902C229.237 233.921 229.264 233.948 229.282 233.979C229.3 234.011 229.309 234.047 229.309 234.084V270.007C229.309 270.05 229.296 270.092 229.272 270.127C229.247 270.162 229.213 270.189 229.172 270.204C229.149 270.212 229.125 270.216 229.1 270.218ZM208.59 246.12L228.888 269.435V234.456L208.59 246.12Z" fill="#D0D0D0"/>
<path d="M104.047 270.007V234.095L124.888 246.063L104.047 270.007Z" fill="#D0D0D0"/>
<path d="M104.046 270.218C104.023 270.222 103.998 270.222 103.974 270.218C103.934 270.203 103.899 270.176 103.875 270.141C103.85 270.106 103.837 270.064 103.838 270.021V234.095C103.837 234.058 103.847 234.022 103.865 233.99C103.883 233.958 103.909 233.932 103.941 233.913C103.973 233.895 104.009 233.885 104.046 233.885C104.082 233.885 104.119 233.894 104.151 233.913L124.991 245.884C125.018 245.9 125.041 245.921 125.059 245.947C125.077 245.972 125.09 246.001 125.096 246.031C125.101 246.062 125.099 246.093 125.09 246.123C125.082 246.152 125.066 246.18 125.045 246.203L104.204 270.154C104.184 270.175 104.16 270.192 104.132 270.203C104.105 270.214 104.076 270.219 104.046 270.218ZM104.255 234.47V269.435L124.564 246.106L104.255 234.47Z" fill="white"/>
<path d="M104.047 234.095V198.179L124.888 210.151L104.047 234.095Z" fill="#D0D0D0"/>
<path d="M104.046 234.302C104.023 234.308 103.998 234.308 103.974 234.302C103.934 234.288 103.9 234.262 103.875 234.227C103.851 234.193 103.838 234.151 103.838 234.109V198.179C103.838 198.143 103.848 198.107 103.866 198.076C103.884 198.045 103.911 198.018 103.942 198C103.974 197.983 104.01 197.974 104.046 197.974C104.083 197.974 104.119 197.983 104.151 198L124.991 209.972C125.019 209.987 125.043 210.008 125.061 210.034C125.079 210.059 125.091 210.088 125.096 210.119C125.101 210.149 125.099 210.18 125.09 210.209C125.082 210.238 125.066 210.265 125.045 210.287L104.204 234.238C104.184 234.259 104.16 234.276 104.132 234.287C104.105 234.298 104.076 234.303 104.046 234.302ZM104.255 198.554V233.548L124.564 210.219L104.255 198.554Z" fill="white"/>
<path d="M208.256 246.062L229.097 270.006L208.256 281.978V246.062Z" fill="white"/>
<path d="M208.255 282.186C208.228 282.187 208.2 282.182 208.174 282.172C208.149 282.162 208.125 282.147 208.106 282.127C208.086 282.108 208.071 282.084 208.061 282.059C208.051 282.033 208.046 282.006 208.047 281.978V246.066C208.048 246.025 208.061 245.985 208.084 245.951C208.108 245.917 208.141 245.891 208.18 245.876C208.218 245.862 208.26 245.858 208.301 245.867C208.341 245.876 208.378 245.897 208.406 245.927L229.247 269.878C229.267 269.901 229.282 269.929 229.29 269.958C229.298 269.988 229.3 270.019 229.295 270.049C229.29 270.08 229.278 270.108 229.26 270.134C229.243 270.159 229.22 270.18 229.193 270.196L208.352 282.168C208.322 282.181 208.289 282.187 208.255 282.186ZM208.467 246.624V281.617L228.773 269.953L208.467 246.624Z" fill="#D0D0D0"/>
<path d="M124.888 246.062V281.978L104.047 270.006L124.888 246.062Z" fill="#D0D0D0"/>
<path d="M124.888 282.186C124.851 282.187 124.815 282.178 124.783 282.161L103.942 270.189C103.916 270.173 103.892 270.152 103.874 270.127C103.857 270.102 103.844 270.073 103.838 270.043C103.834 270.012 103.836 269.981 103.845 269.951C103.853 269.922 103.868 269.894 103.889 269.871L124.729 245.92C124.759 245.892 124.795 245.873 124.835 245.865C124.875 245.857 124.916 245.86 124.954 245.875C124.992 245.889 125.025 245.915 125.049 245.947C125.073 245.98 125.086 246.019 125.089 246.059V281.979C125.088 282.016 125.077 282.052 125.059 282.084C125.04 282.116 125.013 282.142 124.981 282.161C124.952 282.176 124.92 282.185 124.888 282.186ZM104.384 269.953L124.694 281.618V246.624L104.384 269.953Z" fill="white"/>
<path d="M208.256 174.238L229.097 198.179L208.256 210.151V174.238Z" fill="white"/>
<path d="M208.255 210.362C208.219 210.362 208.183 210.352 208.151 210.334C208.119 210.315 208.093 210.288 208.075 210.256C208.057 210.224 208.047 210.188 208.047 210.152V174.239C208.046 174.197 208.059 174.155 208.084 174.119C208.108 174.084 208.143 174.057 208.183 174.043C208.223 174.028 208.267 174.026 208.308 174.037C208.349 174.048 208.386 174.071 208.413 174.103L229.254 198.054C229.274 198.078 229.289 198.105 229.297 198.135C229.305 198.165 229.307 198.196 229.302 198.226C229.297 198.256 229.285 198.285 229.267 198.31C229.25 198.336 229.227 198.357 229.2 198.373L208.359 210.345C208.327 210.359 208.291 210.365 208.255 210.362ZM208.467 174.797V209.79L228.773 198.126L208.467 174.797Z" fill="#D0D0D0"/>
<path d="M124.888 174.238V210.151L104.047 198.179L124.888 174.238Z" fill="#D0D0D0"/>
<path d="M124.888 210.362C124.851 210.361 124.815 210.351 124.783 210.333L103.942 198.361C103.916 198.346 103.892 198.324 103.874 198.299C103.857 198.274 103.844 198.245 103.838 198.215C103.834 198.184 103.836 198.153 103.845 198.123C103.853 198.094 103.868 198.066 103.889 198.043L124.729 174.092C124.758 174.06 124.795 174.036 124.837 174.025C124.878 174.015 124.923 174.017 124.963 174.031C125.003 174.047 125.037 174.074 125.061 174.109C125.086 174.144 125.099 174.185 125.1 174.228V210.151C125.099 210.207 125.076 210.26 125.036 210.299C124.997 210.338 124.944 210.361 124.888 210.362ZM104.384 198.125L124.694 209.79V174.796L104.384 198.125Z" fill="white"/>
<path d="M238.09 210.151L258.934 234.095L238.09 246.064V210.151Z" fill="#024BD6"/>
<path d="M208.256 210.151L229.097 234.095L208.256 246.064V210.151Z" fill="#AFAFAF"/>
<path d="M208.255 246.274C208.219 246.273 208.183 246.263 208.151 246.245C208.12 246.227 208.093 246.201 208.075 246.17C208.057 246.138 208.047 246.103 208.047 246.066V210.151C208.048 210.11 208.062 210.07 208.086 210.037C208.11 210.004 208.143 209.978 208.181 209.964C208.22 209.949 208.261 209.946 208.301 209.955C208.341 209.964 208.378 209.985 208.406 210.015L229.247 233.966C229.267 233.989 229.282 234.017 229.29 234.046C229.298 234.076 229.299 234.107 229.294 234.137C229.289 234.167 229.277 234.196 229.26 234.22C229.243 234.245 229.22 234.266 229.193 234.28L208.352 246.252C208.322 246.267 208.289 246.274 208.255 246.274ZM208.467 210.712V245.705L228.773 234.044L208.467 210.712Z" fill="#D0D0D0"/>
<path d="M238.091 210.151L217.25 234.095L238.091 246.064V210.151Z" fill="#025DF6"/>
<path d="M238.094 246.274C238.057 246.273 238.021 246.264 237.99 246.245L217.149 234.273C217.122 234.259 217.099 234.238 217.082 234.213C217.065 234.189 217.053 234.16 217.048 234.13C217.043 234.1 217.044 234.069 217.052 234.039C217.06 234.01 217.075 233.982 217.095 233.959L237.936 210.008C237.964 209.978 238.001 209.958 238.041 209.949C238.081 209.939 238.123 209.942 238.161 209.957C238.199 209.971 238.233 209.997 238.256 210.03C238.28 210.063 238.294 210.103 238.295 210.144V246.067C238.295 246.103 238.285 246.138 238.267 246.17C238.249 246.201 238.223 246.227 238.191 246.245C238.161 246.262 238.128 246.272 238.094 246.274ZM217.573 234.045L237.878 245.709V210.712L217.573 234.045Z" fill="white"/>
<path d="M124.888 210.151V246.064L104.047 234.095L124.888 210.151Z" fill="#D0D0D0"/>
<path d="M124.888 246.274C124.851 246.274 124.815 246.264 124.784 246.246L103.943 234.274C103.916 234.259 103.892 234.239 103.874 234.214C103.856 234.189 103.844 234.161 103.838 234.131C103.834 234.1 103.836 234.069 103.844 234.039C103.853 234.01 103.868 233.982 103.889 233.959L124.73 210.008C124.759 209.98 124.795 209.961 124.835 209.953C124.874 209.944 124.915 209.948 124.953 209.962C124.991 209.976 125.023 210.001 125.048 210.033C125.072 210.065 125.086 210.104 125.089 210.144V246.067C125.088 246.103 125.078 246.139 125.059 246.17C125.04 246.202 125.013 246.228 124.981 246.246C124.953 246.262 124.921 246.272 124.888 246.274ZM104.385 234.045L124.694 245.709V210.712L104.385 234.045Z" fill="white"/>
<path d="M208.255 246.064L187.414 222.123L208.255 210.151V246.064Z" fill="white"/>
<path d="M208.256 246.274C208.226 246.274 208.197 246.267 208.17 246.255C208.142 246.243 208.118 246.225 208.098 246.203L187.257 222.252C187.237 222.228 187.222 222.201 187.214 222.171C187.206 222.141 187.205 222.11 187.21 222.08C187.216 222.05 187.227 222.021 187.245 221.996C187.262 221.971 187.285 221.949 187.311 221.933L208.152 209.965C208.183 209.946 208.219 209.936 208.256 209.936C208.293 209.936 208.329 209.946 208.36 209.965C208.393 209.982 208.42 210.008 208.44 210.039C208.459 210.071 208.468 210.107 208.468 210.144V246.067C208.468 246.109 208.455 246.15 208.431 246.185C208.406 246.22 208.372 246.246 208.332 246.26C208.308 246.27 208.282 246.275 208.256 246.274ZM187.749 222.177L208.059 245.506V210.512L187.749 222.177Z" fill="#D0D0D0"/>
<path d="M208.255 210.151L187.414 186.207L208.255 174.238V210.151Z" fill="white"/>
<path d="M208.257 210.361C208.226 210.36 208.197 210.353 208.17 210.34C208.142 210.327 208.118 210.309 208.098 210.286L187.257 186.335C187.237 186.312 187.223 186.284 187.215 186.255C187.206 186.225 187.205 186.194 187.21 186.164C187.215 186.134 187.227 186.105 187.244 186.079C187.262 186.054 187.285 186.033 187.311 186.017L208.152 174.045C208.184 174.028 208.22 174.019 208.257 174.019C208.293 174.019 208.329 174.028 208.361 174.045C208.394 174.063 208.421 174.09 208.44 174.122C208.459 174.154 208.469 174.19 208.469 174.228V210.151C208.469 210.193 208.456 210.235 208.432 210.27C208.407 210.306 208.372 210.332 208.332 210.347C208.308 210.355 208.282 210.36 208.257 210.361ZM187.75 186.264L208.059 209.593V174.599L187.75 186.264Z" fill="#D0D0D0"/>
<path d="M208.255 281.978L187.414 258.034L208.255 246.062V281.978Z" fill="white"/>
<path d="M208.256 282.186C208.226 282.186 208.196 282.179 208.169 282.167C208.142 282.154 208.117 282.137 208.098 282.114L187.257 258.163C187.237 258.14 187.223 258.112 187.215 258.083C187.206 258.053 187.205 258.022 187.21 257.992C187.214 257.961 187.226 257.932 187.243 257.907C187.26 257.881 187.284 257.86 187.311 257.845L208.151 245.873C208.183 245.856 208.219 245.847 208.256 245.847C208.292 245.847 208.328 245.856 208.36 245.873C208.393 245.891 208.42 245.917 208.439 245.95C208.458 245.982 208.468 246.018 208.468 246.056V281.979C208.468 282.021 208.454 282.063 208.43 282.098C208.406 282.133 208.371 282.16 208.331 282.175L208.256 282.186ZM187.738 258.092L208.047 281.421V246.427L187.738 258.092Z" fill="#D0D0D0"/>
<path d="M124.889 281.978V246.062L145.73 258.034L124.889 281.978Z" fill="#D0D0D0"/>
<path d="M124.888 282.186C124.864 282.19 124.84 282.19 124.816 282.186C124.776 282.171 124.742 282.144 124.717 282.109C124.693 282.074 124.68 282.032 124.68 281.989V246.066C124.679 246.03 124.689 245.993 124.707 245.961C124.725 245.929 124.752 245.903 124.784 245.884C124.816 245.867 124.852 245.857 124.888 245.857C124.925 245.857 124.96 245.867 124.992 245.884L145.833 257.856C145.86 257.871 145.883 257.892 145.901 257.918C145.918 257.943 145.93 257.972 145.934 258.003C145.939 258.033 145.937 258.064 145.929 258.094C145.921 258.123 145.907 258.151 145.887 258.174L125.046 282.125C125.026 282.146 125.001 282.162 124.974 282.173C124.947 282.183 124.917 282.188 124.888 282.186ZM125.1 246.438V281.432L145.406 258.103L125.1 246.438Z" fill="white"/>
<path d="M124.889 246.064V210.151L145.73 222.123L124.889 246.064Z" fill="#D0D0D0"/>
<path d="M124.888 246.274C124.864 246.279 124.84 246.279 124.816 246.274C124.776 246.26 124.741 246.234 124.717 246.199C124.693 246.164 124.679 246.123 124.68 246.081V210.151C124.679 210.114 124.689 210.079 124.707 210.047C124.726 210.016 124.752 209.99 124.784 209.972C124.815 209.953 124.851 209.942 124.888 209.942C124.925 209.942 124.961 209.953 124.992 209.972L145.833 221.94C145.86 221.956 145.882 221.977 145.9 222.003C145.917 222.028 145.929 222.057 145.934 222.087C145.939 222.117 145.938 222.148 145.93 222.178C145.922 222.208 145.907 222.235 145.887 222.258L125.046 246.209C125.026 246.231 125.002 246.248 124.974 246.259C124.947 246.27 124.918 246.275 124.888 246.274ZM125.1 210.526V245.52L145.406 222.191L125.1 210.526Z" fill="white"/>
<path d="M124.889 210.151V174.238L145.73 186.207L124.889 210.151Z" fill="#D0D0D0"/>
<path d="M124.888 210.362C124.864 210.365 124.84 210.365 124.816 210.362C124.776 210.347 124.741 210.32 124.717 210.285C124.692 210.25 124.679 210.208 124.68 210.165V174.238C124.679 174.202 124.689 174.166 124.707 174.134C124.725 174.102 124.751 174.075 124.783 174.057C124.814 174.038 124.851 174.028 124.887 174.028C124.924 174.028 124.96 174.038 124.992 174.056L145.833 186.028C145.86 186.044 145.883 186.065 145.9 186.09C145.918 186.116 145.929 186.144 145.935 186.175C145.94 186.205 145.938 186.236 145.93 186.266C145.922 186.295 145.907 186.323 145.887 186.346L125.046 210.297C125.026 210.318 125.001 210.335 124.974 210.346C124.947 210.357 124.918 210.363 124.888 210.362ZM125.1 174.614V209.593L145.406 186.264L125.1 174.614Z" fill="white"/>
<path d="M187.414 186.207L208.255 210.151L187.414 222.123V186.207Z" fill="white"/>
<path d="M187.415 222.33C187.379 222.331 187.342 222.321 187.311 222.301C187.279 222.283 187.253 222.257 187.235 222.226C187.216 222.194 187.207 222.159 187.207 222.122V186.21C187.207 186.167 187.22 186.125 187.244 186.09C187.268 186.055 187.303 186.028 187.344 186.013C187.384 185.999 187.427 185.997 187.468 186.008C187.509 186.019 187.546 186.042 187.574 186.074L208.414 210.025C208.435 210.048 208.451 210.075 208.46 210.105C208.468 210.135 208.47 210.166 208.465 210.197C208.46 210.227 208.447 210.256 208.429 210.282C208.411 210.307 208.388 210.328 208.361 210.343L187.52 222.312C187.487 222.328 187.451 222.334 187.415 222.33ZM187.627 186.768V221.761L207.933 210.093L187.627 186.768Z" fill="#D0D0D0"/>
<path d="M145.73 258.035V293.951L124.889 281.979L145.73 258.035Z" fill="#AFAFAF"/>
<path d="M145.733 294.158C145.695 294.158 145.658 294.148 145.625 294.13L124.784 282.161C124.757 282.146 124.735 282.124 124.717 282.099C124.699 282.074 124.688 282.045 124.683 282.015C124.678 281.984 124.679 281.953 124.687 281.924C124.695 281.894 124.71 281.867 124.73 281.843L145.571 257.892C145.6 257.86 145.637 257.838 145.679 257.827C145.721 257.817 145.764 257.82 145.805 257.835C145.845 257.849 145.879 257.875 145.904 257.91C145.928 257.944 145.941 257.986 145.941 258.028V293.951C145.941 293.987 145.932 294.023 145.913 294.054C145.895 294.086 145.869 294.112 145.837 294.13C145.805 294.148 145.769 294.158 145.733 294.158ZM125.226 281.925L145.531 293.59V258.596L125.226 281.925Z" fill="white"/>
<path d="M187.414 258.035L208.255 281.979L187.414 293.951V258.035Z" fill="white"/>
<path d="M187.415 294.158C187.379 294.158 187.343 294.148 187.311 294.13C187.279 294.112 187.253 294.086 187.235 294.055C187.216 294.023 187.207 293.987 187.207 293.951V258.035C187.208 257.994 187.222 257.955 187.246 257.922C187.27 257.888 187.303 257.863 187.341 257.848C187.38 257.834 187.422 257.831 187.462 257.84C187.502 257.849 187.538 257.87 187.566 257.899L208.407 281.85C208.428 281.873 208.444 281.901 208.452 281.93C208.461 281.96 208.463 281.992 208.458 282.022C208.452 282.053 208.44 282.082 208.422 282.107C208.404 282.132 208.381 282.153 208.353 282.169L187.512 294.137C187.482 294.152 187.449 294.159 187.415 294.158ZM187.627 258.597V293.59L207.933 281.926L187.627 258.597Z" fill="#D0D0D0"/>
<path d="M187.414 222.123L208.255 246.063L187.414 258.035V222.123Z" fill="white"/>
<path d="M187.415 258.246C187.379 258.246 187.343 258.236 187.311 258.218C187.28 258.199 187.253 258.172 187.235 258.14C187.217 258.108 187.207 258.072 187.207 258.035V222.123C187.207 222.08 187.22 222.039 187.245 222.004C187.269 221.969 187.303 221.942 187.344 221.926C187.384 221.912 187.427 221.91 187.468 221.921C187.509 221.932 187.546 221.955 187.574 221.987L208.414 245.938C208.435 245.961 208.45 245.989 208.459 246.019C208.467 246.048 208.469 246.08 208.464 246.11C208.459 246.141 208.447 246.17 208.429 246.195C208.411 246.22 208.388 246.241 208.361 246.256L187.52 258.228C187.487 258.243 187.451 258.249 187.415 258.246ZM187.627 222.684V257.674L207.933 246.01L187.627 222.684Z" fill="#D0D0D0"/>
<path d="M187.414 150.295L208.255 174.239L187.414 186.207V150.295Z" fill="#AFAFAF"/>
<path d="M187.415 186.418C187.379 186.418 187.343 186.408 187.311 186.39C187.279 186.372 187.253 186.346 187.235 186.314C187.216 186.283 187.207 186.247 187.207 186.211V150.295C187.208 150.254 187.222 150.215 187.246 150.181C187.27 150.148 187.303 150.123 187.341 150.108C187.38 150.094 187.422 150.091 187.462 150.1C187.502 150.109 187.538 150.13 187.566 150.159L208.407 174.11C208.428 174.133 208.444 174.16 208.453 174.19C208.462 174.22 208.463 174.251 208.458 174.282C208.453 174.312 208.441 174.341 208.423 174.366C208.405 174.391 208.381 174.411 208.353 174.425L187.512 186.397C187.482 186.411 187.449 186.419 187.415 186.418ZM187.627 150.856V185.85L207.933 174.185L187.627 150.856Z" fill="#D0D0D0"/>
<path d="M145.73 186.207V222.123L124.889 210.151L145.73 186.207Z" fill="#AFAFAF"/>
<path d="M145.733 222.33C145.695 222.332 145.657 222.322 145.625 222.301L124.784 210.333C124.757 210.317 124.735 210.296 124.717 210.271C124.699 210.245 124.688 210.217 124.683 210.186C124.678 210.156 124.679 210.125 124.687 210.095C124.695 210.066 124.71 210.038 124.73 210.015L145.571 186.064C145.599 186.031 145.637 186.008 145.678 185.997C145.72 185.986 145.764 185.988 145.805 186.003C145.845 186.018 145.88 186.045 145.904 186.08C145.929 186.115 145.942 186.157 145.941 186.2V222.123C145.941 222.159 145.932 222.195 145.913 222.226C145.895 222.257 145.869 222.283 145.837 222.301C145.806 222.321 145.77 222.331 145.733 222.33ZM125.226 210.093L145.531 221.758V186.768L125.226 210.093Z" fill="white"/>
<path d="M145.73 150.295V186.207L124.889 174.239L145.73 150.295Z" fill="#D0D0D0"/>
<path d="M145.732 186.418C145.695 186.418 145.657 186.408 145.625 186.389L124.784 174.418C124.757 174.403 124.734 174.382 124.717 174.357C124.699 174.333 124.688 174.304 124.683 174.275C124.678 174.244 124.679 174.213 124.687 174.183C124.695 174.154 124.71 174.126 124.73 174.103L145.571 150.152C145.599 150.12 145.637 150.097 145.678 150.087C145.72 150.077 145.764 150.08 145.804 150.095C145.844 150.109 145.879 150.135 145.903 150.17C145.928 150.204 145.941 150.245 145.941 150.288V186.211C145.941 186.247 145.931 186.283 145.913 186.314C145.895 186.346 145.868 186.372 145.837 186.389C145.805 186.408 145.769 186.417 145.732 186.418ZM125.226 174.185L145.531 185.85V150.856L125.226 174.185Z" fill="white"/>
<path d="M145.73 222.123V258.035L124.889 246.063L145.73 222.123Z" fill="#D0D0D0"/>
<path d="M145.732 258.246C145.694 258.246 145.657 258.236 145.624 258.218L124.783 246.246C124.757 246.23 124.734 246.209 124.717 246.183C124.7 246.158 124.688 246.129 124.683 246.099C124.678 246.069 124.679 246.038 124.687 246.008C124.695 245.979 124.71 245.951 124.729 245.928L145.57 221.977C145.598 221.947 145.635 221.926 145.675 221.917C145.715 221.908 145.757 221.911 145.795 221.926C145.834 221.94 145.867 221.966 145.891 221.999C145.915 222.032 145.928 222.072 145.93 222.112V258.035C145.929 258.072 145.92 258.108 145.901 258.14C145.883 258.172 145.857 258.199 145.825 258.218C145.797 258.234 145.765 258.244 145.732 258.246ZM125.225 246.01L145.531 257.674V222.684L125.225 246.01Z" fill="white"/>
<path d="M187.415 222.123L166.57 198.179L187.415 186.207V222.123Z" fill="white"/>
<path d="M187.415 222.331C187.385 222.33 187.356 222.324 187.329 222.312C187.301 222.299 187.277 222.281 187.257 222.259L166.416 198.308C166.396 198.285 166.38 198.258 166.372 198.228C166.363 198.198 166.361 198.167 166.366 198.136C166.372 198.106 166.384 198.077 166.402 198.052C166.42 198.027 166.443 198.006 166.47 197.99L187.311 186.018C187.343 186 187.379 185.991 187.415 185.991C187.452 185.991 187.488 186 187.52 186.018C187.552 186.037 187.578 186.063 187.597 186.095C187.616 186.127 187.626 186.163 187.627 186.2V222.123C187.626 222.166 187.613 222.207 187.589 222.242C187.564 222.277 187.53 222.304 187.491 222.32C187.466 222.327 187.441 222.331 187.415 222.331ZM166.909 198.237L187.218 221.562V186.572L166.909 198.237Z" fill="#D0D0D0"/>
<path d="M187.415 186.207L166.57 162.267L187.415 150.295V186.207Z" fill="white"/>
<path d="M187.416 186.418C187.386 186.418 187.356 186.411 187.329 186.399C187.302 186.386 187.277 186.369 187.257 186.346L166.417 162.395C166.396 162.372 166.38 162.345 166.371 162.315C166.363 162.285 166.361 162.254 166.366 162.224C166.372 162.193 166.385 162.164 166.402 162.139C166.42 162.114 166.444 162.093 166.47 162.077L187.311 150.109C187.343 150.089 187.379 150.079 187.416 150.079C187.452 150.079 187.489 150.089 187.52 150.109C187.552 150.126 187.579 150.152 187.598 150.184C187.617 150.215 187.627 150.251 187.628 150.287V186.21C187.627 186.252 187.613 186.293 187.589 186.328C187.565 186.362 187.531 186.388 187.491 186.403C187.467 186.413 187.441 186.418 187.416 186.418ZM166.909 162.32L187.218 185.649V150.656L166.909 162.32Z" fill="#D0D0D0"/>
<path d="M187.415 258.035L166.57 234.095L187.415 222.123V258.035Z" fill="white"/>
<path d="M187.416 258.247C187.386 258.246 187.356 258.24 187.329 258.228C187.302 258.215 187.277 258.197 187.257 258.175L166.417 234.224C166.396 234.201 166.38 234.174 166.371 234.144C166.363 234.114 166.361 234.083 166.366 234.052C166.372 234.022 166.385 233.993 166.402 233.968C166.42 233.943 166.444 233.922 166.47 233.906L187.311 221.934C187.343 221.916 187.379 221.907 187.416 221.907C187.452 221.907 187.488 221.916 187.52 221.934C187.552 221.953 187.579 221.979 187.597 222.011C187.616 222.043 187.627 222.079 187.628 222.116V258.036C187.627 258.078 187.614 258.12 187.589 258.155C187.565 258.19 187.531 258.217 187.491 258.232C187.467 258.24 187.441 258.245 187.416 258.247ZM166.909 234.149L187.218 257.478V222.484L166.909 234.149Z" fill="#D0D0D0"/>
<path d="M145.73 222.123V186.207L166.571 198.179L145.73 222.123Z" fill="#D0D0D0"/>
<path d="M145.733 222.33C145.708 222.333 145.683 222.333 145.658 222.33C145.618 222.314 145.583 222.287 145.559 222.252C145.535 222.217 145.522 222.176 145.521 222.133V186.21C145.522 186.173 145.531 186.137 145.55 186.105C145.568 186.073 145.594 186.047 145.626 186.028C145.658 186.01 145.695 186.001 145.732 186.001C145.769 186.001 145.805 186.01 145.838 186.028L166.679 198C166.705 198.015 166.728 198.037 166.745 198.062C166.762 198.087 166.774 198.116 166.779 198.146C166.784 198.176 166.783 198.207 166.775 198.237C166.767 198.267 166.752 198.294 166.733 198.318L145.892 222.269C145.871 222.289 145.846 222.305 145.819 222.315C145.792 222.326 145.763 222.331 145.733 222.33ZM145.942 186.582V221.572L166.251 198.246L145.942 186.582Z" fill="white"/>
<path d="M145.729 186.207V150.295L166.569 162.267L145.729 186.207Z" fill="#D0D0D0"/>
<path d="M145.733 186.418C145.709 186.423 145.683 186.423 145.658 186.418C145.618 186.404 145.583 186.378 145.559 186.343C145.534 186.309 145.521 186.267 145.521 186.225V150.295C145.522 150.258 145.533 150.223 145.551 150.192C145.57 150.16 145.597 150.134 145.629 150.116C145.661 150.098 145.697 150.089 145.733 150.089C145.77 150.089 145.806 150.098 145.838 150.116L166.679 162.084C166.705 162.1 166.728 162.121 166.746 162.147C166.763 162.172 166.775 162.201 166.78 162.231C166.785 162.261 166.784 162.292 166.775 162.322C166.767 162.352 166.753 162.379 166.733 162.403L145.892 186.354C145.871 186.375 145.846 186.391 145.819 186.402C145.792 186.413 145.763 186.419 145.733 186.418ZM145.942 150.67V185.664L166.251 162.335L145.942 150.67Z" fill="white"/>
<path d="M187.415 293.951L166.57 270.007L187.415 258.035V293.951Z" fill="white"/>
<path d="M187.416 294.158C187.386 294.158 187.356 294.151 187.329 294.139C187.302 294.127 187.278 294.109 187.258 294.086L166.417 270.135C166.396 270.113 166.38 270.085 166.371 270.056C166.363 270.026 166.361 269.994 166.366 269.964C166.372 269.934 166.384 269.905 166.402 269.881C166.42 269.856 166.444 269.835 166.471 269.821L187.312 257.849C187.343 257.83 187.379 257.819 187.416 257.819C187.453 257.819 187.489 257.83 187.52 257.849C187.552 257.867 187.579 257.893 187.598 257.924C187.617 257.955 187.627 257.991 187.628 258.028V293.951C187.627 293.993 187.614 294.034 187.589 294.068C187.565 294.102 187.531 294.129 187.491 294.144C187.467 294.154 187.442 294.158 187.416 294.158ZM166.909 270.06L187.207 293.386V258.396L166.909 270.06Z" fill="#D0D0D0"/>
<path d="M145.73 258.035V222.123L166.571 234.095L145.73 258.035Z" fill="#D0D0D0"/>
<path d="M145.734 258.246C145.708 258.25 145.683 258.25 145.658 258.246C145.618 258.232 145.583 258.205 145.558 258.169C145.534 258.134 145.521 258.092 145.521 258.05V222.123C145.522 222.086 145.531 222.05 145.55 222.018C145.568 221.986 145.594 221.96 145.626 221.941C145.658 221.923 145.695 221.914 145.732 221.914C145.769 221.914 145.805 221.923 145.838 221.941L166.679 233.913C166.705 233.928 166.728 233.95 166.746 233.975C166.763 234 166.775 234.029 166.78 234.059C166.785 234.09 166.784 234.121 166.775 234.15C166.767 234.18 166.753 234.207 166.733 234.231L145.892 258.182C145.871 258.203 145.846 258.219 145.819 258.23C145.792 258.241 145.763 258.247 145.734 258.246ZM145.942 222.498V257.492L166.251 234.163L145.942 222.498Z" fill="white"/>
<path d="M145.73 293.951V258.035L166.571 270.007L145.73 293.951Z" fill="#D0D0D0"/>
<path d="M145.733 294.158C145.709 294.164 145.683 294.164 145.658 294.158C145.618 294.144 145.583 294.118 145.559 294.084C145.534 294.049 145.521 294.008 145.521 293.965V258.035C145.522 257.999 145.531 257.963 145.55 257.932C145.568 257.901 145.594 257.875 145.626 257.857C145.658 257.837 145.694 257.827 145.732 257.827C145.769 257.827 145.806 257.837 145.838 257.857L166.679 269.829C166.705 269.843 166.728 269.864 166.745 269.889C166.763 269.913 166.774 269.942 166.779 269.971C166.785 270.002 166.783 270.033 166.775 270.063C166.767 270.092 166.753 270.12 166.733 270.143L145.892 294.094C145.871 294.115 145.846 294.131 145.819 294.143C145.792 294.154 145.763 294.159 145.733 294.158ZM145.942 258.411V293.386L166.251 270.057L145.942 258.411Z" fill="white"/>
<path d="M166.57 198.179L187.415 222.123L166.57 234.095V198.179Z" fill="white"/>
<path d="M166.573 234.302C166.537 234.303 166.5 234.293 166.469 234.274C166.437 234.256 166.41 234.23 166.391 234.199C166.372 234.167 166.362 234.131 166.361 234.095V198.179C166.364 198.139 166.379 198.101 166.403 198.068C166.427 198.036 166.46 198.011 166.497 197.997C166.535 197.983 166.576 197.98 166.616 197.988C166.655 197.996 166.692 198.015 166.721 198.043L187.562 221.994C187.583 222.017 187.598 222.044 187.607 222.074C187.616 222.104 187.617 222.135 187.612 222.166C187.606 222.196 187.594 222.224 187.576 222.249C187.558 222.274 187.535 222.294 187.508 222.309L166.667 234.281C166.638 234.296 166.606 234.303 166.573 234.302ZM166.782 198.74V233.734L187.091 222.069L166.782 198.74Z" fill="#D0D0D0"/>
<path d="M166.57 162.267L187.415 186.207L166.57 198.179V162.267Z" fill="white"/>
<path d="M166.573 198.389C166.537 198.389 166.501 198.379 166.469 198.361C166.437 198.342 166.41 198.316 166.391 198.284C166.372 198.252 166.362 198.215 166.361 198.178V162.266C166.362 162.224 166.376 162.182 166.4 162.147C166.424 162.113 166.458 162.085 166.498 162.069C166.538 162.055 166.582 162.053 166.624 162.064C166.666 162.074 166.703 162.098 166.731 162.13L187.572 186.081C187.593 186.103 187.609 186.13 187.617 186.159C187.626 186.188 187.628 186.219 187.623 186.249C187.617 186.28 187.605 186.309 187.587 186.334C187.569 186.359 187.546 186.38 187.519 186.396L166.678 198.368C166.645 198.383 166.609 198.391 166.573 198.389ZM166.782 162.824V197.817L187.091 186.142L166.782 162.824Z" fill="#D0D0D0"/>
<path d="M166.57 270.007L187.415 293.951L166.57 305.919V270.007Z" fill="white"/>
<path d="M166.573 306.13C166.537 306.13 166.501 306.12 166.469 306.102C166.437 306.084 166.41 306.058 166.391 306.027C166.373 305.995 166.362 305.959 166.361 305.923V270.007C166.364 269.967 166.379 269.929 166.403 269.896C166.427 269.864 166.46 269.84 166.497 269.825C166.535 269.811 166.576 269.808 166.616 269.816C166.655 269.824 166.692 269.843 166.721 269.871L187.562 293.822C187.583 293.845 187.598 293.872 187.607 293.902C187.616 293.932 187.617 293.963 187.612 293.994C187.606 294.024 187.594 294.052 187.576 294.077C187.558 294.102 187.535 294.122 187.508 294.137L166.667 306.109C166.638 306.123 166.606 306.13 166.573 306.13ZM166.782 270.568V305.562L187.091 293.897L166.782 270.568Z" fill="#D0D0D0"/>
<path d="M166.57 126.351L187.415 150.294L166.57 162.266V126.351Z" fill="white"/>
<path d="M166.573 162.474C166.537 162.475 166.5 162.465 166.469 162.446C166.437 162.428 166.41 162.402 166.391 162.371C166.372 162.339 166.362 162.303 166.361 162.267V126.355C166.361 126.312 166.375 126.27 166.399 126.235C166.423 126.2 166.458 126.173 166.498 126.158C166.538 126.143 166.583 126.14 166.624 126.151C166.666 126.162 166.704 126.186 166.731 126.219L187.572 150.17C187.593 150.193 187.609 150.22 187.617 150.25C187.626 150.28 187.628 150.311 187.623 150.341C187.617 150.372 187.604 150.401 187.586 150.426C187.568 150.451 187.545 150.472 187.518 150.488L166.678 162.456C166.645 162.472 166.609 162.479 166.573 162.474ZM166.782 126.912V161.906L187.091 150.241L166.782 126.912Z" fill="#D0D0D0"/>
<path d="M166.571 198.179V234.095L145.73 222.123L166.571 198.179Z" fill="#D0D0D0"/>
<path d="M166.573 234.302C166.536 234.303 166.499 234.293 166.468 234.274L145.627 222.302C145.601 222.287 145.578 222.267 145.561 222.242C145.543 222.217 145.532 222.189 145.527 222.159C145.521 222.129 145.523 222.097 145.531 222.068C145.539 222.038 145.553 222.011 145.573 221.987L166.414 198.036C166.443 198.007 166.479 197.986 166.519 197.977C166.559 197.968 166.601 197.971 166.64 197.985C166.678 198 166.711 198.025 166.735 198.058C166.759 198.092 166.772 198.131 166.774 198.172V234.095C166.774 234.131 166.764 234.167 166.746 234.198C166.728 234.23 166.701 234.256 166.67 234.274C166.641 234.292 166.607 234.302 166.573 234.302ZM146.066 222.069L166.371 233.734V198.74L146.066 222.069Z" fill="white"/>
<path d="M166.569 162.267V198.179L145.729 186.207L166.569 162.267Z" fill="#D0D0D0"/>
<path d="M166.573 198.39C166.536 198.39 166.5 198.38 166.469 198.362L145.628 186.39C145.601 186.374 145.578 186.353 145.561 186.328C145.543 186.303 145.532 186.275 145.526 186.245C145.521 186.215 145.523 186.184 145.531 186.155C145.539 186.125 145.554 186.098 145.574 186.075L166.415 162.124C166.442 162.092 166.479 162.069 166.52 162.058C166.561 162.047 166.605 162.049 166.645 162.063C166.685 162.078 166.719 162.105 166.744 162.14C166.768 162.176 166.781 162.217 166.781 162.26V198.179C166.782 198.216 166.772 198.252 166.754 198.284C166.736 198.316 166.709 198.343 166.677 198.362C166.645 198.38 166.609 198.39 166.573 198.39ZM146.066 186.143L166.372 197.807V162.825L146.066 186.143Z" fill="white"/>
<path d="M166.57 234.095L187.415 258.035L166.57 270.007V234.095Z" fill="white"/>
<path d="M166.573 270.218C166.517 270.217 166.464 270.195 166.424 270.155C166.385 270.116 166.362 270.063 166.361 270.007V234.095C166.362 234.052 166.375 234.011 166.4 233.976C166.424 233.941 166.458 233.914 166.498 233.898C166.538 233.883 166.583 233.881 166.624 233.892C166.666 233.902 166.704 233.926 166.731 233.959L187.572 257.91C187.593 257.933 187.609 257.96 187.617 257.99C187.626 258.02 187.628 258.051 187.623 258.082C187.617 258.112 187.604 258.141 187.586 258.166C187.568 258.191 187.545 258.212 187.518 258.228L166.678 270.2C166.645 270.215 166.609 270.221 166.573 270.218ZM166.782 234.652V269.646L187.091 257.996L166.782 234.652Z" fill="#D0D0D0"/>
<path d="M166.571 270.007V305.919L145.73 293.951L166.571 270.007Z" fill="#D0D0D0"/>
<path d="M166.574 306.13C166.538 306.13 166.502 306.12 166.47 306.102L145.629 294.13C145.603 294.115 145.58 294.095 145.563 294.07C145.545 294.045 145.534 294.017 145.529 293.987C145.523 293.957 145.525 293.926 145.533 293.896C145.541 293.866 145.555 293.839 145.575 293.815L166.416 269.864C166.445 269.835 166.481 269.814 166.521 269.805C166.561 269.796 166.603 269.799 166.641 269.813C166.68 269.828 166.713 269.853 166.737 269.887C166.761 269.92 166.774 269.959 166.776 270V305.923C166.776 305.959 166.766 305.995 166.748 306.026C166.729 306.058 166.703 306.084 166.671 306.102C166.642 306.119 166.609 306.129 166.574 306.13ZM146.068 293.898L166.373 305.562V270.568L146.068 293.898Z" fill="white"/>
<path d="M166.569 234.095V270.007L145.729 258.035L166.569 234.095Z" fill="#D0D0D0"/>
<path d="M166.573 270.218C166.536 270.218 166.5 270.208 166.469 270.19L145.628 258.218C145.601 258.202 145.578 258.181 145.561 258.156C145.543 258.13 145.532 258.101 145.526 258.071C145.521 258.041 145.523 258.01 145.531 257.98C145.539 257.951 145.554 257.923 145.574 257.9L166.415 233.949C166.442 233.915 166.478 233.892 166.52 233.881C166.561 233.87 166.605 233.872 166.645 233.888C166.685 233.903 166.72 233.929 166.744 233.965C166.769 234 166.782 234.042 166.781 234.084V270.007C166.781 270.044 166.771 270.08 166.753 270.112C166.735 270.144 166.709 270.171 166.677 270.19C166.645 270.208 166.609 270.218 166.573 270.218ZM146.066 257.996L166.372 269.661V234.653L146.066 257.996Z" fill="white"/>
<path d="M166.569 126.351V162.266L145.729 150.294L166.569 126.351Z" fill="#D0D0D0"/>
<path d="M166.573 162.473C166.536 162.475 166.5 162.465 166.469 162.445L145.628 150.477C145.601 150.461 145.578 150.44 145.561 150.414C145.543 150.389 145.532 150.36 145.526 150.33C145.521 150.3 145.523 150.269 145.531 150.239C145.539 150.209 145.554 150.182 145.574 150.158L166.415 126.207C166.442 126.174 166.478 126.15 166.52 126.14C166.561 126.129 166.605 126.131 166.645 126.147C166.685 126.161 166.72 126.188 166.745 126.223C166.77 126.258 166.782 126.3 166.781 126.343V162.266C166.782 162.302 166.772 162.338 166.754 162.37C166.735 162.401 166.709 162.427 166.677 162.445C166.646 162.465 166.61 162.475 166.573 162.473ZM146.066 150.241L166.372 161.905V126.912L146.066 150.241Z" fill="white"/>
<path d="M128.484 186.207V222.123L149.329 210.151L128.484 186.207Z" fill="#09226E"/>
<path d="M128.49 222.33C128.453 222.331 128.417 222.321 128.385 222.301C128.354 222.283 128.327 222.257 128.309 222.226C128.291 222.194 128.281 222.159 128.281 222.122V186.21C128.281 186.167 128.294 186.125 128.318 186.09C128.343 186.055 128.377 186.028 128.418 186.013C128.458 185.999 128.501 185.997 128.542 186.008C128.583 186.019 128.62 186.042 128.648 186.074L149.489 210.025C149.51 210.048 149.525 210.075 149.534 210.105C149.543 210.135 149.544 210.166 149.539 210.197C149.533 210.227 149.521 210.256 149.503 210.281C149.485 210.306 149.462 210.328 149.435 210.343L128.594 222.312C128.562 222.328 128.525 222.334 128.49 222.33ZM128.698 186.768V221.761L149.007 210.093L128.698 186.768Z" fill="#DA9F29"/>
<path d="M128.485 186.207V222.123L107.645 210.151L128.485 186.207Z" fill="#001D76"/>
<path d="M118.064 258.035V293.951L138.909 281.979L118.064 258.035Z" fill="#E3185C"/>
<path d="M118.067 294.159C118.031 294.158 117.995 294.148 117.963 294.13C117.931 294.112 117.904 294.086 117.885 294.055C117.866 294.024 117.856 293.988 117.855 293.951V258.035C117.858 257.995 117.873 257.957 117.897 257.925C117.921 257.893 117.954 257.868 117.992 257.854C118.029 257.839 118.07 257.836 118.11 257.844C118.15 257.852 118.186 257.872 118.215 257.9L139.056 281.851C139.077 281.874 139.092 281.901 139.101 281.931C139.11 281.96 139.111 281.992 139.106 282.022C139.1 282.053 139.088 282.081 139.07 282.107C139.052 282.132 139.029 282.153 139.002 282.169L118.161 294.137C118.132 294.151 118.1 294.159 118.067 294.159ZM118.276 258.597V293.59L138.585 281.926L118.276 258.597Z" fill="#5936E6"/>
<path d="M118.064 258.035V293.951L97.2227 281.979L118.064 258.035Z" fill="#FA397A"/>
<path d="M118.069 294.158C118.032 294.157 117.996 294.147 117.965 294.129L97.1238 282.161C97.0972 282.145 97.0743 282.124 97.0568 282.099C97.0393 282.073 97.0276 282.044 97.0225 282.014C97.0173 281.984 97.0189 281.953 97.0271 281.923C97.0353 281.894 97.0499 281.866 97.0699 281.843L117.911 257.892C117.939 257.862 117.976 257.841 118.016 257.832C118.056 257.823 118.098 257.826 118.136 257.841C118.174 257.855 118.208 257.881 118.231 257.914C118.255 257.947 118.269 257.987 118.27 258.027V293.95C118.27 293.987 118.261 294.022 118.243 294.054C118.224 294.085 118.198 294.111 118.166 294.129C118.136 294.146 118.103 294.156 118.069 294.158ZM97.5586 281.925L117.864 293.589V258.596L97.5586 281.925Z" fill="white"/>
<path d="M78.5938 198.751V234.663L99.4347 222.691L78.5938 198.751Z" fill="#F3F3F3"/>
<path d="M78.5932 234.874C78.5565 234.874 78.5207 234.864 78.489 234.846C78.4574 234.827 78.4312 234.8 78.4129 234.768C78.3947 234.736 78.385 234.7 78.3848 234.663V198.751C78.3862 198.71 78.3996 198.671 78.4235 198.638C78.4474 198.604 78.4806 198.579 78.519 198.564C78.5574 198.55 78.5992 198.547 78.6393 198.556C78.6793 198.565 78.7158 198.586 78.7441 198.615L99.5851 222.566C99.6051 222.59 99.6197 222.617 99.6279 222.647C99.636 222.676 99.6376 222.708 99.6325 222.738C99.6274 222.768 99.6156 222.797 99.5981 222.822C99.5806 222.848 99.5578 222.869 99.5312 222.884L78.6902 234.856C78.6597 234.87 78.6265 234.876 78.5932 234.874ZM78.8016 199.309V234.302L99.1108 222.638L78.8016 199.309Z" fill="#D0D0D0"/>
<path d="M78.5926 198.751V234.663L57.748 222.691L78.5926 198.751Z" fill="white"/>
<path d="M78.5914 234.874C78.5548 234.874 78.5189 234.864 78.4872 234.846L57.6462 222.874C57.6194 222.858 57.5962 222.837 57.5783 222.812C57.5603 222.786 57.5479 222.758 57.542 222.727C57.5368 222.697 57.5385 222.665 57.5472 222.636C57.556 222.606 57.5714 222.578 57.5923 222.556L78.4333 198.605C78.4616 198.575 78.498 198.554 78.5381 198.545C78.5781 198.536 78.62 198.539 78.6583 198.554C78.6967 198.568 78.7299 198.594 78.7538 198.627C78.7777 198.66 78.7912 198.7 78.7926 198.74V234.663C78.7924 234.7 78.7827 234.736 78.7644 234.768C78.7462 234.8 78.72 234.827 78.6884 234.846C78.6588 234.863 78.6255 234.872 78.5914 234.874ZM58.0738 222.638L78.383 234.302V199.309L58.0738 222.638Z" fill="#CBCBCB"/>
<path d="M218.676 150.813L239.517 174.754L218.676 186.726V150.813Z" fill="#E3185C"/>
<path d="M218.677 186.936C218.641 186.935 218.605 186.925 218.573 186.907C218.541 186.889 218.514 186.862 218.496 186.83C218.478 186.798 218.468 186.762 218.469 186.725V150.813C218.47 150.772 218.484 150.732 218.508 150.699C218.531 150.666 218.565 150.64 218.603 150.626C218.641 150.611 218.683 150.608 218.723 150.617C218.763 150.627 218.8 150.647 218.828 150.677L239.669 174.628C239.689 174.651 239.703 174.679 239.711 174.709C239.719 174.738 239.721 174.769 239.716 174.799C239.711 174.83 239.699 174.858 239.681 174.884C239.664 174.909 239.642 174.93 239.615 174.946L218.774 186.918C218.744 186.931 218.71 186.937 218.677 186.936ZM218.889 151.37V186.364L239.195 174.703L218.889 151.37Z" fill="#FF5050"/>
<path d="M218.677 150.813L197.836 174.754L218.677 186.726V150.813Z" fill="#FA397A"/>
<path d="M218.676 186.937C218.639 186.936 218.603 186.926 218.571 186.908L197.73 174.936C197.704 174.92 197.682 174.899 197.664 174.874C197.647 174.848 197.635 174.82 197.63 174.79C197.625 174.759 197.626 174.728 197.634 174.699C197.643 174.669 197.657 174.642 197.677 174.618L218.517 150.667C218.546 150.637 218.582 150.617 218.622 150.608C218.662 150.599 218.704 150.602 218.743 150.616C218.781 150.631 218.814 150.656 218.838 150.689C218.862 150.723 218.875 150.762 218.877 150.803V186.726C218.877 186.763 218.868 186.799 218.85 186.831C218.831 186.863 218.805 186.89 218.773 186.908C218.743 186.925 218.71 186.935 218.676 186.937ZM198.169 174.704L218.478 186.368V151.371L198.169 174.704Z" fill="white"/>
</g>
<g clip-path="url(#clip1_762_1839)">
<path d="M61.7854 54.3604L71.2642 67.7632H52.3066L61.7854 54.3604Z" fill="white"/>
<path d="M82.6363 67.7626H73.5406L62.9238 52.7489L67.4703 46.3164L82.6363 67.7626Z" fill="white"/>
<path d="M94.0085 67.7626H84.9156L74.2988 52.7489L78.8453 46.3164L94.0085 67.7626Z" fill="white"/>
<path d="M82.6363 67.7626H73.5406L62.9238 52.7489L67.4703 46.3164L82.6363 67.7626Z" fill="white"/>
</g>
<defs>
<filter id="filter0_d_762_1839" x="0.861328" y="0.0615234" width="303.057" height="353.098" filterUnits="userSpaceOnUse" color-interpolation-filters="sRGB">
<feFlood flood-opacity="0" result="BackgroundImageFix"/>
<feColorMatrix in="SourceAlpha" type="matrix" values="0 0 0 0 0 0 0 0 0 0 0 0 0 0 0 0 0 0 127 0" result="hardAlpha"/>
<feMorphology radius="10" operator="dilate" in="SourceAlpha" result="effect1_dropShadow_762_1839"/>
<feOffset dy="4"/>
<feGaussianBlur stdDeviation="10"/>
<feComposite in2="hardAlpha" operator="out"/>
<feColorMatrix type="matrix" values="0 0 0 0 0.341176 0 0 0 0 0.501961 0 0 0 0 1 0 0 0 0.2 0"/>
<feBlend mode="normal" in2="BackgroundImageFix" result="effect1_dropShadow_762_1839"/>
<feBlend mode="normal" in="SourceGraphic" in2="effect1_dropShadow_762_1839" result="shape"/>
</filter>
<clipPath id="clip0_762_1839">
<rect width="312.161" height="185.867" fill="white" transform="translate(5.83984 126.144)"/>
</clipPath>
<clipPath id="clip1_762_1839">
<rect width="41.701" height="21.4462" fill="white" transform="translate(52.3066 46.3164)"/>
</clipPath>
</defs>
</svg>
