<svg width="271" height="306" viewBox="0 0 271 306" fill="none" xmlns="http://www.w3.org/2000/svg">
<g filter="url(#filter0_d_0_1)">
<rect x="30" y="26" width="204" height="246" rx="10" fill="#5780FF"/>
</g>
<path d="M47.72 80H50.26V66.22H47.72V80ZM55.7966 75.02C55.7966 73.4 56.7166 72.84 57.8366 72.84C58.8966 72.84 59.6166 73.56 59.6166 74.92V80H62.0566V74.48C62.0566 71.82 60.7566 70.46 58.5766 70.46C57.4766 70.46 56.3366 71.02 55.7966 72.04V70.66H53.3566V80H55.7966V75.02ZM73.7042 75.3C73.7042 72.34 71.6042 70.46 68.9642 70.46C66.3042 70.46 64.1242 72.34 64.1242 75.3C64.1242 78.24 66.3042 80.2 68.9642 80.2C70.6842 80.2 72.4642 79.54 73.3242 77.94C72.7042 77.62 72.0442 77.26 71.4642 76.94C71.0042 77.74 70.0642 78.14 69.1242 78.14C67.7442 78.14 66.7042 77.4 66.5442 76.14H73.6642C73.6842 75.92 73.7042 75.54 73.7042 75.3ZM66.5242 74.48C66.7042 73.2 67.7042 72.5 68.9842 72.5C70.1842 72.5 71.1442 73.2 71.3242 74.48H66.5242ZM78.1989 76.7C78.1989 74.22 78.8789 72.74 80.5389 72.74C80.7789 72.74 81.3789 72.74 81.9589 73L82.3789 70.8C81.9989 70.58 81.4989 70.46 80.8389 70.46C79.7789 70.46 78.6789 71.16 78.1989 72.86V70.66H75.7589V80H78.1989V76.7ZM92.6416 70.66H90.0416L87.7016 76.48L85.3816 70.66H82.7816L86.4216 79.28L84.2816 84.56H86.8616L92.6416 70.66Z" fill="white"/>
<g clip-path="url(#clip0_0_1)">
<path d="M192.944 240.56C192.92 240.561 192.896 240.556 192.874 240.548C192.852 240.539 192.832 240.526 192.815 240.51C192.798 240.493 192.784 240.473 192.775 240.452C192.765 240.43 192.76 240.407 192.76 240.383C192.761 240.334 192.78 240.287 192.814 240.251L192.871 240.212C192.905 240.198 192.941 240.194 192.977 240.201C193.013 240.208 193.045 240.225 193.07 240.251C193.104 240.287 193.123 240.334 193.125 240.383C193.123 240.43 193.104 240.476 193.07 240.509C193.055 240.526 193.035 240.539 193.013 240.545C192.992 240.556 192.968 240.561 192.944 240.56Z" fill="#6AE1C1"/>
<path d="M213.026 201.886C212.978 201.885 212.933 201.865 212.899 201.832C212.881 201.813 212.865 201.792 212.854 201.769C212.852 201.747 212.852 201.725 212.854 201.703C212.852 201.68 212.852 201.657 212.854 201.634C212.865 201.612 212.88 201.592 212.899 201.577C212.913 201.556 212.933 201.54 212.957 201.532C212.991 201.519 213.027 201.517 213.063 201.525C213.098 201.533 213.13 201.551 213.156 201.577C213.173 201.592 213.186 201.612 213.195 201.634C213.201 201.656 213.201 201.68 213.195 201.703C213.201 201.724 213.201 201.747 213.195 201.769C213.185 201.792 213.172 201.813 213.156 201.832C213.121 201.866 213.075 201.885 213.026 201.886Z" fill="#6AE1C1"/>
<path d="M54.2953 200.13C54.2732 200.132 54.251 200.132 54.2289 200.13C54.2048 200.122 54.1838 200.106 54.1686 200.085C54.1496 200.071 54.1358 200.051 54.1294 200.028C54.1248 200.006 54.1248 199.982 54.1294 199.959C54.1288 199.911 54.1472 199.865 54.1807 199.83C54.1978 199.813 54.2184 199.8 54.241 199.791C54.2854 199.773 54.3352 199.773 54.3797 199.791C54.4011 199.802 54.4213 199.815 54.44 199.83C54.4735 199.865 54.4919 199.911 54.4913 199.959C54.4958 199.982 54.4958 200.006 54.4913 200.028C54.4815 200.049 54.4682 200.069 54.4521 200.085C54.4346 200.105 54.413 200.12 54.3887 200.13C54.3577 200.133 54.3263 200.133 54.2953 200.13Z" fill="#6AE1C1"/>
<path d="M76.6459 213.23C76.6045 213.204 76.5745 213.164 76.5621 213.117C76.5498 213.07 76.556 213.02 76.5796 212.978C76.6062 212.938 76.647 212.909 76.6939 212.897C76.7408 212.886 76.7904 212.892 76.8329 212.915C76.8742 212.94 76.904 212.98 76.9158 213.026C76.9277 213.073 76.9206 213.122 76.8962 213.164C76.8801 213.191 76.8572 213.214 76.8297 213.229C76.8022 213.245 76.7711 213.254 76.7394 213.254C76.7067 213.253 76.6747 213.245 76.6459 213.23ZM75.8165 212.741C75.7957 212.729 75.7773 212.714 75.7625 212.695C75.7478 212.676 75.7368 212.655 75.7304 212.632C75.7239 212.609 75.7221 212.585 75.725 212.562C75.7279 212.538 75.7354 212.515 75.7472 212.495C75.7728 212.454 75.8134 212.424 75.8606 212.411C75.9077 212.399 75.9578 212.405 76.0005 212.429C76.0213 212.441 76.0394 212.457 76.0538 212.476C76.0683 212.495 76.0788 212.517 76.0847 212.54C76.0906 212.563 76.0918 212.587 76.0882 212.611C76.0846 212.635 76.0763 212.657 76.0638 212.678C76.0483 212.705 76.0254 212.728 75.9978 212.743C75.9701 212.759 75.9387 212.766 75.907 212.765C75.875 212.767 75.843 212.759 75.8165 212.741ZM74.9842 212.264C74.9429 212.239 74.913 212.199 74.9006 212.153C74.8883 212.106 74.8944 212.057 74.9178 212.015C74.9299 211.994 74.9462 211.975 74.9656 211.961C74.9851 211.946 75.0073 211.935 75.031 211.929C75.0546 211.924 75.0793 211.923 75.1033 211.926C75.1274 211.93 75.1505 211.939 75.1711 211.952C75.2122 211.976 75.242 212.016 75.2539 212.062C75.2657 212.108 75.2588 212.157 75.2345 212.198C75.2177 212.224 75.1947 212.246 75.1673 212.262C75.14 212.278 75.1092 212.287 75.0776 212.288C75.045 212.287 75.013 212.279 74.9842 212.264ZM74.1488 211.778C74.1086 211.752 74.0798 211.712 74.068 211.666C74.0563 211.619 74.0625 211.57 74.0854 211.529C74.1111 211.487 74.1517 211.458 74.1988 211.445C74.246 211.433 74.2961 211.439 74.3388 211.463C74.3786 211.49 74.4071 211.53 74.4188 211.577C74.4304 211.623 74.4245 211.672 74.4021 211.715C74.3853 211.742 74.3618 211.764 74.3338 211.779C74.3057 211.795 74.2742 211.802 74.2423 211.802C74.2089 211.8 74.1766 211.79 74.1488 211.772V211.778ZM73.3134 211.286C73.2721 211.261 73.2422 211.221 73.2299 211.174C73.2175 211.128 73.2236 211.079 73.247 211.037C73.2591 211.016 73.2754 210.997 73.2949 210.983C73.3143 210.968 73.3365 210.957 73.3602 210.951C73.3838 210.946 73.4085 210.944 73.4326 210.948C73.4566 210.952 73.4797 210.961 73.5004 210.974C73.541 210.998 73.5701 211.038 73.5814 211.084C73.5926 211.13 73.5852 211.179 73.5607 211.22C73.5442 211.247 73.5209 211.271 73.4929 211.287C73.4649 211.303 73.4332 211.312 73.4008 211.313C73.3699 211.311 73.3398 211.302 73.3134 211.286ZM72.478 210.8C72.4386 210.774 72.4103 210.734 72.3986 210.689C72.3869 210.643 72.3926 210.595 72.4147 210.554C72.4387 210.512 72.478 210.482 72.5242 210.469C72.5704 210.456 72.6198 210.462 72.662 210.485C72.7039 210.51 72.7345 210.55 72.7475 210.597C72.7604 210.644 72.7546 210.694 72.7313 210.737C72.715 210.763 72.692 210.786 72.6645 210.801C72.637 210.816 72.606 210.824 72.5745 210.824C72.544 210.822 72.5142 210.814 72.487 210.8H72.478ZM71.6486 210.311C71.6081 210.286 71.5789 210.246 71.5671 210.2C71.5553 210.154 71.5618 210.106 71.5853 210.065C71.5971 210.044 71.613 210.026 71.6319 210.012C71.6509 209.997 71.6725 209.987 71.6956 209.981C71.7186 209.975 71.7426 209.974 71.7662 209.977C71.7897 209.981 71.8123 209.989 71.8326 210.001C71.8535 210.013 71.8718 210.029 71.8866 210.047C71.9013 210.066 71.9121 210.088 71.9183 210.111C71.9245 210.133 71.9259 210.157 71.9226 210.181C71.9193 210.205 71.9112 210.227 71.8989 210.248C71.8825 210.275 71.8592 210.298 71.8312 210.315C71.8032 210.331 71.7715 210.34 71.7391 210.341C71.7099 210.337 71.682 210.327 71.6577 210.311H71.6486ZM70.8162 209.827C70.7763 209.802 70.7476 209.763 70.7358 209.717C70.7241 209.671 70.7302 209.623 70.7529 209.581C70.7769 209.54 70.8163 209.51 70.8625 209.497C70.9087 209.484 70.9581 209.49 71.0002 209.512C71.0422 209.537 71.0728 209.578 71.0857 209.625C71.0986 209.672 71.0929 209.722 71.0696 209.764C71.0528 209.792 71.0293 209.814 71.0012 209.829C70.9732 209.844 70.9417 209.852 70.9097 209.851C70.8802 209.849 70.8515 209.841 70.8253 209.827H70.8162ZM69.9959 209.338C69.975 209.327 69.9566 209.311 69.9419 209.293C69.9272 209.274 69.9166 209.252 69.9107 209.229C69.9047 209.206 69.9036 209.182 69.9074 209.158C69.9112 209.135 69.9197 209.112 69.9326 209.092C69.9444 209.072 69.9603 209.054 69.9792 209.04C69.9982 209.025 70.0198 209.015 70.0428 209.009C70.0659 209.003 70.0899 209.002 70.1135 209.005C70.137 209.009 70.1596 209.017 70.1799 209.029C70.2008 209.041 70.2192 209.056 70.2339 209.075C70.2486 209.094 70.2594 209.115 70.2656 209.138C70.2718 209.161 70.2732 209.185 70.2699 209.209C70.2666 209.232 70.2586 209.255 70.2463 209.275C70.23 209.303 70.2065 209.326 70.1784 209.341C70.1502 209.356 70.1185 209.364 70.0864 209.362C70.0544 209.364 70.0227 209.356 69.9959 209.338ZM69.1635 208.855C69.122 208.83 69.0922 208.789 69.0803 208.742C69.0685 208.695 69.0756 208.645 69.1002 208.603C69.1257 208.564 69.1655 208.535 69.2114 208.523C69.2573 208.512 69.3059 208.518 69.3475 208.54C69.3895 208.565 69.4201 208.606 69.433 208.653C69.446 208.699 69.4402 208.75 69.4169 208.792C69.3997 208.819 69.3761 208.841 69.3481 208.856C69.3202 208.871 69.2889 208.879 69.257 208.879C69.2244 208.879 69.1925 208.87 69.1635 208.855ZM68.3342 208.363C68.3132 208.352 68.2948 208.336 68.2802 208.317C68.2655 208.299 68.2549 208.277 68.2489 208.254C68.243 208.231 68.2419 208.207 68.2456 208.183C68.2494 208.16 68.258 208.137 68.2709 208.117C68.2827 208.097 68.2985 208.079 68.3175 208.064C68.3364 208.05 68.3581 208.04 68.3811 208.034C68.4042 208.028 68.4282 208.027 68.4517 208.03C68.4753 208.034 68.4978 208.042 68.5181 208.054C68.5391 208.066 68.5574 208.081 68.5721 208.1C68.5869 208.119 68.5976 208.14 68.6038 208.163C68.61 208.186 68.6115 208.21 68.6082 208.234C68.6049 208.257 68.5968 208.28 68.5845 208.3C68.5682 208.328 68.5448 208.35 68.5166 208.366C68.4885 208.381 68.4567 208.388 68.4247 208.387C68.3927 208.389 68.3609 208.381 68.3342 208.363ZM67.5018 207.88C67.4809 207.868 67.4627 207.852 67.4483 207.832C67.4338 207.813 67.4233 207.791 67.4174 207.767C67.4115 207.744 67.4103 207.72 67.414 207.696C67.4176 207.672 67.4259 207.649 67.4385 207.628C67.464 207.588 67.5037 207.56 67.5496 207.548C67.5956 207.537 67.6442 207.543 67.6858 207.565C67.7275 207.59 67.7581 207.629 67.771 207.676C67.784 207.722 67.7783 207.772 67.7551 207.814C67.7381 207.841 67.7146 207.864 67.6867 207.879C67.6588 207.895 67.6274 207.904 67.5953 207.904C67.5629 207.904 67.531 207.897 67.5018 207.883V207.88ZM66.6785 207.397C66.6574 207.385 66.639 207.37 66.6243 207.35C66.6096 207.331 66.5989 207.31 66.593 207.286C66.5871 207.263 66.586 207.239 66.5898 207.215C66.5936 207.191 66.6022 207.168 66.6151 207.148C66.627 207.128 66.6428 207.11 66.6617 207.095C66.6806 207.081 66.7021 207.07 66.7251 207.064C66.748 207.058 66.772 207.056 66.7956 207.06C66.8191 207.063 66.8419 207.07 66.8624 207.082C66.9044 207.107 66.935 207.147 66.9479 207.194C66.9609 207.241 66.9551 207.291 66.9318 207.334C66.914 207.361 66.8897 207.383 66.8613 207.398C66.8329 207.413 66.8012 207.421 66.769 207.421C66.7371 207.422 66.7058 207.414 66.6785 207.397ZM65.8461 206.911C65.8253 206.899 65.8072 206.883 65.7928 206.864C65.7783 206.845 65.7678 206.823 65.7619 206.8C65.756 206.777 65.7548 206.753 65.7584 206.729C65.762 206.705 65.7703 206.683 65.7828 206.662C65.7946 206.642 65.8104 206.624 65.8294 206.609C65.8483 206.595 65.87 206.584 65.893 206.579C65.9161 206.573 65.9401 206.572 65.9636 206.575C65.9872 206.579 66.0098 206.587 66.0301 206.599C66.051 206.611 66.0694 206.626 66.0841 206.645C66.0988 206.664 66.1094 206.685 66.1153 206.708C66.1213 206.732 66.1224 206.756 66.1186 206.779C66.1148 206.803 66.1063 206.825 66.0934 206.845C66.0782 206.872 66.056 206.895 66.0289 206.911C66.0018 206.927 65.971 206.935 65.9396 206.935C65.905 206.935 65.8708 206.927 65.8401 206.911H65.8461ZM65.0167 206.425C64.9958 206.414 64.9774 206.398 64.9627 206.379C64.948 206.36 64.9374 206.339 64.9315 206.316C64.9256 206.293 64.9244 206.269 64.9282 206.245C64.932 206.222 64.9406 206.199 64.9534 206.179C64.965 206.158 64.9807 206.14 64.9994 206.125C65.0181 206.111 65.0396 206.1 65.0626 206.093C65.0856 206.087 65.1096 206.085 65.1333 206.088C65.1571 206.091 65.1799 206.098 65.2007 206.11C65.2216 206.122 65.2398 206.139 65.2542 206.158C65.2687 206.177 65.2792 206.2 65.2851 206.223C65.291 206.246 65.2922 206.271 65.2886 206.295C65.2849 206.318 65.2766 206.341 65.264 206.362C65.248 206.389 65.225 206.411 65.1975 206.427C65.1699 206.442 65.1388 206.45 65.1072 206.449C65.0733 206.452 65.0394 206.443 65.0107 206.425H65.0167ZM64.1844 205.942C64.1428 205.917 64.113 205.876 64.1012 205.829C64.0893 205.782 64.0965 205.732 64.121 205.69C64.1326 205.669 64.1482 205.651 64.1671 205.636C64.1861 205.622 64.2078 205.611 64.231 205.605C64.2541 205.599 64.2783 205.598 64.3019 205.602C64.3256 205.606 64.3482 205.614 64.3683 205.627C64.3893 205.638 64.4077 205.654 64.4224 205.673C64.437 205.692 64.4476 205.713 64.4536 205.736C64.4595 205.759 64.4606 205.783 64.4569 205.807C64.4531 205.83 64.4445 205.853 64.4317 205.873C64.4167 205.901 64.3945 205.924 64.3675 205.94C64.3404 205.957 64.3095 205.966 64.2779 205.966C64.2433 205.965 64.2094 205.957 64.1783 205.942H64.1844ZM63.361 205.453C63.3195 205.429 63.289 205.39 63.276 205.344C63.2631 205.298 63.2687 205.249 63.2917 205.207C63.3168 205.165 63.3572 205.135 63.4044 205.122C63.4516 205.109 63.502 205.115 63.545 205.138C63.5659 205.15 63.5841 205.167 63.5985 205.186C63.613 205.205 63.6235 205.227 63.6294 205.251C63.6353 205.274 63.6365 205.299 63.6329 205.322C63.6292 205.346 63.6209 205.369 63.6083 205.39C63.5923 205.417 63.5693 205.439 63.5418 205.455C63.5142 205.47 63.4831 205.478 63.4515 205.477C63.4196 205.478 63.388 205.47 63.361 205.453ZM62.5287 204.964C62.508 204.952 62.49 204.936 62.4755 204.918C62.461 204.899 62.4504 204.877 62.4442 204.855C62.4381 204.832 62.4365 204.808 62.4396 204.784C62.4427 204.761 62.4504 204.738 62.4623 204.718C62.4741 204.697 62.4901 204.679 62.5093 204.664C62.5285 204.649 62.5504 204.639 62.5739 204.633C62.5973 204.627 62.6217 204.626 62.6455 204.63C62.6694 204.633 62.6922 204.642 62.7126 204.655C62.7336 204.666 62.752 204.682 62.7666 204.701C62.7813 204.72 62.7919 204.741 62.7979 204.764C62.8038 204.787 62.8049 204.811 62.8012 204.835C62.7974 204.858 62.7888 204.881 62.776 204.901C62.7615 204.929 62.7394 204.953 62.7123 204.969C62.6851 204.985 62.6539 204.994 62.6221 204.994C62.5845 204.997 62.547 204.986 62.5166 204.964H62.5287ZM61.6993 204.481C61.6578 204.457 61.6273 204.418 61.6143 204.372C61.6013 204.326 61.607 204.277 61.6299 204.235C61.6551 204.193 61.6955 204.163 61.7427 204.15C61.7899 204.137 61.8402 204.143 61.8833 204.166C61.9041 204.178 61.9223 204.195 61.9368 204.214C61.9513 204.233 61.9618 204.255 61.9677 204.279C61.9736 204.302 61.9747 204.327 61.9711 204.35C61.9675 204.374 61.9592 204.397 61.9466 204.418C61.9297 204.444 61.9065 204.466 61.8792 204.481C61.8518 204.496 61.8211 204.504 61.7898 204.505C61.7537 204.511 61.7169 204.502 61.6872 204.481H61.6993ZM60.8669 203.992C60.8463 203.98 60.8283 203.964 60.8138 203.946C60.7993 203.927 60.7886 203.905 60.7825 203.882C60.7763 203.86 60.7748 203.836 60.7779 203.812C60.781 203.789 60.7887 203.766 60.8006 203.746C60.8127 203.725 60.8288 203.707 60.848 203.693C60.8673 203.678 60.8891 203.668 60.9125 203.662C60.9358 203.656 60.96 203.655 60.9838 203.659C61.0075 203.662 61.0304 203.67 61.0509 203.683C61.0914 203.708 61.1206 203.747 61.1324 203.793C61.1442 203.839 61.1377 203.888 61.1142 203.929C61.0985 203.957 61.0753 203.981 61.0472 203.997C61.019 204.014 60.987 204.022 60.9544 204.022C60.9186 204.025 60.8829 204.014 60.8549 203.992H60.8669ZM60.0375 203.509C59.996 203.485 59.9655 203.446 59.9526 203.4C59.9396 203.354 59.9452 203.305 59.9682 203.263C59.9934 203.221 60.0337 203.191 60.0809 203.178C60.1281 203.165 60.1785 203.171 60.2215 203.194C60.2622 203.219 60.2915 203.259 60.3033 203.306C60.3151 203.352 60.3085 203.401 60.2849 203.443C60.2687 203.47 60.2458 203.493 60.2183 203.508C60.1909 203.524 60.1598 203.532 60.128 203.533C60.0922 203.535 60.0566 203.527 60.0255 203.509H60.0375ZM59.2022 203.02C59.1611 202.995 59.1313 202.956 59.1194 202.91C59.1076 202.864 59.1146 202.815 59.1388 202.774C59.151 202.753 59.1671 202.735 59.1863 202.721C59.2055 202.706 59.2274 202.696 59.2507 202.69C59.274 202.684 59.2982 202.683 59.322 202.686C59.3458 202.69 59.3686 202.698 59.3892 202.711C59.4297 202.736 59.4589 202.775 59.4707 202.821C59.4825 202.867 59.476 202.916 59.4525 202.957C59.4367 202.985 59.4136 203.009 59.3854 203.025C59.3573 203.041 59.3252 203.05 59.2926 203.05C59.256 203.052 59.2196 203.042 59.1901 203.02H59.2022ZM58.3698 202.537C58.3296 202.511 58.3008 202.471 58.2891 202.424C58.2773 202.378 58.2835 202.329 58.3064 202.288C58.3315 202.247 58.3712 202.218 58.4173 202.206C58.4635 202.195 58.5123 202.201 58.5538 202.225C58.5953 202.249 58.6258 202.288 58.6387 202.334C58.6517 202.38 58.6461 202.429 58.6231 202.471C58.6065 202.498 58.5831 202.521 58.5551 202.537C58.5271 202.552 58.4955 202.561 58.4633 202.561C58.4266 202.562 58.3903 202.554 58.3577 202.537H58.3698ZM57.5284 202.063C57.487 202.038 57.4573 201.998 57.4454 201.951C57.4336 201.904 57.4406 201.855 57.465 201.814C57.4771 201.793 57.4932 201.776 57.5122 201.762C57.5313 201.747 57.5529 201.737 57.576 201.732C57.599 201.726 57.6229 201.725 57.6464 201.729C57.6698 201.733 57.6922 201.741 57.7123 201.754C57.7329 201.765 57.751 201.781 57.7655 201.8C57.78 201.819 57.7906 201.84 57.7968 201.863C57.8029 201.886 57.8045 201.91 57.8014 201.933C57.7983 201.956 57.7906 201.979 57.7787 202C57.7619 202.027 57.7384 202.049 57.7103 202.064C57.6823 202.079 57.6508 202.087 57.6188 202.087C57.587 202.087 57.5556 202.079 57.5284 202.063ZM56.696 201.58C56.6562 201.553 56.6277 201.512 56.616 201.466C56.6043 201.419 56.6102 201.37 56.6326 201.328C56.6577 201.287 56.6974 201.258 56.7435 201.246C56.7897 201.235 56.8385 201.241 56.88 201.264C56.9215 201.288 56.952 201.328 56.9649 201.373C56.9779 201.419 56.9723 201.469 56.9493 201.511C56.9329 201.538 56.9095 201.561 56.8816 201.578C56.8536 201.594 56.8219 201.603 56.7895 201.604C56.7563 201.597 56.7246 201.585 56.696 201.568V201.58ZM55.8666 201.09C55.8457 201.079 55.8273 201.063 55.8126 201.045C55.7979 201.026 55.7873 201.004 55.7814 200.981C55.7754 200.958 55.7743 200.934 55.7781 200.911C55.7819 200.887 55.7904 200.865 55.8033 200.844C55.8149 200.824 55.8305 200.805 55.8493 200.791C55.868 200.776 55.8895 200.765 55.9125 200.759C55.9355 200.752 55.9595 200.75 55.9832 200.753C56.0069 200.756 56.0298 200.764 56.0506 200.775C56.092 200.801 56.122 200.841 56.1344 200.888C56.1467 200.935 56.1405 200.985 56.1169 201.027C56.1002 201.055 56.0766 201.077 56.0486 201.092C56.0206 201.107 55.989 201.115 55.9571 201.114C55.924 201.112 55.8924 201.099 55.8666 201.078V201.09ZM55.0342 200.607C55.0134 200.595 54.9952 200.579 54.9807 200.559C54.9662 200.54 54.9557 200.518 54.9498 200.495C54.9439 200.471 54.9428 200.447 54.9464 200.423C54.95 200.399 54.9583 200.376 54.9709 200.355C54.9824 200.335 54.9981 200.316 55.017 200.302C55.0359 200.287 55.0577 200.276 55.0808 200.271C55.104 200.265 55.1282 200.264 55.1518 200.267C55.1754 200.271 55.198 200.28 55.2182 200.292C55.2597 200.316 55.2902 200.355 55.3032 200.401C55.3162 200.447 55.3105 200.497 55.2876 200.538C55.2707 200.566 55.2473 200.589 55.2194 200.605C55.1915 200.621 55.16 200.63 55.1277 200.631C55.0941 200.627 55.0621 200.615 55.0342 200.595V200.607Z" fill="#6AE1C1"/>
<path d="M77.5688 213.737H77.4964C77.4759 213.726 77.4567 213.713 77.4391 213.698C77.4058 213.663 77.3865 213.617 77.3848 213.569C77.3844 213.545 77.3891 213.522 77.3984 213.5C77.4078 213.479 77.4216 213.459 77.4391 213.443C77.4559 213.426 77.4759 213.413 77.4979 213.404C77.5199 213.395 77.5434 213.39 77.5673 213.39C77.5911 213.39 77.6147 213.395 77.6367 213.404C77.6587 213.413 77.6786 213.426 77.6955 213.443C77.7134 213.459 77.7276 213.478 77.737 213.5C77.7463 213.522 77.7507 213.545 77.7497 213.569C77.7497 213.592 77.7446 213.615 77.7346 213.635C77.73 213.66 77.716 213.683 77.6955 213.698C77.68 213.716 77.6603 213.729 77.6381 213.737C77.6151 213.74 77.5918 213.74 77.5688 213.737Z" fill="#6AE1C1"/>
<path d="M73.9314 190.556V220.698L56.4395 210.649L73.9314 190.556Z" fill="#D0D0D0"/>
<path d="M73.9344 220.875C73.9028 220.874 73.8718 220.866 73.844 220.851L56.352 210.802C56.3299 210.789 56.3109 210.771 56.2964 210.75C56.2818 210.729 56.272 210.705 56.2675 210.679C56.2633 210.654 56.2647 210.628 56.2714 210.603C56.2782 210.578 56.2902 210.555 56.3067 210.535L73.7987 190.433C73.8216 190.406 73.8524 190.386 73.887 190.377C73.9216 190.368 73.9582 190.37 73.9917 190.382C74.0254 190.395 74.0543 190.417 74.0748 190.447C74.0953 190.476 74.1063 190.511 74.1064 190.547V220.698C74.1062 220.728 74.098 220.759 74.0827 220.785C74.0674 220.812 74.0454 220.835 74.0189 220.851C73.9932 220.865 73.9641 220.874 73.9344 220.875ZM56.7259 210.604L73.7686 220.395V191.027L56.7259 210.604Z" fill="white"/>
<path d="M213.876 190.556L231.368 210.649L213.876 220.698V190.556Z" fill="white"/>
<path d="M213.877 220.875C213.846 220.874 213.816 220.866 213.789 220.851C213.763 220.835 213.741 220.812 213.725 220.785C213.71 220.759 213.702 220.728 213.702 220.698V190.556C213.702 190.521 213.713 190.486 213.732 190.457C213.752 190.428 213.78 190.405 213.813 190.391C213.847 190.379 213.884 190.377 213.919 190.386C213.954 190.395 213.986 190.415 214.009 190.442L231.501 210.544C231.519 210.564 231.532 210.587 231.539 210.612C231.546 210.637 231.548 210.663 231.544 210.688C231.539 210.714 231.528 210.738 231.513 210.759C231.498 210.781 231.479 210.798 231.456 210.811L213.964 220.86C213.937 220.872 213.907 220.877 213.877 220.875ZM214.052 191.027V220.395L231.097 210.604L214.052 191.027Z" fill="#D0D0D0"/>
<path d="M73.9316 220.698V190.556L91.4267 200.604L73.9316 220.698Z" fill="#D0D0D0"/>
<path d="M73.9343 220.875C73.9133 220.878 73.892 220.878 73.871 220.875C73.8371 220.862 73.8079 220.84 73.7874 220.81C73.7669 220.781 73.756 220.746 73.7564 220.71V190.556C73.7565 190.525 73.7647 190.495 73.78 190.468C73.7953 190.442 73.8173 190.419 73.8438 190.403C73.8712 190.389 73.9017 190.381 73.9328 190.381C73.9639 190.381 73.9944 190.389 74.0218 190.403L91.5137 200.451C91.5363 200.465 91.5557 200.482 91.5708 200.504C91.5859 200.525 91.5962 200.549 91.6012 200.574C91.605 200.6 91.6032 200.626 91.5959 200.651C91.5886 200.676 91.576 200.699 91.559 200.718L74.067 220.821C74.0497 220.838 74.0291 220.852 74.0063 220.861C73.9834 220.871 73.9589 220.875 73.9343 220.875ZM74.1092 190.871V220.242L91.1549 200.661L74.1092 190.871Z" fill="white"/>
<path d="M213.876 220.698L196.381 200.604L213.876 190.556V220.698Z" fill="white"/>
<path d="M213.876 220.875C213.851 220.875 213.826 220.87 213.803 220.86C213.78 220.849 213.76 220.834 213.744 220.815L196.252 200.713C196.234 200.693 196.221 200.67 196.214 200.645C196.207 200.62 196.205 200.594 196.21 200.569C196.214 200.543 196.224 200.518 196.239 200.497C196.254 200.476 196.274 200.458 196.297 200.446L213.789 190.397C213.816 190.382 213.846 190.374 213.877 190.374C213.908 190.374 213.938 190.382 213.965 190.398C213.992 190.413 214.014 190.436 214.029 190.463C214.044 190.489 214.052 190.52 214.051 190.55V220.698C214.052 220.734 214.041 220.769 214.02 220.798C214 220.828 213.971 220.85 213.937 220.863C213.917 220.87 213.897 220.874 213.876 220.875ZM196.662 200.65L213.708 220.23V190.859L196.662 200.65Z" fill="#D0D0D0"/>
<path d="M196.381 200.604L213.876 220.698L196.381 230.746V200.604Z" fill="white"/>
<path d="M196.384 230.923C196.354 230.923 196.324 230.915 196.297 230.899C196.27 230.884 196.247 230.862 196.231 230.835C196.215 230.808 196.206 230.777 196.207 230.746V200.605C196.206 200.569 196.217 200.533 196.238 200.504C196.258 200.474 196.287 200.452 196.321 200.439C196.355 200.427 196.392 200.425 196.427 200.434C196.462 200.443 196.494 200.463 196.517 200.491L214.009 220.593C214.026 220.613 214.038 220.636 214.045 220.661C214.052 220.685 214.054 220.711 214.051 220.737C214.046 220.762 214.036 220.787 214.021 220.808C214.006 220.829 213.986 220.847 213.964 220.86L196.472 230.908C196.444 230.92 196.414 230.925 196.384 230.923ZM196.559 201.073V230.443L213.605 220.665L196.559 201.073Z" fill="#D0D0D0"/>
<path d="M91.4267 200.604V230.746L73.9316 220.698L91.4267 200.604Z" fill="#D0D0D0"/>
<path d="M91.4267 230.923C91.3959 230.923 91.3658 230.914 91.3392 230.899L73.8472 220.851C73.8251 220.838 73.8061 220.82 73.7916 220.798C73.777 220.777 73.7672 220.753 73.7627 220.728C73.7583 220.702 73.7598 220.676 73.7671 220.651C73.7745 220.626 73.7874 220.603 73.805 220.584L91.297 200.482C91.3195 200.454 91.3504 200.434 91.3851 200.425C91.4198 200.415 91.4566 200.417 91.49 200.43C91.5239 200.443 91.5531 200.465 91.5736 200.495C91.5941 200.524 91.605 200.56 91.6046 200.596V230.746C91.6044 230.777 91.5963 230.807 91.581 230.834C91.5656 230.861 91.5437 230.883 91.5171 230.899C91.4896 230.915 91.4584 230.923 91.4267 230.923ZM74.2181 220.665L91.2638 230.455V201.073L74.2181 220.665Z" fill="white"/>
<path d="M91.4267 170.46V200.604L73.9316 190.556L91.4267 170.46Z" fill="#AFAFAF"/>
<path d="M91.4263 200.778C91.3954 200.779 91.3649 200.771 91.3389 200.754L73.8469 190.706C73.8244 190.693 73.8051 190.676 73.7904 190.655C73.7757 190.634 73.766 190.61 73.7619 190.584C73.7578 190.559 73.7596 190.533 73.767 190.508C73.7744 190.484 73.7873 190.461 73.8047 190.442L91.2966 170.34C91.3204 170.315 91.351 170.298 91.3846 170.29C91.4182 170.282 91.4533 170.285 91.4855 170.297C91.5178 170.309 91.5456 170.331 91.5657 170.358C91.5857 170.386 91.5971 170.419 91.5982 170.454V200.604C91.5984 200.635 91.5904 200.665 91.575 200.691C91.5597 200.717 91.5375 200.739 91.5108 200.754C91.4856 200.77 91.4562 200.779 91.4263 200.778ZM74.2178 190.511L91.2635 200.301V170.931L74.2178 190.511Z" fill="white"/>
<path d="M196.381 170.46L213.876 190.556L196.381 200.604V170.46Z" fill="white"/>
<path d="M196.384 200.779C196.354 200.78 196.323 200.772 196.297 200.755C196.27 200.74 196.247 200.719 196.231 200.692C196.215 200.666 196.206 200.635 196.207 200.605V170.46C196.206 170.425 196.217 170.39 196.238 170.361C196.258 170.332 196.288 170.31 196.321 170.298C196.355 170.285 196.392 170.283 196.427 170.292C196.462 170.3 196.493 170.319 196.517 170.346L214.009 190.448C214.026 190.468 214.038 190.491 214.045 190.516C214.053 190.541 214.055 190.567 214.051 190.592C214.047 190.618 214.037 190.642 214.021 190.662C214.006 190.683 213.987 190.7 213.964 190.712L196.472 200.761C196.445 200.775 196.415 200.781 196.384 200.779ZM196.559 170.931V200.302L213.605 190.511L196.559 170.931Z" fill="#D0D0D0"/>
<path d="M196.382 200.604L178.89 180.508L196.382 170.46V200.604Z" fill="white"/>
<path d="M196.385 200.779C196.359 200.779 196.335 200.774 196.312 200.763C196.289 200.753 196.268 200.738 196.252 200.719L178.76 180.616C178.743 180.597 178.731 180.575 178.724 180.55C178.718 180.526 178.716 180.5 178.721 180.475C178.724 180.45 178.734 180.425 178.749 180.404C178.763 180.383 178.783 180.365 178.805 180.352L196.297 170.304C196.324 170.289 196.354 170.282 196.385 170.282C196.415 170.282 196.445 170.289 196.472 170.304C196.499 170.319 196.521 170.341 196.536 170.368C196.551 170.394 196.56 170.424 196.56 170.454V200.605C196.56 200.64 196.549 200.675 196.528 200.704C196.508 200.733 196.479 200.755 196.445 200.767C196.426 200.775 196.405 200.779 196.385 200.779ZM179.17 180.553L196.213 200.134V170.763L179.17 180.553Z" fill="#D0D0D0"/>
<path d="M196.382 230.746L178.89 210.65L196.382 200.604V230.746Z" fill="white"/>
<path d="M196.385 230.923C196.359 230.922 196.334 230.917 196.311 230.906C196.289 230.895 196.268 230.879 196.252 230.86L178.76 210.757C178.743 210.738 178.731 210.715 178.724 210.69C178.717 210.665 178.716 210.639 178.72 210.613C178.725 210.588 178.734 210.564 178.749 210.543C178.764 210.521 178.783 210.504 178.805 210.49L196.297 200.442C196.324 200.427 196.354 200.419 196.385 200.419C196.416 200.419 196.447 200.427 196.473 200.443C196.5 200.458 196.522 200.481 196.537 200.507C196.552 200.534 196.56 200.565 196.56 200.595V230.746C196.56 230.782 196.549 230.817 196.529 230.846C196.508 230.876 196.479 230.898 196.445 230.911C196.426 230.917 196.405 230.921 196.385 230.923ZM179.17 210.697L196.207 230.266V200.907L179.17 210.697Z" fill="#D0D0D0"/>
<path d="M91.4268 230.746V200.604L108.919 210.65L91.4268 230.746Z" fill="#D0D0D0"/>
<path d="M91.4264 230.923C91.4064 230.926 91.3861 230.926 91.3661 230.923C91.3322 230.911 91.303 230.888 91.2825 230.859C91.262 230.829 91.2511 230.794 91.2515 230.758V200.605C91.2511 200.574 91.2589 200.544 91.274 200.517C91.2892 200.49 91.3113 200.468 91.3379 200.452C91.3646 200.437 91.3949 200.428 91.4258 200.428C91.4567 200.428 91.4871 200.436 91.5139 200.452L109.006 210.5C109.028 210.513 109.048 210.531 109.063 210.552C109.078 210.573 109.088 210.597 109.093 210.623C109.098 210.648 109.096 210.675 109.089 210.7C109.082 210.725 109.069 210.748 109.051 210.767L91.5591 230.869C91.5421 230.887 91.5215 230.901 91.4986 230.91C91.4757 230.92 91.4511 230.924 91.4264 230.923ZM91.6013 200.92V230.266L108.647 210.686L91.6013 200.92Z" fill="white"/>
<path d="M91.4268 200.604V170.46L108.919 180.508L91.4268 200.604Z" fill="#D0D0D0"/>
<path d="M91.4264 200.779C91.4065 200.783 91.3859 200.783 91.3661 200.779C91.3324 200.767 91.3033 200.745 91.2828 200.716C91.2623 200.687 91.2513 200.652 91.2515 200.616V170.46C91.2516 170.43 91.2597 170.4 91.2751 170.373C91.2904 170.347 91.3124 170.325 91.3389 170.31C91.3657 170.295 91.3958 170.288 91.4264 170.288C91.457 170.288 91.4871 170.295 91.5138 170.31L109.006 180.358C109.029 180.371 109.049 180.388 109.064 180.41C109.079 180.431 109.089 180.455 109.093 180.481C109.098 180.506 109.096 180.532 109.089 180.557C109.082 180.581 109.069 180.604 109.051 180.622L91.5591 200.725C91.5422 200.742 91.5216 200.757 91.4987 200.766C91.4758 200.775 91.4511 200.78 91.4264 200.779ZM91.6013 170.775V200.145L108.647 180.565L91.6013 170.775Z" fill="white"/>
<path d="M178.89 210.649L196.382 230.746L178.89 240.794V210.649Z" fill="white"/>
<path d="M178.889 240.968C178.866 240.969 178.843 240.965 178.821 240.956C178.8 240.948 178.78 240.935 178.764 240.919C178.747 240.903 178.735 240.883 178.726 240.862C178.718 240.84 178.714 240.817 178.714 240.794V210.652C178.715 210.618 178.726 210.584 178.746 210.556C178.766 210.528 178.793 210.506 178.826 210.493C178.858 210.481 178.893 210.478 178.927 210.486C178.961 210.493 178.992 210.51 179.016 210.535L196.508 230.638C196.525 230.657 196.537 230.681 196.544 230.705C196.551 230.73 196.552 230.756 196.548 230.782C196.544 230.807 196.534 230.831 196.519 230.853C196.504 230.874 196.485 230.892 196.463 230.905L178.971 240.953C178.945 240.964 178.917 240.969 178.889 240.968ZM179.067 211.121V240.491L196.11 230.701L179.067 211.121Z" fill="#D0D0D0"/>
<path d="M108.919 210.649V240.794L91.4268 230.746L108.919 210.649Z" fill="#D0D0D0"/>
<path d="M108.918 240.968C108.888 240.969 108.858 240.961 108.831 240.947L91.3389 230.899C91.3164 230.886 91.2969 230.868 91.2819 230.847C91.2668 230.825 91.2564 230.801 91.2514 230.776C91.2476 230.75 91.2495 230.724 91.2568 230.699C91.264 230.674 91.2766 230.651 91.2937 230.632L108.786 210.529C108.81 210.506 108.841 210.49 108.874 210.483C108.908 210.476 108.942 210.479 108.974 210.492C109.006 210.504 109.034 210.525 109.054 210.553C109.074 210.58 109.085 210.613 109.087 210.647V240.794C109.086 240.825 109.078 240.855 109.062 240.882C109.046 240.909 109.024 240.931 108.997 240.947C108.973 240.96 108.946 240.967 108.918 240.968ZM91.7099 230.701L108.755 240.491V211.121L91.7099 230.701Z" fill="white"/>
<path d="M178.89 150.367L196.382 170.46L178.89 180.508V150.367Z" fill="white"/>
<path d="M178.89 180.685C178.859 180.685 178.829 180.677 178.802 180.661C178.776 180.645 178.754 180.623 178.738 180.596C178.723 180.569 178.715 180.539 178.715 180.508V150.367C178.715 150.331 178.725 150.296 178.746 150.266C178.766 150.237 178.796 150.214 178.829 150.202C178.863 150.19 178.9 150.188 178.934 150.197C178.969 150.206 178.999 150.226 179.022 150.253L196.514 170.355C196.531 170.375 196.543 170.398 196.55 170.423C196.557 170.448 196.559 170.474 196.554 170.499C196.55 170.525 196.54 170.549 196.525 170.57C196.511 170.591 196.492 170.609 196.469 170.622L178.977 180.67C178.95 180.683 178.92 180.688 178.89 180.685ZM179.068 150.835V180.205L196.11 170.415L179.068 150.835Z" fill="#D0D0D0"/>
<path d="M108.919 150.367V180.508L91.4268 170.46L108.919 150.367Z" fill="#D0D0D0"/>
<path d="M108.918 180.685C108.888 180.685 108.858 180.677 108.831 180.661L91.3389 170.613C91.3164 170.6 91.2969 170.582 91.2819 170.561C91.2668 170.54 91.2564 170.516 91.2514 170.49C91.2476 170.465 91.2495 170.438 91.2568 170.414C91.264 170.389 91.2766 170.366 91.2937 170.346L108.786 150.244C108.809 150.217 108.841 150.197 108.876 150.188C108.911 150.179 108.948 150.181 108.982 150.193C109.015 150.206 109.044 150.229 109.064 150.258C109.085 150.287 109.096 150.322 109.096 150.358V180.508C109.096 180.555 109.077 180.6 109.043 180.633C109.01 180.666 108.965 180.685 108.918 180.685ZM91.7099 170.415L108.756 180.205V150.835L91.7099 170.415Z" fill="white"/>
<path d="M203.93 180.508L221.425 200.605L203.93 210.65V180.508Z" fill="#024BD6"/>
<path d="M178.89 180.508L196.382 200.605L178.89 210.65V180.508Z" fill="#AFAFAF"/>
<path d="M178.89 210.826C178.859 210.826 178.829 210.818 178.802 210.802C178.776 210.787 178.754 210.765 178.738 210.739C178.723 210.713 178.715 210.683 178.715 210.652V180.508C178.716 180.474 178.727 180.441 178.747 180.413C178.767 180.385 178.795 180.363 178.828 180.351C178.86 180.339 178.895 180.337 178.928 180.344C178.962 180.352 178.993 180.369 179.016 180.394L196.508 200.496C196.525 200.516 196.538 200.539 196.544 200.564C196.551 200.589 196.552 200.615 196.548 200.64C196.544 200.665 196.534 200.689 196.519 200.71C196.505 200.731 196.485 200.748 196.463 200.76L178.971 210.808C178.946 210.821 178.918 210.827 178.89 210.826ZM179.068 180.979V210.349L196.11 200.562L179.068 180.979Z" fill="#D0D0D0"/>
<path d="M203.93 180.508L186.438 200.605L203.93 210.65V180.508Z" fill="#025DF6"/>
<path d="M203.933 210.827C203.903 210.826 203.872 210.818 203.846 210.803L186.354 200.754C186.332 200.742 186.312 200.725 186.298 200.704C186.283 200.683 186.273 200.659 186.269 200.634C186.265 200.609 186.266 200.583 186.273 200.558C186.279 200.533 186.292 200.51 186.309 200.49L203.801 180.388C203.824 180.363 203.855 180.346 203.889 180.338C203.922 180.331 203.957 180.333 203.989 180.345C204.022 180.358 204.05 180.379 204.07 180.407C204.09 180.435 204.101 180.468 204.102 180.502V210.653C204.102 210.683 204.094 210.713 204.079 210.739C204.063 210.766 204.041 210.787 204.015 210.803C203.99 210.817 203.962 210.825 203.933 210.827ZM186.71 200.562L203.752 210.353V180.979L186.71 200.562Z" fill="white"/>
<path d="M108.919 180.508V210.65L91.4268 200.605L108.919 180.508Z" fill="#D0D0D0"/>
<path d="M108.919 210.827C108.888 210.826 108.858 210.818 108.831 210.803L91.3391 200.754C91.3164 200.742 91.2967 200.725 91.2816 200.704C91.2665 200.684 91.2562 200.66 91.2516 200.634C91.2476 200.609 91.2493 200.583 91.2566 200.558C91.2639 200.533 91.2766 200.51 91.2938 200.49L108.786 180.388C108.81 180.365 108.841 180.348 108.874 180.342C108.907 180.335 108.941 180.337 108.973 180.349C109.005 180.361 109.032 180.382 109.053 180.409C109.073 180.436 109.085 180.468 109.087 180.502V210.653C109.087 210.683 109.078 210.713 109.062 210.739C109.046 210.766 109.024 210.788 108.997 210.803C108.973 210.816 108.946 210.825 108.919 210.827ZM91.71 200.562L108.756 210.353V180.979L91.71 200.562Z" fill="white"/>
<path d="M178.889 210.65L161.397 190.556L178.889 180.508V210.65Z" fill="white"/>
<path d="M178.889 210.826C178.864 210.826 178.84 210.821 178.817 210.81C178.794 210.8 178.773 210.785 178.757 210.766L161.265 190.664C161.248 190.645 161.236 190.621 161.229 190.597C161.222 190.572 161.221 190.546 161.225 190.52C161.23 190.495 161.24 190.471 161.254 190.45C161.269 190.428 161.288 190.41 161.31 190.397L178.802 180.352C178.828 180.336 178.858 180.327 178.889 180.327C178.92 180.327 178.951 180.336 178.977 180.352C179.004 180.366 179.027 180.388 179.043 180.414C179.059 180.441 179.068 180.471 179.067 180.502V210.652C179.068 210.688 179.057 210.723 179.036 210.752C179.015 210.781 178.986 210.803 178.953 210.814C178.933 210.823 178.911 210.827 178.889 210.826ZM161.678 190.601L178.724 210.181V180.811L161.678 190.601Z" fill="#D0D0D0"/>
<path d="M178.889 180.508L161.397 160.412L178.889 150.367V180.508Z" fill="white"/>
<path d="M178.89 180.685C178.864 180.684 178.84 180.678 178.817 180.667C178.794 180.656 178.774 180.641 178.757 180.622L161.265 160.52C161.248 160.5 161.236 160.477 161.229 160.452C161.222 160.427 161.221 160.401 161.225 160.376C161.229 160.35 161.239 160.326 161.254 160.305C161.269 160.284 161.288 160.266 161.31 160.253L178.802 150.205C178.829 150.19 178.859 150.182 178.89 150.182C178.92 150.182 178.95 150.19 178.977 150.205C179.005 150.22 179.028 150.242 179.044 150.269C179.059 150.296 179.068 150.326 179.068 150.358V180.508C179.068 180.544 179.057 180.579 179.037 180.609C179.016 180.638 178.987 180.661 178.953 180.673C178.933 180.68 178.911 180.684 178.89 180.685ZM161.678 160.46L178.724 180.04V150.67L161.678 160.46Z" fill="#D0D0D0"/>
<path d="M178.889 240.794L161.397 220.698L178.889 210.649V240.794Z" fill="white"/>
<path d="M178.889 240.968C178.864 240.968 178.84 240.962 178.817 240.952C178.794 240.942 178.773 240.927 178.757 240.908L161.265 220.806C161.248 220.786 161.236 220.763 161.229 220.738C161.223 220.713 161.221 220.687 161.226 220.662C161.229 220.636 161.239 220.612 161.253 220.591C161.268 220.569 161.287 220.552 161.31 220.539L178.802 210.491C178.829 210.476 178.859 210.468 178.889 210.468C178.92 210.468 178.95 210.476 178.977 210.491C179.005 210.506 179.028 210.528 179.044 210.555C179.06 210.582 179.068 210.612 179.067 210.644V240.794C179.067 240.83 179.056 240.865 179.036 240.894C179.015 240.924 178.986 240.946 178.953 240.959L178.889 240.968ZM161.669 220.746L178.715 240.326V210.956L161.669 220.746Z" fill="#D0D0D0"/>
<path d="M108.918 240.794V210.649L126.41 220.698L108.918 240.794Z" fill="#D0D0D0"/>
<path d="M108.919 240.968C108.899 240.971 108.878 240.971 108.858 240.968C108.825 240.955 108.796 240.933 108.775 240.903C108.755 240.874 108.744 240.839 108.744 240.803V210.652C108.743 210.622 108.751 210.591 108.767 210.564C108.782 210.537 108.804 210.515 108.831 210.499C108.858 210.485 108.888 210.477 108.919 210.477C108.949 210.477 108.979 210.485 109.006 210.499L126.498 220.548C126.521 220.56 126.54 220.578 126.555 220.599C126.569 220.621 126.579 220.645 126.583 220.671C126.587 220.696 126.585 220.722 126.579 220.747C126.572 220.772 126.56 220.795 126.543 220.815L109.051 240.917C109.034 240.934 109.013 240.948 108.99 240.957C108.968 240.966 108.943 240.969 108.919 240.968ZM109.097 210.965V240.335L126.139 220.755L109.097 210.965Z" fill="white"/>
<path d="M108.918 210.65V180.508L126.41 190.556L108.918 210.65Z" fill="#D0D0D0"/>
<path d="M108.919 210.827C108.899 210.831 108.878 210.831 108.858 210.827C108.825 210.815 108.796 210.793 108.775 210.764C108.754 210.735 108.743 210.7 108.744 210.665V180.508C108.743 180.478 108.751 180.448 108.767 180.421C108.782 180.395 108.804 180.373 108.831 180.358C108.857 180.342 108.888 180.333 108.919 180.333C108.949 180.333 108.98 180.342 109.006 180.358L126.498 190.403C126.52 190.417 126.539 190.435 126.554 190.456C126.568 190.477 126.578 190.501 126.582 190.526C126.587 190.552 126.586 190.578 126.579 190.603C126.572 190.628 126.56 190.651 126.543 190.67L109.051 210.773C109.034 210.791 109.014 210.805 108.991 210.814C108.968 210.824 108.943 210.828 108.919 210.827ZM109.097 180.823V210.194L126.139 190.613L109.097 180.823Z" fill="white"/>
<path d="M108.918 180.508V150.367L126.41 160.412L108.918 180.508Z" fill="#D0D0D0"/>
<path d="M108.919 180.685C108.899 180.688 108.878 180.688 108.858 180.685C108.824 180.673 108.795 180.65 108.775 180.621C108.754 180.591 108.743 180.556 108.744 180.52V150.367C108.743 150.336 108.751 150.306 108.766 150.279C108.781 150.252 108.803 150.23 108.83 150.214C108.857 150.199 108.887 150.191 108.918 150.19C108.949 150.19 108.979 150.198 109.006 150.214L126.498 160.262C126.52 160.275 126.54 160.293 126.554 160.314C126.569 160.335 126.579 160.36 126.583 160.385C126.587 160.41 126.586 160.436 126.579 160.461C126.572 160.486 126.56 160.509 126.543 160.529L109.051 180.631C109.034 180.649 109.014 180.663 108.991 180.672C108.968 180.682 108.943 180.686 108.919 180.685ZM109.097 150.682V180.04L126.139 160.46L109.097 150.682Z" fill="white"/>
<path d="M161.397 160.412L178.889 180.508L161.397 190.556V160.412Z" fill="white"/>
<path d="M161.398 190.73C161.367 190.731 161.336 190.723 161.31 190.706C161.283 190.691 161.261 190.669 161.246 190.643C161.23 190.617 161.222 190.587 161.223 190.556V160.415C161.222 160.379 161.233 160.344 161.254 160.314C161.274 160.285 161.303 160.262 161.337 160.25C161.371 160.238 161.407 160.236 161.442 160.245C161.476 160.254 161.507 160.274 161.53 160.301L179.022 180.403C179.04 180.422 179.053 180.445 179.06 180.47C179.067 180.495 179.069 180.521 179.064 180.547C179.06 180.573 179.05 180.597 179.035 180.618C179.02 180.64 179 180.657 178.977 180.67L161.485 190.715C161.458 190.729 161.428 190.734 161.398 190.73ZM161.576 160.883V190.253L178.618 180.46L161.576 160.883Z" fill="#D0D0D0"/>
<path d="M126.41 220.698V250.842L108.918 240.794L126.41 220.698Z" fill="#AFAFAF"/>
<path d="M126.414 251.016C126.382 251.016 126.351 251.008 126.323 250.992L108.831 240.947C108.809 240.934 108.79 240.916 108.775 240.895C108.76 240.873 108.75 240.849 108.746 240.824C108.742 240.798 108.743 240.772 108.75 240.747C108.757 240.723 108.769 240.7 108.786 240.68L126.278 220.578C126.302 220.551 126.333 220.532 126.368 220.523C126.403 220.515 126.44 220.517 126.474 220.53C126.508 220.541 126.537 220.563 126.557 220.592C126.578 220.621 126.589 220.656 126.589 220.692V250.842C126.589 250.872 126.581 250.902 126.565 250.929C126.55 250.955 126.528 250.977 126.501 250.992C126.474 251.007 126.444 251.016 126.414 251.016ZM109.202 240.749L126.245 250.539V221.169L109.202 240.749Z" fill="white"/>
<path d="M161.397 220.698L178.889 240.794L161.397 250.842V220.698Z" fill="white"/>
<path d="M161.398 251.016C161.367 251.016 161.337 251.008 161.31 250.992C161.283 250.977 161.261 250.956 161.246 250.929C161.23 250.903 161.222 250.873 161.223 250.842V220.698C161.224 220.664 161.235 220.63 161.255 220.603C161.275 220.575 161.303 220.553 161.335 220.541C161.368 220.529 161.403 220.527 161.436 220.534C161.47 220.542 161.5 220.559 161.524 220.584L179.016 240.686C179.034 240.705 179.047 240.728 179.054 240.753C179.061 240.778 179.063 240.805 179.059 240.83C179.054 240.856 179.044 240.88 179.029 240.902C179.014 240.923 178.994 240.941 178.971 240.953L161.479 250.998C161.454 251.011 161.426 251.017 161.398 251.016ZM161.576 221.169V250.539L178.618 240.749L161.576 221.169Z" fill="#D0D0D0"/>
<path d="M161.397 190.556L178.889 210.649L161.397 220.698V190.556Z" fill="white"/>
<path d="M161.398 220.875C161.367 220.874 161.337 220.866 161.31 220.851C161.284 220.835 161.262 220.812 161.246 220.786C161.231 220.759 161.223 220.729 161.223 220.698V190.556C161.223 190.52 161.234 190.486 161.254 190.456C161.275 190.427 161.304 190.404 161.337 190.391C161.371 190.379 161.407 190.378 161.442 190.387C161.476 190.396 161.507 190.415 161.53 190.442L179.022 210.545C179.04 210.564 179.052 210.587 179.059 210.612C179.067 210.637 179.068 210.663 179.064 210.689C179.059 210.714 179.049 210.739 179.034 210.76C179.019 210.781 179 210.799 178.977 210.812L161.485 220.86C161.458 220.872 161.428 220.877 161.398 220.875ZM161.576 191.027V220.395L178.618 210.605L161.576 191.027Z" fill="#D0D0D0"/>
<path d="M161.397 130.271L178.889 150.367L161.397 160.412V130.271Z" fill="#AFAFAF"/>
<path d="M161.398 160.589C161.367 160.588 161.337 160.58 161.31 160.565C161.283 160.55 161.261 160.528 161.246 160.502C161.23 160.475 161.222 160.445 161.223 160.415V130.27C161.224 130.236 161.235 130.203 161.255 130.175C161.275 130.147 161.303 130.126 161.335 130.113C161.368 130.101 161.403 130.099 161.436 130.106C161.47 130.114 161.5 130.131 161.524 130.156L179.016 150.258C179.034 150.278 179.047 150.301 179.054 150.326C179.062 150.351 179.063 150.377 179.058 150.403C179.055 150.428 179.045 150.452 179.029 150.473C179.014 150.494 178.994 150.511 178.971 150.523L161.479 160.571C161.454 160.583 161.426 160.589 161.398 160.589ZM161.576 130.741V160.112L178.618 150.321L161.576 130.741Z" fill="#D0D0D0"/>
<path d="M126.41 160.412V190.556L108.918 180.508L126.41 160.412Z" fill="#AFAFAF"/>
<path d="M126.414 190.73C126.382 190.732 126.35 190.723 126.323 190.706L108.831 180.661C108.809 180.648 108.79 180.63 108.775 180.609C108.76 180.588 108.75 180.563 108.746 180.538C108.742 180.513 108.743 180.487 108.75 180.462C108.757 180.437 108.769 180.414 108.786 180.394L126.278 160.292C126.302 160.264 126.333 160.245 126.368 160.236C126.403 160.227 126.44 160.228 126.474 160.241C126.508 160.253 126.537 160.276 126.558 160.305C126.578 160.335 126.589 160.37 126.589 160.406V190.556C126.589 190.587 126.581 190.617 126.565 190.643C126.55 190.669 126.528 190.691 126.501 190.706C126.475 190.723 126.445 190.731 126.414 190.73ZM109.202 180.46L126.245 190.25V160.883L109.202 180.46Z" fill="white"/>
<path d="M126.41 130.271V160.412L108.918 150.367L126.41 130.271Z" fill="#D0D0D0"/>
<path d="M126.413 160.589C126.382 160.589 126.35 160.58 126.323 160.565L108.831 150.517C108.809 150.504 108.789 150.487 108.775 150.466C108.76 150.445 108.75 150.422 108.746 150.397C108.742 150.371 108.743 150.345 108.75 150.32C108.757 150.295 108.769 150.272 108.786 150.253L126.278 130.15C126.302 130.123 126.333 130.105 126.368 130.096C126.403 130.087 126.44 130.09 126.474 130.102C126.507 130.114 126.536 130.136 126.557 130.165C126.577 130.194 126.588 130.229 126.588 130.264V160.415C126.588 160.445 126.58 160.475 126.565 160.502C126.55 160.528 126.528 160.55 126.501 160.565C126.474 160.58 126.444 160.588 126.413 160.589ZM109.202 150.322L126.244 160.112V130.741L109.202 150.322Z" fill="white"/>
<path d="M126.41 190.556V220.698L108.918 210.649L126.41 190.556Z" fill="#D0D0D0"/>
<path d="M126.413 220.875C126.382 220.875 126.351 220.867 126.323 220.851L108.831 210.803C108.809 210.79 108.79 210.772 108.775 210.75C108.761 210.729 108.751 210.705 108.747 210.68C108.742 210.654 108.744 210.628 108.75 210.604C108.757 210.579 108.769 210.556 108.786 210.536L126.278 190.434C126.301 190.409 126.332 190.391 126.366 190.384C126.399 190.376 126.434 190.379 126.467 190.391C126.499 190.403 126.527 190.424 126.547 190.452C126.567 190.48 126.578 190.513 126.579 190.548V220.698C126.579 220.729 126.571 220.759 126.556 220.786C126.54 220.813 126.518 220.835 126.492 220.851C126.468 220.865 126.441 220.873 126.413 220.875ZM109.202 210.605L126.245 220.395V191.028L109.202 210.605Z" fill="white"/>
<path d="M161.397 190.556L143.902 170.46L161.397 160.412V190.556Z" fill="white"/>
<path d="M161.398 190.73C161.373 190.73 161.348 190.725 161.325 190.715C161.302 190.704 161.282 190.689 161.265 190.67L143.773 170.568C143.756 170.549 143.743 170.526 143.736 170.501C143.728 170.476 143.727 170.45 143.731 170.424C143.736 170.399 143.746 170.374 143.761 170.353C143.776 170.332 143.796 170.314 143.818 170.301L161.31 160.253C161.337 160.238 161.367 160.23 161.398 160.23C161.428 160.23 161.458 160.238 161.485 160.253C161.512 160.269 161.535 160.291 161.55 160.318C161.566 160.345 161.575 160.375 161.576 160.406V190.556C161.575 190.592 161.563 190.627 161.543 190.656C161.523 190.685 161.494 190.708 161.461 190.721C161.44 190.727 161.419 190.73 161.398 190.73ZM144.186 170.508L161.232 190.085V160.718L144.186 170.508Z" fill="#D0D0D0"/>
<path d="M161.397 160.412L143.902 140.319L161.397 130.271V160.412Z" fill="white"/>
<path d="M161.397 160.589C161.372 160.589 161.348 160.583 161.325 160.573C161.302 160.562 161.281 160.547 161.265 160.529L143.773 140.426C143.755 140.407 143.742 140.384 143.735 140.359C143.728 140.334 143.726 140.308 143.731 140.282C143.735 140.257 143.746 140.233 143.761 140.211C143.776 140.19 143.795 140.172 143.818 140.159L161.31 130.114C161.336 130.098 161.367 130.089 161.397 130.089C161.428 130.089 161.459 130.098 161.485 130.114C161.512 130.129 161.535 130.151 161.55 130.177C161.566 130.203 161.575 130.233 161.575 130.264V160.415C161.575 160.45 161.563 160.484 161.543 160.513C161.523 160.542 161.494 160.564 161.461 160.577C161.441 160.585 161.419 160.589 161.397 160.589ZM144.186 140.363L161.232 159.944V130.573L144.186 140.363Z" fill="#D0D0D0"/>
<path d="M161.397 220.698L143.902 200.604L161.397 190.556V220.698Z" fill="white"/>
<path d="M161.397 220.875C161.372 220.875 161.348 220.869 161.325 220.859C161.302 220.849 161.281 220.834 161.265 220.815L143.773 200.713C143.755 200.693 143.742 200.67 143.735 200.645C143.728 200.621 143.726 200.594 143.731 200.569C143.735 200.543 143.746 200.519 143.761 200.498C143.776 200.477 143.795 200.459 143.818 200.446L161.31 190.397C161.337 190.383 161.367 190.375 161.397 190.375C161.428 190.375 161.458 190.383 161.485 190.397C161.512 190.413 161.534 190.436 161.55 190.462C161.566 190.489 161.575 190.519 161.575 190.55V220.698C161.575 220.734 161.564 220.768 161.543 220.798C161.523 220.827 161.494 220.85 161.461 220.863C161.44 220.87 161.419 220.874 161.397 220.875ZM144.186 200.65L161.232 220.23V190.859L144.186 200.65Z" fill="#D0D0D0"/>
<path d="M126.411 190.556V160.412L143.903 170.46L126.411 190.556Z" fill="#D0D0D0"/>
<path d="M126.414 190.73C126.393 190.733 126.371 190.733 126.35 190.73C126.317 190.717 126.288 190.695 126.267 190.665C126.247 190.636 126.236 190.601 126.236 190.565V160.415C126.236 160.384 126.244 160.354 126.259 160.327C126.275 160.3 126.297 160.278 126.323 160.262C126.351 160.247 126.381 160.239 126.412 160.239C126.443 160.239 126.474 160.247 126.501 160.262L143.993 170.31C144.015 170.323 144.034 170.341 144.049 170.362C144.063 170.383 144.073 170.408 144.078 170.433C144.082 170.458 144.081 170.484 144.074 170.509C144.067 170.534 144.055 170.557 144.039 170.577L126.546 190.679C126.529 190.696 126.508 190.709 126.485 190.718C126.463 190.727 126.438 190.731 126.414 190.73ZM126.589 160.727V190.094L143.634 170.517L126.589 160.727Z" fill="white"/>
<path d="M126.411 160.412V130.271L143.903 140.319L126.411 160.412Z" fill="#D0D0D0"/>
<path d="M126.414 160.589C126.393 160.593 126.371 160.593 126.35 160.589C126.317 160.577 126.288 160.555 126.267 160.526C126.247 160.497 126.236 160.463 126.236 160.427V130.271C126.237 130.24 126.245 130.21 126.261 130.184C126.277 130.158 126.299 130.136 126.326 130.121C126.353 130.106 126.383 130.098 126.414 130.098C126.444 130.098 126.474 130.106 126.501 130.121L143.993 140.166C144.016 140.179 144.035 140.197 144.049 140.218C144.064 140.239 144.074 140.263 144.078 140.289C144.083 140.314 144.081 140.34 144.074 140.365C144.068 140.39 144.055 140.413 144.038 140.433L126.546 160.535C126.529 160.553 126.509 160.566 126.486 160.576C126.463 160.585 126.438 160.59 126.414 160.589ZM126.589 130.586V159.956L143.634 140.376L126.589 130.586Z" fill="white"/>
<path d="M161.397 250.842L143.902 230.746L161.397 220.698V250.842Z" fill="white"/>
<path d="M161.398 251.016C161.373 251.016 161.348 251.011 161.325 251.001C161.302 250.99 161.282 250.975 161.265 250.956L143.773 230.854C143.755 230.835 143.742 230.812 143.735 230.787C143.727 230.762 143.726 230.736 143.731 230.71C143.735 230.685 143.746 230.661 143.761 230.64C143.776 230.619 143.795 230.602 143.818 230.59L161.31 220.542C161.336 220.526 161.367 220.517 161.398 220.517C161.429 220.517 161.459 220.526 161.485 220.542C161.512 220.557 161.534 220.579 161.55 220.605C161.566 220.631 161.575 220.661 161.576 220.692V250.842C161.575 250.878 161.564 250.912 161.543 250.941C161.523 250.97 161.494 250.992 161.461 251.004C161.441 251.013 161.419 251.017 161.398 251.016ZM144.186 230.791L161.223 250.368V221.001L144.186 230.791Z" fill="#D0D0D0"/>
<path d="M126.411 220.698V190.556L143.903 200.604L126.411 220.698Z" fill="#D0D0D0"/>
<path d="M126.414 220.875C126.393 220.878 126.371 220.878 126.35 220.875C126.317 220.862 126.287 220.84 126.267 220.81C126.246 220.781 126.236 220.746 126.236 220.71V190.556C126.236 190.525 126.244 190.495 126.26 190.468C126.275 190.442 126.297 190.419 126.323 190.403C126.351 190.389 126.381 190.381 126.412 190.381C126.443 190.381 126.474 190.389 126.501 190.403L143.993 200.451C144.016 200.465 144.035 200.482 144.049 200.504C144.064 200.525 144.074 200.549 144.078 200.574C144.083 200.6 144.081 200.626 144.074 200.651C144.068 200.676 144.055 200.699 144.039 200.718L126.546 220.821C126.529 220.838 126.509 220.852 126.486 220.861C126.463 220.871 126.438 220.875 126.414 220.875ZM126.589 190.871V220.242L143.634 200.661L126.589 190.871Z" fill="white"/>
<path d="M126.411 250.842V220.698L143.903 230.746L126.411 250.842Z" fill="#D0D0D0"/>
<path d="M126.414 251.016C126.393 251.02 126.371 251.02 126.35 251.016C126.317 251.004 126.288 250.982 126.267 250.953C126.247 250.924 126.236 250.89 126.236 250.854V220.698C126.236 220.667 126.244 220.637 126.259 220.611C126.275 220.585 126.297 220.563 126.323 220.548C126.35 220.531 126.381 220.523 126.412 220.523C126.444 220.523 126.474 220.531 126.501 220.548L143.993 230.596C144.016 230.608 144.035 230.625 144.049 230.646C144.064 230.667 144.074 230.691 144.078 230.716C144.082 230.741 144.081 230.767 144.074 230.792C144.068 230.817 144.055 230.84 144.039 230.86L126.546 250.962C126.529 250.98 126.509 250.994 126.486 251.003C126.463 251.012 126.438 251.017 126.414 251.016ZM126.589 221.013V250.368L143.634 230.788L126.589 221.013Z" fill="white"/>
<path d="M143.902 170.46L161.397 190.556L143.902 200.604V170.46Z" fill="white"/>
<path d="M143.905 200.779C143.875 200.78 143.844 200.771 143.818 200.755C143.791 200.74 143.768 200.718 143.752 200.692C143.737 200.665 143.728 200.635 143.728 200.605V170.46C143.73 170.426 143.742 170.394 143.762 170.367C143.783 170.34 143.81 170.319 143.842 170.307C143.873 170.295 143.908 170.293 143.941 170.3C143.974 170.306 144.005 170.323 144.029 170.346L161.521 190.448C161.539 190.468 161.552 190.49 161.559 190.515C161.567 190.54 161.568 190.567 161.563 190.592C161.559 190.618 161.549 190.642 161.533 190.662C161.518 190.683 161.499 190.7 161.476 190.712L143.984 200.761C143.96 200.773 143.933 200.78 143.905 200.779ZM144.08 170.931V200.302L161.126 190.511L144.08 170.931Z" fill="#D0D0D0"/>
<path d="M143.902 140.318L161.397 160.412L143.902 170.46V140.318Z" fill="white"/>
<path d="M143.905 170.637C143.875 170.636 143.845 170.628 143.818 170.613C143.791 170.598 143.768 170.575 143.752 170.548C143.736 170.522 143.728 170.491 143.728 170.46V140.318C143.728 140.283 143.74 140.248 143.76 140.219C143.78 140.189 143.809 140.167 143.842 140.153C143.876 140.141 143.913 140.139 143.948 140.148C143.983 140.157 144.015 140.177 144.038 140.204L161.53 160.307C161.548 160.325 161.561 160.348 161.568 160.372C161.575 160.397 161.577 160.422 161.572 160.448C161.568 160.473 161.558 160.498 161.543 160.519C161.527 160.54 161.508 160.558 161.485 160.571L143.993 170.619C143.966 170.632 143.936 170.638 143.905 170.637ZM144.08 140.786V170.157L161.126 160.358L144.08 140.786Z" fill="#D0D0D0"/>
<path d="M143.902 230.746L161.397 250.842L143.902 260.888V230.746Z" fill="white"/>
<path d="M143.905 261.064C143.875 261.064 143.845 261.055 143.818 261.04C143.791 261.025 143.769 261.003 143.753 260.977C143.737 260.951 143.728 260.921 143.728 260.89V230.746C143.73 230.712 143.742 230.68 143.762 230.653C143.783 230.626 143.81 230.605 143.842 230.593C143.873 230.581 143.908 230.578 143.941 230.585C143.974 230.592 144.005 230.608 144.029 230.632L161.521 250.734C161.539 250.753 161.552 250.776 161.559 250.801C161.567 250.826 161.568 250.852 161.563 250.878C161.559 250.903 161.549 250.927 161.533 250.948C161.518 250.969 161.499 250.986 161.476 250.998L143.984 261.046C143.959 261.058 143.933 261.064 143.905 261.064ZM144.08 231.217V260.587L161.126 250.797L144.08 231.217Z" fill="#D0D0D0"/>
<path d="M143.902 110.174L161.397 130.27L143.902 140.318V110.174Z" fill="white"/>
<path d="M143.905 140.492C143.875 140.493 143.844 140.485 143.818 140.468C143.791 140.453 143.768 140.432 143.752 140.405C143.737 140.379 143.728 140.349 143.728 140.318V110.177C143.728 110.141 143.739 110.106 143.759 110.077C143.78 110.047 143.809 110.025 143.842 110.012C143.876 109.999 143.913 109.997 143.948 110.006C143.983 110.015 144.015 110.035 144.038 110.063L161.53 130.165C161.548 130.184 161.561 130.207 161.568 130.232C161.575 130.257 161.577 130.283 161.572 130.309C161.567 130.335 161.557 130.359 161.542 130.38C161.527 130.401 161.507 130.419 161.485 130.432L143.993 140.477C143.966 140.491 143.935 140.496 143.905 140.492ZM144.08 110.645V140.015L161.126 130.225L144.08 110.645Z" fill="#D0D0D0"/>
<path d="M143.903 170.46V200.604L126.411 190.556L143.903 170.46Z" fill="#D0D0D0"/>
<path d="M143.905 200.778C143.875 200.779 143.844 200.771 143.818 200.754L126.326 190.706C126.304 190.694 126.285 190.677 126.27 190.656C126.255 190.635 126.246 190.611 126.242 190.586C126.237 190.561 126.238 190.535 126.245 190.51C126.252 190.485 126.264 190.462 126.281 190.442L143.773 170.34C143.797 170.315 143.827 170.298 143.861 170.29C143.894 170.282 143.929 170.285 143.962 170.297C143.994 170.309 144.022 170.331 144.042 170.358C144.062 170.386 144.073 170.419 144.074 170.454V200.604C144.075 200.635 144.067 200.665 144.051 200.691C144.036 200.717 144.014 200.739 143.987 200.754C143.963 200.77 143.934 200.778 143.905 200.778ZM126.694 190.511L143.737 200.301V170.931L126.694 190.511Z" fill="white"/>
<path d="M143.903 140.318V170.46L126.411 160.412L143.903 140.318Z" fill="#D0D0D0"/>
<path d="M143.906 170.637C143.875 170.637 143.845 170.628 143.818 170.613L126.326 160.565C126.304 160.552 126.285 160.535 126.27 160.514C126.255 160.493 126.246 160.469 126.241 160.444C126.237 160.418 126.238 160.392 126.245 160.368C126.252 160.343 126.264 160.32 126.281 160.301L143.773 140.199C143.796 140.172 143.827 140.152 143.861 140.143C143.896 140.134 143.932 140.136 143.966 140.148C144 140.16 144.029 140.183 144.049 140.212C144.069 140.242 144.08 140.277 144.081 140.313V170.46C144.081 170.491 144.073 170.522 144.058 170.548C144.042 170.575 144.02 170.598 143.993 170.613C143.966 170.628 143.936 170.637 143.906 170.637ZM126.694 160.358L143.737 170.148V140.787L126.694 160.358Z" fill="white"/>
<path d="M143.902 200.604L161.397 220.698L143.902 230.746V200.604Z" fill="white"/>
<path d="M143.905 230.923C143.859 230.922 143.814 230.903 143.781 230.87C143.747 230.837 143.728 230.793 143.728 230.746V200.605C143.728 200.569 143.739 200.534 143.76 200.505C143.78 200.475 143.809 200.453 143.842 200.439C143.876 200.427 143.913 200.425 143.948 200.434C143.983 200.443 144.015 200.463 144.038 200.491L161.53 220.593C161.548 220.612 161.561 220.635 161.568 220.66C161.575 220.685 161.577 220.711 161.572 220.737C161.567 220.762 161.557 220.787 161.542 220.808C161.527 220.829 161.507 220.847 161.485 220.86L143.993 230.908C143.965 230.92 143.935 230.925 143.905 230.923ZM144.08 201.073V230.443L161.126 220.665L144.08 201.073Z" fill="#D0D0D0"/>
<path d="M143.903 230.746V260.888L126.411 250.842L143.903 230.746Z" fill="#D0D0D0"/>
<path d="M143.905 261.064C143.875 261.064 143.845 261.056 143.818 261.04L126.326 250.992C126.304 250.98 126.285 250.963 126.27 250.942C126.255 250.921 126.246 250.897 126.242 250.872C126.237 250.847 126.238 250.821 126.245 250.796C126.252 250.771 126.264 250.748 126.281 250.728L143.773 230.626C143.797 230.601 143.827 230.584 143.861 230.576C143.894 230.569 143.929 230.571 143.962 230.583C143.994 230.595 144.022 230.617 144.042 230.645C144.062 230.672 144.073 230.706 144.074 230.74V260.89C144.074 260.921 144.066 260.951 144.051 260.977C144.035 261.003 144.013 261.025 143.987 261.04C143.962 261.055 143.934 261.063 143.905 261.064ZM126.694 250.797L143.737 260.587V231.217L126.694 250.797Z" fill="white"/>
<path d="M143.903 200.604V230.746L126.411 220.698L143.903 200.604Z" fill="#D0D0D0"/>
<path d="M143.906 230.923C143.875 230.923 143.845 230.914 143.818 230.899L126.326 220.851C126.304 220.838 126.285 220.82 126.27 220.799C126.255 220.777 126.246 220.753 126.241 220.728C126.237 220.702 126.238 220.676 126.245 220.651C126.252 220.627 126.264 220.603 126.281 220.584L143.773 200.482C143.796 200.454 143.826 200.434 143.861 200.425C143.896 200.415 143.933 200.417 143.966 200.43C144 200.443 144.029 200.465 144.05 200.495C144.07 200.524 144.081 200.56 144.081 200.596V230.746C144.08 230.777 144.072 230.807 144.057 230.834C144.042 230.861 144.02 230.883 143.993 230.899C143.967 230.914 143.936 230.923 143.906 230.923ZM126.694 220.665L143.737 230.455V201.073L126.694 220.665Z" fill="white"/>
<path d="M143.903 110.174V140.318L126.411 130.27L143.903 110.174Z" fill="#D0D0D0"/>
<path d="M143.906 140.492C143.875 140.493 143.844 140.485 143.818 140.468L126.326 130.423C126.304 130.41 126.285 130.392 126.27 130.371C126.255 130.35 126.246 130.326 126.241 130.3C126.237 130.275 126.238 130.249 126.245 130.224C126.252 130.199 126.264 130.176 126.281 130.156L143.773 110.054C143.796 110.026 143.826 110.006 143.861 109.997C143.896 109.988 143.933 109.99 143.966 110.003C144 110.015 144.03 110.037 144.05 110.067C144.071 110.096 144.081 110.132 144.081 110.168V140.318C144.081 140.349 144.073 140.379 144.057 140.405C144.042 140.431 144.02 140.453 143.993 140.468C143.967 140.485 143.937 140.493 143.906 140.492ZM126.694 130.225L143.737 140.015V110.645L126.694 130.225Z" fill="white"/>
<path d="M111.938 160.412V190.556L129.433 180.508L111.938 160.412Z" fill="#09226E"/>
<path d="M111.941 190.73C111.91 190.731 111.879 190.723 111.853 190.706C111.826 190.691 111.804 190.669 111.789 190.643C111.773 190.617 111.765 190.587 111.766 190.556V160.415C111.765 160.379 111.776 160.344 111.797 160.314C111.817 160.285 111.846 160.262 111.88 160.25C111.914 160.238 111.95 160.236 111.985 160.245C112.019 160.254 112.05 160.274 112.073 160.301L129.565 180.403C129.583 180.422 129.596 180.445 129.603 180.47C129.61 180.495 129.612 180.521 129.607 180.547C129.602 180.573 129.592 180.597 129.577 180.618C129.562 180.639 129.543 180.657 129.52 180.67L112.028 190.715C112.001 190.729 111.971 190.734 111.941 190.73ZM112.115 160.883V190.253L129.161 180.46L112.115 160.883Z" fill="#DA9F29"/>
<path d="M111.937 160.412V190.556L94.4453 180.508L111.937 160.412Z" fill="#001D76"/>
<path d="M103.191 220.698V250.842L120.686 240.794L103.191 220.698Z" fill="#E3185C"/>
<path d="M103.195 251.016C103.164 251.016 103.134 251.008 103.107 250.992C103.08 250.978 103.057 250.956 103.042 250.929C103.026 250.903 103.017 250.873 103.017 250.842V220.698C103.019 220.664 103.031 220.632 103.051 220.605C103.072 220.578 103.099 220.557 103.131 220.545C103.163 220.533 103.197 220.531 103.23 220.537C103.263 220.544 103.294 220.56 103.318 220.584L120.81 240.686C120.828 240.705 120.841 240.728 120.848 240.753C120.855 240.778 120.857 240.805 120.852 240.83C120.847 240.856 120.837 240.88 120.822 240.901C120.807 240.922 120.787 240.94 120.765 240.953L103.273 250.998C103.249 251.01 103.222 251.016 103.195 251.016ZM103.369 221.169V250.539L120.415 240.749L103.369 221.169Z" fill="#5936E6"/>
<path d="M103.191 220.698V250.842L85.6992 240.794L103.191 220.698Z" fill="#FA397A"/>
<path d="M103.194 251.016C103.164 251.016 103.134 251.007 103.107 250.992L85.6149 240.947C85.5925 240.934 85.5734 240.916 85.5587 240.895C85.544 240.873 85.5341 240.849 85.5298 240.824C85.5255 240.798 85.5268 240.772 85.5337 240.747C85.5406 240.723 85.5529 240.7 85.5696 240.68L103.062 220.578C103.085 220.553 103.116 220.535 103.15 220.528C103.183 220.52 103.218 220.523 103.251 220.535C103.283 220.547 103.311 220.568 103.331 220.596C103.351 220.624 103.362 220.657 103.363 220.692V250.842C103.363 250.873 103.355 250.903 103.34 250.929C103.325 250.955 103.302 250.977 103.276 250.992C103.251 251.006 103.223 251.015 103.194 251.016ZM85.9798 240.749L103.022 250.539V221.169L85.9798 240.749Z" fill="white"/>
<path d="M70.062 170.94V201.081L87.554 191.033L70.062 170.94Z" fill="#F3F3F3"/>
<path d="M70.0621 201.259C70.0314 201.258 70.0013 201.25 69.9747 201.235C69.9481 201.219 69.9262 201.196 69.9109 201.169C69.8955 201.143 69.8874 201.112 69.8872 201.082V170.94C69.8884 170.906 69.8997 170.873 69.9197 170.845C69.9398 170.817 69.9677 170.795 69.9999 170.783C70.0321 170.771 70.0672 170.769 70.1008 170.776C70.1344 170.784 70.165 170.801 70.1888 170.826L87.6808 190.928C87.6976 190.948 87.7099 190.971 87.7167 190.996C87.7236 191.021 87.7249 191.047 87.7206 191.072C87.7163 191.098 87.7065 191.122 87.6918 191.143C87.6771 191.165 87.6579 191.182 87.6356 191.195L70.1435 201.244C70.1179 201.255 70.0901 201.26 70.0621 201.259ZM70.237 171.408V200.779L87.2827 190.988L70.237 171.408Z" fill="#D0D0D0"/>
<path d="M70.0624 170.94V201.081L52.5674 191.033L70.0624 170.94Z" fill="white"/>
<path d="M70.062 201.258C70.0312 201.258 70.0011 201.25 69.9745 201.234L52.4825 191.186C52.46 191.173 52.4406 191.155 52.4255 191.134C52.4104 191.113 52.4 191.089 52.3951 191.063C52.3906 191.038 52.3921 191.011 52.3994 190.986C52.4068 190.961 52.4197 190.938 52.4373 190.919L69.9293 170.817C69.953 170.792 69.9836 170.775 70.0172 170.767C70.0508 170.759 70.086 170.762 70.1182 170.774C70.1504 170.786 70.1783 170.808 70.1983 170.836C70.2184 170.863 70.2297 170.897 70.2309 170.931V201.081C70.2307 201.112 70.2225 201.142 70.2072 201.169C70.1919 201.196 70.1699 201.218 70.1434 201.234C70.1186 201.249 70.0906 201.257 70.062 201.258ZM52.8414 190.988L69.8871 200.778V171.408L52.8414 190.988Z" fill="#CBCBCB"/>
<path d="M187.636 130.706L205.128 150.799L187.636 160.847V130.706Z" fill="#E3185C"/>
<path d="M187.635 161.024C187.605 161.023 187.575 161.015 187.548 161C187.521 160.984 187.499 160.962 187.483 160.935C187.468 160.908 187.46 160.878 187.46 160.847V130.705C187.462 130.671 187.473 130.638 187.493 130.61C187.513 130.582 187.541 130.561 187.573 130.548C187.605 130.536 187.64 130.534 187.674 130.541C187.708 130.549 187.738 130.566 187.762 130.591L205.254 150.694C205.271 150.713 205.283 150.736 205.289 150.761C205.296 150.786 205.298 150.812 205.293 150.838C205.289 150.863 205.279 150.887 205.264 150.908C205.25 150.929 205.231 150.947 205.209 150.961L187.717 161.009C187.691 161.02 187.663 161.025 187.635 161.024ZM187.813 131.173V160.544L204.856 150.757L187.813 131.173Z" fill="#FF5050"/>
<path d="M187.636 130.706L170.144 150.799L187.636 160.847V130.706Z" fill="#FA397A"/>
<path d="M187.635 161.024C187.605 161.023 187.575 161.015 187.548 161L170.056 150.952C170.034 150.938 170.015 150.921 170 150.899C169.986 150.878 169.976 150.854 169.972 150.829C169.967 150.803 169.969 150.777 169.976 150.753C169.982 150.728 169.994 150.705 170.011 150.685L187.503 130.582C187.527 130.558 187.557 130.54 187.591 130.533C187.624 130.525 187.659 130.527 187.692 130.54C187.724 130.552 187.752 130.573 187.772 130.601C187.792 130.629 187.803 130.662 187.804 130.696V160.847C187.805 160.878 187.797 160.908 187.782 160.935C187.766 160.962 187.744 160.984 187.717 161C187.692 161.014 187.664 161.022 187.635 161.024ZM170.424 150.757L187.47 160.547V131.173L170.424 150.757Z" fill="white"/>
</g>
<g clip-path="url(#clip1_0_1)">
<path d="M55.9556 49.751L63.9112 61.0001H48L55.9556 49.751Z" fill="white"/>
<path d="M73.4555 61H65.8214L56.9106 48.3989L60.7265 43L73.4555 61Z" fill="white"/>
<path d="M83 61H75.3683L66.4575 48.3989L70.2734 43L83 61Z" fill="white"/>
<path d="M73.4555 61H65.8214L56.9106 48.3989L60.7265 43L73.4555 61Z" fill="white"/>
</g>
<defs>
<filter id="filter0_d_0_1" x="0" y="0" width="264" height="306" filterUnits="userSpaceOnUse" color-interpolation-filters="sRGB">
<feFlood flood-opacity="0" result="BackgroundImageFix"/>
<feColorMatrix in="SourceAlpha" type="matrix" values="0 0 0 0 0 0 0 0 0 0 0 0 0 0 0 0 0 0 127 0" result="hardAlpha"/>
<feMorphology radius="10" operator="dilate" in="SourceAlpha" result="effect1_dropShadow_0_1"/>
<feOffset dy="4"/>
<feGaussianBlur stdDeviation="10"/>
<feComposite in2="hardAlpha" operator="out"/>
<feColorMatrix type="matrix" values="0 0 0 0 0.341176 0 0 0 0 0.501961 0 0 0 0 1 0 0 0 0.2 0"/>
<feBlend mode="normal" in2="BackgroundImageFix" result="effect1_dropShadow_0_1"/>
<feBlend mode="normal" in="SourceGraphic" in2="effect1_dropShadow_0_1" result="shape"/>
</filter>
<clipPath id="clip0_0_1">
<rect width="262" height="156" fill="white" transform="translate(9 110)"/>
</clipPath>
<clipPath id="clip1_0_1">
<rect width="35" height="18" fill="white" transform="translate(48 43)"/>
</clipPath>
</defs>
</svg>
