<svg width="511" height="312" viewBox="0 0 511 312" fill="none" xmlns="http://www.w3.org/2000/svg">
<g filter="url(#filter0_d_762_1797)">
<rect x="30" y="30" width="450.37" height="251.397" rx="10" fill="#08216E"/>
</g>
<path d="M62.8463 107.535C62.0463 108.655 60.7663 109.395 59.2663 109.395C56.7663 109.395 54.8863 107.335 54.8863 104.755C54.8863 102.195 56.7663 100.095 59.2663 100.095C60.7263 100.095 61.9663 100.815 62.7663 101.855L64.8063 100.395C63.6063 98.7152 61.6063 97.6752 59.2663 97.6752C55.3463 97.6752 52.3263 100.855 52.3263 104.755C52.3263 108.635 55.3463 111.815 59.2663 111.815C61.6663 111.815 63.6663 110.715 64.8663 109.015L62.8463 107.535ZM69.1335 108.315C69.1335 105.835 69.8135 104.355 71.4735 104.355C71.7135 104.355 72.3135 104.355 72.8935 104.615L73.3135 102.415C72.9335 102.195 72.4335 102.075 71.7735 102.075C70.7135 102.075 69.6135 102.775 69.1335 104.475V102.275H66.6935V111.615H69.1335V108.315ZM77.3361 102.275H74.9161V111.615H77.3361V102.275ZM74.5561 98.6552C74.5561 99.5152 75.2761 100.135 76.1361 100.135C76.9961 100.135 77.6761 99.5152 77.6761 98.6552C77.6761 97.8352 76.9961 97.1952 76.1361 97.1952C75.2761 97.1952 74.5561 97.8352 74.5561 98.6552ZM79.4919 106.915C79.4919 109.855 81.8519 111.815 84.5319 111.815C86.1319 111.815 87.5519 111.155 88.4319 109.975L86.4719 108.535C86.0119 109.155 85.3119 109.475 84.5319 109.475C83.1719 109.475 81.9119 108.435 81.9119 106.915C81.9119 105.395 83.1719 104.435 84.5319 104.435C85.3119 104.435 86.0119 104.735 86.4719 105.355L88.4119 103.895C87.5319 102.715 86.1119 102.075 84.5319 102.075C81.8519 102.075 79.4919 103.955 79.4919 106.915ZM95.3225 97.1952C92.6825 97.1952 91.3425 98.7952 91.3425 101.535V102.275H89.5625V104.235H91.3425V111.615H93.8025V104.235H95.7825V102.275H93.8025V101.535C93.8025 100.395 94.1825 99.5352 95.3225 99.5352H98.5825V111.615H101.023V97.1952H95.3225ZM106.203 102.275H103.783V111.615H106.203V102.275ZM103.423 98.6552C103.423 99.5152 104.143 100.135 105.003 100.135C105.863 100.135 106.543 99.5152 106.543 98.6552C106.543 97.8352 105.863 97.1952 105.003 97.1952C104.143 97.1952 103.423 97.8352 103.423 98.6552ZM111.399 106.535L107.719 111.615H110.559L112.779 108.495L114.979 111.615H117.819L114.159 106.535L117.219 102.275H114.359L112.799 104.575L111.199 102.275H108.339L111.399 106.535Z" fill="white"/>
<g filter="url(#filter1_d_762_1797)">
<path d="M305.007 142.385C305.007 142.385 273.482 116.153 221.018 116.39C185.554 116.39 180.09 131.249 181.564 137.982C181.564 137.982 181.119 146.314 188.508 153.428C190.967 150.973 223.007 135.278 282.106 159.312C282.106 159.312 291.465 153.915 294.419 150.973C297.374 148.032 305.007 142.385 305.007 142.385Z" fill="url(#paint0_linear_762_1797)"/>
</g>
<path d="M330.355 145.01L318.005 136.959C316.009 135.436 313.575 134.59 311.061 134.548V134.929V134.567C308.687 134.587 306.385 135.386 304.513 136.84C295.568 143.542 291.34 150.125 277.052 156.827C262.763 163.528 245.89 160.874 234.888 163.291C223.886 165.708 212.633 183.384 212.633 198.386C212.633 206.85 215.863 213.095 220.862 215.943L229.217 221.252C243.249 207.874 293.774 161.161 330.355 145.01Z" fill="url(#paint1_radial_762_1797)"/>
<path d="M332.945 146.565L320.594 138.521C318.601 136.996 316.17 136.148 313.657 136.104C311.275 136.096 308.962 136.901 307.102 138.383C293.114 149.357 296.439 154.198 282.181 160.899C267.924 167.601 257.236 160.375 237.477 164.834C226.488 167.333 215.229 184.933 215.229 199.93C215.229 208.399 218.453 214.639 223.452 217.487L231.807 222.796C245.838 209.43 296.357 162.686 332.945 146.565Z" fill="#0A0A0A"/>
<g filter="url(#filter2_d_762_1797)">
<path d="M327.05 142.735C325.054 141.211 322.621 140.364 320.106 140.318C317.731 140.34 315.429 141.141 313.557 142.598C304.613 149.294 300.385 155.883 286.09 162.585C271.795 169.287 254.935 166.632 243.933 169.049C232.931 171.466 221.678 189.148 221.678 204.144C221.678 212.608 224.902 218.853 229.901 221.702L260.272 240.995L277.748 207.149C278.187 206.961 278.62 206.786 279.059 206.63L312.548 194.763C324.597 190.485 357.616 162.81 357.616 162.81L327.05 142.735Z" fill="url(#paint2_linear_762_1797)"/>
</g>
<path d="M347.404 156.046C345.408 154.537 342.979 153.703 340.473 153.666V154.028L340.435 154.066L340.473 154.028V153.666C338.099 153.686 335.797 154.485 333.925 155.939C324.98 162.635 320.752 169.224 306.457 175.926C292.162 182.628 275.302 179.973 264.3 182.391C253.298 184.808 242.045 202.483 242.045 217.486C242.045 225.949 245.269 232.189 250.274 235.043L260.442 241.663L260.643 241.357L267.712 233.563L298.096 220.446C298.535 220.259 298.974 220.084 299.407 219.928L332.902 208.061C344.945 203.783 354.912 187.931 354.912 173.047V172.991C354.912 166.514 357.334 162.997 357.334 162.997L357.472 162.754L347.404 156.046Z" fill="#0A0A0A"/>
<path d="M344.701 215.854L311.212 227.753C310.773 227.909 310.334 228.078 309.895 228.265L275.823 242.98C263.78 248.17 253.819 240.157 253.812 225.279C253.812 210.289 263.936 194.325 276.067 190.19C276.067 190.19 297.582 184.825 311.865 178.123C326.147 171.422 344.482 163.196 344.482 163.196C356.6 157.837 366.686 165.832 366.686 180.803V180.865C366.711 195.73 356.744 211.582 344.701 215.854Z" fill="#0A0A0A"/>
<path d="M344.003 215.386L311.436 226.954C311.018 227.104 310.599 227.272 310.181 227.46L277.025 241.731C265.314 246.778 255.623 238.989 255.623 224.524C255.623 209.94 265.458 194.419 277.263 190.397C277.263 190.397 298.182 185.182 312.076 178.661C325.969 172.14 343.814 164.146 343.814 164.146C355.601 158.937 365.404 166.713 365.404 181.272V181.334C365.404 195.812 355.713 211.227 344.003 215.386Z" fill="url(#paint3_radial_762_1797)"/>
<path d="M344.003 215.386L311.436 226.954C311.018 227.104 310.599 227.272 310.181 227.46L277.025 241.731C265.314 246.778 255.623 238.989 255.623 224.524C255.623 209.94 265.458 194.419 277.263 190.397C277.263 190.397 298.182 185.182 312.076 178.661C325.969 172.14 343.814 164.146 343.814 164.146C355.601 158.937 365.404 166.713 365.404 181.272V181.334C365.404 195.812 355.713 211.227 344.003 215.386Z" fill="url(#paint4_linear_762_1797)"/>
<g filter="url(#filter3_d_762_1797)">
<path d="M345.773 156.746H345.736C343.995 155.408 341.869 154.661 339.67 154.616C337.62 154.638 335.636 155.335 334.025 156.596C331.246 158.676 328.875 160.793 326.586 162.842C321.511 167.376 316.267 172.067 306.3 176.745C296.892 181.155 286.517 181.623 277.365 182.035C272.347 182.26 267.668 182.473 263.829 183.285C259.031 184.34 253.68 188.906 249.503 195.464C248.374 197.244 247.37 199.099 246.498 201.016L253.925 205.008C254.448 205.29 254.849 205.754 255.05 206.312C255.251 206.869 255.239 207.481 255.016 208.031C253.994 210.56 252.394 215.182 252.137 219.823C252.113 220.232 251.985 220.628 251.764 220.973C251.543 221.319 251.236 221.602 250.874 221.796C250.512 221.99 250.106 222.089 249.694 222.082C249.283 222.076 248.88 221.964 248.524 221.759C246.73 220.722 244.579 219.417 242.76 218.124C243.029 225.188 245.708 230.653 250.218 233.22H250.255H250.293L257.13 237.667C254.684 234.132 253.367 229.41 253.367 223.97C253.367 208.643 263.522 192.71 276.01 188.45H276.067H276.13C276.337 188.4 297.067 183.197 310.666 176.814C324.415 170.362 342.254 162.367 342.436 162.286C344.86 161.169 347.493 160.574 350.164 160.537C350.698 160.536 351.232 160.563 351.763 160.618L345.773 156.746Z" fill="url(#paint5_linear_762_1797)" shape-rendering="crispEdges"/>
</g>
<path d="M240.69 191.271L233.031 186.512C232.731 186.327 232.395 186.207 232.046 186.159C231.696 186.112 231.34 186.139 231.002 186.238C230.663 186.337 230.349 186.506 230.081 186.734C229.812 186.962 229.595 187.244 229.443 187.561C226.815 193.064 225.178 199.166 225.178 204.887C225.174 206.178 225.256 207.467 225.422 208.747C225.472 209.112 225.602 209.461 225.802 209.769C226.003 210.078 226.269 210.339 226.583 210.533L233.2 214.649C233.582 214.884 234.019 215.012 234.467 215.021C234.915 215.03 235.357 214.919 235.747 214.701C236.138 214.482 236.462 214.163 236.687 213.778C236.912 213.392 237.029 212.953 237.027 212.507V212.457C237.027 206.524 238.783 200.172 241.593 194.513C241.875 193.958 241.938 193.318 241.771 192.718C241.604 192.118 241.219 191.603 240.69 191.271Z" fill="url(#paint6_linear_762_1797)"/>
<path d="M241.994 191.41L234.336 186.913C234.037 186.736 233.706 186.621 233.362 186.575C233.018 186.529 232.668 186.552 232.333 186.645C231.998 186.737 231.686 186.895 231.415 187.111C231.143 187.327 230.918 187.595 230.754 187.9C228.12 193.102 226.482 198.874 226.482 204.282C226.482 205.5 226.564 206.717 226.727 207.924C226.778 208.275 226.909 208.611 227.11 208.904C227.311 209.198 227.577 209.441 227.887 209.616L234.505 213.508C234.878 213.737 235.305 213.865 235.744 213.879C236.182 213.893 236.617 213.793 237.004 213.587C237.391 213.382 237.717 213.079 237.95 212.709C238.183 212.339 238.314 211.914 238.331 211.478V211.434C238.331 205.813 240.094 199.823 242.904 194.47C243.18 193.942 243.239 193.328 243.069 192.757C242.9 192.186 242.514 191.703 241.994 191.41Z" fill="white"/>
<path d="M242.727 191.872L235.094 187.644C234.491 187.305 233.78 187.213 233.111 187.387C232.441 187.56 231.866 187.986 231.506 188.575C228.871 193.465 227.24 198.893 227.24 203.971C227.237 205.118 227.318 206.264 227.485 207.4C227.54 207.736 227.673 208.055 227.873 208.332C228.073 208.608 228.336 208.834 228.639 208.992L235.263 212.652C236.938 213.577 239.089 212.496 239.083 210.741V210.697C239.083 205.426 240.845 199.78 243.656 194.752C243.792 194.504 243.876 194.23 243.903 193.949C243.93 193.667 243.899 193.383 243.812 193.114C243.725 192.844 243.584 192.595 243.398 192.382C243.211 192.169 242.983 191.995 242.727 191.872Z" fill="white"/>
<g filter="url(#filter4_d_762_1797)">
<path d="M217.412 200.854C217.412 200.854 217.907 187.363 228.74 175.102C228.74 175.102 184.927 160.737 181.458 137.277C181.207 135.591 181.364 169.612 181.364 169.612C181.364 169.612 182.932 184.896 217.412 200.854Z" fill="url(#paint7_linear_762_1797)"/>
</g>
<path d="M228.941 175.101C229.367 174.639 228.414 172.184 226.225 174.127C223.76 176.625 216.596 186.768 215.354 199.784C215.072 201.733 217.33 202.114 217.606 200.852C217.606 200.852 219.149 185.519 228.941 175.101Z" fill="#2B2B2B"/>
<g style="mix-blend-mode:soft-light">
<path style="mix-blend-mode:soft-light" d="M262.217 168.656L262.643 164.565L263.183 160.48C263.39 159.118 263.641 157.757 263.873 156.401C264.105 155.046 264.412 153.684 264.688 152.329C265.843 146.852 267.467 141.484 269.543 136.284L270.358 134.316C270.653 133.692 270.986 133.03 271.268 132.38C271.851 131.081 272.579 129.832 273.256 128.564C273.601 127.939 274.009 127.315 274.385 126.69L274.963 125.766C275.157 125.46 275.383 125.141 275.59 124.866C276.023 124.242 276.437 123.667 276.882 123.08L278.312 121.375C278.547 121.082 278.8 120.804 279.071 120.544L279.868 119.745C280.137 119.482 280.382 119.201 280.671 118.951L281.555 118.214L282.433 117.484C282.734 117.24 283.06 117.04 283.38 116.815C283.7 116.591 284.008 116.372 284.353 116.191L285.381 115.622C288.177 114.071 291.375 113.388 294.564 113.661C297.58 114.013 300.46 115.108 302.944 116.847C305.275 118.476 307.369 120.418 309.167 122.618C312.612 126.915 315.439 131.67 317.565 136.746C321.875 146.777 324.308 157.444 325.77 168.219C327.175 179.07 327.492 190.033 326.717 200.947C326.327 206.458 325.632 211.944 324.635 217.379C324.145 220.109 323.537 222.832 322.872 225.543C322.207 228.253 321.398 230.945 320.488 233.619C318.713 239.054 316.311 244.267 313.331 249.152C311.762 251.656 309.926 253.985 307.856 256.097C305.738 258.311 303.207 260.091 300.404 261.338C298.971 261.949 297.456 262.349 295.906 262.524C294.385 262.681 292.849 262.601 291.353 262.287C288.518 261.645 285.874 260.35 283.631 258.508C279.24 254.998 276.167 250.389 273.664 245.629C275.014 247.977 276.547 250.216 278.249 252.325C279.1 253.384 280.008 254.395 280.972 255.354C281.936 256.323 282.972 257.218 284.07 258.034C286.282 259.732 288.858 260.899 291.597 261.444C292.998 261.69 294.428 261.722 295.837 261.537C297.259 261.337 298.643 260.931 299.946 260.332C302.554 259.1 304.897 257.375 306.846 255.254C308.781 253.181 310.486 250.907 311.933 248.471C314.737 243.649 316.985 238.526 318.632 233.2C320.281 227.951 321.567 222.597 322.483 217.173C323.412 211.799 324.04 206.378 324.365 200.934C325.069 190.153 324.712 179.33 323.298 168.618C321.906 158 319.504 147.464 315.37 137.633C313.368 132.705 310.685 128.08 307.398 123.892C305.731 121.812 303.79 119.965 301.627 118.402C299.444 116.813 296.898 115.791 294.219 115.429C293.88 115.379 293.542 115.391 293.197 115.366H292.689C292.513 115.366 292.344 115.366 292.174 115.366L291.146 115.435L290.123 115.622L289.609 115.722L289.107 115.872C288.775 115.978 288.436 116.066 288.103 116.178L287.131 116.584L286.642 116.784L286.178 117.04L285.243 117.54C284.936 117.715 284.616 117.927 284.346 118.115C284.077 118.302 283.719 118.496 283.468 118.739L282.64 119.414L281.806 120.082C281.53 120.307 281.291 120.569 281.028 120.813L280.257 121.5C279.994 121.74 279.747 121.997 279.516 122.268L278.118 123.873C277.672 124.429 277.265 125.004 276.863 125.566C276.656 125.853 276.43 126.128 276.236 126.421L275.659 127.308C275.276 127.933 274.868 128.489 274.517 129.095C273.827 130.344 273.081 131.524 272.485 132.792C272.171 133.417 271.858 134.041 271.544 134.666L270.685 136.583C268.452 141.7 266.66 146.997 265.328 152.417C265.014 153.759 264.701 155.102 264.375 156.451L263.553 160.505L262.831 164.571L262.217 168.656Z" fill="url(#paint8_linear_762_1797)"/>
</g>
<path style="mix-blend-mode:screen" d="M289.396 210.853C252.52 226.018 238.4 235.536 257.839 232.126C277.277 228.716 322.941 213.657 359.817 198.499C396.693 183.34 410.813 173.815 391.368 177.225C371.923 180.635 326.266 195.694 289.396 210.853Z" fill="url(#paint9_radial_762_1797)"/>
<g clip-path="url(#clip0_762_1797)">
<path d="M393.747 138.264C401.064 125.923 397.356 110.007 385.463 102.714C373.571 95.4211 357.998 99.513 350.681 111.854C343.363 124.194 347.072 140.11 358.965 147.403C370.857 154.696 386.43 150.604 393.747 138.264Z" fill="#E3185C"/>
<path d="M370.262 136.474C394.921 144.058 416.119 146.276 417.61 141.429C419.1 136.582 400.319 126.505 375.66 118.921C351.002 111.337 329.803 109.118 328.312 113.965C326.822 118.812 345.603 128.889 370.262 136.474Z" stroke="black" stroke-linecap="round" stroke-linejoin="round"/>
<path d="M362.888 135.943C358.324 134.54 356.07 141.846 360.64 143.251C365.21 144.657 367.458 137.349 362.888 135.943Z" fill="white"/>
<path d="M419.412 142.42C419.069 143.482 418.401 144.407 417.509 145.056C416.881 145.503 416.199 145.863 415.482 146.127C414.321 146.545 413.122 146.834 411.905 146.991C409.713 147.289 407.505 147.424 405.299 147.395C401.054 147.356 396.818 147.071 392.613 146.54C384.313 145.472 376.135 143.641 368.179 141.069C364.22 139.764 360.295 138.368 356.408 136.852C352.52 135.336 348.712 133.605 344.934 131.781C341.128 129.916 337.442 127.81 333.895 125.477C332.047 124.269 330.294 122.916 328.652 121.429C327.735 120.605 326.909 119.681 326.189 118.671C325.748 118.045 325.39 117.36 325.124 116.635C324.758 115.598 324.73 114.462 325.043 113.395C325.416 112.359 326.112 111.473 327.022 110.877C327.656 110.474 328.342 110.166 329.058 109.962C330.216 109.634 331.405 109.444 332.6 109.393C334.763 109.299 336.926 109.371 339.072 109.609C343.217 110.063 347.331 110.748 351.396 111.662C355.446 112.514 359.434 113.566 363.405 114.628C367.376 115.689 371.317 116.894 375.223 118.168C383.04 120.696 390.833 123.282 398.552 126.245C402.458 127.704 406.271 129.404 409.971 131.335C411.887 132.335 413.72 133.492 415.452 134.795C416.407 135.527 417.278 136.368 418.048 137.303C418.521 137.877 418.912 138.519 419.209 139.209C419.617 140.221 419.688 141.349 419.412 142.42ZM414.681 140.965C414.614 141.184 414.698 141.232 414.651 141.065C414.559 140.786 414.425 140.524 414.255 140.288C413.758 139.58 413.181 138.934 412.536 138.364C411.094 137.047 409.557 135.845 407.936 134.767C404.571 132.517 401.079 130.472 397.477 128.641C390.189 124.942 382.58 121.93 374.741 119.642C370.815 118.528 366.863 117.495 362.886 116.591C358.908 115.688 354.882 114.988 350.875 114.41C346.877 113.835 342.844 113.515 338.799 113.452C336.848 113.425 334.896 113.554 332.959 113.838C332.101 113.969 331.258 114.197 330.446 114.519C330.175 114.629 329.919 114.775 329.685 114.954C329.582 115.082 329.644 115.087 329.75 114.88C329.856 114.672 329.836 114.601 329.885 114.717C330.033 114.951 330.201 115.171 330.387 115.374C330.946 115.992 331.565 116.548 332.237 117.033C333.783 118.151 335.404 119.155 337.09 120.039C340.606 121.885 344.218 123.537 347.911 124.988C351.621 126.508 355.41 127.84 359.216 129.142C363.021 130.443 366.862 131.654 370.732 132.771C378.456 135.03 386.2 137.223 393.997 139.061C397.853 140.011 401.763 140.728 405.708 141.209C407.604 141.429 409.516 141.499 411.428 141.419C412.257 141.388 413.082 141.269 413.89 141.063C414.159 140.994 414.423 140.903 414.679 140.79C414.78 140.69 414.718 140.729 414.681 140.965Z" fill="#D7D7D7"/>
<path d="M348.115 117.932C350.126 111.4 354.567 105.909 360.463 102.667C366.359 99.4254 373.227 98.6976 379.555 100.644C392.73 104.696 401.784 117.705 395.84 132.611" fill="#E3185C"/>
<path d="M361.184 113.603C357.535 112.48 355.735 118.333 359.384 119.456C363.033 120.578 364.84 114.727 361.184 113.603Z" fill="white"/>
<path d="M376.44 99.3876C375.85 100.893 376.207 102.85 378.138 103.444C378.544 103.582 378.976 103.624 379.404 103.565C379.831 103.506 380.241 103.348 380.603 103.104C380.966 102.859 381.27 102.534 381.495 102.154C381.719 101.773 381.857 101.346 381.898 100.906C380.153 100.163 378.319 99.6527 376.44 99.3876Z" fill="white"/>
<path d="M384.574 110.994C384.268 110.9 383.937 110.935 383.652 111.092C383.368 111.248 383.153 111.513 383.056 111.829C382.959 112.144 382.987 112.484 383.135 112.774C383.282 113.063 383.537 113.278 383.842 113.372C384.148 113.466 384.48 113.431 384.764 113.275C385.049 113.118 385.263 112.853 385.36 112.538C385.457 112.222 385.429 111.882 385.282 111.593C385.134 111.303 384.88 111.088 384.574 110.994Z" fill="white"/>
<path d="M388.968 125.18C384.405 123.777 382.15 131.083 386.72 132.488C391.29 133.894 393.538 126.586 388.968 125.18Z" fill="white"/>
<path d="M375.984 123.762C373.345 122.95 372.037 127.18 374.682 127.994C377.327 128.807 378.629 124.575 375.984 123.762Z" fill="white"/>
</g>
<g clip-path="url(#clip1_762_1797)">
<path d="M84.538 87.1877C83.6481 87.1878 82.7857 86.89 82.0977 86.345C81.4098 85.8 80.9389 85.0416 80.7653 84.199C80.5917 83.3564 80.7262 82.4818 81.1457 81.7241C81.5653 80.9665 82.2441 80.3728 83.0663 80.0441C83.8885 79.7155 84.8034 79.6723 85.6549 79.9218C86.5065 80.1714 87.2421 80.6983 87.7363 81.4127C88.2305 82.1272 88.4528 82.9849 88.3653 83.8399C88.2778 84.6948 87.8859 85.494 87.2563 86.1012C86.8997 86.4462 86.4759 86.7197 86.0094 86.9062C85.543 87.0927 85.0429 87.1883 84.538 87.1877Z" fill="white"/>
<path d="M63.6357 67.385C62.7458 67.3851 61.8833 67.0872 61.1954 66.5423C60.5074 65.9973 60.0365 65.2389 59.863 64.3963C59.6894 63.5537 59.8238 62.679 60.2434 61.9214C60.663 61.1638 61.3417 60.5701 62.164 60.2414C62.9862 59.9128 63.901 59.8695 64.7526 60.1191C65.6042 60.3686 66.3397 60.8955 66.8339 61.61C67.3282 62.3244 67.5505 63.1822 67.4629 64.0371C67.3754 64.8921 66.9835 65.6912 66.354 66.2985C65.998 66.6443 65.5744 66.9184 65.1077 67.1049C64.6411 67.2914 64.1407 67.3866 63.6357 67.385Z" fill="white"/>
<path d="M84.3632 67.2776C83.4733 67.2766 82.6114 66.9777 81.9242 66.4319C81.237 65.8862 80.767 65.1273 80.5945 64.2845C80.4219 63.4418 80.5574 62.5674 80.9779 61.8103C81.3983 61.0532 82.0777 60.4602 82.9002 60.1325C83.7228 59.8047 84.6376 59.7624 85.4888 60.0128C86.3401 60.2632 87.075 60.7908 87.5685 61.5056C88.0619 62.2205 88.2834 63.0784 88.195 63.9332C88.1067 64.788 87.714 65.5868 87.084 66.1934C86.7272 66.5388 86.303 66.8124 85.836 66.9985C85.369 67.1846 84.8684 67.2794 84.3632 67.2776Z" fill="white"/>
<path d="M63.7351 87.1884C62.9741 87.1888 62.23 86.9713 61.5971 86.5633C60.9642 86.1554 60.4709 85.5753 60.1796 84.8966C59.8883 84.2179 59.8122 83.471 59.9607 82.7505C60.1093 82.03 60.476 81.3682 61.0143 80.8489C61.18 80.6898 61.362 80.5473 61.5575 80.4238C61.618 80.3819 61.6809 80.3432 61.7459 80.308C61.8878 80.2277 62.0297 80.1569 62.1618 80.0978C62.2352 80.0671 62.3086 80.034 62.3869 80.0057C62.5379 79.9499 62.6923 79.9034 62.8494 79.8663L62.9472 79.8404L63.0084 79.8238L63.8648 79.7695C63.9724 79.7695 64.0874 79.786 64.2122 79.8026H64.2611H64.3688H64.403H64.4422H64.4764H64.6648C66.1699 79.782 67.6051 79.1857 68.6551 78.1446C69.7052 77.1035 70.2843 75.7026 70.2654 74.2496V74.2071V74.1646C70.263 74.1244 70.263 74.0842 70.2654 74.0441C70.2654 73.9969 70.2654 73.9496 70.2507 73.9024V73.8174C70.2507 73.7465 70.236 73.678 70.2311 73.6071L70.2948 72.7757C70.3002 72.7557 70.3067 72.736 70.3143 72.7167L70.329 72.6647C70.3653 72.5041 70.4135 72.3462 70.4734 72.1923C70.4998 72.1189 70.5308 72.0471 70.5663 71.9774C70.6327 71.8358 70.7071 71.6978 70.789 71.5641C70.8257 71.5074 70.8624 71.4483 70.904 71.3893C71.0343 71.2007 71.1825 71.0244 71.3469 70.8625C71.7012 70.5048 72.1259 70.2191 72.5962 70.022C73.0665 69.825 73.5728 69.7206 74.0855 69.7151C74.5981 69.7095 75.1067 69.8029 75.5815 69.9897C76.0562 70.1766 76.4875 70.4531 76.85 70.8031C77.2125 71.153 77.499 71.5693 77.6925 72.0276C77.886 72.4859 77.9828 72.9769 77.977 73.4718C77.9713 73.9667 77.8632 74.4555 77.6591 74.9095C77.4549 75.3635 77.1589 75.7735 76.7884 76.1155C76.6215 76.2733 76.4396 76.4157 76.2452 76.5407C76.1816 76.5832 76.1204 76.6187 76.0592 76.6517C75.925 76.7304 75.7862 76.8014 75.6433 76.8643C75.5675 76.8974 75.4916 76.9304 75.4207 76.9564C75.2677 77.01 75.1117 77.055 74.9533 77.091L74.8604 77.1147L74.7992 77.1312L73.933 77.1902C73.8257 77.1853 73.7188 77.175 73.6125 77.1595H73.5367H73.429H73.3703H73.3263H73.1036C72.3569 77.1685 71.6194 77.3195 70.9332 77.6041C70.2471 77.8887 69.6259 78.3011 69.1052 78.8178C68.5845 79.3346 68.1745 79.9454 67.8987 80.6153C67.6229 81.2853 67.4868 82.0011 67.4981 82.722V82.7621V82.8046C67.5046 82.8445 67.5087 82.8847 67.5104 82.9251C67.5104 82.9723 67.5104 83.0196 67.5251 83.0668C67.5275 83.1103 67.5324 83.1537 67.5397 83.1967C67.5397 83.2534 67.5397 83.3101 67.5397 83.3668V83.3857L67.4786 84.1816C67.4786 84.1982 67.4468 84.2903 67.4394 84.3186C67.4025 84.475 67.3551 84.6288 67.2975 84.7792C67.2718 84.8502 67.2416 84.9197 67.207 84.9871C67.1385 85.1288 67.0675 85.2634 66.9843 85.4028C66.9476 85.4571 66.906 85.5232 66.862 85.587C66.7317 85.7713 66.5852 85.9443 66.424 86.1043C66.0678 86.4498 65.6441 86.7237 65.1775 86.9102C64.7109 87.0967 64.2107 87.192 63.7057 87.1908L63.7351 87.1884Z" fill="white"/>
<path d="M74.1259 87.188C73.3016 87.1963 72.4965 86.9479 71.8301 86.4795C71.1637 86.011 70.6716 85.3476 70.4268 84.5877C70.182 83.8279 70.1975 83.012 70.4712 82.2614C70.7449 81.5107 71.262 80.8653 71.9458 80.4209C72.0046 80.3831 72.0657 80.3477 72.1294 80.3123C72.2647 80.2333 72.4043 80.1616 72.5477 80.0973L72.7704 80.0052C72.9224 79.9526 73.0777 79.9092 73.2353 79.8753L73.387 79.8328L74.258 79.7714C74.3608 79.7714 74.4709 79.7903 74.5859 79.8045H74.6519H74.7645H74.8085H74.8354H75.063C76.5668 79.7833 78.0004 79.1869 79.0491 78.1462C80.0978 77.1055 80.6758 75.7056 80.6562 74.2538V74.0814L80.6415 74.0625C80.6405 74.0563 80.6405 74.0499 80.6415 74.0436V73.9208L80.6269 73.8027C80.6269 73.7366 80.6097 73.6728 80.6073 73.6067L80.666 72.8036C80.666 72.7824 80.7003 72.6831 80.7076 72.6524C80.7453 72.4979 80.7927 72.3456 80.8495 72.1966C80.8773 72.1233 80.9092 72.0516 80.9449 71.9816C81.0107 71.8425 81.0842 71.7069 81.1651 71.5754L81.1823 71.547C81.2116 71.4998 81.241 71.4502 81.2752 71.403C81.4072 71.2143 81.5562 71.0372 81.7205 70.8739C82.4427 70.1774 83.4217 69.7861 84.4425 69.7861C85.4633 69.7861 86.4424 70.1774 87.1645 70.8739C87.8836 71.5722 88.2873 72.5169 88.2873 73.5016C88.2873 74.4862 87.8836 75.4309 87.1645 76.1292C86.9955 76.2857 86.813 76.4279 86.6189 76.5544L86.4917 76.63L86.4232 76.6725C86.2928 76.7477 86.158 76.8155 86.0194 76.8756C85.9412 76.9087 85.8702 76.9418 85.7919 76.9701C85.6382 77.0234 85.4814 77.0675 85.3221 77.1024L85.2243 77.1284L85.1631 77.1449L84.3092 77.2016C84.1844 77.2016 84.0474 77.1803 83.9177 77.1638C83.8802 77.1619 83.8426 77.1619 83.8052 77.1638H83.766H83.6926H83.5018C82.7567 77.1736 82.021 77.3251 81.3367 77.6096C80.6523 77.894 80.0327 78.3058 79.5133 78.8215C78.9939 79.3372 78.5848 79.9466 78.3094 80.615C78.0341 81.2834 77.8979 81.9976 77.9085 82.7168V82.7593V82.7994C77.915 82.8417 77.9191 82.8843 77.9208 82.927C77.9208 82.9695 77.9208 83.012 77.933 83.0545C77.9452 83.097 77.933 83.1348 77.9452 83.1773C77.9575 83.2199 77.9599 83.3049 77.9624 83.3663L77.8987 84.1835L77.862 84.3111C77.825 84.4713 77.7776 84.629 77.7201 84.7835C77.6957 84.8496 77.6639 84.9157 77.6345 84.9819L77.6223 85.0055C77.5582 85.14 77.4864 85.2709 77.407 85.3976C77.3678 85.4606 77.3287 85.522 77.2895 85.5818C77.1576 85.7698 77.0086 85.9461 76.8442 86.1085C76.4877 86.4532 76.0638 86.726 75.5972 86.9113C75.1305 87.0966 74.6304 87.1907 74.1259 87.188Z" fill="white"/>
<path d="M63.7375 77.1622C62.9766 77.163 62.2325 76.946 61.5994 76.5385C60.9662 76.131 60.4725 75.5514 60.1807 74.873C59.889 74.1946 59.8122 73.4478 59.9601 72.7273C60.1081 72.0067 60.4741 71.3447 61.0119 70.825C61.1793 70.6662 61.362 70.523 61.5575 70.3975L61.7483 70.2818C61.8805 70.2062 62.0175 70.1377 62.1618 70.0716C62.2352 70.0385 62.3086 70.0078 62.3869 69.9795C62.5381 69.9268 62.6925 69.8834 62.8494 69.8495L62.9448 69.8236L62.9986 69.807L63.8696 69.748C63.9822 69.748 64.1143 69.7669 64.2342 69.7834H64.2611H64.3737H64.4128H64.4495H64.4838H64.6771C65.4219 69.7733 66.1573 69.6215 66.8414 69.337C67.5255 69.0524 68.1448 68.6405 68.664 68.1249C69.1831 67.6092 69.592 66.9999 69.8672 66.3317C70.1424 65.6635 70.2785 64.9494 70.2679 64.2304V64.1903V64.1501C70.2593 64.1049 70.2544 64.0591 70.2532 64.0131V63.8998L70.2385 63.784C70.2283 63.7159 70.2218 63.6473 70.2189 63.5785L70.2776 62.7991V62.7802V62.7637L70.3143 62.6432C70.3512 62.483 70.3986 62.3252 70.4562 62.1708C70.4832 62.0999 70.5174 62.0291 70.5517 61.9559C70.6169 61.8165 70.6904 61.6808 70.7719 61.5496V61.5284C70.8061 61.4764 70.8379 61.4221 70.8771 61.3677C71.0056 61.1814 71.1522 61.0074 71.3151 60.8481C71.6692 60.4903 72.0938 60.2043 72.564 60.0071C73.0342 59.8098 73.5405 59.7052 74.0531 59.6995C74.5658 59.6937 75.0744 59.7869 75.5493 59.9735C76.0241 60.1601 76.4555 60.4364 76.8182 60.7862C77.1808 61.136 77.4675 61.5523 77.6612 62.0105C77.855 62.4687 77.9519 62.9596 77.9464 63.4545C77.9409 63.9494 77.833 64.4382 77.6291 64.8923C77.4252 65.3464 77.1294 65.7566 76.759 66.0988C76.5926 66.2571 76.4107 66.3995 76.2159 66.5239C76.1571 66.5641 76.1057 66.5924 76.0544 66.6231L76.025 66.6396C75.8831 66.7199 75.7461 66.7908 75.614 66.8499C75.5357 66.8829 75.4647 66.916 75.3889 66.942C75.2353 66.9961 75.0784 67.0411 74.9191 67.0766C74.8852 67.0835 74.8517 67.0922 74.8188 67.1026L74.7576 67.1191L73.9037 67.1758C73.796 67.1758 73.681 67.1569 73.5611 67.1427H73.5073H73.3972H73.3532H73.3263H73.0963C72.3508 67.152 71.6146 67.303 70.9297 67.5872C70.2447 67.8713 69.6246 68.2831 69.1046 68.7988C68.5847 69.3146 68.1752 69.9242 67.8995 70.5929C67.6239 71.2615 67.4875 71.9761 67.4982 72.6957V72.7359V72.776C67.5067 72.8181 67.5116 72.8607 67.5128 72.9036C67.5128 72.9461 67.5128 72.991 67.5128 73.0335C67.5128 73.076 67.5128 73.1114 67.5275 73.1563C67.536 73.2174 67.5409 73.2789 67.5422 73.3405L67.4982 74.1507C67.4982 74.1719 67.4981 74.1932 67.481 74.2145L67.459 74.2877C67.4225 74.4477 67.3759 74.6055 67.3195 74.7601C67.2926 74.8309 67.2559 74.9018 67.2217 74.9774C67.158 75.1147 67.0869 75.2487 67.0088 75.3789C66.9697 75.4427 66.9305 75.5041 66.8914 75.5608C66.7624 75.7495 66.614 75.9252 66.4485 76.0851C66.0928 76.4307 65.6695 76.7046 65.2034 76.8911C64.7372 77.0776 64.2373 77.173 63.7326 77.1716L63.7375 77.1622Z" fill="white"/>
</g>
<defs>
<filter id="filter0_d_762_1797" x="0" y="0" width="510.371" height="311.397" filterUnits="userSpaceOnUse" color-interpolation-filters="sRGB">
<feFlood flood-opacity="0" result="BackgroundImageFix"/>
<feColorMatrix in="SourceAlpha" type="matrix" values="0 0 0 0 0 0 0 0 0 0 0 0 0 0 0 0 0 0 127 0" result="hardAlpha"/>
<feMorphology radius="10" operator="dilate" in="SourceAlpha" result="effect1_dropShadow_762_1797"/>
<feOffset/>
<feGaussianBlur stdDeviation="10"/>
<feComposite in2="hardAlpha" operator="out"/>
<feColorMatrix type="matrix" values="0 0 0 0 0.341176 0 0 0 0 0.501961 0 0 0 0 1 0 0 0 0.2 0"/>
<feBlend mode="normal" in2="BackgroundImageFix" result="effect1_dropShadow_762_1797"/>
<feBlend mode="normal" in="SourceGraphic" in2="effect1_dropShadow_762_1797" result="shape"/>
</filter>
<filter id="filter1_d_762_1797" x="181.352" y="116.389" width="123.656" height="46.9229" filterUnits="userSpaceOnUse" color-interpolation-filters="sRGB">
<feFlood flood-opacity="0" result="BackgroundImageFix"/>
<feColorMatrix in="SourceAlpha" type="matrix" values="0 0 0 0 0 0 0 0 0 0 0 0 0 0 0 0 0 0 127 0" result="hardAlpha"/>
<feOffset dy="4"/>
<feComposite in2="hardAlpha" operator="out"/>
<feColorMatrix type="matrix" values="0 0 0 0 0 0 0 0 0 0 0 0 0 0 0 0 0 0 0.25 0"/>
<feBlend mode="normal" in2="BackgroundImageFix" result="effect1_dropShadow_762_1797"/>
<feBlend mode="normal" in="SourceGraphic" in2="effect1_dropShadow_762_1797" result="shape"/>
</filter>
<filter id="filter2_d_762_1797" x="196.678" y="119.318" width="185.938" height="150.677" filterUnits="userSpaceOnUse" color-interpolation-filters="sRGB">
<feFlood flood-opacity="0" result="BackgroundImageFix"/>
<feColorMatrix in="SourceAlpha" type="matrix" values="0 0 0 0 0 0 0 0 0 0 0 0 0 0 0 0 0 0 127 0" result="hardAlpha"/>
<feOffset dy="4"/>
<feGaussianBlur stdDeviation="12.5"/>
<feComposite in2="hardAlpha" operator="out"/>
<feColorMatrix type="matrix" values="0 0 0 0 0 0 0 0 0 0 0 0 0 0 0 0 0 0 0.25 0"/>
<feBlend mode="normal" in2="BackgroundImageFix" result="effect1_dropShadow_762_1797"/>
<feBlend mode="normal" in="SourceGraphic" in2="effect1_dropShadow_762_1797" result="shape"/>
</filter>
<filter id="filter3_d_762_1797" x="217.76" y="133.616" width="159.004" height="133.051" filterUnits="userSpaceOnUse" color-interpolation-filters="sRGB">
<feFlood flood-opacity="0" result="BackgroundImageFix"/>
<feColorMatrix in="SourceAlpha" type="matrix" values="0 0 0 0 0 0 0 0 0 0 0 0 0 0 0 0 0 0 127 0" result="hardAlpha"/>
<feOffset dy="4"/>
<feGaussianBlur stdDeviation="12.5"/>
<feComposite in2="hardAlpha" operator="out"/>
<feColorMatrix type="matrix" values="0 0 0 0 0 0 0 0 0 0 0 0 0 0 0 0 0 0 0.25 0"/>
<feBlend mode="normal" in2="BackgroundImageFix" result="effect1_dropShadow_762_1797"/>
<feBlend mode="normal" in="SourceGraphic" in2="effect1_dropShadow_762_1797" result="shape"/>
</filter>
<filter id="filter4_d_762_1797" x="181.315" y="137.217" width="47.4248" height="67.6372" filterUnits="userSpaceOnUse" color-interpolation-filters="sRGB">
<feFlood flood-opacity="0" result="BackgroundImageFix"/>
<feColorMatrix in="SourceAlpha" type="matrix" values="0 0 0 0 0 0 0 0 0 0 0 0 0 0 0 0 0 0 127 0" result="hardAlpha"/>
<feOffset dy="4"/>
<feComposite in2="hardAlpha" operator="out"/>
<feColorMatrix type="matrix" values="0 0 0 0 0 0 0 0 0 0 0 0 0 0 0 0 0 0 0.25 0"/>
<feBlend mode="normal" in2="BackgroundImageFix" result="effect1_dropShadow_762_1797"/>
<feBlend mode="normal" in="SourceGraphic" in2="effect1_dropShadow_762_1797" result="shape"/>
</filter>
<linearGradient id="paint0_linear_762_1797" x1="281.397" y1="138.422" x2="181.315" y2="145.571" gradientUnits="userSpaceOnUse">
<stop stop-color="#E4EBFF"/>
<stop offset="1" stop-color="white"/>
</linearGradient>
<radialGradient id="paint1_radial_762_1797" cx="0" cy="0" r="1" gradientUnits="userSpaceOnUse" gradientTransform="translate(271.494 177.894) scale(51.767 51.5468)">
<stop offset="0.26" stop-color="#13002A"/>
<stop offset="0.6" stop-color="#FA397A"/>
<stop offset="1" stop-color="#13002A"/>
</radialGradient>
<linearGradient id="paint2_linear_762_1797" x1="213.202" y1="225.812" x2="348.898" y2="135.564" gradientUnits="userSpaceOnUse">
<stop stop-color="#DEE5FA"/>
<stop offset="0.755208" stop-color="white"/>
<stop offset="1" stop-color="#DFE7FC"/>
</linearGradient>
<radialGradient id="paint3_radial_762_1797" cx="0" cy="0" r="1" gradientUnits="userSpaceOnUse" gradientTransform="translate(263.708 188.835) scale(100.373 99.9458)">
<stop offset="0.09" stop-color="#1DBFFF"/>
<stop offset="0.13" stop-color="#22ADF5"/>
<stop offset="0.29" stop-color="#365AC6"/>
<stop offset="0.37" stop-color="#3E39B4"/>
<stop offset="0.4" stop-color="#412EAE"/>
<stop offset="0.47" stop-color="#4715A0"/>
<stop offset="0.54" stop-color="#4C0597"/>
<stop offset="0.6" stop-color="#4D0094"/>
<stop offset="0.83" stop-color="#2A0055"/>
<stop offset="1" stop-color="#13002A"/>
</radialGradient>
<linearGradient id="paint4_linear_762_1797" x1="337.395" y1="190.846" x2="262.929" y2="248.036" gradientUnits="userSpaceOnUse">
<stop offset="0.213542" stop-color="#E2E9FE"/>
<stop offset="0.854167" stop-color="white"/>
</linearGradient>
<linearGradient id="paint5_linear_762_1797" x1="236.431" y1="228.261" x2="342.982" y2="144.763" gradientUnits="userSpaceOnUse">
<stop offset="0.01" stop-color="#241335" stop-opacity="0"/>
<stop offset="0.03" stop-color="#241335" stop-opacity="0.3"/>
<stop offset="0.06" stop-color="#241335" stop-opacity="0.61"/>
<stop offset="0.1" stop-color="#241335" stop-opacity="0.84"/>
<stop offset="0.15" stop-color="#241335" stop-opacity="0.96"/>
<stop offset="0.29" stop-color="#241335"/>
<stop offset="0.41" stop-color="#241335" stop-opacity="0.96"/>
<stop offset="0.45" stop-color="#241335" stop-opacity="0.84"/>
<stop offset="0.48" stop-color="#241335" stop-opacity="0.61"/>
<stop offset="0.5" stop-color="#241335" stop-opacity="0.3"/>
<stop offset="0.52" stop-color="#241335" stop-opacity="0"/>
<stop offset="0.58" stop-color="#241335" stop-opacity="0.06"/>
<stop offset="0.63" stop-color="#241335" stop-opacity="0.25"/>
<stop offset="0.67" stop-color="#241335" stop-opacity="0.58"/>
<stop offset="0.72" stop-color="#241335"/>
<stop offset="0.86" stop-color="#241335" stop-opacity="0.96"/>
<stop offset="0.91" stop-color="#241335" stop-opacity="0.84"/>
<stop offset="0.95" stop-color="#241335" stop-opacity="0.61"/>
<stop offset="0.98" stop-color="#241335" stop-opacity="0.3"/>
<stop offset="1" stop-color="#241335" stop-opacity="0"/>
</linearGradient>
<linearGradient id="paint6_linear_762_1797" x1="231.187" y1="221.97" x2="232.412" y2="209.527" gradientUnits="userSpaceOnUse">
<stop stop-color="white"/>
<stop offset="0.54" stop-color="#D1D3D4"/>
<stop offset="1" stop-color="#A7A9AC"/>
</linearGradient>
<linearGradient id="paint7_linear_762_1797" x1="189.392" y1="163.738" x2="248.988" y2="193.422" gradientUnits="userSpaceOnUse">
<stop stop-color="#DEE5FA"/>
<stop offset="0.432208" stop-color="white"/>
<stop offset="1" stop-color="#DFE6FB"/>
</linearGradient>
<linearGradient id="paint8_linear_762_1797" x1="83377.6" y1="39617.1" x2="78867" y2="39487.7" gradientUnits="userSpaceOnUse">
<stop stop-color="white"/>
<stop offset="1" stop-color="white" stop-opacity="0"/>
</linearGradient>
<radialGradient id="paint9_radial_762_1797" cx="0" cy="0" r="1" gradientUnits="userSpaceOnUse" gradientTransform="translate(-770474 229530) rotate(169.888) scale(8615.27 1382.25)">
<stop offset="0.02" stop-color="#AAFDFF"/>
<stop offset="0.06" stop-color="#BB55FF"/>
<stop offset="0.09" stop-color="#AB41FA"/>
<stop offset="0.14" stop-color="#901EF1"/>
<stop offset="0.19" stop-color="#7F08EB"/>
<stop offset="0.22" stop-color="#7900E9"/>
<stop offset="0.27" stop-color="#6100BA"/>
<stop offset="0.33" stop-color="#4A008F"/>
<stop offset="0.4" stop-color="#360068"/>
<stop offset="0.46" stop-color="#250048"/>
<stop offset="0.54" stop-color="#18002E"/>
<stop offset="0.62" stop-color="#0D0019"/>
<stop offset="0.71" stop-color="#06000B"/>
<stop offset="0.82" stop-color="#010003"/>
<stop offset="1"/>
</radialGradient>
<clipPath id="clip0_762_1797">
<rect width="98.7384" height="52.0621" fill="white" transform="translate(333.496 85.9102) rotate(17.096)"/>
</clipPath>
<clipPath id="clip1_762_1797">
<rect width="28.5949" height="27.4035" fill="white" transform="translate(59.7861 59.7871)"/>
</clipPath>
</defs>
</svg>
