<svg width="438" height="271" viewBox="0 0 438 271" fill="none" xmlns="http://www.w3.org/2000/svg">
<g filter="url(#filter0_d_0_1)">
<rect x="30" y="30" width="378" height="211" rx="10" fill="#08216E"/>
</g>
<path d="M59.4 94.92C58.6 96.04 57.32 96.78 55.82 96.78C53.32 96.78 51.44 94.72 51.44 92.14C51.44 89.58 53.32 87.48 55.82 87.48C57.28 87.48 58.52 88.2 59.32 89.24L61.36 87.78C60.16 86.1 58.16 85.06 55.82 85.06C51.9 85.06 48.88 88.24 48.88 92.14C48.88 96.02 51.9 99.2 55.82 99.2C58.22 99.2 60.22 98.1 61.42 96.4L59.4 94.92ZM65.6872 95.7C65.6872 93.22 66.3672 91.74 68.0272 91.74C68.2672 91.74 68.8672 91.74 69.4472 92L69.8672 89.8C69.4872 89.58 68.9872 89.46 68.3272 89.46C67.2672 89.46 66.1672 90.16 65.6872 91.86V89.66H63.2472V99H65.6872V95.7ZM73.8898 89.66H71.4698V99H73.8898V89.66ZM71.1098 86.04C71.1098 86.9 71.8298 87.52 72.6898 87.52C73.5498 87.52 74.2298 86.9 74.2298 86.04C74.2298 85.22 73.5498 84.58 72.6898 84.58C71.8298 84.58 71.1098 85.22 71.1098 86.04ZM76.0456 94.3C76.0456 97.24 78.4056 99.2 81.0856 99.2C82.6856 99.2 84.1056 98.54 84.9856 97.36L83.0256 95.92C82.5656 96.54 81.8656 96.86 81.0856 96.86C79.7256 96.86 78.4656 95.82 78.4656 94.3C78.4656 92.78 79.7256 91.82 81.0856 91.82C81.8656 91.82 82.5656 92.12 83.0256 92.74L84.9656 91.28C84.0856 90.1 82.6656 89.46 81.0856 89.46C78.4056 89.46 76.0456 91.34 76.0456 94.3ZM91.8763 84.58C89.2363 84.58 87.8963 86.18 87.8963 88.92V89.66H86.1163V91.62H87.8963V99H90.3563V91.62H92.3363V89.66H90.3563V88.92C90.3563 87.78 90.7363 86.92 91.8763 86.92H95.1363V99H97.5763V84.58H91.8763ZM102.757 89.66H100.337V99H102.757V89.66ZM99.977 86.04C99.977 86.9 100.697 87.52 101.557 87.52C102.417 87.52 103.097 86.9 103.097 86.04C103.097 85.22 102.417 84.58 101.557 84.58C100.697 84.58 99.977 85.22 99.977 86.04ZM107.953 93.92L104.273 99H107.113L109.333 95.88L111.533 99H114.373L110.713 93.92L113.773 89.66H110.913L109.353 91.96L107.753 89.66H104.893L107.953 93.92Z" fill="white"/>
<g filter="url(#filter1_d_0_1)">
<path d="M260.816 124.326C260.816 124.326 234.356 102.309 190.323 102.508C160.558 102.508 155.972 114.979 157.209 120.63C157.209 120.63 156.835 127.623 163.037 133.594C165.101 131.534 191.992 118.361 241.595 138.532C241.595 138.532 249.45 134.003 251.929 131.534C254.409 129.065 260.816 124.326 260.816 124.326Z" fill="url(#paint0_linear_0_1)"/>
</g>
<path d="M282.09 126.528L271.724 119.771C270.049 118.493 268.006 117.783 265.896 117.748V118.067V117.763C263.903 117.78 261.972 118.451 260.4 119.671C252.893 125.296 249.345 130.822 237.352 136.446C225.359 142.071 211.197 139.843 201.963 141.872C192.729 143.901 183.285 158.736 183.285 171.328C183.285 178.431 185.996 183.673 190.192 186.064L197.204 190.52C208.981 179.291 251.387 140.085 282.09 126.528Z" fill="url(#paint1_radial_0_1)"/>
<path d="M284.264 127.833L273.898 121.081C272.226 119.801 270.185 119.09 268.076 119.052C266.076 119.046 264.135 119.721 262.574 120.966C250.834 130.176 253.624 134.239 241.658 139.864C229.692 145.489 220.721 139.423 204.137 143.166C194.914 145.263 185.464 160.036 185.464 172.622C185.464 179.731 188.17 184.967 192.366 187.358L199.378 191.814C211.155 180.596 253.556 141.363 284.264 127.833Z" fill="#0A0A0A"/>
<g filter="url(#filter2_d_0_1)">
<path d="M279.316 124.62C277.641 123.34 275.598 122.629 273.488 122.591C271.494 122.609 269.562 123.282 267.991 124.504C260.484 130.124 256.936 135.654 244.938 141.279C232.94 146.904 218.789 144.676 209.555 146.705C200.321 148.734 190.876 163.574 190.876 176.161C190.876 183.264 193.582 188.506 197.778 190.896L223.269 207.09L237.936 178.682C238.305 178.525 238.668 178.378 239.036 178.247L267.144 168.287C277.257 164.696 304.97 141.468 304.97 141.468L279.316 124.62Z" fill="url(#paint2_linear_0_1)"/>
</g>
<path d="M296.399 135.791C294.724 134.524 292.685 133.825 290.582 133.793V134.098L290.55 134.129L290.582 134.098V133.793C288.589 133.81 286.657 134.481 285.086 135.702C277.578 141.321 274.03 146.852 262.032 152.477C250.034 158.101 235.883 155.874 226.649 157.902C217.415 159.931 207.97 174.766 207.97 187.358C207.97 194.461 210.676 199.698 214.877 202.094L223.411 207.651L223.58 207.394L229.513 200.851L255.014 189.843C255.383 189.686 255.752 189.539 256.115 189.408L284.228 179.448C294.336 175.857 302.701 162.552 302.701 150.06V150.013C302.701 144.577 304.733 141.625 304.733 141.625L304.849 141.421L296.399 135.791Z" fill="#0A0A0A"/>
<path d="M294.13 185.99L266.023 195.977C265.654 196.108 265.286 196.249 264.917 196.407L236.32 208.757C226.212 213.113 217.852 206.388 217.847 193.901C217.847 181.32 226.344 167.921 236.525 164.45C236.525 164.45 254.583 159.947 266.57 154.322C278.558 148.697 293.946 141.794 293.946 141.794C304.117 137.296 312.583 144.006 312.583 156.571V156.624C312.604 169.1 304.238 182.405 294.13 185.99Z" fill="#0A0A0A"/>
<path d="M293.546 185.597L266.212 195.305C265.861 195.431 265.51 195.572 265.159 195.73L237.33 207.708C227.501 211.944 219.368 205.407 219.368 193.266C219.368 181.025 227.623 167.999 237.53 164.623C237.53 164.623 255.088 160.245 266.749 154.773C278.41 149.3 293.388 142.59 293.388 142.59C303.28 138.218 311.508 144.744 311.508 156.964V157.016C311.508 169.168 303.375 182.105 293.546 185.597Z" fill="url(#paint3_radial_0_1)"/>
<path d="M293.546 185.597L266.212 195.305C265.861 195.431 265.51 195.572 265.159 195.73L237.33 207.708C227.501 211.944 219.368 205.407 219.368 193.266C219.368 181.025 227.623 167.999 237.53 164.623C237.53 164.623 255.088 160.245 266.749 154.773C278.41 149.3 293.388 142.59 293.388 142.59C303.28 138.218 311.508 144.744 311.508 156.964V157.016C311.508 169.168 303.374 182.105 293.546 185.597Z" fill="url(#paint4_linear_0_1)"/>
<g filter="url(#filter3_d_0_1)">
<path d="M295.03 136.378H294.999C293.538 135.255 291.753 134.628 289.908 134.591C288.188 134.609 286.522 135.194 285.17 136.253C282.838 137.998 280.848 139.775 278.926 141.495C274.667 145.301 270.266 149.237 261.9 153.164C254.004 156.865 245.296 157.258 237.615 157.604C233.403 157.793 229.476 157.971 226.254 158.652C222.227 159.538 217.736 163.37 214.23 168.875C213.283 170.369 212.44 171.926 211.708 173.535L217.941 176.885C218.38 177.122 218.717 177.511 218.886 177.979C219.054 178.447 219.044 178.961 218.857 179.422C217.999 181.545 216.657 185.424 216.441 189.319C216.421 189.662 216.313 189.995 216.127 190.285C215.942 190.575 215.685 190.813 215.381 190.976C215.077 191.138 214.736 191.221 214.391 191.216C214.045 191.21 213.707 191.117 213.408 190.944C211.903 190.074 210.097 188.978 208.57 187.893C208.797 193.822 211.045 198.409 214.83 200.564H214.862H214.893L220.631 204.296C218.578 201.329 217.473 197.366 217.473 192.8C217.473 179.936 225.996 166.563 236.478 162.988H236.525H236.578C236.752 162.946 254.151 158.579 265.565 153.222C277.105 147.806 292.077 141.096 292.23 141.028C294.264 140.091 296.474 139.591 298.716 139.56C299.164 139.559 299.612 139.582 300.058 139.629L295.03 136.378Z" fill="url(#paint5_linear_0_1)" shape-rendering="crispEdges"/>
</g>
<path d="M206.833 165.357L200.405 161.362C200.153 161.207 199.871 161.106 199.578 161.066C199.284 161.027 198.986 161.049 198.701 161.132C198.417 161.215 198.154 161.357 197.929 161.549C197.703 161.74 197.521 161.977 197.393 162.243C195.188 166.861 193.814 171.983 193.814 176.785C193.811 177.868 193.879 178.95 194.019 180.024C194.06 180.33 194.169 180.623 194.338 180.882C194.506 181.142 194.73 181.361 194.993 181.524L200.547 184.978C200.867 185.175 201.234 185.283 201.61 185.29C201.986 185.298 202.357 185.205 202.685 185.021C203.012 184.838 203.285 184.57 203.474 184.247C203.662 183.923 203.761 183.555 203.758 183.18V183.138C203.758 178.158 205.232 172.827 207.591 168.078C207.828 167.611 207.881 167.074 207.741 166.571C207.601 166.068 207.277 165.635 206.833 165.357Z" fill="url(#paint6_linear_0_1)"/>
<path d="M207.928 165.472L201.5 161.698C201.25 161.549 200.972 161.453 200.683 161.414C200.394 161.376 200.1 161.395 199.819 161.473C199.538 161.55 199.276 161.684 199.048 161.865C198.821 162.046 198.632 162.271 198.494 162.526C196.283 166.893 194.909 171.737 194.909 176.277C194.908 177.299 194.977 178.32 195.114 179.333C195.156 179.628 195.266 179.91 195.435 180.156C195.604 180.402 195.827 180.607 196.088 180.753L201.642 184.019C201.955 184.212 202.314 184.32 202.682 184.331C203.05 184.343 203.414 184.259 203.739 184.086C204.064 183.914 204.338 183.66 204.534 183.349C204.729 183.038 204.839 182.682 204.853 182.316V182.279C204.853 177.561 206.333 172.534 208.691 168.041C208.923 167.598 208.973 167.082 208.83 166.603C208.688 166.124 208.365 165.719 207.928 165.472Z" fill="white"/>
<path d="M208.544 165.86L202.137 162.311C201.631 162.027 201.034 161.95 200.472 162.095C199.91 162.241 199.427 162.599 199.125 163.093C196.914 167.197 195.546 171.753 195.546 176.015C195.542 176.978 195.611 177.94 195.751 178.893C195.797 179.175 195.908 179.443 196.076 179.675C196.245 179.907 196.465 180.097 196.72 180.229L202.279 183.301C203.685 184.077 205.49 183.17 205.485 181.697V181.66C205.485 177.236 206.964 172.497 209.323 168.277C209.437 168.069 209.508 167.839 209.53 167.603C209.553 167.367 209.527 167.128 209.454 166.902C209.381 166.676 209.263 166.467 209.106 166.288C208.95 166.109 208.759 165.964 208.544 165.86Z" fill="white"/>
<g filter="url(#filter4_d_0_1)">
<path d="M187.296 173.398C187.296 173.398 187.712 162.075 196.804 151.785C196.804 151.785 160.031 139.728 157.12 120.038C156.909 118.623 157.041 147.177 157.041 147.177C157.041 147.177 158.357 160.005 187.296 173.398Z" fill="url(#paint7_linear_0_1)"/>
</g>
<path d="M196.973 151.785C197.331 151.397 196.531 149.337 194.693 150.967C192.624 153.064 186.612 161.577 185.57 172.502C185.333 174.137 187.228 174.457 187.46 173.398C187.46 173.398 188.755 160.529 196.973 151.785Z" fill="#2B2B2B"/>
<g style="mix-blend-mode:soft-light">
<path style="mix-blend-mode:soft-light" d="M224.901 146.375L225.259 142.941L225.712 139.513C225.885 138.37 226.096 137.227 226.291 136.089C226.486 134.952 226.744 133.809 226.975 132.672C227.944 128.075 229.308 123.569 231.05 119.204L231.734 117.553C231.982 117.029 232.261 116.473 232.498 115.928C232.987 114.838 233.598 113.789 234.167 112.725C234.456 112.201 234.798 111.677 235.114 111.152L235.599 110.377C235.762 110.12 235.951 109.852 236.125 109.622C236.488 109.097 236.836 108.615 237.209 108.122L238.41 106.691C238.607 106.445 238.819 106.212 239.047 105.994L239.715 105.323C239.942 105.103 240.147 104.867 240.389 104.657L241.132 104.039L241.869 103.425C242.121 103.221 242.395 103.053 242.664 102.865C242.932 102.676 243.19 102.492 243.48 102.34L244.343 101.863C246.69 100.561 249.374 99.9882 252.05 100.217C254.582 100.512 256.999 101.431 259.084 102.891C261.04 104.259 262.797 105.889 264.306 107.735C267.198 111.341 269.571 115.333 271.355 119.592C274.972 128.011 277.015 136.965 278.242 146.008C279.421 155.115 279.687 164.317 279.036 173.477C278.71 178.103 278.126 182.707 277.289 187.269C276.878 189.56 276.367 191.845 275.809 194.12C275.251 196.396 274.572 198.655 273.809 200.899C272.319 205.461 270.303 209.836 267.802 213.936C266.485 216.038 264.944 217.992 263.206 219.765C261.429 221.623 259.304 223.117 256.952 224.163C255.749 224.677 254.477 225.012 253.177 225.159C251.9 225.291 250.611 225.224 249.355 224.96C246.976 224.421 244.756 223.335 242.874 221.789C239.189 218.843 236.609 214.974 234.509 210.979C235.642 212.95 236.929 214.829 238.357 216.599C239.071 217.488 239.834 218.337 240.642 219.141C241.451 219.954 242.321 220.706 243.243 221.39C245.099 222.816 247.261 223.795 249.56 224.253C250.735 224.46 251.936 224.486 253.119 224.331C254.312 224.163 255.473 223.822 256.567 223.319C258.756 222.285 260.723 220.838 262.358 219.057C263.982 217.318 265.414 215.409 266.628 213.364C268.982 209.317 270.868 205.017 272.25 200.547C273.634 196.142 274.714 191.648 275.483 187.096C276.262 182.585 276.79 178.035 277.062 173.466C277.653 164.418 277.354 155.333 276.167 146.343C274.999 137.431 272.982 128.588 269.513 120.337C267.833 116.201 265.581 112.319 262.822 108.804C261.423 107.058 259.794 105.508 257.978 104.196C256.146 102.862 254.009 102.005 251.761 101.701C251.476 101.659 251.192 101.669 250.903 101.648H250.476C250.329 101.648 250.187 101.648 250.044 101.648L249.181 101.706L248.323 101.863L247.891 101.947L247.47 102.073C247.191 102.162 246.907 102.235 246.628 102.33L245.812 102.671L245.401 102.838L245.012 103.053L244.227 103.473C243.969 103.619 243.701 103.798 243.474 103.955C243.248 104.112 242.948 104.275 242.737 104.479L242.042 105.045L241.342 105.606C241.11 105.795 240.91 106.015 240.689 106.22L240.042 106.796C239.821 106.998 239.614 107.213 239.421 107.441L238.247 108.788C237.873 109.255 237.531 109.737 237.194 110.209C237.02 110.45 236.83 110.681 236.667 110.927L236.183 111.671C235.862 112.196 235.52 112.662 235.225 113.171C234.646 114.219 234.019 115.21 233.519 116.274C233.256 116.798 232.993 117.322 232.729 117.847L232.008 119.456C230.134 123.751 228.63 128.196 227.512 132.745C227.249 133.872 226.986 134.999 226.712 136.131L226.022 139.534L225.417 142.946L224.901 146.375Z" fill="url(#paint8_linear_0_1)"/>
</g>
<path style="mix-blend-mode:screen" d="M247.713 181.791C216.762 194.519 204.912 202.508 221.226 199.646C237.541 196.784 275.867 184.145 306.818 171.422C337.768 158.699 349.619 150.705 333.299 153.567C316.979 156.429 278.658 169.068 247.713 181.791Z" fill="url(#paint9_radial_0_1)"/>
<g clip-path="url(#clip0_0_1)">
<path d="M335.296 120.867C341.438 110.509 338.325 97.1507 328.344 91.0297C318.362 84.9086 305.292 88.343 299.15 98.7005C293.009 109.058 296.122 122.417 306.103 128.538C316.085 134.659 329.155 131.224 335.296 120.867Z" fill="#E3185C"/>
<path d="M315.586 119.364C336.282 125.73 354.074 127.592 355.325 123.524C356.576 119.456 340.813 110.998 320.117 104.632C299.42 98.2666 281.628 96.4044 280.377 100.473C279.126 104.541 294.889 112.999 315.586 119.364Z" stroke="black" stroke-linecap="round" stroke-linejoin="round"/>
<path d="M309.396 118.919C305.566 117.741 303.674 123.873 307.509 125.053C311.344 126.233 313.231 120.099 309.396 118.919Z" fill="white"/>
<path d="M356.837 124.355C356.549 125.247 355.989 126.023 355.24 126.568C354.713 126.943 354.141 127.245 353.539 127.467C352.564 127.817 351.558 128.06 350.537 128.191C348.697 128.442 346.844 128.555 344.992 128.531C341.429 128.499 337.874 128.259 334.345 127.814C327.378 126.917 320.515 125.38 313.838 123.221C310.514 122.126 307.22 120.954 303.957 119.682C300.694 118.41 297.499 116.957 294.327 115.426C291.133 113.86 288.039 112.093 285.063 110.135C283.511 109.121 282.04 107.985 280.662 106.737C279.892 106.046 279.199 105.27 278.595 104.423C278.224 103.897 277.924 103.322 277.701 102.714C277.394 101.844 277.37 100.89 277.633 99.9947C277.946 99.1248 278.53 98.3813 279.294 97.8811C279.826 97.5429 280.401 97.2841 281.002 97.1127C281.975 96.8381 282.972 96.678 283.976 96.6355C285.79 96.5568 287.606 96.6174 289.407 96.8167C292.887 97.1976 296.34 97.7727 299.752 98.5395C303.15 99.2552 306.497 100.138 309.83 101.029C313.163 101.92 316.471 102.931 319.749 104C326.311 106.122 332.851 108.292 339.33 110.779C342.608 112.004 345.808 113.431 348.913 115.052C350.522 115.891 352.06 116.862 353.514 117.956C354.316 118.57 355.047 119.276 355.693 120.06C356.09 120.543 356.418 121.081 356.667 121.66C357.009 122.51 357.069 123.457 356.837 124.355ZM352.867 123.134C352.81 123.318 352.881 123.358 352.841 123.218C352.764 122.984 352.652 122.764 352.509 122.566C352.092 121.971 351.608 121.429 351.067 120.951C349.856 119.846 348.566 118.837 347.206 117.932C344.382 116.044 341.451 114.327 338.427 112.791C332.311 109.686 325.924 107.158 319.345 105.237C316.049 104.303 312.733 103.435 309.394 102.677C306.056 101.919 302.677 101.331 299.314 100.846C295.958 100.364 292.573 100.095 289.178 100.042C287.541 100.02 285.902 100.128 284.277 100.366C283.557 100.476 282.849 100.668 282.168 100.938C281.94 101.03 281.726 101.153 281.529 101.303C281.443 101.411 281.495 101.415 281.584 101.24C281.673 101.066 281.656 101.006 281.697 101.104C281.821 101.301 281.962 101.485 282.118 101.655C282.587 102.174 283.107 102.641 283.671 103.048C284.968 103.986 286.329 104.829 287.744 105.57C290.695 107.12 293.726 108.506 296.826 109.725C299.94 111 303.12 112.119 306.314 113.211C309.508 114.303 312.732 115.319 315.98 116.257C322.463 118.153 328.963 119.993 335.507 121.536C338.743 122.334 342.025 122.935 345.336 123.339C346.927 123.523 348.532 123.582 350.136 123.515C350.832 123.489 351.525 123.389 352.203 123.217C352.429 123.159 352.65 123.082 352.865 122.987C352.95 122.903 352.898 122.936 352.867 123.134Z" fill="#D7D7D7"/>
<path d="M296.997 103.802C298.685 98.3198 302.413 93.7114 307.362 90.9904C312.31 88.2693 318.074 87.6584 323.386 89.2921C334.444 92.6931 342.042 103.612 337.054 116.122" fill="#E3185C"/>
<path d="M307.966 100.169C304.903 99.2269 303.392 104.139 306.455 105.082C309.518 106.024 311.035 101.113 307.966 100.169Z" fill="white"/>
<path d="M320.771 88.2377C320.276 89.5014 320.575 91.1437 322.196 91.6422C322.537 91.7584 322.9 91.7931 323.258 91.7436C323.617 91.6941 323.961 91.5618 324.265 91.3566C324.569 91.1514 324.825 90.8787 325.014 90.5592C325.202 90.2397 325.318 89.8817 325.352 89.5123C323.888 88.8885 322.348 88.4602 320.771 88.2377Z" fill="white"/>
<path d="M327.597 97.979C327.34 97.9002 327.062 97.9297 326.823 98.0611C326.584 98.1925 326.404 98.4151 326.323 98.6798C326.241 98.9445 326.265 99.2297 326.389 99.4727C326.513 99.7156 326.726 99.8964 326.983 99.9753C327.239 100.054 327.518 100.025 327.757 99.8933C327.995 99.7618 328.175 99.5393 328.257 99.2746C328.338 99.0099 328.314 98.7246 328.191 98.4817C328.067 98.2387 327.853 98.0579 327.597 97.979Z" fill="white"/>
<path d="M331.285 109.886C327.455 108.708 325.563 114.84 329.398 116.02C333.234 117.199 335.12 111.066 331.285 109.886Z" fill="white"/>
<path d="M320.387 108.695C318.172 108.014 317.074 111.564 319.294 112.247C321.515 112.93 322.607 109.378 320.387 108.695Z" fill="white"/>
</g>
<g clip-path="url(#clip1_0_1)">
<path d="M75.7739 77.9979C75.027 77.9979 74.3031 77.748 73.7257 77.2905C73.1484 76.8331 72.7531 76.1966 72.6074 75.4894C72.4617 74.7822 72.5746 74.0481 72.9267 73.4122C73.2789 72.7763 73.8486 72.278 74.5387 72.0022C75.2288 71.7263 75.9966 71.6901 76.7114 71.8995C77.4261 72.109 78.0434 72.5512 78.4582 73.1508C78.8731 73.7505 79.0596 74.4704 78.9862 75.188C78.9127 75.9055 78.5838 76.5763 78.0554 77.0859C77.7561 77.3755 77.4004 77.6051 77.0089 77.7616C76.6174 77.9181 76.1977 77.9984 75.7739 77.9979Z" fill="white"/>
<path d="M58.2305 61.3773C57.4835 61.3773 56.7597 61.1273 56.1823 60.6699C55.6049 60.2125 55.2097 59.576 55.064 58.8688C54.9183 58.1616 55.0311 57.4275 55.3833 56.7916C55.7354 56.1557 56.3051 55.6574 56.9952 55.3816C57.6853 55.1057 58.4532 55.0695 59.1679 55.2789C59.8826 55.4884 60.5 55.9306 60.9148 56.5302C61.3296 57.1299 61.5162 57.8498 61.4427 58.5674C61.3693 59.2849 61.0403 59.9557 60.512 60.4653C60.2132 60.7556 59.8576 60.9856 59.466 61.1422C59.0743 61.2987 58.6543 61.3786 58.2305 61.3773Z" fill="white"/>
<path d="M75.6282 61.2864C74.8813 61.2856 74.1579 61.0348 73.5811 60.5767C73.0043 60.1186 72.6099 59.4817 72.4651 58.7744C72.3203 58.067 72.434 57.3331 72.7869 56.6977C73.1397 56.0622 73.7099 55.5646 74.4003 55.2895C75.0907 55.0144 75.8585 54.9789 76.573 55.189C77.2874 55.3992 77.9043 55.842 78.3184 56.442C78.7326 57.042 78.9184 57.762 78.8443 58.4795C78.7701 59.1969 78.4406 59.8673 77.9118 60.3765C77.6123 60.6664 77.2563 60.896 76.8644 61.0522C76.4724 61.2084 76.0522 61.288 75.6282 61.2864Z" fill="white"/>
<path d="M58.3144 77.9983C57.6757 77.9986 57.0512 77.816 56.52 77.4736C55.9888 77.1312 55.5748 76.6444 55.3303 76.0747C55.0858 75.5051 55.0219 74.8782 55.1466 74.2735C55.2713 73.6687 55.579 73.1133 56.0309 72.6775C56.1699 72.5439 56.3227 72.4243 56.4868 72.3206C56.5376 72.2854 56.5904 72.253 56.6449 72.2235C56.764 72.1561 56.8831 72.0966 56.994 72.0471C57.0556 72.0213 57.1172 71.9935 57.1829 71.9697C57.3096 71.9229 57.4393 71.8838 57.571 71.8528L57.6532 71.831L57.7045 71.8171L58.4233 71.7715C58.5136 71.7715 58.6101 71.7854 58.7149 71.7992H58.756H58.8463H58.8751H58.9079H58.9367H59.0948C60.358 71.782 61.5626 71.2815 62.4439 70.4077C63.3252 69.5339 63.8113 68.3581 63.7954 67.1386V67.1029V67.0672C63.7934 67.0335 63.7934 66.9998 63.7954 66.9661C63.7954 66.9265 63.7954 66.8868 63.7831 66.8472V66.7758C63.7831 66.7163 63.7708 66.6588 63.7666 66.5994L63.82 65.9016C63.8246 65.8848 63.8301 65.8682 63.8365 65.852L63.8488 65.8084C63.8792 65.6736 63.9197 65.5411 63.9699 65.4119C63.9921 65.3503 64.0182 65.29 64.048 65.2315C64.1037 65.1127 64.1661 64.9969 64.2349 64.8846C64.2657 64.837 64.2965 64.7874 64.3314 64.7379C64.4407 64.5796 64.5651 64.4316 64.7031 64.2958C65.0004 63.9956 65.357 63.7557 65.7517 63.5903C66.1464 63.425 66.5713 63.3374 67.0016 63.3327C67.4319 63.3281 67.8588 63.4064 68.2572 63.5633C68.6557 63.7201 69.0177 63.9521 69.3219 64.2459C69.6262 64.5396 69.8666 64.889 70.029 65.2737C70.1915 65.6583 70.2727 66.0704 70.2678 66.4858C70.263 66.9011 70.1723 67.3114 70.001 67.6924C69.8296 68.0735 69.5812 68.4176 69.2702 68.7047C69.1301 68.8371 68.9775 68.9566 68.8143 69.0615C68.7609 69.0972 68.7096 69.127 68.6582 69.1547C68.5456 69.2207 68.429 69.2803 68.3091 69.3331C68.2455 69.3609 68.1818 69.3886 68.1223 69.4104C67.9939 69.4554 67.8629 69.4932 67.73 69.5234L67.652 69.5433L67.6006 69.5571L66.8737 69.6067C66.7836 69.6025 66.6938 69.5939 66.6047 69.5809H66.541H66.4507H66.4014H66.3644H66.1775C65.5508 69.5884 64.9318 69.7152 64.3559 69.954C63.78 70.1929 63.2587 70.5391 62.8216 70.9727C62.3846 71.4064 62.0405 71.9191 61.809 72.4814C61.5776 73.0437 61.4633 73.6445 61.4728 74.2495V74.2832V74.3189C61.4783 74.3524 61.4817 74.3861 61.4831 74.42C61.4831 74.4597 61.4831 74.4993 61.4954 74.5389C61.4974 74.5755 61.5015 74.6119 61.5077 74.648C61.5077 74.6956 61.5077 74.7431 61.5077 74.7907V74.8066L61.4564 75.4746C61.4564 75.4885 61.4297 75.5658 61.4235 75.5896C61.3925 75.7208 61.3527 75.85 61.3044 75.9762C61.2828 76.0358 61.2575 76.0941 61.2284 76.1507C61.1709 76.2696 61.1114 76.3826 61.0416 76.4996C61.0108 76.5452 60.9759 76.6007 60.9389 76.6542C60.8295 76.8088 60.7065 76.9541 60.5713 77.0883C60.2723 77.3783 59.9167 77.6082 59.5251 77.7647C59.1335 77.9212 58.7136 78.0013 58.2898 78.0002L58.3144 77.9983Z" fill="white"/>
<path d="M67.0359 77.9981C66.3441 78.0051 65.6683 77.7966 65.109 77.4034C64.5497 77.0103 64.1367 76.4535 63.9312 75.8157C63.7257 75.1779 63.7388 74.4932 63.9685 73.8632C64.1982 73.2332 64.6322 72.6914 65.2062 72.3185C65.2555 72.2867 65.3068 72.257 65.3602 72.2273C65.4738 72.161 65.591 72.1008 65.7114 72.0469L65.8982 71.9696C66.0258 71.9254 66.1561 71.889 66.2884 71.8605L66.4157 71.8248L67.1468 71.7733C67.2331 71.7733 67.3255 71.7892 67.422 71.8011H67.4774H67.5719H67.6089H67.6315H67.8224C69.0846 71.7833 70.2879 71.2827 71.1681 70.4093C72.0482 69.5358 72.5333 68.3608 72.5169 67.1424V66.9977L72.5046 66.9818C72.5037 66.9765 72.5037 66.9712 72.5046 66.9659V66.8629L72.4922 66.7637C72.4922 66.7082 72.4779 66.6547 72.4758 66.5992L72.5251 65.9252C72.5251 65.9073 72.5538 65.8241 72.56 65.7983C72.5917 65.6686 72.6315 65.5408 72.6791 65.4157C72.7024 65.3542 72.7292 65.294 72.7592 65.2353C72.8144 65.1185 72.8761 65.0047 72.944 64.8943L72.9584 64.8705C72.983 64.8309 73.0077 64.7893 73.0364 64.7496C73.1472 64.5912 73.2723 64.4426 73.4102 64.3055C74.0163 63.721 74.838 63.3926 75.6948 63.3926C76.5516 63.3926 77.3733 63.721 77.9794 64.3055C78.5829 64.8917 78.9217 65.6845 78.9217 66.511C78.9217 67.3374 78.5829 68.1303 77.9794 68.7164C77.8375 68.8477 77.6843 68.9671 77.5214 69.0733L77.4146 69.1367L77.3571 69.1724C77.2477 69.2355 77.1346 69.2924 77.0183 69.3429C76.9526 69.3706 76.893 69.3984 76.8273 69.4222C76.6983 69.4669 76.5667 69.5039 76.433 69.5332L76.3509 69.555L76.2996 69.5689L75.5829 69.6164C75.4781 69.6164 75.3631 69.5986 75.2543 69.5847C75.2228 69.5832 75.1913 69.5832 75.1598 69.5847H75.127H75.0654H74.9052C74.2799 69.593 73.6624 69.7201 73.088 69.9589C72.5136 70.1976 71.9936 70.5432 71.5576 70.9761C71.1217 71.4089 70.7783 71.9204 70.5472 72.4813C70.3161 73.0423 70.2018 73.6417 70.2107 74.2454V74.2811V74.3148C70.2162 74.3502 70.2196 74.386 70.221 74.4218C70.221 74.4575 70.221 74.4932 70.2313 74.5289C70.2415 74.5645 70.2313 74.5963 70.2415 74.6319C70.2518 74.6676 70.2539 74.739 70.2559 74.7905L70.2025 75.4765L70.1717 75.5835C70.1407 75.7179 70.1009 75.8504 70.0526 75.98C70.0321 76.0355 70.0054 76.091 69.9807 76.1465L69.9705 76.1663C69.9167 76.2792 69.8564 76.3891 69.7898 76.4954C69.7569 76.5483 69.724 76.5998 69.6912 76.65C69.5805 76.8078 69.4554 76.9558 69.3174 77.0921C69.0182 77.3814 68.6624 77.6104 68.2708 77.7659C67.8791 77.9214 67.4594 78.0004 67.0359 77.9981Z" fill="white"/>
<path d="M58.3165 69.5826C57.6778 69.5833 57.0533 69.4012 56.5219 69.0592C55.9905 68.7172 55.5762 68.2307 55.3313 67.6613C55.0863 67.0919 55.0219 66.4651 55.1461 65.8604C55.2702 65.2556 55.5775 64.7 56.0288 64.2638C56.1693 64.1304 56.3227 64.0103 56.4868 63.905L56.6469 63.8078C56.7578 63.7444 56.8728 63.6869 56.994 63.6314C57.0556 63.6036 57.1172 63.5779 57.1829 63.5541C57.3098 63.5099 57.4394 63.4735 57.571 63.445L57.6511 63.4232L57.6963 63.4094L58.4274 63.3598C58.5218 63.3598 58.6327 63.3757 58.7334 63.3895H58.756H58.8504H58.8833H58.9141H58.9428H59.1051C59.7302 63.381 60.3475 63.2537 60.9216 63.0148C61.4958 62.776 62.0156 62.4303 62.4513 61.9975C62.887 61.5647 63.2302 61.0533 63.4612 60.4925C63.6921 59.9316 63.8064 59.3323 63.7975 58.7289V58.6952V58.6615C63.7903 58.6235 63.7862 58.5851 63.7851 58.5465V58.4513L63.7728 58.3542C63.7643 58.297 63.7588 58.2395 63.7564 58.1817L63.8057 57.5275V57.5117V57.4978L63.8365 57.3967C63.8674 57.2622 63.9072 57.1298 63.9556 57.0002C63.9782 56.9407 64.0069 56.8813 64.0357 56.8198C64.0904 56.7028 64.1521 56.589 64.2205 56.4788V56.461C64.2492 56.4174 64.2759 56.3718 64.3088 56.3262C64.4166 56.1698 64.5397 56.0238 64.6764 55.8901C64.9736 55.5897 65.33 55.3497 65.7246 55.1842C66.1193 55.0186 66.5442 54.9308 66.9745 54.926C67.4047 54.9212 67.8317 54.9993 68.2302 55.156C68.6287 55.3126 68.9908 55.5445 69.2952 55.8381C69.5996 56.1317 69.8402 56.4811 70.0028 56.8656C70.1654 57.2502 70.2468 57.6623 70.2422 58.0776C70.2375 58.493 70.147 58.9033 69.9759 59.2844C69.8047 59.6655 69.5564 60.0098 69.2456 60.297C69.1059 60.4299 68.9532 60.5494 68.7897 60.6538C68.7404 60.6875 68.6973 60.7113 68.6541 60.7371L68.6295 60.7509C68.5104 60.8183 68.3954 60.8778 68.2845 60.9274C68.2188 60.9551 68.1592 60.9829 68.0956 61.0047C67.9667 61.0501 67.835 61.0879 67.7013 61.1177C67.6728 61.1235 67.6447 61.1308 67.6171 61.1395L67.5657 61.1534L66.849 61.201C66.7587 61.201 66.6622 61.1851 66.5615 61.1732H66.5164H66.424H66.387H66.3644H66.1714C65.5457 61.181 64.9278 61.3077 64.3529 61.5462C63.7781 61.7847 63.2575 62.1303 62.8212 62.5632C62.3848 62.996 62.0411 63.5077 61.8097 64.0689C61.5783 64.6302 61.4639 65.2299 61.4728 65.8339V65.8676V65.9013C61.48 65.9366 61.4841 65.9724 61.4851 66.0083C61.4851 66.044 61.4851 66.0817 61.4851 66.1173C61.4851 66.153 61.4851 66.1828 61.4975 66.2204C61.5046 66.2717 61.5087 66.3233 61.5098 66.3751L61.4728 67.055C61.4728 67.0729 61.4728 67.0907 61.4584 67.1086L61.44 67.17C61.4093 67.3043 61.3702 67.4367 61.3229 67.5665C61.3003 67.626 61.2695 67.6854 61.2408 67.7489C61.1873 67.8641 61.1277 67.9766 61.0621 68.0859C61.0292 68.1394 60.9964 68.191 60.9635 68.2385C60.8553 68.3969 60.7308 68.5444 60.5918 68.6786C60.2933 68.9686 59.9381 69.1986 59.5468 69.3551C59.1555 69.5116 58.7359 69.5917 58.3124 69.5905L58.3165 69.5826Z" fill="white"/>
</g>
<defs>
<filter id="filter0_d_0_1" x="0" y="0" width="438" height="271" filterUnits="userSpaceOnUse" color-interpolation-filters="sRGB">
<feFlood flood-opacity="0" result="BackgroundImageFix"/>
<feColorMatrix in="SourceAlpha" type="matrix" values="0 0 0 0 0 0 0 0 0 0 0 0 0 0 0 0 0 0 127 0" result="hardAlpha"/>
<feMorphology radius="10" operator="dilate" in="SourceAlpha" result="effect1_dropShadow_0_1"/>
<feOffset/>
<feGaussianBlur stdDeviation="10"/>
<feComposite in2="hardAlpha" operator="out"/>
<feColorMatrix type="matrix" values="0 0 0 0 0.341176 0 0 0 0 0.501961 0 0 0 0 1 0 0 0 0.2 0"/>
<feBlend mode="normal" in2="BackgroundImageFix" result="effect1_dropShadow_0_1"/>
<feBlend mode="normal" in="SourceGraphic" in2="effect1_dropShadow_0_1" result="shape"/>
</filter>
<filter id="filter1_d_0_1" x="157.031" y="102.507" width="103.785" height="40.0254" filterUnits="userSpaceOnUse" color-interpolation-filters="sRGB">
<feFlood flood-opacity="0" result="BackgroundImageFix"/>
<feColorMatrix in="SourceAlpha" type="matrix" values="0 0 0 0 0 0 0 0 0 0 0 0 0 0 0 0 0 0 127 0" result="hardAlpha"/>
<feOffset dy="4"/>
<feComposite in2="hardAlpha" operator="out"/>
<feColorMatrix type="matrix" values="0 0 0 0 0 0 0 0 0 0 0 0 0 0 0 0 0 0 0.25 0"/>
<feBlend mode="normal" in2="BackgroundImageFix" result="effect1_dropShadow_0_1"/>
<feBlend mode="normal" in="SourceGraphic" in2="effect1_dropShadow_0_1" result="shape"/>
</filter>
<filter id="filter2_d_0_1" x="165.876" y="101.591" width="164.094" height="134.499" filterUnits="userSpaceOnUse" color-interpolation-filters="sRGB">
<feFlood flood-opacity="0" result="BackgroundImageFix"/>
<feColorMatrix in="SourceAlpha" type="matrix" values="0 0 0 0 0 0 0 0 0 0 0 0 0 0 0 0 0 0 127 0" result="hardAlpha"/>
<feOffset dy="4"/>
<feGaussianBlur stdDeviation="12.5"/>
<feComposite in2="hardAlpha" operator="out"/>
<feColorMatrix type="matrix" values="0 0 0 0 0 0 0 0 0 0 0 0 0 0 0 0 0 0 0.25 0"/>
<feBlend mode="normal" in2="BackgroundImageFix" result="effect1_dropShadow_0_1"/>
<feBlend mode="normal" in="SourceGraphic" in2="effect1_dropShadow_0_1" result="shape"/>
</filter>
<filter id="filter3_d_0_1" x="183.57" y="113.591" width="141.488" height="119.705" filterUnits="userSpaceOnUse" color-interpolation-filters="sRGB">
<feFlood flood-opacity="0" result="BackgroundImageFix"/>
<feColorMatrix in="SourceAlpha" type="matrix" values="0 0 0 0 0 0 0 0 0 0 0 0 0 0 0 0 0 0 127 0" result="hardAlpha"/>
<feOffset dy="4"/>
<feGaussianBlur stdDeviation="12.5"/>
<feComposite in2="hardAlpha" operator="out"/>
<feColorMatrix type="matrix" values="0 0 0 0 0 0 0 0 0 0 0 0 0 0 0 0 0 0 0.25 0"/>
<feBlend mode="normal" in2="BackgroundImageFix" result="effect1_dropShadow_0_1"/>
<feBlend mode="normal" in="SourceGraphic" in2="effect1_dropShadow_0_1" result="shape"/>
</filter>
<filter id="filter4_d_0_1" x="157" y="119.987" width="39.8042" height="57.4111" filterUnits="userSpaceOnUse" color-interpolation-filters="sRGB">
<feFlood flood-opacity="0" result="BackgroundImageFix"/>
<feColorMatrix in="SourceAlpha" type="matrix" values="0 0 0 0 0 0 0 0 0 0 0 0 0 0 0 0 0 0 127 0" result="hardAlpha"/>
<feOffset dy="4"/>
<feComposite in2="hardAlpha" operator="out"/>
<feColorMatrix type="matrix" values="0 0 0 0 0 0 0 0 0 0 0 0 0 0 0 0 0 0 0.25 0"/>
<feBlend mode="normal" in2="BackgroundImageFix" result="effect1_dropShadow_0_1"/>
<feBlend mode="normal" in="SourceGraphic" in2="effect1_dropShadow_0_1" result="shape"/>
</filter>
<linearGradient id="paint0_linear_0_1" x1="241" y1="121" x2="157" y2="127" gradientUnits="userSpaceOnUse">
<stop stop-color="#E4EBFF"/>
<stop offset="1" stop-color="white"/>
</linearGradient>
<radialGradient id="paint1_radial_0_1" cx="0" cy="0" r="1" gradientUnits="userSpaceOnUse" gradientTransform="translate(232.687 154.128) scale(43.4485 43.2637)">
<stop offset="0.26" stop-color="#13002A"/>
<stop offset="0.6" stop-color="#FA397A"/>
<stop offset="1" stop-color="#13002A"/>
</radialGradient>
<linearGradient id="paint2_linear_0_1" x1="183.762" y1="194.346" x2="297.653" y2="118.601" gradientUnits="userSpaceOnUse">
<stop stop-color="#DEE5FA"/>
<stop offset="0.755208" stop-color="white"/>
<stop offset="1" stop-color="#DFE7FC"/>
</linearGradient>
<radialGradient id="paint3_radial_0_1" cx="0" cy="0" r="1" gradientUnits="userSpaceOnUse" gradientTransform="translate(226.154 163.312) scale(84.2437 83.8854)">
<stop offset="0.09" stop-color="#1DBFFF"/>
<stop offset="0.13" stop-color="#22ADF5"/>
<stop offset="0.29" stop-color="#365AC6"/>
<stop offset="0.37" stop-color="#3E39B4"/>
<stop offset="0.4" stop-color="#412EAE"/>
<stop offset="0.47" stop-color="#4715A0"/>
<stop offset="0.54" stop-color="#4C0597"/>
<stop offset="0.6" stop-color="#4D0094"/>
<stop offset="0.83" stop-color="#2A0055"/>
<stop offset="1" stop-color="#13002A"/>
</radialGradient>
<linearGradient id="paint4_linear_0_1" x1="288" y1="165" x2="225.5" y2="213" gradientUnits="userSpaceOnUse">
<stop offset="0.213542" stop-color="#E2E9FE"/>
<stop offset="0.854167" stop-color="white"/>
</linearGradient>
<linearGradient id="paint5_linear_0_1" x1="203.258" y1="196.401" x2="292.687" y2="126.321" gradientUnits="userSpaceOnUse">
<stop offset="0.01" stop-color="#241335" stop-opacity="0"/>
<stop offset="0.03" stop-color="#241335" stop-opacity="0.3"/>
<stop offset="0.06" stop-color="#241335" stop-opacity="0.61"/>
<stop offset="0.1" stop-color="#241335" stop-opacity="0.84"/>
<stop offset="0.15" stop-color="#241335" stop-opacity="0.96"/>
<stop offset="0.29" stop-color="#241335"/>
<stop offset="0.41" stop-color="#241335" stop-opacity="0.96"/>
<stop offset="0.45" stop-color="#241335" stop-opacity="0.84"/>
<stop offset="0.48" stop-color="#241335" stop-opacity="0.61"/>
<stop offset="0.5" stop-color="#241335" stop-opacity="0.3"/>
<stop offset="0.52" stop-color="#241335" stop-opacity="0"/>
<stop offset="0.58" stop-color="#241335" stop-opacity="0.06"/>
<stop offset="0.63" stop-color="#241335" stop-opacity="0.25"/>
<stop offset="0.67" stop-color="#241335" stop-opacity="0.58"/>
<stop offset="0.72" stop-color="#241335"/>
<stop offset="0.86" stop-color="#241335" stop-opacity="0.96"/>
<stop offset="0.91" stop-color="#241335" stop-opacity="0.84"/>
<stop offset="0.95" stop-color="#241335" stop-opacity="0.61"/>
<stop offset="0.98" stop-color="#241335" stop-opacity="0.3"/>
<stop offset="1" stop-color="#241335" stop-opacity="0"/>
</linearGradient>
<linearGradient id="paint6_linear_0_1" x1="198.857" y1="191.122" x2="199.885" y2="180.679" gradientUnits="userSpaceOnUse">
<stop stop-color="white"/>
<stop offset="0.54" stop-color="#D1D3D4"/>
<stop offset="1" stop-color="#A7A9AC"/>
</linearGradient>
<linearGradient id="paint7_linear_0_1" x1="163.779" y1="142.247" x2="213.798" y2="167.161" gradientUnits="userSpaceOnUse">
<stop stop-color="#DEE5FA"/>
<stop offset="0.432208" stop-color="white"/>
<stop offset="1" stop-color="#DFE6FB"/>
</linearGradient>
<linearGradient id="paint8_linear_0_1" x1="69984.4" y1="33255.8" x2="66198.6" y2="33147.2" gradientUnits="userSpaceOnUse">
<stop stop-color="white"/>
<stop offset="1" stop-color="white" stop-opacity="0"/>
</linearGradient>
<radialGradient id="paint9_radial_0_1" cx="0" cy="0" r="1" gradientUnits="userSpaceOnUse" gradientTransform="translate(-646661 192651) rotate(169.888) scale(7230.87 1160.14)">
<stop offset="0.02" stop-color="#AAFDFF"/>
<stop offset="0.06" stop-color="#BB55FF"/>
<stop offset="0.09" stop-color="#AB41FA"/>
<stop offset="0.14" stop-color="#901EF1"/>
<stop offset="0.19" stop-color="#7F08EB"/>
<stop offset="0.22" stop-color="#7900E9"/>
<stop offset="0.27" stop-color="#6100BA"/>
<stop offset="0.33" stop-color="#4A008F"/>
<stop offset="0.4" stop-color="#360068"/>
<stop offset="0.46" stop-color="#250048"/>
<stop offset="0.54" stop-color="#18002E"/>
<stop offset="0.62" stop-color="#0D0019"/>
<stop offset="0.71" stop-color="#06000B"/>
<stop offset="0.82" stop-color="#010003"/>
<stop offset="1"/>
</radialGradient>
<clipPath id="clip0_0_1">
<rect width="82.8721" height="43.6962" fill="white" transform="translate(284.728 76.9263) rotate(17.096)"/>
</clipPath>
<clipPath id="clip1_0_1">
<rect width="24" height="23" fill="white" transform="translate(55 55)"/>
</clipPath>
</defs>
</svg>
