<svg width="88" height="88" viewBox="0 0 88 88" fill="none" xmlns="http://www.w3.org/2000/svg">
<circle cx="44" cy="44" r="44" fill="#E7EDFF"/>
<g clip-path="url(#clip0_0_1)">
<path d="M58.8462 34H30.2695C29.6007 34 29.0586 34.5421 29.0586 35.2109C29.0586 38.5831 30.5041 41.8025 33.0246 44.043L38.3279 48.7567C39.2475 49.574 39.7749 50.7485 39.7749 51.9791V63.7877C39.7749 64.7526 40.8534 65.3311 41.6573 64.795L48.8016 60.0323C49.1384 59.8076 49.3408 59.4297 49.3408 59.0248V51.9791C49.3408 50.7485 49.8683 49.574 50.7878 48.7567L56.0909 44.043C58.6114 41.8025 60.0569 38.5831 60.0569 35.2109C60.0569 34.5421 59.5148 34 58.8462 34ZM54.4819 42.2327L49.1788 46.9466C47.7427 48.2233 46.919 50.0575 46.919 51.9789V58.3767L42.1966 61.525V51.9791C42.1966 50.0575 41.3728 48.2233 39.9367 46.9466L34.6336 42.233C32.9341 40.7219 31.8492 38.6515 31.5588 36.4216H57.5568C57.2663 38.6515 56.1817 40.7219 54.4819 42.2327Z" fill="#000F3B"/>
</g>
<defs>
<clipPath id="clip0_0_1">
<rect width="31" height="31" fill="white" transform="translate(29 34)"/>
</clipPath>
</defs>
</svg>
