<svg width="88" height="88" viewBox="0 0 88 88" fill="none" xmlns="http://www.w3.org/2000/svg">
<circle cx="44" cy="44" r="44" fill="#E7EDFF"/>
<path d="M55.8125 63.6875H32.1875C31.1436 63.6864 30.1427 63.2711 29.4045 62.533C28.6664 61.7948 28.2511 60.7939 28.25 59.75V41.375C28.2511 40.3311 28.6664 39.3302 29.4045 38.592C30.1427 37.8539 31.1436 37.4386 32.1875 37.4375H55.8125C56.8564 37.4386 57.8573 37.8539 58.5955 38.592C59.3336 39.3302 59.7489 40.3311 59.75 41.375V45.3125C59.75 45.6606 59.6117 45.9944 59.3656 46.2406C59.1194 46.4867 58.7856 46.625 58.4375 46.625C58.0894 46.625 57.7556 46.4867 57.5094 46.2406C57.2633 45.9944 57.125 45.6606 57.125 45.3125V41.375C57.1245 41.027 56.9861 40.6935 56.7401 40.4474C56.494 40.2014 56.1605 40.063 55.8125 40.0625H32.1875C31.8395 40.063 31.506 40.2014 31.2599 40.4474C31.0139 40.6935 30.8755 41.027 30.875 41.375V59.75C30.8755 60.098 31.0139 60.4315 31.2599 60.6776C31.506 60.9236 31.8395 61.062 32.1875 61.0625H55.8125C56.1605 61.062 56.494 60.9236 56.7401 60.6776C56.9861 60.4315 57.1245 60.098 57.125 59.75V55.8125C57.125 55.4644 57.2633 55.1306 57.5094 54.8844C57.7556 54.6383 58.0894 54.5 58.4375 54.5C58.7856 54.5 59.1194 54.6383 59.3656 54.8844C59.6117 55.1306 59.75 55.4644 59.75 55.8125V59.75C59.7489 60.7939 59.3336 61.7948 58.5955 62.533C57.8573 63.2711 56.8564 63.6864 55.8125 63.6875Z" fill="#000F3B"/>
<path d="M61.0625 57.125H50.5625C49.5186 57.1239 48.5177 56.7086 47.7795 55.9705C47.0414 55.2323 46.6261 54.2314 46.625 53.1875V47.9375C46.6261 46.8936 47.0414 45.8927 47.7795 45.1545C48.5177 44.4164 49.5186 44.0011 50.5625 44H61.0625C62.1064 44.0011 63.1073 44.4164 63.8455 45.1545C64.5836 45.8927 64.9989 46.8936 65 47.9375V53.1875C64.9989 54.2314 64.5836 55.2323 63.8455 55.9705C63.1073 56.7086 62.1064 57.1239 61.0625 57.125ZM50.5625 46.625C50.2145 46.6255 49.881 46.7639 49.6349 47.0099C49.3889 47.256 49.2505 47.5895 49.25 47.9375V53.1875C49.2505 53.5355 49.3889 53.869 49.6349 54.1151C49.881 54.3611 50.2145 54.4995 50.5625 54.5H61.0625C61.4105 54.4995 61.744 54.3611 61.9901 54.1151C62.2361 53.869 62.3745 53.5355 62.375 53.1875V47.9375C62.3745 47.5895 62.2361 47.256 61.9901 47.0099C61.744 46.7639 61.4105 46.6255 61.0625 46.625H50.5625Z" fill="#000F3B"/>
<path d="M55.8125 40.0625H37.4375C37.0894 40.0625 36.7556 39.9242 36.5094 39.6781C36.2633 39.4319 36.125 39.0981 36.125 38.75V28.25C36.1261 27.2061 36.5414 26.2052 37.2795 25.467C38.0177 24.7289 39.0186 24.3136 40.0625 24.3125H53.1875C54.2314 24.3136 55.2323 24.7289 55.9705 25.467C56.7086 26.2052 57.1239 27.2061 57.125 28.25V38.75C57.125 39.0981 56.9867 39.4319 56.7406 39.6781C56.4944 39.9242 56.1606 40.0625 55.8125 40.0625ZM38.75 37.4375H54.5V28.25C54.4995 27.902 54.3611 27.5685 54.1151 27.3224C53.869 27.0764 53.5355 26.938 53.1875 26.9375H40.0625C39.7145 26.938 39.381 27.0764 39.1349 27.3224C38.8889 27.5685 38.7505 27.902 38.75 28.25V37.4375Z" fill="#000F3B"/>
<path d="M50.5625 40.0625H42.6875C42.3394 40.0625 42.0056 39.9242 41.7594 39.6781C41.5133 39.4319 41.375 39.0981 41.375 38.75V33.5C41.375 33.1519 41.5133 32.8181 41.7594 32.5719C42.0056 32.3258 42.3394 32.1875 42.6875 32.1875C43.0355 32.187 43.369 32.0486 43.6151 31.8026C43.8611 31.5565 43.9995 31.223 44 30.875C44 30.5269 44.1383 30.1931 44.3844 29.9469C44.6306 29.7008 44.9644 29.5625 45.3125 29.5625H47.9375C48.2856 29.5625 48.6194 29.7008 48.8656 29.9469C49.1117 30.1931 49.25 30.5269 49.25 30.875C49.2505 31.223 49.3889 31.5565 49.6349 31.8026C49.881 32.0486 50.2145 32.187 50.5625 32.1875C50.9106 32.1875 51.2444 32.3258 51.4906 32.5719C51.7367 32.8181 51.875 33.1519 51.875 33.5V38.75C51.875 39.0981 51.7367 39.4319 51.4906 39.6781C51.2444 39.9242 50.9106 40.0625 50.5625 40.0625ZM44 37.4375H49.25V34.5875C48.697 34.3906 48.1947 34.073 47.7796 33.6579C47.3645 33.2428 47.0469 32.7405 46.85 32.1875H46.4C46.2031 32.7405 45.8855 33.2428 45.4704 33.6579C45.0553 34.073 44.553 34.3906 44 34.5875V37.4375Z" fill="#000F3B"/>
<path d="M53.1875 51.875C53.9124 51.875 54.5 51.2874 54.5 50.5625C54.5 49.8376 53.9124 49.25 53.1875 49.25C52.4626 49.25 51.875 49.8376 51.875 50.5625C51.875 51.2874 52.4626 51.875 53.1875 51.875Z" fill="#000F3B"/>
</svg>
