<svg width="89" height="89" viewBox="0 0 89 89" fill="none" xmlns="http://www.w3.org/2000/svg">
<g filter="url(#filter0_d_0_1)">
<circle cx="44.5" cy="40.5" r="38.5" fill="#09216A"/>
</g>
<path fill-rule="evenodd" clip-rule="evenodd" d="M38.952 26.4213C40.516 26.3493 41.0147 26.3333 44.9987 26.3333C48.9827 26.3333 49.4814 26.3506 51.044 26.4213C52.6067 26.4919 53.6734 26.7413 54.6067 27.1026C55.584 27.4719 56.4707 28.0493 57.204 28.7959C57.9507 29.5279 58.5267 30.4133 58.8947 31.3919C59.2574 32.3253 59.5054 33.3919 59.5774 34.9519C59.6494 36.5186 59.6654 37.0173 59.6654 40.9999C59.6654 44.9839 59.648 45.4826 59.5774 47.0466C59.5067 48.6066 59.2574 49.6733 58.8947 50.6066C58.5267 51.5854 57.9497 52.4722 57.204 53.2052C56.4707 53.9519 55.584 54.5279 54.6067 54.8959C53.6734 55.2586 52.6067 55.5066 51.0467 55.5786C49.4814 55.6506 48.9827 55.6666 44.9987 55.6666C41.0147 55.6666 40.516 55.6493 38.952 55.5786C37.392 55.5079 36.3254 55.2586 35.392 54.8959C34.4133 54.5279 33.5265 53.9509 32.7934 53.2052C32.0472 52.4728 31.4698 51.5864 31.1014 50.6079C30.74 49.6746 30.492 48.6079 30.42 47.0479C30.348 45.4813 30.332 44.9826 30.332 40.9999C30.332 37.0159 30.3494 36.5173 30.42 34.9546C30.4907 33.3919 30.74 32.3253 31.1014 31.3919C31.4703 30.4134 32.0482 29.527 32.7947 28.7946C33.5268 28.0486 34.4127 27.4712 35.3907 27.1026C36.324 26.7413 37.3907 26.4933 38.9507 26.4213H38.952ZM50.9254 29.0613C49.3787 28.9906 48.9147 28.9759 44.9987 28.9759C41.0827 28.9759 40.6187 28.9906 39.072 29.0613C37.6414 29.1266 36.8654 29.3653 36.348 29.5666C35.664 29.8333 35.1747 30.1493 34.6614 30.6626C34.1748 31.136 33.8003 31.7123 33.5654 32.3493C33.364 32.8666 33.1254 33.6426 33.06 35.0733C32.9894 36.6199 32.9747 37.0839 32.9747 40.9999C32.9747 44.9159 32.9894 45.3799 33.06 46.9266C33.1254 48.3573 33.364 49.1333 33.5654 49.6506C33.8 50.2866 34.1747 50.8639 34.6614 51.3373C35.1347 51.8239 35.712 52.1986 36.348 52.4333C36.8654 52.6346 37.6414 52.8733 39.072 52.9386C40.6187 53.0093 41.0814 53.0239 44.9987 53.0239C48.916 53.0239 49.3787 53.0093 50.9254 52.9386C52.356 52.8733 53.132 52.6346 53.6494 52.4333C54.3334 52.1666 54.8227 51.8506 55.336 51.3373C55.8227 50.8639 56.1974 50.2866 56.432 49.6506C56.6334 49.1333 56.872 48.3573 56.9374 46.9266C57.008 45.3799 57.0227 44.9159 57.0227 40.9999C57.0227 37.0839 57.008 36.6199 56.9374 35.0733C56.872 33.6426 56.6334 32.8666 56.432 32.3493C56.1654 31.6653 55.8494 31.1759 55.336 30.6626C54.8626 30.176 54.2863 29.8015 53.6494 29.5666C53.132 29.3653 52.356 29.1266 50.9254 29.0613ZM43.1254 45.5212C44.1716 45.9568 45.3365 46.0155 46.4213 45.6875C47.506 45.3596 48.4432 44.6651 49.0728 43.7229C49.7025 42.7807 49.9854 41.6491 49.8734 40.5214C49.7614 39.3937 49.2614 38.3399 48.4587 37.5399C47.947 37.0286 47.3283 36.637 46.6471 36.3934C45.966 36.1499 45.2393 36.0604 44.5194 36.1314C43.7994 36.2024 43.1042 36.4322 42.4838 36.8041C41.8633 37.176 41.333 37.6809 40.9311 38.2824C40.5292 38.8839 40.2656 39.567 40.1594 40.2825C40.0532 40.9981 40.1069 41.7283 40.3168 42.4206C40.5266 43.1129 40.8873 43.7501 41.373 44.2862C41.8586 44.8224 42.4571 45.2442 43.1254 45.5212ZM39.668 35.6693C40.3681 34.9692 41.1991 34.4139 42.1138 34.0351C43.0284 33.6562 44.0087 33.4612 44.9987 33.4612C45.9887 33.4612 46.969 33.6562 47.8836 34.0351C48.7983 34.4139 49.6293 34.9692 50.3294 35.6693C51.0294 36.3693 51.5847 37.2003 51.9635 38.115C52.3424 39.0296 52.5374 40.0099 52.5374 40.9999C52.5374 41.9899 52.3424 42.9702 51.9635 43.8849C51.5847 44.7995 51.0294 45.6306 50.3294 46.3306C48.9156 47.7444 46.9981 48.5386 44.9987 48.5386C42.9993 48.5386 41.0818 47.7444 39.668 46.3306C38.2543 44.9168 37.46 42.9993 37.46 40.9999C37.46 39.0005 38.2543 37.083 39.668 35.6693ZM54.2094 34.5839C54.3828 34.4203 54.5217 34.2235 54.6178 34.0052C54.7138 33.7869 54.7651 33.5516 54.7686 33.3132C54.7721 33.0747 54.7277 32.838 54.638 32.617C54.5484 32.396 54.4153 32.1953 54.2466 32.0266C54.078 31.858 53.8773 31.7249 53.6563 31.6353C53.4353 31.5456 53.1986 31.5012 52.9601 31.5047C52.7217 31.5082 52.4863 31.5595 52.2681 31.6555C52.0498 31.7516 51.853 31.8904 51.6894 32.0639C51.3711 32.4013 51.1969 32.8494 51.2036 33.3132C51.2104 33.7769 51.3976 34.2198 51.7256 34.5477C52.0535 34.8757 52.4964 35.0629 52.9601 35.0696C53.4239 35.0764 53.872 34.9022 54.2094 34.5839Z" fill="white"/>
<defs>
<filter id="filter0_d_0_1" x="0" y="0" width="89" height="89" filterUnits="userSpaceOnUse" color-interpolation-filters="sRGB">
<feFlood flood-opacity="0" result="BackgroundImageFix"/>
<feColorMatrix in="SourceAlpha" type="matrix" values="0 0 0 0 0 0 0 0 0 0 0 0 0 0 0 0 0 0 127 0" result="hardAlpha"/>
<feMorphology radius="2" operator="dilate" in="SourceAlpha" result="effect1_dropShadow_0_1"/>
<feOffset dy="4"/>
<feGaussianBlur stdDeviation="2"/>
<feComposite in2="hardAlpha" operator="out"/>
<feColorMatrix type="matrix" values="0 0 0 0 0.341176 0 0 0 0 0.501961 0 0 0 0 1 0 0 0 0.5 0"/>
<feBlend mode="normal" in2="BackgroundImageFix" result="effect1_dropShadow_0_1"/>
<feBlend mode="normal" in="SourceGraphic" in2="effect1_dropShadow_0_1" result="shape"/>
</filter>
</defs>
</svg>
