<svg width="89" height="89" viewBox="0 0 89 89" fill="none" xmlns="http://www.w3.org/2000/svg">
<g filter="url(#filter0_d_0_1)">
<circle cx="44.5" cy="40.5" r="38.5" fill="#09216A"/>
</g>
<path d="M46.5555 55H40.3333V36.3333H46.5555V39.4444C47.2106 38.6111 48.0419 37.933 48.9899 37.4589C49.938 36.9847 50.9792 36.7263 52.0389 36.702C53.8921 36.7123 55.6657 37.4571 56.9706 38.7731C58.2756 40.0891 59.0054 41.8689 59 43.7222V55H52.7778V44.5C52.6574 43.6593 52.2375 42.8904 51.5952 42.3348C50.953 41.7792 50.1317 41.4742 49.2824 41.476C48.9023 41.488 48.5286 41.5767 48.1836 41.7367C47.8386 41.8967 47.5296 42.1248 47.2749 42.4072C47.0202 42.6896 46.8252 43.0206 46.7016 43.3802C46.578 43.7398 46.5283 44.1207 46.5555 44.5V55ZM37.2222 55H31V36.3333H37.2222V55ZM34.1111 33.2222C33.286 33.2222 32.4947 32.8944 31.9112 32.311C31.3278 31.7276 31 30.9362 31 30.1111C31 29.286 31.3278 28.4947 31.9112 27.9112C32.4947 27.3278 33.286 27 34.1111 27C34.9362 27 35.7275 27.3278 36.311 27.9112C36.8944 28.4947 37.2222 29.286 37.2222 30.1111C37.2222 30.9362 36.8944 31.7276 36.311 32.311C35.7275 32.8944 34.9362 33.2222 34.1111 33.2222Z" fill="white"/>
<defs>
<filter id="filter0_d_0_1" x="0" y="0" width="89" height="89" filterUnits="userSpaceOnUse" color-interpolation-filters="sRGB">
<feFlood flood-opacity="0" result="BackgroundImageFix"/>
<feColorMatrix in="SourceAlpha" type="matrix" values="0 0 0 0 0 0 0 0 0 0 0 0 0 0 0 0 0 0 127 0" result="hardAlpha"/>
<feMorphology radius="2" operator="dilate" in="SourceAlpha" result="effect1_dropShadow_0_1"/>
<feOffset dy="4"/>
<feGaussianBlur stdDeviation="2"/>
<feComposite in2="hardAlpha" operator="out"/>
<feColorMatrix type="matrix" values="0 0 0 0 0.341176 0 0 0 0 0.501961 0 0 0 0 1 0 0 0 0.5 0"/>
<feBlend mode="normal" in2="BackgroundImageFix" result="effect1_dropShadow_0_1"/>
<feBlend mode="normal" in="SourceGraphic" in2="effect1_dropShadow_0_1" result="shape"/>
</filter>
</defs>
</svg>
