<svg width="240" height="58" viewBox="0 0 240 58" fill="none" xmlns="http://www.w3.org/2000/svg">
<g clip-path="url(#clip0_141_2771)">
<path d="M40 17.3451H49.5869C51.9324 17.3451 53.759 17.9342 55.0646 19.1145C56.3723 20.2927 57.0251 21.9464 57.0251 24.0757C57.0251 26.2049 56.3723 27.8628 55.0646 29.0537C53.7569 30.2424 51.9303 30.8378 49.5869 30.8378H44.0151V35.6707C44.0151 37.7389 42.3476 39.4157 40.2908 39.4157H40V17.3451ZM49.089 27.7387C51.8487 27.7387 53.2297 26.5289 53.2297 24.1072C53.2297 22.8764 52.8865 21.9633 52.2023 21.3678C51.5181 20.7724 50.4804 20.4758 49.089 20.4758H44.0151V27.7387H49.089ZM66.6141 17.6943V20.1581C66.6141 20.541 66.3045 20.8524 65.9237 20.8524H63.007C62.6262 20.8524 62.3165 20.541 62.3165 20.1581V17.6943C62.3165 17.3114 62.6262 17 63.007 17H65.9237C66.3045 17.0021 66.6141 17.3114 66.6141 17.6943ZM62.5362 24.1072H65.7375C66.1183 24.1072 66.4279 24.4186 66.4279 24.8015V38.7214C66.4279 39.1043 66.1183 39.4157 65.7375 39.4157H63.2267C62.8459 39.4157 62.5362 39.1043 62.5362 38.7214V24.1072ZM81.9905 36.628L81.8043 39.5399C81.1808 39.603 80.6117 39.6345 80.0928 39.6345C77.9544 39.6345 76.3768 39.1401 75.3621 38.147C74.3452 37.1561 73.8368 35.6791 73.8368 33.7182V27.0507H70.9117V24.1093H73.8368V19.5395H77.7285V24.1093H81.7436V27.0507H77.7285V33.655C77.7285 35.7001 78.6721 36.7226 80.5614 36.7226C81.0155 36.7226 81.4925 36.6911 81.9905 36.628ZM89.3826 38.6941C88.2109 38.0481 87.3133 37.1287 86.6898 35.94C86.0663 34.7512 85.7566 33.3626 85.7566 31.7762C85.7566 30.1898 86.083 28.7864 86.7379 27.5661C87.3907 26.3458 88.3197 25.4012 89.5249 24.7342C90.728 24.0672 92.1193 23.7327 93.6969 23.7327C94.7766 23.7327 95.829 23.9052 96.8563 24.2482C97.8836 24.5932 98.708 25.0561 99.3315 25.641L98.21 28.3951C97.5656 27.8733 96.8877 27.4778 96.1721 27.2064C95.4566 26.935 94.7452 26.8003 94.0401 26.8003C92.6905 26.8003 91.6423 27.2232 90.8953 28.069C90.1484 28.9148 89.7739 30.1309 89.7739 31.7152C89.7739 33.2805 90.1484 34.4861 90.8953 35.3298C91.6423 36.1756 92.6905 36.5985 94.0401 36.5985C94.7452 36.5985 95.4566 36.4638 96.1721 36.1924C96.8877 35.921 97.5677 35.5255 98.21 35.0037L99.3315 37.7262C98.6682 38.3322 97.8167 38.8056 96.7789 39.1506C95.7411 39.4957 94.6615 39.6661 93.5421 39.6661C91.9394 39.664 90.5543 39.34 89.3826 38.6941ZM117.041 25.296C117.932 26.3395 118.38 27.9154 118.38 30.0215V39.4115H114.488V30.2424C114.488 29.0537 114.264 28.1868 113.819 27.644C113.373 27.1012 112.672 26.8298 111.718 26.8298C110.596 26.8298 109.699 27.1853 109.025 27.8944C108.351 28.6034 108.012 29.5544 108.012 30.7431V39.4136H104.121V17.3451H108.012V26.2343C108.531 25.4201 109.222 24.7994 110.082 24.3723C110.942 23.9452 111.902 23.7306 112.961 23.7306C114.787 23.7306 116.147 24.2524 117.041 25.296ZM127.716 39.0075C126.243 38.5489 124.998 37.9009 123.981 37.0677L125.32 34.1263C126.379 34.9406 127.494 35.5339 128.666 35.9105C129.837 36.2871 131.109 36.4744 132.478 36.4744C133.993 36.4744 135.16 36.2093 135.98 35.677C136.801 35.1447 137.211 34.3998 137.211 33.4383C137.211 32.6031 136.832 31.9677 136.075 31.5279C135.317 31.0903 134.055 30.6716 132.292 30.2761C130.465 29.8805 128.982 29.4197 127.841 28.898C126.699 28.3762 125.839 27.7092 125.257 26.895C124.676 26.0807 124.385 25.0477 124.385 23.7958C124.385 22.5019 124.738 21.3447 125.443 20.3222C126.149 19.2996 127.145 18.5022 128.431 17.9278C129.718 17.3535 131.202 17.0673 132.882 17.0673C134.417 17.0673 135.88 17.303 137.271 17.7722C138.661 18.2413 139.803 18.8831 140.696 19.6973L139.357 22.6386C137.407 21.0733 135.248 20.2906 132.884 20.2906C131.471 20.2906 130.356 20.5768 129.538 21.1511C128.718 21.7255 128.308 22.5229 128.308 23.5455C128.308 24.4018 128.67 25.0582 129.398 25.5169C130.124 25.9755 131.358 26.4048 133.101 26.8003C134.949 27.219 136.447 27.6819 137.6 28.1931C138.751 28.7044 139.634 29.3566 140.247 30.1498C140.858 30.943 141.165 31.9445 141.165 33.1543C141.165 34.4693 140.818 35.6223 140.123 36.6132C139.428 37.6042 138.422 38.3658 137.104 38.8981C135.786 39.4304 134.235 39.6955 132.451 39.6955C130.766 39.6955 129.191 39.4662 127.716 39.0075ZM159.778 25.296C160.67 26.3395 161.117 27.9154 161.117 30.0215V39.4115H157.226V30.2424C157.226 29.0537 157.002 28.1868 156.556 27.644C156.11 27.1012 155.409 26.8298 154.455 26.8298C153.334 26.8298 152.436 27.1853 151.763 27.8944C151.089 28.6034 150.75 29.5544 150.75 30.7431V39.4136H146.858V17.3451H150.75V26.2343C151.269 25.4201 151.959 24.7994 152.819 24.3723C153.679 23.9452 154.64 23.7306 155.698 23.7306C157.527 23.7306 158.885 24.2524 159.778 25.296ZM170.252 38.6941C169.081 38.0481 168.173 37.1182 167.528 35.9084C166.884 34.6986 166.564 33.2889 166.564 31.6836C166.564 30.0762 166.886 28.6728 167.528 27.4736C168.17 26.2743 169.079 25.3507 170.252 24.7026C171.424 24.0567 172.79 23.7327 174.345 23.7327C175.902 23.7327 177.266 24.0567 178.437 24.7026C179.609 25.3507 180.513 26.2722 181.145 27.4736C181.777 28.6728 182.095 30.0762 182.095 31.6836C182.095 33.2911 181.779 34.6986 181.145 35.9084C180.511 37.1182 179.609 38.0481 178.437 38.6941C177.266 39.3421 175.902 39.664 174.345 39.664C172.79 39.664 171.424 39.34 170.252 38.6941ZM177.209 35.3761C177.872 34.5408 178.205 33.31 178.205 31.6815C178.205 30.0741 177.872 28.8496 177.209 28.0038C176.544 27.158 175.59 26.7351 174.345 26.7351C173.1 26.7351 172.14 27.158 171.466 28.0038C170.792 28.8496 170.453 30.0741 170.453 31.6815C170.453 33.31 170.786 34.5408 171.449 35.3761C172.112 36.2114 173.069 36.628 174.313 36.628C175.579 36.628 176.546 36.2114 177.209 35.3761ZM211.73 24.1072L205.755 39.4136H202.361L198.626 29.5544L194.983 39.4136H191.621L185.614 24.1072H189.598L193.489 34.7491L196.588 26.2722C197.063 24.9719 198.295 24.1072 199.674 24.1072H200.183L204.074 34.8122L207.935 24.1072H211.73Z" fill="white"/>
<path d="M10.9354 20.8986C10.6104 16.2682 14.8967 12.5153 17.8555 11.9521L17.8987 11.9488C18.059 11.9374 18.2151 11.8836 18.3754 11.883C19.3615 11.8814 19.1341 11.4948 19.0866 10.8218L18.5347 2.96089C18.4948 2.39113 17.9748 1.96 17.3798 2.00295L17.1571 2.01926C8.11778 2.68036 1.34096 11.441 2.05109 21.5483L10.9354 20.8986Z" fill="#FF2853"/>
<path d="M16.7765 16.3806C15.8985 16.2934 15.1428 17.0268 15.1428 17.949V23.318C15.1428 24.0901 15.6842 24.7352 16.413 24.8599C19.8514 25.4476 22.4724 28.3802 22.4724 31.8983C22.4724 35.4164 19.8519 38.349 16.4135 38.9367C15.6853 39.0615 15.1434 39.7066 15.1434 40.4786V45.8471C15.1434 46.7814 15.9159 47.5032 16.805 47.4133C24.8491 46.6004 31.1428 39.9522 31.1428 31.8983C31.1428 23.8351 24.8349 17.1808 16.7765 16.3806Z" fill="#FF2853"/>
<ellipse cx="13.4286" cy="31.8975" rx="5.71429" ry="5.74951" fill="#FF2853"/>
</g>
<defs>
<clipPath id="clip0_141_2771">
<rect width="240" height="58" fill="white"/>
</clipPath>
</defs>
</svg>
