<svg width="21" height="23" viewBox="0 0 21 23" fill="none" xmlns="http://www.w3.org/2000/svg">
<path d="M0.104004 18.5296C0.104004 19.1874 0.637264 19.7207 1.29507 19.7207H19.4863C20.1441 19.7207 20.6773 19.1874 20.6773 18.5296C20.6773 17.8718 20.1441 17.3386 19.4863 17.3386H1.29508C0.637266 17.3386 0.104004 17.8718 0.104004 18.5296Z" fill="#000F3C"/>
<path d="M0.104004 11.1712C0.104004 11.829 0.637265 12.3623 1.29508 12.3623H19.4863C20.1441 12.3623 20.6773 11.829 20.6773 11.1712C20.6773 10.5134 20.1441 9.98016 19.4863 9.98016H1.29508C0.637267 9.98016 0.104004 10.5134 0.104004 11.1712Z" fill="#000F3C"/>
<path d="M0.104004 3.81283C0.104004 4.47065 0.637265 5.00391 1.29507 5.00391H19.4863C20.1441 5.00391 20.6773 4.47065 20.6773 3.81283C20.6773 3.15502 20.1441 2.62176 19.4863 2.62176H1.29508C0.637266 2.62176 0.104004 3.15502 0.104004 3.81283Z" fill="#000F3C"/>
</svg>
