<svg width="31" height="35" viewBox="0 0 31 35" fill="none" xmlns="http://www.w3.org/2000/svg">
<path d="M0.153809 28.1968C0.153809 29.1978 0.965292 30.0093 1.96631 30.0093H28.7115C29.7125 30.0093 30.524 29.1978 30.524 28.1968C30.524 27.1958 29.7125 26.3843 28.7115 26.3843H1.96631C0.965292 26.3843 0.153809 27.1958 0.153809 28.1968Z" fill="white"/>
<path d="M0.153809 17C0.153809 18.001 0.965292 18.8125 1.96631 18.8125H28.7115C29.7125 18.8125 30.524 18.001 30.524 17C30.524 15.999 29.7125 15.1875 28.7115 15.1875H1.96631C0.965292 15.1875 0.153809 15.999 0.153809 17Z" fill="white"/>
<path d="M0.153809 5.80322C0.153809 6.80424 0.965292 7.61572 1.96631 7.61572H28.7115C29.7125 7.61572 30.524 6.80424 30.524 5.80322C30.524 4.80221 29.7125 3.99072 28.7115 3.99072H1.96631C0.965292 3.99072 0.153809 4.80221 0.153809 5.80322Z" fill="white"/>
</svg>
