<svg width="30" height="30" viewBox="0 0 30 30" fill="none" xmlns="http://www.w3.org/2000/svg">
<circle cx="15" cy="15" r="15" fill="#0A216A"/>
<path d="M11.1889 11.1889C11.2486 11.129 11.3195 11.0815 11.3976 11.0491C11.4757 11.0167 11.5594 11 11.644 11C11.7285 11 11.8123 11.0167 11.8903 11.0491C11.9684 11.0815 12.0394 11.129 12.0991 11.1889L15.5009 14.592L18.9028 11.1889C18.9625 11.1291 19.0335 11.0817 19.1116 11.0493C19.1897 11.017 19.2734 11.0003 19.3579 11.0003C19.4424 11.0003 19.5261 11.017 19.6042 11.0493C19.6823 11.0817 19.7532 11.1291 19.813 11.1889C19.8728 11.2486 19.9202 11.3196 19.9525 11.3977C19.9849 11.4758 20.0015 11.5595 20.0015 11.644C20.0015 11.7285 19.9849 11.8122 19.9525 11.8903C19.9202 11.9684 19.8728 12.0393 19.813 12.0991L16.4099 15.5009L19.813 18.9028C19.8728 18.9625 19.9202 19.0335 19.9525 19.1116C19.9849 19.1897 20.0015 19.2734 20.0015 19.3579C20.0015 19.4424 19.9849 19.5261 19.9525 19.6042C19.9202 19.6823 19.8728 19.7532 19.813 19.813C19.7532 19.8728 19.6823 19.9202 19.6042 19.9525C19.5261 19.9849 19.4424 20.0015 19.3579 20.0015C19.2734 20.0015 19.1897 19.9849 19.1116 19.9525C19.0335 19.9202 18.9625 19.8728 18.9028 19.813L15.5009 16.4099L12.0991 19.813C12.0393 19.8728 11.9684 19.9202 11.8903 19.9525C11.8122 19.9849 11.7285 20.0015 11.644 20.0015C11.5595 20.0015 11.4758 19.9849 11.3977 19.9525C11.3196 19.9202 11.2486 19.8728 11.1889 19.813C11.1291 19.7532 11.0817 19.6823 11.0493 19.6042C11.017 19.5261 11.0003 19.4424 11.0003 19.3579C11.0003 19.2734 11.017 19.1897 11.0493 19.1116C11.0817 19.0335 11.1291 18.9625 11.1889 18.9028L14.592 15.5009L11.1889 12.0991C11.129 12.0394 11.0815 11.9684 11.0491 11.8903C11.0167 11.8123 11 11.7285 11 11.644C11 11.5594 11.0167 11.4757 11.0491 11.3976C11.0815 11.3195 11.129 11.2486 11.1889 11.1889Z" fill="white"/>
</svg>
