<svg width="39" height="39" viewBox="0 0 39 39" fill="none" xmlns="http://www.w3.org/2000/svg">
<circle cx="19.5" cy="19.5" r="19.5" fill="#E2EAFF"/>
<path d="M24.456 15.4547C24.6673 15.2536 24.9485 15.1424 25.2402 15.1446C25.5319 15.1468 25.8114 15.2622 26.0196 15.4666C26.2279 15.6709 26.3486 15.9482 26.3563 16.2398C26.364 16.5314 26.2581 16.8147 26.061 17.0297L20.076 24.5147C19.9731 24.6256 19.8488 24.7145 19.7108 24.7763C19.5727 24.838 19.4236 24.8713 19.2723 24.8741C19.1211 24.8769 18.9709 24.8492 18.8306 24.7926C18.6903 24.736 18.5629 24.6517 18.456 24.5447L14.487 20.5757C14.3764 20.4727 14.2878 20.3485 14.2263 20.2105C14.1648 20.0725 14.1317 19.9236 14.1291 19.7725C14.1264 19.6215 14.1542 19.4714 14.2108 19.3313C14.2674 19.1913 14.3516 19.064 14.4584 18.9572C14.5652 18.8503 14.6925 18.7661 14.8326 18.7096C14.9727 18.653 15.1227 18.6252 15.2738 18.6278C15.4248 18.6305 15.5738 18.6636 15.7118 18.7251C15.8498 18.7866 15.974 18.8752 16.077 18.9857L19.218 22.1252L24.4275 15.4877C24.4368 15.4762 24.4469 15.4652 24.4575 15.4547H24.456Z" fill="#6892FF"/>
</svg>
