<svg width="403" height="266" viewBox="0 0 403 266" fill="none" xmlns="http://www.w3.org/2000/svg">
<path style="mix-blend-mode:screen" opacity="0.5" d="M254.435 8.74825L171.735 0L199.324 59.0866L309.614 25.1761L254.435 8.74825Z" fill="url(#paint0_linear_0_1)"/>
<path style="mix-blend-mode:screen" d="M333.499 17.8254L179.048 22.5181L185.471 13.5849L175.515 0.0617676L333.499 17.8254Z" fill="url(#paint1_linear_0_1)"/>
<path style="mix-blend-mode:screen" d="M333.499 17.8254L208.336 44.7827L216.889 71.0137L235.542 79.6181L333.499 17.8254Z" fill="url(#paint2_linear_0_1)"/>
<path d="M333.499 17.8254L245.581 20.3533L242.801 45.6869L333.499 17.8254Z" fill="url(#paint3_linear_0_1)"/>
<path style="mix-blend-mode:multiply" d="M333.499 17.8254L245.581 20.3533L242.801 45.6869L333.499 17.8254Z" fill="url(#paint4_linear_0_1)"/>
<path d="M333.5 17.8254L245.581 20.3533L233.07 15.8936L228.777 6.09717L333.5 17.8254Z" fill="url(#paint5_linear_0_1)"/>
<path d="M333.499 17.8254L255.928 34.4451L242.801 45.6869L333.499 17.8254Z" fill="url(#paint6_linear_0_1)"/>
<path style="mix-blend-mode:multiply" d="M333.499 17.8254L255.928 34.4451L242.801 45.6869L333.499 17.8254Z" fill="url(#paint7_linear_0_1)"/>
<path d="M333.5 17.8254L255.928 34.4451L260.729 48.619L270.254 57.6824L333.5 17.8254Z" fill="url(#paint8_linear_0_1)"/>
<path d="M270.254 57.6824L260.729 48.619L255.928 34.4451L242.801 45.6869L245.581 20.3533L233.07 15.8936L228.777 6.09717L233.42 15.8045L245.828 20.3602L243.274 44.7827L255.928 34.4451L260.954 48.2011L270.254 57.6824Z" fill="white"/>
<path style="mix-blend-mode:screen" opacity="0.5" d="M17.0509 156.564L0 172.718L17.7425 177.637L30.6985 147.72L17.0509 156.564Z" fill="url(#paint9_linear_0_1)"/>
<path style="mix-blend-mode:screen" d="M33.499 141.239L6.17644 175.28L5.43688 172.266L0.705078 171.923L33.499 141.239Z" fill="url(#paint10_linear_0_1)"/>
<path style="mix-blend-mode:screen" d="M33.4994 141.239L16.3252 173.074L23.5222 176.047L28.795 173.622L33.4994 141.239Z" fill="url(#paint11_linear_0_1)"/>
<path d="M33.4991 141.239L17.9136 160.592L22.844 165.833L33.4991 141.239Z" fill="url(#paint12_linear_0_1)"/>
<path style="mix-blend-mode:multiply" d="M33.4991 141.239L17.9136 160.592L22.844 165.833L33.4991 141.239Z" fill="url(#paint13_linear_0_1)"/>
<path d="M33.4994 141.239L17.9139 160.592L14.6612 162.463L11.7715 161.586L33.4994 141.239Z" fill="url(#paint14_linear_0_1)"/>
<path d="M33.4994 141.239L22.8374 160.955L22.8443 165.833L33.4994 141.239Z" fill="url(#paint15_linear_0_1)"/>
<path style="mix-blend-mode:multiply" d="M33.4994 141.239L22.8374 160.955L22.8443 165.833L33.4994 141.239Z" fill="url(#paint16_linear_0_1)"/>
<path d="M33.4994 141.239L22.8374 160.955L26.7612 162.524L30.4521 162.141L33.4994 141.239Z" fill="url(#paint17_linear_0_1)"/>
<path d="M30.4522 162.141L26.7612 162.524L22.8375 160.955L22.8443 165.833L17.9139 160.592L14.6612 162.463L11.7715 161.586L14.7092 162.367L17.9619 160.538L22.7347 165.573L22.8375 160.955L26.7133 162.401L30.4522 162.141Z" fill="white"/>
<path style="mix-blend-mode:screen" opacity="0.5" d="M45.9417 110.103L20.9062 123.229L39.8471 134.738L64.636 104.335L45.9417 110.103Z" fill="url(#paint18_linear_0_1)"/>
<path style="mix-blend-mode:screen" d="M70.0048 97.7517L27.22 128.223L27.3501 124.483L21.9883 122.537L70.0048 97.7517Z" fill="url(#paint19_linear_0_1)"/>
<path style="mix-blend-mode:screen" d="M70.0045 97.7517L39.6963 128.991L47.0576 134.793L53.9602 133.711L70.0045 97.7517Z" fill="url(#paint20_linear_0_1)"/>
<path d="M70.0045 97.7517L45.6265 115.056L49.6119 122.743L70.0045 97.7517Z" fill="url(#paint21_linear_0_1)"/>
<path style="mix-blend-mode:multiply" d="M70.0045 97.7517L45.6265 115.056L49.6119 122.743L70.0045 97.7517Z" fill="url(#paint22_linear_0_1)"/>
<path d="M70.0046 97.7517L45.6266 115.056L41.2441 116.153L38.1831 114.193L70.0046 97.7517Z" fill="url(#paint23_linear_0_1)"/>
<path d="M70.0044 97.7517L51.2073 117.091L49.6118 122.743L70.0044 97.7517Z" fill="url(#paint24_linear_0_1)"/>
<path style="mix-blend-mode:multiply" d="M70.0044 97.7517L51.2073 117.091L49.6118 122.743L70.0044 97.7517Z" fill="url(#paint25_linear_0_1)"/>
<path d="M70.0046 97.7517L51.2075 117.091L55.234 120.188L59.6371 120.955L70.0046 97.7517Z" fill="url(#paint26_linear_0_1)"/>
<path d="M59.6371 120.955L55.234 120.187L51.2075 117.091L49.612 122.743L45.6266 115.056L41.2441 116.152L38.1831 114.193L41.3262 116.063L45.6951 115.008L49.5778 122.4L51.2075 117.091L55.2203 120.03L59.6371 120.955Z" fill="white"/>
<path style="mix-blend-mode:screen" opacity="0.5" d="M91.0958 69.2803L49.4341 76.7954L71.3332 101.732L120.397 69.4378L91.0958 69.2803Z" fill="url(#paint27_linear_0_1)"/>
<path style="mix-blend-mode:screen" d="M131.025 62.4365L56.2199 86.7562L58.0825 81.4744L51.2896 76.2885L131.025 62.4365Z" fill="url(#paint28_linear_0_1)"/>
<path style="mix-blend-mode:screen" d="M131.025 62.4365L73.7021 93.4562L81.6182 105.061L91.9583 106.603L131.025 62.4365Z" fill="url(#paint29_linear_0_1)"/>
<path d="M131.025 62.4365L88.4253 76.2063L90.6714 88.9827L131.025 62.4365Z" fill="url(#paint30_linear_0_1)"/>
<path style="mix-blend-mode:multiply" d="M131.025 62.4365L88.4253 76.2063L90.6714 88.9827L131.025 62.4365Z" fill="url(#paint31_linear_0_1)"/>
<path d="M131.025 62.4365L88.4249 76.2063L81.673 75.8158L78.1807 71.6369L131.025 62.4365Z" fill="url(#paint32_linear_0_1)"/>
<path d="M131.025 62.4365L95.4854 81.6183L90.6714 88.9827L131.025 62.4365Z" fill="url(#paint33_linear_0_1)"/>
<path style="mix-blend-mode:multiply" d="M131.025 62.4365L95.4854 81.6183L90.6714 88.9827L131.025 62.4365Z" fill="url(#paint34_linear_0_1)"/>
<path d="M131.025 62.4365L95.4854 81.6183L99.8542 87.866L105.798 90.9351L131.025 62.4365Z" fill="url(#paint35_linear_0_1)"/>
<path d="M105.798 90.9352L99.8538 87.8661L95.485 81.6183L90.671 88.9828L88.4249 76.2063L81.673 75.8158L78.1807 71.637L81.8305 75.7199L88.5413 76.1789L90.7737 88.4758L95.485 81.6183L99.9018 87.6263L105.798 90.9352Z" fill="white"/>
<path style="mix-blend-mode:screen" opacity="0.5" d="M155.437 37.603L90.3081 40.8982L118.87 83.3173L200.18 43.5973L155.437 37.603Z" fill="url(#paint36_linear_0_1)"/>
<path style="mix-blend-mode:screen" d="M217.793 34.9929L98.7106 57.4561L102.6 49.756L93.2393 40.4871L217.793 34.9929Z" fill="url(#paint37_linear_0_1)"/>
<path style="mix-blend-mode:screen" d="M217.793 34.9929L124.109 71.13L133.929 90.4145L149.432 94.8057L217.793 34.9929Z" fill="url(#paint38_linear_0_1)"/>
<path d="M217.793 34.9929L149.993 47.6666L150.918 67.6293L217.793 34.9929Z" fill="url(#paint39_linear_0_1)"/>
<path style="mix-blend-mode:multiply" d="M217.793 34.9929L149.993 47.6666L150.918 67.6293L217.793 34.9929Z" fill="url(#paint40_linear_0_1)"/>
<path d="M217.793 34.9929L149.993 47.6666L139.756 45.7416L135.236 38.6717L217.793 34.9929Z" fill="url(#paint41_linear_0_1)"/>
<path d="M217.793 34.9929L159.724 57.326L150.918 67.6293L217.793 34.9929Z" fill="url(#paint42_linear_0_1)"/>
<path style="mix-blend-mode:multiply" d="M217.793 34.9929L159.724 57.326L150.918 67.6293L217.793 34.9929Z" fill="url(#paint43_linear_0_1)"/>
<path d="M217.793 34.9929L159.724 57.326L165.168 67.7252L173.652 73.5825L217.793 34.9929Z" fill="url(#paint44_linear_0_1)"/>
<path d="M173.652 73.5827L165.168 67.7254L159.724 57.3261L150.918 67.6295L149.993 47.6667L139.756 45.7417L135.236 38.6719L140.016 45.6321L150.178 47.6393L151.178 66.8759L159.724 57.3261L165.291 67.3691L173.652 73.5827Z" fill="white"/>
<path d="M155.969 207.511L181.049 180.833C182.597 179.201 184.34 179.041 184.967 180.473L190.931 194.322C191.557 195.764 190.813 198.258 189.266 199.89L164.186 226.568C162.648 228.21 160.905 228.37 160.269 226.928L154.314 213.049C153.688 211.637 154.432 209.143 155.969 207.511Z" fill="url(#paint45_linear_0_1)"/>
<path d="M156.704 207.761L181.784 181.084C183.321 179.451 185.074 179.291 185.701 180.723L191.665 194.572C192.282 196.014 191.538 198.508 190 200.14L164.92 226.818C163.383 228.46 161.63 228.62 161.003 227.178L155.029 213.329C154.422 211.887 155.166 209.393 156.704 207.761Z" fill="url(#paint46_linear_0_1)"/>
<path style="mix-blend-mode:color-dodge" d="M156.704 207.761L181.784 181.084C182.91 179.882 184.154 179.481 184.977 179.922C184.05 180.051 183.203 180.525 182.597 181.254L157.487 207.921C155.95 209.564 155.206 212.057 155.823 213.499L161.796 227.339C161.933 227.687 162.186 227.975 162.511 228.15C162.185 228.175 161.859 228.091 161.584 227.91C161.308 227.73 161.097 227.462 160.984 227.148L155.01 213.299C154.422 211.887 155.166 209.393 156.704 207.761Z" fill="url(#paint47_radial_0_1)"/>
<g style="mix-blend-mode:multiply">
<path d="M183.694 179.842H183.752L175.242 208.352L155.235 210.174C155.227 210.148 155.227 210.12 155.235 210.094L174.361 206.389L183.694 179.842Z" fill="#BCBEC0"/>
</g>
<g style="mix-blend-mode:multiply">
<g style="mix-blend-mode:multiply">
<path d="M169.572 208.843L162.922 227.869H162.864L168.514 208.953L169.572 208.843Z" fill="#D1D3D4"/>
</g>
<g style="mix-blend-mode:multiply">
<path d="M178.053 198.738L191.332 197.527V197.607L177.622 200.26L178.053 198.738Z" fill="#D1D3D4"/>
</g>
</g>
<path d="M182.528 185.9C182.945 185.759 183.319 185.511 183.616 185.179C183.912 184.848 184.121 184.445 184.222 184.008C184.477 183.056 184.124 182.375 183.439 182.486C183.021 182.631 182.646 182.882 182.349 183.217C182.053 183.552 181.845 183.958 181.745 184.398C181.5 185.33 181.843 186.011 182.528 185.9Z" fill="#603913"/>
<path d="M182.753 184.929C182.844 184.929 182.933 184.906 183.014 184.862C183.094 184.818 183.162 184.755 183.213 184.679L209.146 145.493L208.225 144.853L182.763 183.337L157.301 144.853L156.371 145.493L182.303 184.679C182.354 184.753 182.421 184.814 182.499 184.858C182.577 184.901 182.664 184.925 182.753 184.929V184.929Z" fill="white"/>
<path d="M182.754 184.929C182.872 184.928 182.987 184.889 183.082 184.817C183.177 184.745 183.247 184.644 183.282 184.529L195.935 145.353L194.877 144.993L182.754 182.536L170.64 144.953L169.582 145.313L182.225 184.488C182.254 184.611 182.322 184.72 182.417 184.799C182.513 184.878 182.631 184.924 182.754 184.929V184.929Z" fill="white"/>
<path d="M149.369 133.396C149.372 131.95 149.49 130.507 149.721 129.08C149.9 127.464 150.168 125.859 150.524 124.274C151.689 119.752 153.723 115.514 156.508 111.806C166.301 100.49 182.89 103.865 182.89 103.865C182.89 103.865 199.421 100.5 209.253 111.796C212.04 115.511 214.074 119.756 215.237 124.284C215.59 125.869 215.855 127.474 216.03 129.09C216.267 130.513 216.385 131.953 216.383 133.396C216.383 137.302 215.55 141.408 210.194 143.881C204.122 148.498 194.162 151.502 182.89 151.502C171.619 151.502 161.649 148.498 155.578 143.881C150.456 141.848 149.369 137.332 149.369 133.396Z" fill="white"/>
<path d="M193.516 150.561C188.962 154.656 176.868 154.857 172.226 150.561C172.373 124.664 177.123 103.865 182.871 103.865C188.62 103.865 193.359 124.664 193.516 150.561Z" fill="white"/>
<path d="M176.731 98.9479C180.783 98.1466 184.949 98.1466 189.001 98.9479C186.805 100.378 184.752 102.024 182.871 103.865C180.985 102.026 178.929 100.379 176.731 98.9479Z" fill="white"/>
<path d="M182.871 103.895C197.678 103.895 209.733 121.71 210.164 143.951C210.164 150.38 198.011 152.964 193.516 150.621C193.359 124.664 188.659 103.895 182.871 103.895Z" fill="#5780FF"/>
<path d="M182.871 103.895C177.074 103.895 172.373 124.664 172.177 150.561C168.319 152.884 155.999 150.32 155.529 143.891C155.999 121.68 168.054 103.895 182.871 103.895Z" fill="#5780FF"/>
<path d="M209.234 111.796C199.441 100.5 182.871 103.865 182.871 103.865C184.752 102.025 186.805 100.378 189.001 98.948C197.064 100.533 204.269 105.109 209.234 111.796V111.796Z" fill="#5780FF"/>
<path d="M156.508 111.806C161.476 105.117 168.684 100.538 176.75 98.948C178.948 100.379 181.005 102.026 182.891 103.865C182.891 103.865 166.301 100.49 156.508 111.806Z" fill="#5780FF"/>
<path style="mix-blend-mode:screen" d="M159.22 115.912C159.22 124.925 169.689 132.305 182.606 132.305C195.523 132.305 206.002 124.965 206.002 115.912C206.002 106.859 195.533 99.5188 182.606 99.5188C169.679 99.5188 159.22 106.899 159.22 115.912Z" fill="url(#paint48_linear_0_1)"/>
<path d="M146 213.489C146 216.193 146.92 218.116 148.399 219.037L150.985 220.679C152.532 221.561 151.543 219.558 153.922 218.166C158.643 215.382 162.472 208.632 162.472 203.085C162.472 200.351 164.95 200.331 163.451 199.419L160.582 197.737C159.034 196.886 156.929 197.036 154.608 198.408C149.829 201.202 146 207.951 146 213.489Z" fill="url(#paint49_linear_0_1)"/>
<path d="M148.801 215.192C148.801 220.729 152.63 222.963 157.35 220.199C162.07 217.435 165.899 210.655 165.899 205.117C165.899 199.58 162.07 197.347 157.35 200.11C152.63 202.874 148.801 209.654 148.801 215.192Z" fill="url(#paint50_linear_0_1)"/>
<path style="mix-blend-mode:color-dodge" d="M156.939 199.91C159.201 198.568 161.258 198.388 162.815 199.169C161.94 198.983 161.038 198.975 160.161 199.147C159.284 199.319 158.448 199.667 157.703 200.17C152.983 202.954 149.154 209.704 149.154 215.252C149.154 218.136 150.192 220.118 151.857 220.97C149.771 220.369 148.419 218.246 148.419 214.961C148.39 209.443 152.219 202.694 156.939 199.91Z" fill="url(#paint51_radial_0_1)"/>
<path d="M251.158 244.513L276.248 217.835C277.785 216.203 279.538 216.043 280.165 217.485L286.139 231.324C286.756 232.766 286.011 235.26 284.474 236.902L259.335 263.57C257.797 265.212 256.045 265.372 255.418 263.93L249.542 250.101C248.886 248.649 249.62 246.155 251.158 244.513Z" fill="url(#paint52_linear_0_1)"/>
<path d="M251.893 244.763L276.963 218.056C278.51 216.423 280.253 216.263 280.88 217.705L286.854 231.575C287.481 233.017 286.736 235.51 285.189 237.152L260.119 263.82C258.572 265.462 256.828 265.622 256.202 264.18L250.238 250.331C249.611 248.889 250.355 246.395 251.893 244.763Z" fill="url(#paint53_linear_0_1)"/>
<path style="mix-blend-mode:color-dodge" d="M251.892 244.763L276.963 218.056C278.099 216.854 279.333 216.463 280.155 216.894C279.229 217.023 278.381 217.498 277.776 218.226L252.696 244.903C251.158 246.536 250.414 249.029 251.031 250.471L257.004 264.321C257.148 264.666 257.404 264.949 257.729 265.122C257.401 265.148 257.074 265.064 256.797 264.883C256.52 264.703 256.307 264.435 256.192 264.12L250.228 250.271C249.611 248.889 250.355 246.395 251.892 244.763Z" fill="url(#paint54_radial_0_1)"/>
<g style="mix-blend-mode:multiply">
<path d="M278.921 216.844L270.431 245.344L250.424 247.167V247.087L269.559 243.391L278.921 216.844Z" fill="#BCBEC0"/>
</g>
<g style="mix-blend-mode:multiply">
<g style="mix-blend-mode:multiply">
<path d="M264.761 245.845L258.111 264.871H258.052L263.703 245.955L264.761 245.845Z" fill="#D1D3D4"/>
</g>
<g style="mix-blend-mode:multiply">
<path d="M273.29 235.741L286.58 234.529V234.609L272.869 237.263L273.29 235.741Z" fill="#D1D3D4"/>
</g>
</g>
<path d="M277.727 222.902C278.144 222.758 278.519 222.507 278.814 222.172C279.109 221.837 279.315 221.43 279.411 220.99C279.666 220.038 279.323 219.357 278.637 219.467C278.218 219.61 277.841 219.861 277.544 220.196C277.248 220.531 277.041 220.939 276.943 221.38C276.689 222.332 277.041 223.063 277.727 222.902Z" fill="#603913"/>
<path d="M277.942 221.931C278.033 221.931 278.122 221.908 278.203 221.864C278.283 221.821 278.351 221.758 278.402 221.681L304.383 182.496L303.463 181.855L278.001 220.339L252.539 181.855L251.608 182.496L277.55 221.681C277.593 221.75 277.651 221.808 277.719 221.851C277.786 221.894 277.863 221.922 277.942 221.931V221.931Z" fill="#F7F7F7"/>
<path d="M277.942 221.931C278.059 221.929 278.172 221.891 278.267 221.821C278.361 221.751 278.433 221.653 278.471 221.54L291.114 182.355L290.056 181.995L277.942 219.538L265.828 182.005L264.77 182.365L277.413 221.55C277.453 221.661 277.525 221.757 277.62 221.825C277.714 221.893 277.827 221.93 277.942 221.931V221.931Z" fill="#F7F7F7"/>
<path d="M244.558 170.398C244.559 168.952 244.68 167.508 244.92 166.082C245.095 164.466 245.36 162.861 245.713 161.276C246.878 156.758 248.904 152.521 251.677 148.808C261.519 137.502 278.06 140.867 278.06 140.867C278.06 140.867 294.59 137.502 304.383 148.798C307.167 152.513 309.197 156.758 310.357 161.286C310.715 162.87 310.98 164.475 311.15 166.092C311.39 167.515 311.511 168.955 311.513 170.398C311.513 174.304 310.68 178.46 305.323 180.883C299.252 185.5 289.282 188.514 278.011 188.514C266.739 188.514 256.779 185.51 250.708 180.883C245.625 178.85 244.558 174.334 244.558 170.398Z" fill="url(#paint55_linear_0_1)"/>
<path d="M288.714 187.573C284.161 191.658 272.066 191.859 267.424 187.573C267.571 161.666 272.321 140.867 278.069 140.867C283.818 140.867 288.558 161.666 288.714 187.573Z" fill="url(#paint56_linear_0_1)"/>
<path d="M271.929 135.94C275.983 135.152 280.146 135.152 284.2 135.94C282.004 137.375 279.948 139.022 278.059 140.857C276.173 139.023 274.12 137.377 271.929 135.94V135.94Z" fill="url(#paint57_linear_0_1)"/>
<path d="M278.06 140.867C292.877 140.867 304.922 158.682 305.353 180.923C305.353 187.362 293.21 189.936 288.705 187.603C288.558 161.666 283.818 140.867 278.06 140.867Z" fill="#0A216A"/>
<path d="M278.06 140.867C272.272 140.867 267.561 161.666 267.415 187.573C263.556 189.886 251.236 187.332 250.766 180.893C251.197 158.682 263.252 140.867 278.06 140.867Z" fill="#0A216A"/>
<path d="M304.383 148.798C294.541 137.502 278.011 140.867 278.011 140.867C279.899 139.032 281.955 137.385 284.151 135.95C292.21 137.544 299.413 142.118 304.383 148.798V148.798Z" fill="#0A216A"/>
<path d="M251.677 148.808C256.649 142.116 263.86 137.534 271.929 135.94C274.12 137.377 276.173 139.023 278.06 140.857C278.06 140.857 261.519 137.502 251.677 148.808Z" fill="#0A216A"/>
<path style="mix-blend-mode:screen" d="M254.439 152.964C254.439 161.977 264.917 169.357 277.834 169.357C290.751 169.357 301.201 161.977 301.201 152.964C301.201 143.951 290.722 136.571 277.805 136.571C264.888 136.571 254.439 143.871 254.439 152.964Z" fill="url(#paint58_linear_0_1)"/>
<path d="M241.199 250.491C241.199 253.195 242.109 255.118 243.598 256.039L246.174 257.681C247.721 258.563 246.732 256.56 249.111 255.168C253.832 252.384 257.651 245.634 257.651 240.097C257.651 237.353 260.138 237.333 258.63 236.421L255.761 234.739C254.223 233.888 252.118 234.048 249.797 235.42C245.028 238.204 241.199 244.953 241.199 250.491Z" fill="url(#paint59_linear_0_1)"/>
<path d="M243.99 252.194C243.99 257.741 247.819 259.965 252.549 257.201C257.279 254.437 261.088 247.667 261.088 242.119C261.088 236.572 257.259 234.349 252.549 237.112C247.838 239.876 243.99 246.656 243.99 252.194Z" fill="url(#paint60_linear_0_1)"/>
<path style="mix-blend-mode:color-dodge" d="M252.128 236.912C254.4 235.57 256.446 235.39 258.003 236.171C257.13 235.984 256.23 235.977 255.354 236.149C254.478 236.321 253.645 236.669 252.901 237.173C248.181 239.966 244.352 246.716 244.352 252.254C244.352 255.138 245.39 257.121 247.055 257.972C244.959 257.371 243.617 255.248 243.617 251.963C243.588 246.446 247.407 239.696 252.128 236.912Z" fill="url(#paint61_radial_0_1)"/>
<path d="M252.344 252.105C252.281 252.007 252.247 251.892 252.247 251.774V243.573L250.232 244.205C250.201 244.224 250.166 244.233 250.13 244.233C250.095 244.233 250.06 244.224 250.029 244.205C249.912 244.136 249.822 244.026 249.777 243.894L249.196 242.659C249.16 242.577 249.14 242.488 249.138 242.398C249.138 242.278 249.138 242.197 249.283 242.167L252.276 241.164C252.395 241.154 252.515 241.186 252.615 241.254L253.816 241.977C253.911 242.033 253.988 242.117 254.039 242.218C254.102 242.316 254.135 242.431 254.136 242.549V252.918C254.141 252.96 254.135 253.002 254.118 253.039C254.101 253.077 254.073 253.108 254.039 253.129C254.005 253.151 253.967 253.162 253.927 253.162C253.888 253.162 253.85 253.151 253.816 253.129L252.567 252.386C252.47 252.315 252.393 252.218 252.344 252.105V252.105Z" fill="white"/>
<path d="M158.344 215.105C158.281 215.007 158.247 214.892 158.247 214.774V206.573L156.232 207.205C156.201 207.224 156.166 207.233 156.13 207.233C156.095 207.233 156.06 207.224 156.029 207.205C155.912 207.136 155.822 207.026 155.777 206.894L155.196 205.659C155.16 205.577 155.14 205.488 155.138 205.398C155.138 205.278 155.138 205.197 155.283 205.167L158.276 204.164C158.395 204.154 158.515 204.186 158.615 204.254L159.816 204.977C159.911 205.033 159.988 205.117 160.039 205.218C160.102 205.316 160.135 205.431 160.136 205.549V215.918C160.141 215.96 160.135 216.002 160.118 216.039C160.101 216.077 160.073 216.108 160.039 216.129C160.005 216.151 159.967 216.162 159.927 216.162C159.888 216.162 159.85 216.151 159.816 216.129L158.567 215.386C158.47 215.315 158.393 215.218 158.344 215.105V215.105Z" fill="white"/>
<path d="M341.744 181.164L366.824 154.486C368.361 152.854 370.114 152.694 370.741 154.126L376.705 167.985C377.332 169.427 376.578 171.921 375.04 173.553L349.96 200.23C348.422 201.873 346.67 202.033 346.043 200.591L340.069 186.741C339.462 185.289 340.206 182.796 341.744 181.164Z" fill="url(#paint62_linear_0_1)"/>
<path d="M342.478 181.414L367.558 154.736C369.096 153.094 370.849 152.934 371.475 154.376L377.449 168.225C378.066 169.667 377.322 172.161 375.784 173.793L350.704 200.471C349.167 202.103 347.414 202.263 346.787 200.831L340.813 187.012C340.196 185.54 340.941 183.006 342.478 181.414Z" fill="url(#paint63_linear_0_1)"/>
<path style="mix-blend-mode:color-dodge" d="M342.478 181.414L367.558 154.737C368.685 153.535 369.919 153.134 370.751 153.575C369.821 153.693 368.97 154.169 368.371 154.907L343.291 181.574C341.754 183.217 341 185.71 341.626 187.152L347.59 201.032C347.734 201.379 347.99 201.666 348.315 201.843C347.988 201.87 347.662 201.786 347.386 201.606C347.11 201.425 346.9 201.156 346.787 200.841L340.814 187.012C340.197 185.54 340.941 183.006 342.478 181.414Z" fill="url(#paint64_radial_0_1)"/>
<g style="mix-blend-mode:multiply">
<path d="M369.468 153.485H369.517L361.017 182.005L341 183.838V183.757L360.204 180.002L369.468 153.485Z" fill="#BCBEC0"/>
</g>
<g style="mix-blend-mode:multiply">
<g style="mix-blend-mode:multiply">
<path d="M355.308 182.496L348.658 201.522H348.599L354.24 182.606L355.308 182.496Z" fill="#D1D3D4"/>
</g>
<g style="mix-blend-mode:multiply">
<path d="M363.876 172.391L377.156 171.18V171.26L363.445 173.914L363.876 172.391Z" fill="#D1D3D4"/>
</g>
</g>
<path d="M368.303 159.553C368.722 159.41 369.098 159.159 369.395 158.824C369.691 158.489 369.899 158.081 369.997 157.641C370.242 156.689 369.899 156.008 369.213 156.118C368.794 156.261 368.417 156.512 368.12 156.847C367.824 157.182 367.616 157.59 367.519 158.031C367.274 158.972 367.617 159.663 368.303 159.553Z" fill="#603913"/>
<path d="M368.528 158.582C368.619 158.582 368.708 158.559 368.789 158.515C368.869 158.472 368.937 158.409 368.988 158.332L394.92 119.147L394 118.506L368.538 156.99L343.076 118.506L342.155 119.147L368.038 158.332C368.092 158.413 368.165 158.479 368.251 158.522C368.337 158.566 368.432 158.587 368.528 158.582V158.582Z" fill="white"/>
<path d="M368.528 158.582C368.645 158.58 368.758 158.542 368.853 158.472C368.947 158.402 369.019 158.304 369.057 158.191L381.749 119.006L380.691 118.646L368.567 156.189L356.453 118.646L355.395 119.006L368.038 158.191C368.073 158.299 368.138 158.393 368.225 158.463C368.312 158.532 368.418 158.574 368.528 158.582V158.582Z" fill="white"/>
<path d="M335.143 107.039C335.147 105.597 335.265 104.157 335.496 102.733C335.675 101.114 335.943 99.5056 336.299 97.9167C337.456 93.3994 339.483 89.1639 342.263 85.4591C352.056 74.1432 368.645 77.518 368.645 77.518C368.645 77.518 385.176 74.1432 395.008 85.4491C397.795 89.1636 399.829 93.4089 400.992 97.9367C401.342 99.5225 401.603 101.127 401.775 102.743C402.015 104.162 402.136 105.6 402.138 107.039C402.138 110.955 401.305 115.111 395.948 117.534C389.877 122.151 379.907 125.155 368.645 125.155C357.383 125.155 347.404 122.151 341.333 117.534C336.23 115.501 335.143 110.975 335.143 107.039Z" fill="white"/>
<path d="M379.281 124.213C374.737 128.309 362.633 128.5 357.991 124.213C358.138 98.3171 362.887 77.5178 368.645 77.5178C374.404 77.5178 379.134 98.3171 379.281 124.213Z" fill="white"/>
<path d="M362.505 72.601C366.558 71.7997 370.723 71.7997 374.776 72.601C372.58 74.0307 370.526 75.6776 368.645 77.5179C366.76 75.6791 364.703 74.0323 362.505 72.601V72.601Z" fill="white"/>
<path d="M368.645 77.5178C383.452 77.5178 395.508 95.3229 395.938 117.574C395.938 124.003 383.785 126.587 379.29 124.244C379.134 98.3171 374.433 77.5178 368.645 77.5178Z" fill="#FF2853"/>
<path d="M368.646 77.5178C362.848 77.5178 358.138 98.3171 357.991 124.213C354.132 126.537 341.813 123.973 341.342 117.544C341.773 95.3229 353.829 77.5178 368.646 77.5178Z" fill="#FF2853"/>
<path d="M395.008 85.4491C385.215 74.1432 368.645 77.518 368.645 77.518C370.526 75.6776 372.58 74.0308 374.776 72.6011C382.838 74.1865 390.044 78.7621 395.008 85.4491V85.4491Z" fill="#FF2853"/>
<path d="M342.263 85.4592C347.228 78.7663 354.438 74.1868 362.505 72.6011C364.703 74.0324 366.76 75.6792 368.646 77.518C368.646 77.518 352.095 74.1432 342.263 85.4592Z" fill="#FF2853"/>
<path style="mix-blend-mode:screen" d="M344.995 89.5749C344.995 98.5876 355.464 105.968 368.381 105.968C381.298 105.968 391.777 98.6277 391.777 89.5749C391.777 80.5222 381.298 73.1819 368.381 73.1819C355.464 73.1819 344.995 80.5222 344.995 89.5749Z" fill="url(#paint65_linear_0_1)"/>
<path d="M331.804 187.142C331.804 189.846 332.715 191.759 334.203 192.69L336.7 194.322C338.248 195.213 337.259 193.201 339.638 191.819C344.359 189.035 348.188 182.285 348.188 176.747C348.188 174.004 350.665 173.984 349.167 173.062L346.288 171.39C344.75 170.539 342.645 170.689 340.324 172.061C335.604 174.855 331.804 181.604 331.804 187.142Z" fill="url(#paint66_linear_0_1)"/>
<path d="M334.575 188.844C334.575 194.382 338.404 196.615 343.124 193.851C347.845 191.088 351.674 184.308 351.674 178.77C351.674 173.232 347.845 170.999 343.124 173.763C338.404 176.527 334.575 183.307 334.575 188.844Z" fill="url(#paint67_linear_0_1)"/>
<path style="mix-blend-mode:color-dodge" d="M342.714 173.563C344.976 172.221 347.032 172.041 348.589 172.822C347.715 172.633 346.813 172.625 345.935 172.797C345.057 172.969 344.222 173.318 343.477 173.823C338.757 176.607 334.928 183.357 334.928 188.905C334.928 191.779 335.966 193.771 337.631 194.623C335.545 194.022 334.194 191.899 334.194 188.614C334.164 183.096 337.993 176.347 342.714 173.563Z" fill="url(#paint68_radial_0_1)"/>
<path d="M343.344 189.105C343.281 189.007 343.247 188.892 343.247 188.774V180.573L341.232 181.205C341.201 181.224 341.166 181.233 341.13 181.233C341.095 181.233 341.06 181.224 341.029 181.205C340.912 181.136 340.822 181.026 340.777 180.894L340.196 179.659C340.16 179.577 340.14 179.488 340.138 179.398C340.138 179.278 340.138 179.197 340.283 179.167L343.276 178.164C343.395 178.154 343.515 178.186 343.615 178.254L344.816 178.977C344.911 179.033 344.988 179.117 345.039 179.218C345.102 179.316 345.135 179.431 345.136 179.549V189.918C345.141 189.96 345.135 190.002 345.118 190.039C345.101 190.077 345.073 190.108 345.039 190.129C345.005 190.151 344.967 190.162 344.927 190.162C344.888 190.162 344.85 190.151 344.816 190.129L343.567 189.386C343.47 189.315 343.393 189.218 343.344 189.105V189.105Z" fill="white"/>
<defs>
<linearGradient id="paint0_linear_0_1" x1="284.949" y1="-3.75054" x2="205.17" y2="25.6585" gradientUnits="userSpaceOnUse">
<stop stop-color="#2AF6FF"/>
<stop offset="0.02" stop-color="#29EEF7"/>
<stop offset="0.13" stop-color="#1FB7BE"/>
<stop offset="0.25" stop-color="#17868B"/>
<stop offset="0.37" stop-color="#105D60"/>
<stop offset="0.49" stop-color="#0A3B3E"/>
<stop offset="0.62" stop-color="#062123"/>
<stop offset="0.74" stop-color="#030F0F"/>
<stop offset="0.87" stop-color="#010404"/>
<stop offset="1"/>
</linearGradient>
<linearGradient id="paint1_linear_0_1" x1="294.181" y1="15.2494" x2="195.508" y2="11.9099" gradientUnits="userSpaceOnUse">
<stop stop-color="#43E8E1"/>
<stop offset="0.09" stop-color="#36BDB7"/>
<stop offset="0.22" stop-color="#288B87"/>
<stop offset="0.34" stop-color="#1C605D"/>
<stop offset="0.47" stop-color="#123E3C"/>
<stop offset="0.6" stop-color="#0A2321"/>
<stop offset="0.73" stop-color="#040F0F"/>
<stop offset="0.86" stop-color="#010404"/>
<stop offset="1"/>
</linearGradient>
<linearGradient id="paint2_linear_0_1" x1="297.984" y1="32.4979" x2="225.829" y2="60.6557" gradientUnits="userSpaceOnUse">
<stop stop-color="#43E8E1"/>
<stop offset="0.09" stop-color="#36BDB7"/>
<stop offset="0.22" stop-color="#288B87"/>
<stop offset="0.34" stop-color="#1C605D"/>
<stop offset="0.47" stop-color="#123E3C"/>
<stop offset="0.6" stop-color="#0A2321"/>
<stop offset="0.73" stop-color="#040F0F"/>
<stop offset="0.86" stop-color="#010404"/>
<stop offset="1"/>
</linearGradient>
<linearGradient id="paint3_linear_0_1" x1="284.98" y1="53.0677" x2="290.717" y2="10.4" gradientUnits="userSpaceOnUse">
<stop stop-color="#D4D1D8"/>
<stop offset="1" stop-color="white"/>
</linearGradient>
<linearGradient id="paint4_linear_0_1" x1="288.087" y1="27.6433" x2="287.945" y2="18.8702" gradientUnits="userSpaceOnUse">
<stop stop-color="white"/>
<stop offset="1" stop-color="#E6E7E8"/>
</linearGradient>
<linearGradient id="paint5_linear_0_1" x1="235.162" y1="-50.0236" x2="280.339" y2="12.7051" gradientUnits="userSpaceOnUse">
<stop stop-color="#EFEFEF"/>
<stop offset="1" stop-color="white"/>
</linearGradient>
<linearGradient id="paint6_linear_0_1" x1="255.193" y1="22.5031" x2="288.235" y2="31.7641" gradientUnits="userSpaceOnUse">
<stop stop-color="#D4D1D8"/>
<stop offset="1" stop-color="white"/>
</linearGradient>
<linearGradient id="paint7_linear_0_1" x1="273.334" y1="61.8116" x2="281.622" y2="45.0088" gradientUnits="userSpaceOnUse">
<stop stop-color="white"/>
<stop offset="1" stop-color="#DEDFE0"/>
</linearGradient>
<linearGradient id="paint8_linear_0_1" x1="325.336" y1="75.8692" x2="291.142" y2="24.2285" gradientUnits="userSpaceOnUse">
<stop stop-color="white"/>
<stop offset="1" stop-color="white"/>
</linearGradient>
<linearGradient id="paint9_linear_0_1" x1="19.9779" y1="147.687" x2="11.6587" y2="170.222" gradientUnits="userSpaceOnUse">
<stop stop-color="#2AF6FF"/>
<stop offset="0.02" stop-color="#29EEF7"/>
<stop offset="0.13" stop-color="#1FB7BE"/>
<stop offset="0.25" stop-color="#17868B"/>
<stop offset="0.37" stop-color="#105D60"/>
<stop offset="0.49" stop-color="#0A3B3E"/>
<stop offset="0.62" stop-color="#062123"/>
<stop offset="0.74" stop-color="#030F0F"/>
<stop offset="0.87" stop-color="#010404"/>
<stop offset="1"/>
</linearGradient>
<linearGradient id="paint10_linear_0_1" x1="25.7503" y1="149.187" x2="6.91979" y2="169.766" gradientUnits="userSpaceOnUse">
<stop stop-color="#43E8E1"/>
<stop offset="0.09" stop-color="#36BDB7"/>
<stop offset="0.22" stop-color="#288B87"/>
<stop offset="0.34" stop-color="#1C605D"/>
<stop offset="0.47" stop-color="#123E3C"/>
<stop offset="0.6" stop-color="#0A2321"/>
<stop offset="0.73" stop-color="#040F0F"/>
<stop offset="0.86" stop-color="#010404"/>
<stop offset="1"/>
</linearGradient>
<linearGradient id="paint11_linear_0_1" x1="30.1486" y1="151.54" x2="22.9613" y2="172.206" gradientUnits="userSpaceOnUse">
<stop stop-color="#43E8E1"/>
<stop offset="0.09" stop-color="#36BDB7"/>
<stop offset="0.22" stop-color="#288B87"/>
<stop offset="0.34" stop-color="#1C605D"/>
<stop offset="0.47" stop-color="#123E3C"/>
<stop offset="0.6" stop-color="#0A2321"/>
<stop offset="0.73" stop-color="#040F0F"/>
<stop offset="0.86" stop-color="#010404"/>
<stop offset="1"/>
</linearGradient>
<linearGradient id="paint12_linear_0_1" x1="32.1811" y1="158.108" x2="24.0698" y2="149.047" gradientUnits="userSpaceOnUse">
<stop stop-color="#D4D1D8"/>
<stop offset="1" stop-color="white"/>
</linearGradient>
<linearGradient id="paint13_linear_0_1" x1="27.2904" y1="152.773" x2="25.3797" y2="151.197" gradientUnits="userSpaceOnUse">
<stop stop-color="white"/>
<stop offset="1" stop-color="#E6E7E8"/>
</linearGradient>
<linearGradient id="paint14_linear_0_1" x1="0.91206" y1="149.891" x2="22.6652" y2="151.703" gradientUnits="userSpaceOnUse">
<stop stop-color="#F0F0F0"/>
<stop offset="1" stop-color="white"/>
</linearGradient>
<linearGradient id="paint15_linear_0_1" x1="20.1495" y1="158.897" x2="28.2101" y2="153.502" gradientUnits="userSpaceOnUse">
<stop stop-color="#D4D1D8"/>
<stop offset="1" stop-color="white"/>
</linearGradient>
<linearGradient id="paint16_linear_0_1" x1="31.9244" y1="162.211" x2="29.8296" y2="157.349" gradientUnits="userSpaceOnUse">
<stop stop-color="white"/>
<stop offset="1" stop-color="#DEDFE0"/>
</linearGradient>
<linearGradient id="paint17_linear_0_1" x1="44.4752" y1="153.619" x2="27.1201" y2="151.486" gradientUnits="userSpaceOnUse">
<stop stop-color="#F2F2F2"/>
<stop offset="1" stop-color="white"/>
</linearGradient>
<linearGradient id="paint18_linear_0_1" x1="52.16" y1="100.827" x2="35.1401" y2="124.193" gradientUnits="userSpaceOnUse">
<stop stop-color="#2AF6FF"/>
<stop offset="0.02" stop-color="#29EEF7"/>
<stop offset="0.13" stop-color="#1FB7BE"/>
<stop offset="0.25" stop-color="#17868B"/>
<stop offset="0.37" stop-color="#105D60"/>
<stop offset="0.49" stop-color="#0A3B3E"/>
<stop offset="0.62" stop-color="#062123"/>
<stop offset="0.74" stop-color="#030F0F"/>
<stop offset="0.87" stop-color="#010404"/>
<stop offset="1"/>
</linearGradient>
<linearGradient id="paint19_linear_0_1" x1="58.3505" y1="104.462" x2="29.8108" y2="122.119" gradientUnits="userSpaceOnUse">
<stop stop-color="#43E8E1"/>
<stop offset="0.09" stop-color="#36BDB7"/>
<stop offset="0.22" stop-color="#288B87"/>
<stop offset="0.34" stop-color="#1C605D"/>
<stop offset="0.47" stop-color="#123E3C"/>
<stop offset="0.6" stop-color="#0A2321"/>
<stop offset="0.73" stop-color="#040F0F"/>
<stop offset="0.86" stop-color="#010404"/>
<stop offset="1"/>
</linearGradient>
<linearGradient id="paint20_linear_0_1" x1="62.6794" y1="108.619" x2="47.5788" y2="130.193" gradientUnits="userSpaceOnUse">
<stop stop-color="#43E8E1"/>
<stop offset="0.09" stop-color="#36BDB7"/>
<stop offset="0.22" stop-color="#288B87"/>
<stop offset="0.34" stop-color="#1C605D"/>
<stop offset="0.47" stop-color="#123E3C"/>
<stop offset="0.6" stop-color="#0A2321"/>
<stop offset="0.73" stop-color="#040F0F"/>
<stop offset="0.86" stop-color="#010404"/>
<stop offset="1"/>
</linearGradient>
<linearGradient id="paint21_linear_0_1" x1="62.8764" y1="116.887" x2="56.4488" y2="103.74" gradientUnits="userSpaceOnUse">
<stop stop-color="#D4D1D8"/>
<stop offset="1" stop-color="white"/>
</linearGradient>
<linearGradient id="paint22_linear_0_1" x1="58.9624" y1="109.113" x2="57.2678" y2="106.654" gradientUnits="userSpaceOnUse">
<stop stop-color="white"/>
<stop offset="1" stop-color="#E6E7E8"/>
</linearGradient>
<linearGradient id="paint23_linear_0_1" x1="29.3591" y1="97.1346" x2="53.9555" y2="106.352" gradientUnits="userSpaceOnUse">
<stop stop-color="#F4F4F4"/>
<stop offset="1" stop-color="white"/>
</linearGradient>
<linearGradient id="paint24_linear_0_1" x1="48.6898" y1="113.86" x2="59.7802" y2="110.256" gradientUnits="userSpaceOnUse">
<stop stop-color="#D4D1D8"/>
<stop offset="1" stop-color="white"/>
</linearGradient>
<linearGradient id="paint25_linear_0_1" x1="61.2302" y1="121.554" x2="60.4097" y2="115.242" gradientUnits="userSpaceOnUse">
<stop stop-color="white"/>
<stop offset="1" stop-color="#DEDFE0"/>
</linearGradient>
<linearGradient id="paint26_linear_0_1" x1="78.5776" y1="115.716" x2="59.1827" y2="107.568" gradientUnits="userSpaceOnUse">
<stop stop-color="#E7E7E7"/>
<stop offset="1" stop-color="white"/>
</linearGradient>
<linearGradient id="paint27_linear_0_1" x1="105.246" y1="60.3344" x2="70.4038" y2="85.9005" gradientUnits="userSpaceOnUse">
<stop stop-color="#2AF6FF"/>
<stop offset="0.02" stop-color="#29EEF7"/>
<stop offset="0.13" stop-color="#1FB7BE"/>
<stop offset="0.25" stop-color="#17868B"/>
<stop offset="0.37" stop-color="#105D60"/>
<stop offset="0.49" stop-color="#0A3B3E"/>
<stop offset="0.62" stop-color="#062123"/>
<stop offset="0.74" stop-color="#030F0F"/>
<stop offset="0.87" stop-color="#010404"/>
<stop offset="1"/>
</linearGradient>
<linearGradient id="paint28_linear_0_1" x1="112.425" y1="68.3146" x2="63.7514" y2="80.5317" gradientUnits="userSpaceOnUse">
<stop stop-color="#43E8E1"/>
<stop offset="0.09" stop-color="#36BDB7"/>
<stop offset="0.22" stop-color="#288B87"/>
<stop offset="0.34" stop-color="#1C605D"/>
<stop offset="0.47" stop-color="#123E3C"/>
<stop offset="0.6" stop-color="#0A2321"/>
<stop offset="0.73" stop-color="#040F0F"/>
<stop offset="0.86" stop-color="#010404"/>
<stop offset="1"/>
</linearGradient>
<linearGradient id="paint29_linear_0_1" x1="116.706" y1="76.2039" x2="85.4095" y2="100.091" gradientUnits="userSpaceOnUse">
<stop stop-color="#43E8E1"/>
<stop offset="0.09" stop-color="#36BDB7"/>
<stop offset="0.22" stop-color="#288B87"/>
<stop offset="0.34" stop-color="#1C605D"/>
<stop offset="0.47" stop-color="#123E3C"/>
<stop offset="0.6" stop-color="#0A2321"/>
<stop offset="0.73" stop-color="#040F0F"/>
<stop offset="0.86" stop-color="#010404"/>
<stop offset="1"/>
</linearGradient>
<linearGradient id="paint30_linear_0_1" x1="113.237" y1="88.0836" x2="110.043" y2="66.4294" gradientUnits="userSpaceOnUse">
<stop stop-color="#D4D1D8"/>
<stop offset="1" stop-color="white"/>
</linearGradient>
<linearGradient id="paint31_linear_0_1" x1="98" y1="84" x2="109.883" y2="70.9517" gradientUnits="userSpaceOnUse">
<stop stop-color="white"/>
<stop offset="1" stop-color="#E8EDFF"/>
</linearGradient>
<linearGradient id="paint32_linear_0_1" x1="74.4341" y1="44.724" x2="105.307" y2="69.0146" gradientUnits="userSpaceOnUse">
<stop stop-color="#E4E9FB"/>
<stop offset="1" stop-color="white"/>
</linearGradient>
<linearGradient id="paint33_linear_0_1" x1="94.3949" y1="77.3294" x2="111.836" y2="77.2199" gradientUnits="userSpaceOnUse">
<stop stop-color="#D4D1D8"/>
<stop offset="1" stop-color="white"/>
</linearGradient>
<linearGradient id="paint34_linear_0_1" x1="99.5" y1="95.5" x2="118.502" y2="82.5028" gradientUnits="userSpaceOnUse">
<stop stop-color="white"/>
<stop offset="1" stop-color="#E4E9FB"/>
</linearGradient>
<linearGradient id="paint35_linear_0_1" x1="136.147" y1="93.5424" x2="112.201" y2="73.1255" gradientUnits="userSpaceOnUse">
<stop stop-color="#E2E8FA"/>
<stop offset="1" stop-color="white"/>
</linearGradient>
<linearGradient id="paint36_linear_0_1" x1="177.535" y1="24.1845" x2="119.311" y2="56.6901" gradientUnits="userSpaceOnUse">
<stop stop-color="#2AF6FF"/>
<stop offset="0.02" stop-color="#29EEF7"/>
<stop offset="0.13" stop-color="#1FB7BE"/>
<stop offset="0.25" stop-color="#17868B"/>
<stop offset="0.37" stop-color="#105D60"/>
<stop offset="0.49" stop-color="#0A3B3E"/>
<stop offset="0.62" stop-color="#062123"/>
<stop offset="0.74" stop-color="#030F0F"/>
<stop offset="0.87" stop-color="#010404"/>
<stop offset="1"/>
</linearGradient>
<linearGradient id="paint37_linear_0_1" x1="187" y1="37.7748" x2="110.151" y2="47.2096" gradientUnits="userSpaceOnUse">
<stop stop-color="#43E8E1"/>
<stop offset="0.09" stop-color="#36BDB7"/>
<stop offset="0.22" stop-color="#288B87"/>
<stop offset="0.34" stop-color="#1C605D"/>
<stop offset="0.47" stop-color="#123E3C"/>
<stop offset="0.6" stop-color="#0A2321"/>
<stop offset="0.73" stop-color="#040F0F"/>
<stop offset="0.86" stop-color="#010404"/>
<stop offset="1"/>
</linearGradient>
<linearGradient id="paint38_linear_0_1" x1="192.051" y1="50.6768" x2="139.579" y2="81.283" gradientUnits="userSpaceOnUse">
<stop stop-color="#43E8E1"/>
<stop offset="0.09" stop-color="#36BDB7"/>
<stop offset="0.22" stop-color="#288B87"/>
<stop offset="0.34" stop-color="#1C605D"/>
<stop offset="0.47" stop-color="#123E3C"/>
<stop offset="0.6" stop-color="#0A2321"/>
<stop offset="0.73" stop-color="#040F0F"/>
<stop offset="0.86" stop-color="#010404"/>
<stop offset="1"/>
</linearGradient>
<linearGradient id="paint39_linear_0_1" x1="184.48" y1="68.2013" x2="183.719" y2="34.4437" gradientUnits="userSpaceOnUse">
<stop stop-color="#D4D1D8"/>
<stop offset="1" stop-color="white"/>
</linearGradient>
<linearGradient id="paint40_linear_0_1" x1="183.786" y1="48.1226" x2="182.612" y2="41.3406" gradientUnits="userSpaceOnUse">
<stop stop-color="white"/>
<stop offset="1" stop-color="#E6E7E8"/>
</linearGradient>
<linearGradient id="paint41_linear_0_1" x1="133.329" y1="-5.59567" x2="175.97" y2="37.4942" gradientUnits="userSpaceOnUse">
<stop stop-color="#D4D1D8"/>
<stop offset="1" stop-color="white"/>
</linearGradient>
<linearGradient id="paint42_linear_0_1" x1="157.678" y1="48.1455" x2="184.402" y2="51.3028" gradientUnits="userSpaceOnUse">
<stop stop-color="#D4D1D8"/>
<stop offset="1" stop-color="white"/>
</linearGradient>
<linearGradient id="paint43_linear_0_1" x1="176.529" y1="76.3889" x2="180.9" y2="62.3643" gradientUnits="userSpaceOnUse">
<stop stop-color="white"/>
<stop offset="1" stop-color="#DEDFE0"/>
</linearGradient>
<linearGradient id="paint44_linear_0_1" x1="218.515" y1="80.9365" x2="185.74" y2="45.1092" gradientUnits="userSpaceOnUse">
<stop stop-color="#F7F7F7"/>
<stop offset="1" stop-color="white"/>
</linearGradient>
<linearGradient id="paint45_linear_0_1" x1="181.128" y1="206.309" x2="123.376" y2="189.393" gradientUnits="userSpaceOnUse">
<stop offset="0.04" stop-color="#FFA98C"/>
<stop offset="0.32" stop-color="#FFB892"/>
<stop offset="0.86" stop-color="#FEE1A3"/>
<stop offset="1" stop-color="#FEECA8"/>
</linearGradient>
<linearGradient id="paint46_linear_0_1" x1="224.746" y1="215.732" x2="119.456" y2="192.651" gradientUnits="userSpaceOnUse">
<stop offset="0.04" stop-color="#FFA98C"/>
<stop offset="0.32" stop-color="#FFB892"/>
<stop offset="0.86" stop-color="#FEE1A3"/>
<stop offset="1" stop-color="#FEECA8"/>
</linearGradient>
<radialGradient id="paint47_radial_0_1" cx="0" cy="0" r="1" gradientUnits="userSpaceOnUse" gradientTransform="translate(169.895 203.946) rotate(180) scale(19.8408 20.2885)">
<stop stop-color="white"/>
<stop offset="0.07" stop-color="#D8D8D8"/>
<stop offset="0.16" stop-color="#A6A6A6"/>
<stop offset="0.26" stop-color="#797979"/>
<stop offset="0.37" stop-color="#545454"/>
<stop offset="0.47" stop-color="#353535"/>
<stop offset="0.59" stop-color="#1E1E1E"/>
<stop offset="0.7" stop-color="#0D0D0D"/>
<stop offset="0.84" stop-color="#030303"/>
<stop offset="1"/>
</radialGradient>
<linearGradient id="paint48_linear_0_1" x1="198.863" y1="85.9597" x2="176.159" y2="125.987" gradientUnits="userSpaceOnUse">
<stop stop-color="white"/>
<stop offset="1"/>
</linearGradient>
<linearGradient id="paint49_linear_0_1" x1="147.018" y1="218.156" x2="162.222" y2="198.243" gradientUnits="userSpaceOnUse">
<stop offset="0.04" stop-color="#5780FF"/>
<stop offset="0.87" stop-color="#7597FF"/>
</linearGradient>
<linearGradient id="paint50_linear_0_1" x1="181.03" y1="215.572" x2="132.521" y2="204.939" gradientUnits="userSpaceOnUse">
<stop offset="0.04" stop-color="#5780FF"/>
<stop offset="1" stop-color="#A5BBFF"/>
</linearGradient>
<radialGradient id="paint51_radial_0_1" cx="0" cy="0" r="1" gradientUnits="userSpaceOnUse" gradientTransform="translate(151.905 208.722) rotate(180) scale(9.23486 9.44328)">
<stop stop-color="white"/>
<stop offset="0.07" stop-color="#D8D8D8"/>
<stop offset="0.16" stop-color="#A6A6A6"/>
<stop offset="0.26" stop-color="#797979"/>
<stop offset="0.37" stop-color="#545454"/>
<stop offset="0.47" stop-color="#353535"/>
<stop offset="0.59" stop-color="#1E1E1E"/>
<stop offset="0.7" stop-color="#0D0D0D"/>
<stop offset="0.84" stop-color="#030303"/>
<stop offset="1"/>
</radialGradient>
<linearGradient id="paint52_linear_0_1" x1="276.326" y1="243.311" x2="218.565" y2="226.395" gradientUnits="userSpaceOnUse">
<stop offset="0.04" stop-color="#FFA98C"/>
<stop offset="0.32" stop-color="#FFB892"/>
<stop offset="0.86" stop-color="#FEE1A3"/>
<stop offset="1" stop-color="#FEECA8"/>
</linearGradient>
<linearGradient id="paint53_linear_0_1" x1="319.945" y1="252.734" x2="214.645" y2="229.654" gradientUnits="userSpaceOnUse">
<stop offset="0.04" stop-color="#FFA98C"/>
<stop offset="0.32" stop-color="#FFB892"/>
<stop offset="0.86" stop-color="#FEE1A3"/>
<stop offset="1" stop-color="#FEECA8"/>
</linearGradient>
<radialGradient id="paint54_radial_0_1" cx="0" cy="0" r="1" gradientUnits="userSpaceOnUse" gradientTransform="translate(265.094 240.958) rotate(180) scale(19.8408 20.2885)">
<stop stop-color="white"/>
<stop offset="0.07" stop-color="#D8D8D8"/>
<stop offset="0.16" stop-color="#A6A6A6"/>
<stop offset="0.26" stop-color="#797979"/>
<stop offset="0.37" stop-color="#545454"/>
<stop offset="0.47" stop-color="#353535"/>
<stop offset="0.59" stop-color="#1E1E1E"/>
<stop offset="0.7" stop-color="#0D0D0D"/>
<stop offset="0.84" stop-color="#030303"/>
<stop offset="1"/>
</radialGradient>
<linearGradient id="paint55_linear_0_1" x1="278.035" y1="140.398" x2="278.035" y2="188.514" gradientUnits="userSpaceOnUse">
<stop stop-color="white"/>
<stop offset="1" stop-color="#F5F8FF"/>
</linearGradient>
<linearGradient id="paint56_linear_0_1" x1="278.069" y1="140.867" x2="278.069" y2="190.712" gradientUnits="userSpaceOnUse">
<stop stop-color="white"/>
<stop offset="1" stop-color="#F5F8FF"/>
</linearGradient>
<linearGradient id="paint57_linear_0_1" x1="278.064" y1="135.349" x2="278.064" y2="140.857" gradientUnits="userSpaceOnUse">
<stop stop-color="white"/>
<stop offset="1" stop-color="#F5F8FF"/>
</linearGradient>
<linearGradient id="paint58_linear_0_1" x1="294.062" y1="122.962" x2="271.357" y2="162.989" gradientUnits="userSpaceOnUse">
<stop stop-color="white"/>
<stop offset="1"/>
</linearGradient>
<linearGradient id="paint59_linear_0_1" x1="242.217" y1="255.168" x2="257.411" y2="235.244" gradientUnits="userSpaceOnUse">
<stop offset="0.04" stop-color="#243B84"/>
<stop offset="0.87" stop-color="#30468F"/>
</linearGradient>
<linearGradient id="paint60_linear_0_1" x1="276.228" y1="252.584" x2="227.71" y2="241.941" gradientUnits="userSpaceOnUse">
<stop offset="0.04" stop-color="#0A216A"/>
<stop offset="1" stop-color="#5369B1"/>
</linearGradient>
<radialGradient id="paint61_radial_0_1" cx="0" cy="0" r="1" gradientUnits="userSpaceOnUse" gradientTransform="translate(247.094 245.725) rotate(180) scale(9.23486 9.44327)">
<stop stop-color="white"/>
<stop offset="0.07" stop-color="#D8D8D8"/>
<stop offset="0.16" stop-color="#A6A6A6"/>
<stop offset="0.26" stop-color="#797979"/>
<stop offset="0.37" stop-color="#545454"/>
<stop offset="0.47" stop-color="#353535"/>
<stop offset="0.59" stop-color="#1E1E1E"/>
<stop offset="0.7" stop-color="#0D0D0D"/>
<stop offset="0.84" stop-color="#030303"/>
<stop offset="1"/>
</radialGradient>
<linearGradient id="paint62_linear_0_1" x1="366.902" y1="179.962" x2="309.141" y2="163.046" gradientUnits="userSpaceOnUse">
<stop offset="0.04" stop-color="#FFA98C"/>
<stop offset="0.32" stop-color="#FFB892"/>
<stop offset="0.86" stop-color="#FEE1A3"/>
<stop offset="1" stop-color="#FEECA8"/>
</linearGradient>
<linearGradient id="paint63_linear_0_1" x1="410.52" y1="189.385" x2="305.231" y2="166.304" gradientUnits="userSpaceOnUse">
<stop offset="0.04" stop-color="#FFA98C"/>
<stop offset="0.32" stop-color="#FFB892"/>
<stop offset="0.86" stop-color="#FEE1A3"/>
<stop offset="1" stop-color="#FEECA8"/>
</linearGradient>
<radialGradient id="paint64_radial_0_1" cx="0" cy="0" r="1" gradientUnits="userSpaceOnUse" gradientTransform="translate(355.67 177.599) rotate(180) scale(19.8407 20.2885)">
<stop stop-color="white"/>
<stop offset="0.07" stop-color="#D8D8D8"/>
<stop offset="0.16" stop-color="#A6A6A6"/>
<stop offset="0.26" stop-color="#797979"/>
<stop offset="0.37" stop-color="#545454"/>
<stop offset="0.47" stop-color="#353535"/>
<stop offset="0.59" stop-color="#1E1E1E"/>
<stop offset="0.7" stop-color="#0D0D0D"/>
<stop offset="0.84" stop-color="#030303"/>
<stop offset="1"/>
</radialGradient>
<linearGradient id="paint65_linear_0_1" x1="384.638" y1="59.6128" x2="361.934" y2="99.6398" gradientUnits="userSpaceOnUse">
<stop stop-color="white"/>
<stop offset="1"/>
</linearGradient>
<linearGradient id="paint66_linear_0_1" x1="332.793" y1="191.809" x2="347.997" y2="171.895" gradientUnits="userSpaceOnUse">
<stop offset="0.04" stop-color="#FF2853"/>
<stop offset="0.87" stop-color="#FF5F7F"/>
</linearGradient>
<linearGradient id="paint67_linear_0_1" x1="366.804" y1="189.225" x2="318.286" y2="178.592" gradientUnits="userSpaceOnUse">
<stop offset="0.04" stop-color="#FF2853"/>
<stop offset="1" stop-color="#FF859D"/>
</linearGradient>
<radialGradient id="paint68_radial_0_1" cx="0" cy="0" r="1" gradientUnits="userSpaceOnUse" gradientTransform="translate(337.67 182.375) rotate(180) scale(9.23487 9.44328)">
<stop stop-color="white"/>
<stop offset="0.07" stop-color="#D8D8D8"/>
<stop offset="0.16" stop-color="#A6A6A6"/>
<stop offset="0.26" stop-color="#797979"/>
<stop offset="0.37" stop-color="#545454"/>
<stop offset="0.47" stop-color="#353535"/>
<stop offset="0.59" stop-color="#1E1E1E"/>
<stop offset="0.7" stop-color="#0D0D0D"/>
<stop offset="0.84" stop-color="#030303"/>
<stop offset="1"/>
</radialGradient>
</defs>
</svg>
