<svg width="40" height="40" viewBox="0 0 40 40" fill="none" xmlns="http://www.w3.org/2000/svg">
<circle cx="20" cy="20" r="20" fill="#F5F5F5"/>
<g clip-path="url(#clip0_0_1)">
<path d="M9.44211 26.7146C8.82464 26.3935 8.35517 25.8307 8.13693 25.1499C7.91868 24.4692 7.96953 23.7262 8.27829 23.0844L12.8931 13.4967C13.0455 13.1787 13.2569 12.8951 13.515 12.6621C13.7731 12.4292 14.0729 12.2514 14.3973 12.1391C14.7216 12.0267 15.0641 11.982 15.4051 12.0074C15.7461 12.0328 16.0789 12.128 16.3845 12.2873C17.0006 12.6093 17.4685 13.1724 17.6854 13.8527C17.9023 14.533 17.8505 15.275 17.5413 15.9156L12.9318 25.4978C12.624 26.1398 12.0836 26.6286 11.4293 26.8567C10.7749 27.0849 10.0602 27.0338 9.44211 26.7146Z" fill="#04A4B3"/>
<path d="M17.6818 26.7145C17.0644 26.3934 16.5949 25.8306 16.3767 25.1499C16.1584 24.4691 16.2093 23.7262 16.518 23.0844L21.131 13.4967C21.2839 13.1788 21.4955 12.8953 21.7538 12.6625C22.0121 12.4296 22.312 12.2519 22.6365 12.1396C22.9609 12.0273 23.3034 11.9825 23.6445 12.0079C23.9856 12.0332 24.3185 12.1281 24.6243 12.2872C24.9299 12.4461 25.2025 12.6659 25.4264 12.9342C25.6504 13.2025 25.8212 13.514 25.9293 13.8509C26.0374 14.1878 26.0805 14.5436 26.0563 14.8978C26.0321 15.2521 25.9409 15.5979 25.7881 15.9156L21.1751 25.4978C21.0227 25.8161 20.8114 26.1002 20.5534 26.3336C20.2953 26.5671 19.9955 26.7454 19.6711 26.8584C19.3467 26.9714 19.004 27.0169 18.6627 26.9922C18.3214 26.9675 17.9881 26.8732 17.6818 26.7145Z" fill="#04A4B3"/>
<path d="M28.5299 26.7127C30.4465 26.7127 32.0002 25.0981 32.0002 23.1064C32.0002 21.1146 30.4465 19.5 28.5299 19.5C26.6133 19.5 25.0596 21.1146 25.0596 23.1064C25.0596 25.0981 26.6133 26.7127 28.5299 26.7127Z" fill="#04A4B3"/>
</g>
<defs>
<clipPath id="clip0_0_1">
<rect width="24" height="15" fill="white" transform="translate(8 12)"/>
</clipPath>
</defs>
</svg>
