<svg width="40" height="40" viewBox="0 0 40 40" fill="none" xmlns="http://www.w3.org/2000/svg">
<circle cx="20" cy="20" r="20" fill="#F5F5F5"/>
<g clip-path="url(#clip0_0_1)">
<path d="M13.6826 17.8755L19.3652 25.9999H8L13.6826 17.8755Z" fill="#3C428D"/>
<path d="M26.1825 26H20.7296L14.3647 16.8992L17.0904 13L26.1825 26Z" fill="#3C428D"/>
<path d="M33.0002 26H27.5489L21.1841 16.8992L23.9097 13L33.0002 26Z" fill="#3C428D"/>
<path d="M26.1825 26H20.7296L14.3647 16.8992L17.0904 13L26.1825 26Z" fill="#3C428D"/>
</g>
<defs>
<clipPath id="clip0_0_1">
<rect width="25" height="13" fill="white" transform="translate(8 13)"/>
</clipPath>
</defs>
</svg>
<svg width="40" height="40" viewBox="0 0 40 40" fill="none" xmlns="http://www.w3.org/2000/svg">
<circle cx="20" cy="20" r="20" fill="#F5F5F5"/>
<g clip-path="url(#clip0_0_1)">
<path d="M13.6826 17.8755L19.3652 25.9999H8L13.6826 17.8755Z" fill="#3C428D"/>
<path d="M26.1825 26H20.7296L14.3647 16.8992L17.0904 13L26.1825 26Z" fill="#3C428D"/>
<path d="M33.0002 26H27.5489L21.1841 16.8992L23.9097 13L33.0002 26Z" fill="#3C428D"/>
<path d="M26.1825 26H20.7296L14.3647 16.8992L17.0904 13L26.1825 26Z" fill="#3C428D"/>
</g>
<defs>
<clipPath id="clip0_0_1">
<rect width="25" height="13" fill="white" transform="translate(8 13)"/>
</clipPath>
</defs>
</svg>
