<svg width="40" height="40" viewBox="0 0 40 40" fill="none" xmlns="http://www.w3.org/2000/svg">
<circle cx="20" cy="20" r="20" fill="#F5F5F5"/>
<g clip-path="url(#clip0_0_1)">
<path d="M25.7146 27.9986C25.1855 27.9987 24.6728 27.8248 24.2638 27.5066C23.8548 27.1884 23.5749 26.7456 23.4717 26.2536C23.3685 25.7617 23.4484 25.251 23.6978 24.8086C23.9473 24.3663 24.3508 24.0196 24.8396 23.8277C25.3285 23.6359 25.8724 23.6106 26.3786 23.7563C26.8849 23.902 27.3222 24.2097 27.616 24.6268C27.9098 25.0439 28.042 25.5448 27.9899 26.0439C27.9379 26.5431 27.7049 27.0097 27.3307 27.3643C27.1186 27.5657 26.8667 27.7254 26.5894 27.8343C26.312 27.9431 26.0148 27.999 25.7146 27.9986Z" fill="#F87000"/>
<path d="M13.2883 16.4364C12.7592 16.4364 12.2465 16.2625 11.8375 15.9443C11.4285 15.6261 11.1486 15.1833 11.0454 14.6914C10.9422 14.1994 11.0221 13.6887 11.2716 13.2464C11.521 12.804 11.9245 12.4574 12.4134 12.2655C12.9022 12.0736 13.4461 12.0484 13.9523 12.1941C14.4586 12.3398 14.8959 12.6474 15.1897 13.0645C15.4835 13.4817 15.6157 13.9825 15.5637 14.4817C15.5116 14.9809 15.2786 15.4475 14.9044 15.802C14.6927 16.0039 14.4409 16.164 14.1635 16.2729C13.886 16.3818 13.5886 16.4373 13.2883 16.4364Z" fill="#F87000"/>
<path d="M25.6116 16.3732C25.0825 16.3726 24.5701 16.1981 24.1615 15.8794C23.753 15.5608 23.4736 15.1177 23.371 14.6256C23.2685 14.1336 23.349 13.623 23.599 13.181C23.8489 12.7389 24.2528 12.3927 24.7418 12.2014C25.2308 12.01 25.7747 11.9853 26.2808 12.1315C26.7868 12.2777 27.2238 12.5857 27.5171 13.0031C27.8105 13.4205 27.9422 13.9214 27.8896 14.4205C27.8371 14.9196 27.6037 15.386 27.2291 15.7402C27.017 15.9418 26.7648 16.1016 26.4872 16.2102C26.2096 16.3189 25.9119 16.3743 25.6116 16.3732Z" fill="#F87000"/>
<path d="M13.3479 27.9986C12.8955 27.9989 12.4532 27.8719 12.0769 27.6337C11.7006 27.3955 11.4074 27.0568 11.2342 26.6605C11.061 26.2642 11.0157 25.8282 11.1041 25.4075C11.1924 24.9868 11.4104 24.6004 11.7304 24.2972C11.8289 24.2043 11.9371 24.1211 12.0533 24.049C12.0893 24.0245 12.1267 24.0019 12.1654 23.9814C12.2497 23.9345 12.3341 23.8931 12.4126 23.8587C12.4563 23.8407 12.4999 23.8214 12.5465 23.8049C12.6362 23.7723 12.728 23.7451 12.8214 23.7235L12.8796 23.7084L12.9159 23.6987L13.425 23.667C13.489 23.667 13.5574 23.6766 13.6316 23.6863H13.6607H13.7247H13.7451H13.7683H13.7887H13.9007C14.7955 23.6743 15.6487 23.3261 16.273 22.7182C16.8973 22.1104 17.2416 21.2924 17.2303 20.4441V20.4193V20.3944C17.2289 20.371 17.2289 20.3475 17.2303 20.3241C17.2303 20.2965 17.2303 20.2689 17.2216 20.2414V20.1917C17.2216 20.1503 17.2128 20.1103 17.2099 20.069L17.2477 19.5835C17.251 19.5719 17.2549 19.5603 17.2594 19.5491L17.2681 19.5187C17.2897 19.4249 17.3184 19.3328 17.3539 19.2429C17.3697 19.2001 17.3881 19.1581 17.4092 19.1174C17.4487 19.0347 17.4929 18.9542 17.5416 18.8761C17.5634 18.843 17.5852 18.8085 17.6099 18.774C17.6874 18.6639 17.7755 18.561 17.8732 18.4665C18.0839 18.2576 18.3364 18.0908 18.616 17.9757C18.8956 17.8607 19.1966 17.7998 19.5014 17.7965C19.8061 17.7933 20.1085 17.8478 20.3908 17.9569C20.673 18.066 20.9294 18.2274 21.1449 18.4318C21.3604 18.6361 21.5307 18.8792 21.6458 19.1468C21.7608 19.4143 21.8184 19.701 21.8149 19.99C21.8115 20.2789 21.7473 20.5643 21.6259 20.8294C21.5046 21.0944 21.3286 21.3338 21.1083 21.5336C21.009 21.6257 20.9009 21.7088 20.7854 21.7818C20.7475 21.8066 20.7112 21.8273 20.6748 21.8466C20.595 21.8925 20.5124 21.934 20.4275 21.9707C20.3824 21.99 20.3373 22.0093 20.2952 22.0245C20.2042 22.0558 20.1115 22.0821 20.0173 22.1031L19.962 22.1169L19.9257 22.1266L19.4108 22.161C19.347 22.1581 19.2834 22.1522 19.2202 22.1431H19.1751H19.1111H19.0762H19.05H18.9176C18.4737 22.1483 18.0352 22.2365 17.6273 22.4027C17.2194 22.5688 16.8501 22.8096 16.5405 23.1113C16.231 23.413 15.9872 23.7697 15.8233 24.1608C15.6593 24.552 15.5784 24.97 15.5851 25.3908V25.4143V25.4391C15.589 25.4624 15.5914 25.4859 15.5924 25.5094C15.5924 25.537 15.5924 25.5646 15.6011 25.5922C15.6026 25.6176 15.6055 25.6429 15.6099 25.668C15.6099 25.7011 15.6099 25.7342 15.6099 25.7673V25.7783L15.5735 26.2431C15.5735 26.2527 15.5546 26.3065 15.5502 26.3231C15.5283 26.4143 15.5001 26.5042 15.4659 26.592C15.4506 26.6335 15.4326 26.674 15.412 26.7133C15.3713 26.7961 15.3291 26.8747 15.2797 26.9561C15.2578 26.9878 15.2331 27.0264 15.2069 27.0636C15.1295 27.1712 15.0424 27.2723 14.9466 27.3657C14.7348 27.5674 14.4829 27.7273 14.2055 27.8362C13.9281 27.9451 13.6307 28.0008 13.3305 28L13.3479 27.9986Z" fill="#F87000"/>
<path d="M19.5256 27.9987C19.0355 28.0036 18.5569 27.8586 18.1607 27.5851C17.7645 27.3116 17.4719 26.9242 17.3264 26.4806C17.1809 26.0369 17.1901 25.5606 17.3528 25.1223C17.5155 24.684 17.823 24.3072 18.2295 24.0477C18.2644 24.0256 18.3008 24.0049 18.3386 23.9843C18.419 23.9382 18.5021 23.8963 18.5873 23.8588L18.7197 23.805C18.8101 23.7742 18.9024 23.7489 18.9961 23.7291L19.0863 23.7043L19.6041 23.6684C19.6652 23.6684 19.7307 23.6795 19.799 23.6878H19.8383H19.9052H19.9314H19.9474H20.0827C20.9767 23.6754 21.829 23.3272 22.4525 22.7196C23.0759 22.1119 23.4196 21.2946 23.4079 20.4469V20.3463L23.3992 20.3352C23.3986 20.3316 23.3986 20.3279 23.3992 20.3242V20.2525L23.3905 20.1835C23.3905 20.1449 23.3803 20.1077 23.3788 20.0691L23.4137 19.6002C23.4137 19.5878 23.4341 19.5299 23.4385 19.5119C23.4609 19.4217 23.4891 19.3328 23.5228 19.2458C23.5394 19.203 23.5583 19.1611 23.5796 19.1203C23.6187 19.039 23.6624 18.9598 23.7105 18.8831L23.7207 18.8665C23.7381 18.8389 23.7556 18.81 23.7759 18.7824C23.8544 18.6722 23.943 18.5688 24.0407 18.4735C24.47 18.0668 25.052 17.8384 25.6589 17.8384C26.2658 17.8384 26.8479 18.0668 27.2772 18.4735C27.7047 18.8812 27.9447 19.4328 27.9447 20.0077C27.9447 20.5826 27.7047 21.1342 27.2772 21.5419C27.1767 21.6333 27.0682 21.7163 26.9528 21.7902L26.8772 21.8343L26.8364 21.8591C26.7589 21.903 26.6788 21.9426 26.5964 21.9777C26.5499 21.997 26.5077 22.0163 26.4611 22.0329C26.3698 22.064 26.2765 22.0898 26.1819 22.1101L26.1237 22.1253L26.0873 22.1349L25.5796 22.168C25.5055 22.168 25.424 22.1556 25.3469 22.146C25.3246 22.1449 25.3023 22.1449 25.28 22.146H25.2567H25.2131H25.0996C24.6567 22.1517 24.2193 22.2401 23.8125 22.4062C23.4056 22.5723 23.0372 22.8128 22.7284 23.1138C22.4196 23.4149 22.1764 23.7708 22.0127 24.161C21.849 24.5512 21.768 24.9682 21.7744 25.3882V25.413V25.4364C21.7783 25.4611 21.7807 25.486 21.7817 25.5109C21.7817 25.5357 21.7817 25.5605 21.7889 25.5854C21.7962 25.6102 21.7889 25.6322 21.7962 25.6571C21.8035 25.6819 21.8049 25.7315 21.8064 25.7674L21.7686 26.2446L21.7468 26.319C21.7248 26.4125 21.6966 26.5047 21.6624 26.5948C21.6478 26.6335 21.6289 26.6721 21.6115 26.7107L21.6042 26.7245C21.5661 26.803 21.5234 26.8795 21.4762 26.9534C21.4529 26.9902 21.4296 27.026 21.4064 27.061C21.328 27.1707 21.2394 27.2737 21.1416 27.3685C20.9297 27.5697 20.6777 27.729 20.4002 27.8372C20.1228 27.9454 19.8255 28.0003 19.5256 27.9987Z" fill="#F87000"/>
<path d="M13.3494 22.1445C12.897 22.145 12.4546 22.0183 12.0782 21.7804C11.7018 21.5425 11.4083 21.2041 11.2349 20.808C11.0614 20.4119 11.0157 19.9759 11.1037 19.5552C11.1916 19.1344 11.4093 18.7479 11.729 18.4445C11.8285 18.3517 11.9371 18.2681 12.0534 18.1949L12.1668 18.1273C12.2454 18.0832 12.3268 18.0432 12.4126 18.0046C12.4563 17.9853 12.4999 17.9673 12.5465 17.9508C12.6363 17.92 12.7282 17.8947 12.8214 17.8749L12.8781 17.8598L12.9101 17.8501L13.428 17.8156C13.4949 17.8156 13.5734 17.8267 13.6447 17.8363H13.6607H13.7276H13.7509H13.7727H13.7931H13.908C14.3508 17.8304 14.788 17.7418 15.1947 17.5757C15.6014 17.4095 15.9696 17.169 16.2782 16.8679C16.5869 16.5669 16.8299 16.2111 16.9936 15.821C17.1572 15.4308 17.2381 15.0139 17.2318 14.5941V14.5707V14.5472C17.2267 14.5208 17.2238 14.4941 17.223 14.4672V14.401L17.2143 14.3335C17.2083 14.2937 17.2044 14.2537 17.2027 14.2135L17.2376 13.7584V13.7474V13.7377L17.2594 13.6674C17.2813 13.5738 17.3095 13.4817 17.3438 13.3916C17.3598 13.3502 17.3801 13.3088 17.4005 13.2661C17.4393 13.1847 17.483 13.1055 17.5314 13.0289V13.0165C17.5518 12.9861 17.5707 12.9544 17.594 12.9227C17.6703 12.8139 17.7575 12.7123 17.8543 12.6193C18.0649 12.4103 18.3173 12.2434 18.5968 12.1282C18.8764 12.0131 19.1774 11.952 19.4821 11.9486C19.7869 11.9453 20.0893 11.9997 20.3716 12.1086C20.6539 12.2176 20.9104 12.3789 21.126 12.5832C21.3416 12.7874 21.512 13.0304 21.6272 13.2979C21.7424 13.5655 21.8 13.8521 21.7968 14.1411C21.7935 14.43 21.7293 14.7154 21.6081 14.9806C21.4869 15.2457 21.311 15.4852 21.0908 15.685C20.9919 15.7774 20.8838 15.8605 20.7679 15.9332C20.733 15.9566 20.7024 15.9732 20.6719 15.9911L20.6544 16.0008C20.5701 16.0477 20.4886 16.089 20.4101 16.1235C20.3635 16.1428 20.3213 16.1621 20.2762 16.1773C20.1849 16.2089 20.0917 16.2352 19.997 16.2559C19.9768 16.26 19.9569 16.265 19.9373 16.2711L19.901 16.2807L19.3933 16.3138C19.3293 16.3138 19.2609 16.3028 19.1897 16.2945H19.1577H19.0922H19.066H19.05H18.9133C18.4701 16.2999 18.0324 16.3881 17.6252 16.554C17.218 16.7199 16.8493 16.9603 16.5402 17.2614C16.2311 17.5626 15.9876 17.9185 15.8238 18.3089C15.6599 18.6994 15.5788 19.1166 15.5851 19.5367V19.5602V19.5836C15.5902 19.6082 15.5931 19.6331 15.5939 19.6581C15.5939 19.6829 15.5939 19.7091 15.5939 19.7339C15.5939 19.7587 15.5939 19.7794 15.6026 19.8056C15.6077 19.8413 15.6106 19.8772 15.6113 19.9132L15.5851 20.3862C15.5851 20.3986 15.5851 20.411 15.575 20.4235L15.5619 20.4662C15.5401 20.5597 15.5125 20.6518 15.479 20.742C15.463 20.7834 15.4411 20.8248 15.4208 20.8689C15.3829 20.9491 15.3407 21.0273 15.2942 21.1033C15.2709 21.1406 15.2477 21.1764 15.2244 21.2095C15.1477 21.3197 15.0595 21.4223 14.9611 21.5157C14.7496 21.7174 14.498 21.8774 14.2209 21.9863C13.9437 22.0952 13.6465 22.1508 13.3465 22.1501L13.3494 22.1445Z" fill="#F87000"/>
</g>
<defs>
<clipPath id="clip0_0_1">
<rect width="17" height="16" fill="white" transform="translate(11 12)"/>
</clipPath>
</defs>
</svg>
