<svg width="43" height="28" viewBox="0 0 43 28" fill="none" xmlns="http://www.w3.org/2000/svg">
<path d="M43.0001 10.5582V17.4414C42.9969 20.2009 41.8881 22.8464 39.9171 24.7973C37.9462 26.7482 35.2741 27.8451 32.4873 27.8473H14.3403C13.5543 27.8187 12.8102 27.4895 12.2644 26.9288C11.7186 26.3681 11.4136 25.6197 11.4136 24.8409C11.4136 24.0621 11.7186 23.3137 12.2644 22.753C12.8102 22.1924 13.5543 21.8631 14.3403 21.8346H32.4873C33.664 21.8335 34.7922 21.3704 35.6247 20.5469C36.4571 19.7234 36.9258 18.6066 36.9279 17.4414V10.5582C36.9258 9.39301 36.4571 8.27623 35.6247 7.45271C34.7922 6.62919 33.664 6.16613 32.4873 6.16506H28.938C29.7248 6.14412 30.4726 5.82168 31.024 5.26565C31.5755 4.70962 31.8875 3.96338 31.8944 3.1841C31.9013 2.40481 31.6025 1.65329 31.061 1.08778C30.5194 0.522275 29.7774 0.186921 28.9912 0.152344H32.5036C35.2876 0.15877 37.9555 1.25755 39.9229 3.20798C41.8904 5.15841 42.9969 7.80147 43.0001 10.5582Z" fill="url(#paint0_linear_148_36)"/>
<path d="M31.9596 3.15668C31.9596 3.95175 31.6417 4.7145 31.0755 5.27822C30.5093 5.84193 29.7407 6.16078 28.9378 6.16506H10.5373C9.36056 6.16613 8.23231 6.62919 7.39988 7.45271C6.56744 8.27623 6.09877 9.39301 6.0966 10.5582V17.4414C6.09877 18.6066 6.56744 19.7234 7.39988 20.5469C8.23231 21.3704 9.36056 21.8335 10.5373 21.8346H14.3646C13.5786 21.8631 12.8345 22.1924 12.2887 22.753C11.7429 23.3137 11.4379 24.0621 11.4379 24.8409C11.4379 25.6197 11.7429 26.3681 12.2887 26.9288C12.8345 27.4895 13.5786 27.8187 14.3646 27.8473H10.5373C7.75079 27.844 5.07931 26.7468 3.10859 24.7962C1.13787 22.8455 0.0287424 20.2006 0.0244141 17.4414V10.5582C0.0287424 7.799 1.13787 5.15411 3.10859 3.20345C5.07931 1.25279 7.75079 0.155556 10.5373 0.152344H28.9991C29.791 0.171371 30.5439 0.49628 31.0971 1.05765C31.6503 1.61902 31.9598 2.37235 31.9596 3.15668Z" fill="#77C2C4"/>
<path style="mix-blend-mode:multiply" opacity="0.3" d="M32.4872 0.152345H28.9748C29.7608 0.185245 30.5033 0.518793 31.046 1.08279C31.5887 1.64679 31.8893 2.39726 31.8845 3.17628C31.8798 3.95529 31.57 4.7021 31.0205 5.25954C30.4709 5.81698 29.7244 6.14159 28.938 6.16506H32.5036C33.6803 6.16613 34.8085 6.62919 35.641 7.45271C36.4734 8.27623 36.9421 9.39301 36.9443 10.5582V10.9064L42.399 7.03963C41.6629 5.0215 40.3162 3.27726 38.5425 2.04474C36.7687 0.81221 34.6542 0.151378 32.4872 0.152345Z" fill="url(#paint1_linear_148_36)"/>
<g opacity="0.3">
<path style="mix-blend-mode:multiply" opacity="0.3" d="M0 13.3884V14.6031C0 22.5188 6.61194 21.8305 6.61194 21.8305H10.1285C9.0206 21.7364 7.98847 21.2349 7.23543 20.4248C6.48238 19.6146 6.063 18.5546 6.05991 17.4536V10.5703C6.06208 9.40517 6.53075 8.2884 7.36318 7.46487C8.19562 6.64135 9.32387 6.17829 10.5006 6.17722H6.61194C6.61194 6.17722 0 5.4727 0 13.3884Z" fill="url(#paint2_linear_148_36)"/>
<path style="mix-blend-mode:multiply" opacity="0.3" d="M43.0001 13.3884V14.6031C43.0001 22.5188 36.3882 21.8305 36.3882 21.8305H32.8635C33.971 21.7363 35.0027 21.2347 35.755 20.4245C36.5074 19.6142 36.9259 18.5543 36.928 17.4536V10.5703C36.9258 9.40517 36.4571 8.2884 35.6247 7.46487C34.7923 6.64135 33.664 6.17829 32.4873 6.17722H36.3882C36.3882 6.17722 43.0001 5.4727 43.0001 13.3884Z" fill="url(#paint3_linear_148_36)"/>
<path style="mix-blend-mode:multiply" opacity="0.3" d="M10.5128 27.8472H14.3401C13.5541 27.8187 12.81 27.4894 12.2642 26.9288C11.7184 26.3681 11.4134 25.6197 11.4134 24.8409C11.4134 24.0621 11.7184 23.3137 12.2642 22.753C12.81 22.1923 13.5541 21.8631 14.3401 21.8345H10.5128C9.52119 21.833 8.55857 21.5034 7.77775 20.8982C6.99692 20.293 6.44265 19.4469 6.20296 18.4941L1.91357 23.4136C2.8821 24.782 4.16919 25.8993 5.66598 26.6711C7.16277 27.4428 8.82524 27.8462 10.5128 27.8472Z" fill="url(#paint4_linear_148_36)"/>
</g>
<defs>
<linearGradient id="paint0_linear_148_36" x1="17.955" y1="34.5078" x2="51.9092" y2="-11.5656" gradientUnits="userSpaceOnUse">
<stop stop-color="#00BAEB"/>
<stop offset="0.05" stop-color="#07B2E4"/>
<stop offset="0.35" stop-color="#2988C3"/>
<stop offset="0.61" stop-color="#4269AA"/>
<stop offset="0.84" stop-color="#51579B"/>
<stop offset="1" stop-color="#565096"/>
</linearGradient>
<linearGradient id="paint1_linear_148_36" x1="44.9994" y1="8.02894" x2="32.0743" y2="4.59365" gradientUnits="userSpaceOnUse">
<stop offset="0.49" stop-color="white"/>
<stop offset="0.55" stop-color="#FAFAFA"/>
<stop offset="0.61" stop-color="#ECECEC"/>
<stop offset="0.68" stop-color="#D5D5D5"/>
<stop offset="0.75" stop-color="#B5B5B5"/>
<stop offset="0.82" stop-color="#8C8C8C"/>
<stop offset="0.89" stop-color="#595959"/>
<stop offset="0.97" stop-color="#1E1E1E"/>
<stop offset="1"/>
</linearGradient>
<linearGradient id="paint2_linear_148_36" x1="9833.59" y1="3027.16" x2="9827.5" y2="2123.6" gradientUnits="userSpaceOnUse">
<stop offset="0.49" stop-color="white"/>
<stop offset="0.55" stop-color="#FAFAFA"/>
<stop offset="0.61" stop-color="#ECECEC"/>
<stop offset="0.68" stop-color="#D5D5D5"/>
<stop offset="0.75" stop-color="#B5B5B5"/>
<stop offset="0.82" stop-color="#8C8C8C"/>
<stop offset="0.89" stop-color="#595959"/>
<stop offset="0.97" stop-color="#1E1E1E"/>
<stop offset="1"/>
</linearGradient>
<linearGradient id="paint3_linear_148_36" x1="10718.4" y1="1837.81" x2="10688" y2="2671.46" gradientUnits="userSpaceOnUse">
<stop offset="0.49" stop-color="white"/>
<stop offset="0.55" stop-color="#FAFAFA"/>
<stop offset="0.61" stop-color="#ECECEC"/>
<stop offset="0.68" stop-color="#D5D5D5"/>
<stop offset="0.75" stop-color="#B5B5B5"/>
<stop offset="0.82" stop-color="#8C8C8C"/>
<stop offset="0.89" stop-color="#595959"/>
<stop offset="0.97" stop-color="#1E1E1E"/>
<stop offset="1"/>
</linearGradient>
<linearGradient id="paint4_linear_148_36" x1="-4200.85" y1="6120.46" x2="-3896.87" y2="5906.65" gradientUnits="userSpaceOnUse">
<stop offset="0.49" stop-color="white"/>
<stop offset="0.55" stop-color="#FAFAFA"/>
<stop offset="0.61" stop-color="#ECECEC"/>
<stop offset="0.68" stop-color="#D5D5D5"/>
<stop offset="0.75" stop-color="#B5B5B5"/>
<stop offset="0.82" stop-color="#8C8C8C"/>
<stop offset="0.89" stop-color="#595959"/>
<stop offset="0.97" stop-color="#1E1E1E"/>
<stop offset="1"/>
</linearGradient>
</defs>
</svg>
