<svg width="20" height="26" viewBox="0 0 20 26" fill="none" xmlns="http://www.w3.org/2000/svg">
<g clip-path="url(#clip0_148_49)">
<path d="M9.99998 12.6667V11.9963C9.99998 8.30936 5.52301 5.32959 0 5.32959V19.3301C0 23.0171 4.47696 25.9969 9.99998 25.9969C15.523 25.9969 20 23.0138 20 19.3301C20 15.6465 15.523 12.6667 9.99998 12.6667Z" fill="url(#paint0_linear_148_49)"/>
<path d="M10.0001 19.3334V20.0037C13.4869 20.0037 16.5622 21.197 18.3683 23.0204C19.3937 22.0511 19.9854 20.7356 20.0176 19.3535C20.0176 15.6665 15.5406 12.6867 10.0176 12.6867V12.0164C10.0176 8.32937 5.54059 5.34961 0.0175781 5.34961V12.6834C5.52316 12.6666 10.0001 15.6531 10.0001 19.3334Z" fill="url(#paint1_linear_148_49)"/>
<path d="M20 0.0166016C14.477 0.0166016 9.99999 3.00307 9.99999 6.68336V19.3498C9.99999 21.8168 7.98815 23.9687 5 25.1217C6.59214 25.7235 8.28923 26.0272 9.99999 26.0166C15.523 26.0166 20 23.0335 20 19.3498V0.0166016Z" fill="url(#paint2_linear_148_49)"/>
</g>
<defs>
<linearGradient id="paint0_linear_148_49" x1="0" y1="15.6666" x2="20" y2="15.6666" gradientUnits="userSpaceOnUse">
<stop stop-color="#00BAEB"/>
<stop offset="0.05" stop-color="#07B2E4"/>
<stop offset="0.35" stop-color="#2988C3"/>
<stop offset="0.61" stop-color="#4269AA"/>
<stop offset="0.84" stop-color="#51579B"/>
<stop offset="1" stop-color="#565096"/>
</linearGradient>
<linearGradient id="paint1_linear_148_49" x1="22241.8" y1="10418.6" x2="22241.8" y2="11470.5" gradientUnits="userSpaceOnUse">
<stop stop-color="#00BAEB"/>
<stop offset="0.05" stop-color="#07B2E4"/>
<stop offset="0.35" stop-color="#2988C3"/>
<stop offset="0.61" stop-color="#4269AA"/>
<stop offset="0.84" stop-color="#51579B"/>
<stop offset="1" stop-color="#565096"/>
</linearGradient>
<linearGradient id="paint2_linear_148_49" x1="12.5" y1="-7.67245" x2="12.5" y2="22.5073" gradientUnits="userSpaceOnUse">
<stop stop-color="#00DAC8"/>
<stop offset="1" stop-color="#00BAEB"/>
</linearGradient>
<clipPath id="clip0_148_49">
<rect width="20" height="26" fill="white"/>
</clipPath>
</defs>
</svg>
