<svg width="39" height="39" viewBox="0 0 39 39" fill="none" xmlns="http://www.w3.org/2000/svg">
<circle cx="19.5" cy="19.5" r="19.5" fill="white"/>
<g clip-path="url(#clip0_0_1)">
<path d="M25.7165 26.9989C25.1875 26.9989 24.6748 26.825 24.2658 26.5068C23.8568 26.1886 23.5768 25.7458 23.4736 25.2539C23.3704 24.7619 23.4503 24.2512 23.6998 23.8089C23.9492 23.3665 24.3528 23.0199 24.8416 22.828C25.3304 22.6361 25.8743 22.6109 26.3806 22.7566C26.8868 22.9023 27.3241 23.2099 27.6179 23.627C27.9118 24.0442 28.0439 24.545 27.9919 25.0442C27.9399 25.5434 27.7069 26.01 27.3326 26.3645C27.1206 26.5659 26.8686 26.7257 26.5913 26.8345C26.314 26.9434 26.0167 26.9992 25.7165 26.9989Z" fill="#F87000"/>
<path d="M13.2869 15.4364C12.7578 15.4364 12.2451 15.2625 11.8361 14.9443C11.4271 14.6261 11.1471 14.1833 11.0439 13.6914C10.9407 13.1994 11.0207 12.6887 11.2701 12.2464C11.5195 11.804 11.9231 11.4574 12.4119 11.2655C12.9007 11.0736 13.4446 11.0484 13.9509 11.1941C14.4571 11.3398 14.8944 11.6474 15.1883 12.0645C15.4821 12.4817 15.6142 12.9825 15.5622 13.4817C15.5102 13.9809 15.2772 14.4475 14.9029 14.802C14.6913 15.0039 14.4394 15.164 14.162 15.2729C13.8846 15.3818 13.5871 15.4373 13.2869 15.4364Z" fill="#F87000"/>
<path d="M25.6121 15.3734C25.083 15.3728 24.5706 15.1983 24.162 14.8797C23.7535 14.561 23.4741 14.1179 23.3715 13.6259C23.2689 13.1338 23.3495 12.6233 23.5994 12.1812C23.8494 11.7392 24.2533 11.393 24.7423 11.2016C25.2313 11.0102 25.7752 10.9855 26.2813 11.1317C26.7873 11.2779 27.2243 11.586 27.5176 12.0033C27.811 12.4207 27.9426 12.9217 27.8901 13.4207C27.8376 13.9198 27.6042 14.3862 27.2296 14.7404C27.0175 14.942 26.7653 15.1018 26.4877 15.2105C26.21 15.3191 25.9124 15.3745 25.6121 15.3734Z" fill="#F87000"/>
<path d="M13.3504 26.9986C12.898 26.9989 12.4556 26.8719 12.0793 26.6337C11.7031 26.3955 11.4098 26.0568 11.2366 25.6605C11.0635 25.2642 11.0182 24.8282 11.1065 24.4075C11.1948 23.9868 11.4128 23.6004 11.7329 23.2972C11.8313 23.2043 11.9395 23.1211 12.0558 23.049C12.0918 23.0245 12.1292 23.0019 12.1678 22.9814C12.2522 22.9345 12.3365 22.8931 12.4151 22.8587C12.4587 22.8407 12.5024 22.8214 12.5489 22.8049C12.6386 22.7723 12.7305 22.7451 12.8238 22.7235L12.882 22.7084L12.9184 22.6987L13.4275 22.667C13.4915 22.667 13.5599 22.6766 13.634 22.6863H13.6631H13.7271H13.7475H13.7708H13.7911H13.9031C14.7979 22.6743 15.6512 22.3261 16.2754 21.7182C16.8997 21.1104 17.244 20.2924 17.2327 19.4441V19.4193V19.3944C17.2313 19.371 17.2313 19.3475 17.2327 19.3241C17.2327 19.2965 17.2327 19.2689 17.224 19.2414V19.1917C17.224 19.1503 17.2153 19.1103 17.2124 19.069L17.2502 18.5835C17.2534 18.5719 17.2573 18.5603 17.2618 18.5491L17.2706 18.5187C17.2921 18.4249 17.3208 18.3328 17.3564 18.2429C17.3721 18.2001 17.3906 18.1581 17.4117 18.1174C17.4511 18.0347 17.4953 17.9542 17.544 17.8761C17.5658 17.843 17.5877 17.8085 17.6124 17.774C17.6898 17.6639 17.778 17.561 17.8757 17.4665C18.0863 17.2576 18.3388 17.0908 18.6184 16.9757C18.898 16.8607 19.199 16.7998 19.5038 16.7965C19.8086 16.7933 20.111 16.8478 20.3932 16.9569C20.6754 17.066 20.9318 17.2274 21.1474 17.4318C21.3629 17.6361 21.5332 17.8792 21.6482 18.1468C21.7633 18.4143 21.8208 18.701 21.8174 18.99C21.814 19.2789 21.7497 19.5643 21.6284 19.8294C21.507 20.0944 21.331 20.3338 21.1107 20.5335C21.0115 20.6257 20.9034 20.7088 20.7878 20.7818C20.75 20.8066 20.7136 20.8273 20.6772 20.8466C20.5975 20.8925 20.5149 20.934 20.43 20.9707C20.3849 20.99 20.3398 21.0093 20.2976 21.0245C20.2067 21.0558 20.1139 21.0821 20.0198 21.1031L19.9645 21.1169L19.9281 21.1266L19.4132 21.161C19.3494 21.1581 19.2858 21.1522 19.2226 21.1431H19.1775H19.1135H19.0786H19.0525H18.9201C18.4762 21.1483 18.0377 21.2365 17.6298 21.4027C17.2219 21.5688 16.8525 21.8096 16.543 22.1113C16.2334 22.413 15.9897 22.7697 15.8257 23.1608C15.6618 23.552 15.5808 23.97 15.5876 24.3908V24.4143V24.4391C15.5914 24.4624 15.5939 24.4859 15.5949 24.5094C15.5949 24.537 15.5949 24.5646 15.6036 24.5922C15.605 24.6176 15.6079 24.6429 15.6123 24.668C15.6123 24.7011 15.6123 24.7342 15.6123 24.7673V24.7783L15.5759 25.2431C15.5759 25.2527 15.557 25.3065 15.5527 25.3231C15.5307 25.4143 15.5025 25.5042 15.4683 25.592C15.453 25.6335 15.435 25.674 15.4145 25.7133C15.3737 25.7961 15.3316 25.8747 15.2821 25.9561C15.2603 25.9878 15.2356 26.0264 15.2094 26.0636C15.1319 26.1712 15.0448 26.2723 14.949 26.3656C14.7372 26.5674 14.4853 26.7273 14.2079 26.8362C13.9306 26.9451 13.6332 27.0008 13.3329 27L13.3504 26.9986Z" fill="#F87000"/>
<path d="M19.5285 26.9987C19.0384 27.0036 18.5598 26.8586 18.1636 26.5851C17.7674 26.3116 17.4749 25.9242 17.3293 25.4806C17.1838 25.0369 17.1931 24.5606 17.3557 24.1223C17.5184 23.684 17.8259 23.3072 18.2324 23.0477C18.2674 23.0256 18.3037 23.0049 18.3415 22.9843C18.422 22.9382 18.505 22.8963 18.5903 22.8588L18.7226 22.805C18.813 22.7742 18.9053 22.7489 18.999 22.7291L19.0892 22.7043L19.607 22.6684C19.6681 22.6684 19.7336 22.6795 19.802 22.6878H19.8412H19.9081H19.9343H19.9503H20.0856C20.9796 22.6754 21.832 22.3272 22.4554 21.7196C23.0789 21.1119 23.4225 20.2946 23.4108 19.4469V19.3463L23.4021 19.3352C23.4015 19.3316 23.4015 19.3279 23.4021 19.3242V19.2525L23.3934 19.1835C23.3934 19.1449 23.3832 19.1077 23.3818 19.0691L23.4167 18.6002C23.4167 18.5878 23.437 18.5299 23.4414 18.5119C23.4638 18.4217 23.492 18.3328 23.5258 18.2458C23.5423 18.203 23.5612 18.1611 23.5825 18.1203C23.6216 18.039 23.6653 17.9598 23.7134 17.8831L23.7236 17.8665C23.741 17.8389 23.7585 17.81 23.7789 17.7824C23.8573 17.6722 23.9459 17.5688 24.0436 17.4735C24.4729 17.0668 25.055 16.8384 25.6619 16.8384C26.2687 16.8384 26.8508 17.0668 27.2801 17.4735C27.7076 17.8812 27.9476 18.4328 27.9476 19.0077C27.9476 19.5826 27.7076 20.1342 27.2801 20.5419C27.1796 20.6333 27.0711 20.7163 26.9557 20.7902L26.8801 20.8343L26.8394 20.8591C26.7618 20.903 26.6817 20.9426 26.5993 20.9777C26.5528 20.997 26.5106 21.0163 26.4641 21.0329C26.3727 21.064 26.2794 21.0898 26.1848 21.1101L26.1266 21.1253L26.0902 21.1349L25.5826 21.168C25.5084 21.168 25.4269 21.1556 25.3498 21.146C25.3275 21.1449 25.3052 21.1449 25.2829 21.146H25.2597H25.216H25.1026C24.6596 21.1517 24.2222 21.2401 23.8154 21.4062C23.4085 21.5723 23.0402 21.8128 22.7314 22.1138C22.4226 22.4149 22.1794 22.7708 22.0157 23.161C21.852 23.5512 21.771 23.9682 21.7773 24.3882V24.413V24.4364C21.7812 24.4611 21.7836 24.486 21.7846 24.5109C21.7846 24.5357 21.7846 24.5605 21.7919 24.5854C21.7991 24.6102 21.7919 24.6322 21.7991 24.6571C21.8064 24.6819 21.8079 24.7315 21.8093 24.7674L21.7715 25.2446L21.7497 25.319C21.7277 25.4125 21.6995 25.5047 21.6653 25.5948C21.6508 25.6335 21.6319 25.6721 21.6144 25.7107L21.6071 25.7245C21.5691 25.803 21.5263 25.8795 21.4791 25.9534C21.4559 25.9902 21.4326 26.026 21.4093 26.061C21.3309 26.1707 21.2423 26.2737 21.1446 26.3685C20.9326 26.5697 20.6806 26.729 20.4032 26.8372C20.1258 26.9454 19.8285 27.0003 19.5285 26.9987Z" fill="#F87000"/>
<path d="M13.3518 21.1443C12.8995 21.1448 12.4571 21.0181 12.0807 20.7802C11.7043 20.5422 11.4108 20.2038 11.2373 19.8077C11.0638 19.4116 11.0182 18.9756 11.1061 18.5549C11.1941 18.1342 11.4117 17.7477 11.7314 17.4442C11.831 17.3515 11.9396 17.2679 12.0558 17.1946L12.1693 17.1271C12.2478 17.0829 12.3293 17.0429 12.4151 17.0043C12.4587 16.985 12.5024 16.9671 12.5489 16.9505C12.6388 16.9198 12.7306 16.8945 12.8238 16.8747L12.8806 16.8595L12.9126 16.8499L13.4304 16.8154C13.4973 16.8154 13.5759 16.8264 13.6471 16.8361H13.6631H13.73H13.7533H13.7751H13.7955H13.9104C14.3532 16.8301 14.7904 16.7416 15.1971 16.5754C15.6038 16.4093 15.972 16.1688 16.2807 15.8677C16.5893 15.5666 16.8324 15.2109 16.996 14.8207C17.1596 14.4306 17.2405 14.0137 17.2342 13.5939V13.5704V13.547C17.2291 13.5206 17.2262 13.4938 17.2255 13.467V13.4008L17.2167 13.3332C17.2107 13.2935 17.2068 13.2534 17.2051 13.2133L17.24 12.7582V12.7471V12.7375L17.2618 12.6671C17.2837 12.5736 17.3119 12.4815 17.3462 12.3913C17.3622 12.35 17.3826 12.3086 17.4029 12.2658C17.4417 12.1844 17.4854 12.1052 17.5338 12.0286V12.0162C17.5542 11.9859 17.5731 11.9542 17.5964 11.9224C17.6728 11.8137 17.76 11.7121 17.8568 11.619C18.0673 11.4101 18.3198 11.2431 18.5993 11.128C18.8788 11.0128 19.1798 10.9518 19.4846 10.9484C19.7894 10.945 20.0918 10.9994 20.374 11.1084C20.6563 11.2173 20.9128 11.3787 21.1284 11.5829C21.344 11.7872 21.5144 12.0302 21.6296 12.2977C21.7448 12.5652 21.8025 12.8519 21.7992 13.1408C21.7959 13.4298 21.7318 13.7152 21.6106 13.9803C21.4893 14.2454 21.3135 14.4849 21.0933 14.6847C20.9943 14.7772 20.8862 14.8603 20.7703 14.933C20.7354 14.9564 20.7049 14.9729 20.6743 14.9909L20.6569 15.0005C20.5725 15.0474 20.4911 15.0888 20.4125 15.1233C20.366 15.1426 20.3238 15.1619 20.2787 15.1771C20.1874 15.2087 20.0941 15.2349 19.9994 15.2557C19.9793 15.2597 19.9593 15.2648 19.9398 15.2708L19.9034 15.2805L19.3957 15.3136C19.3317 15.3136 19.2634 15.3025 19.1921 15.2943H19.1601H19.0946H19.0685H19.0525H18.9157C18.4725 15.2997 18.0348 15.3878 17.6277 15.5538C17.2205 15.7197 16.8518 15.9601 16.5426 16.2612C16.2335 16.5623 15.9901 16.9183 15.8262 17.3087C15.6623 17.6991 15.5812 18.1163 15.5876 18.5365V18.5599V18.5834C15.5926 18.6079 15.5956 18.6328 15.5963 18.6578C15.5963 18.6827 15.5963 18.7089 15.5963 18.7337C15.5963 18.7585 15.5963 18.7792 15.605 18.8054C15.6101 18.8411 15.613 18.877 15.6138 18.913L15.5876 19.386C15.5876 19.3984 15.5876 19.4108 15.5774 19.4232L15.5643 19.466C15.5426 19.5594 15.5149 19.6515 15.4814 19.7418C15.4654 19.7832 15.4436 19.8245 15.4232 19.8687C15.3853 19.9488 15.3431 20.0271 15.2967 20.1031C15.2734 20.1403 15.2501 20.1762 15.2268 20.2093C15.1502 20.3195 15.062 20.422 14.9636 20.5154C14.7521 20.7172 14.5005 20.8771 14.2233 20.986C13.9461 21.0949 13.6489 21.1506 13.3489 21.1498L13.3518 21.1443Z" fill="#F87000"/>
</g>
<defs>
<clipPath id="clip0_0_1">
<rect width="17" height="16" fill="white" transform="translate(11 11)"/>
</clipPath>
</defs>
</svg>
