<svg width="12" height="7" viewBox="0 0 12 7" fill="none" xmlns="http://www.w3.org/2000/svg">
<path d="M0.256188 6.44303C0.420275 6.60707 0.642794 6.69922 0.874813 6.69922C1.10683 6.69922 1.32935 6.60707 1.49344 6.44303L5.82469 2.11178L10.1559 6.44303C10.321 6.60242 10.542 6.69062 10.7714 6.68862C11.0008 6.68663 11.2203 6.59461 11.3825 6.43237C11.5448 6.27014 11.6368 6.05068 11.6388 5.82126C11.6408 5.59184 11.5526 5.37081 11.3932 5.20578L6.44331 0.255906C6.27923 0.091869 6.05671 -0.000282182 5.82469 -0.000282223C5.59267 -0.000282263 5.37015 0.0918689 5.20606 0.255906L0.256188 5.20578C0.0921512 5.36987 1.93525e-07 5.59239 1.52957e-07 5.82441C1.1239e-07 6.05642 0.092151 6.27894 0.256188 6.44303Z" fill="#000F3C"/>
</svg>
