<svg width="13" height="14" viewBox="0 0 13 14" fill="none" xmlns="http://www.w3.org/2000/svg">
<path fill-rule="evenodd" clip-rule="evenodd" d="M6.5 14C6.25377 14 6.01763 13.9078 5.84352 13.7437C5.66941 13.5797 5.5716 13.3571 5.5716 13.1251L5.5716 2.98848L1.58689 6.74531C1.50057 6.82665 1.39809 6.89118 1.28531 6.9352C1.17253 6.97923 1.05165 7.00189 0.929577 7.00189C0.807502 7.00189 0.686624 6.97923 0.573843 6.9352C0.461061 6.89118 0.358586 6.82665 0.272266 6.74531C0.185947 6.66396 0.117475 6.56739 0.0707595 6.46111C0.0240438 6.35483 6.7832e-07 6.24092 6.88377e-07 6.12588C6.98434e-07 6.01084 0.0240438 5.89693 0.0707595 5.79064C0.117475 5.68436 0.185947 5.58779 0.272266 5.50645L5.84269 0.257035C5.92893 0.175558 6.03138 0.110916 6.14417 0.06681C6.25697 0.0227035 6.37788 -5.78924e-07 6.5 -5.68248e-07C6.62212 -5.57572e-07 6.74304 0.0227036 6.85583 0.0668101C6.96862 0.110916 7.07107 0.175559 7.15731 0.257035L12.7277 5.50645C12.8141 5.58779 12.8825 5.68436 12.9292 5.79065C12.976 5.89693 13 6.01084 13 6.12588C13 6.24092 12.976 6.35483 12.9292 6.46111C12.8825 6.5674 12.8141 6.66397 12.7277 6.74531C12.5534 6.90959 12.317 7.00189 12.0704 7.00189C11.9483 7.00189 11.8275 6.97923 11.7147 6.93521C11.6019 6.89118 11.4994 6.82666 11.4131 6.74531L7.4284 2.98848L7.4284 13.1251C7.4284 13.3571 7.33059 13.5797 7.15648 13.7437C6.98237 13.9078 6.74623 14 6.5 14Z" fill="#3C6AFF"/>
</svg>
