<svg width="26" height="26" viewBox="0 0 26 26" fill="none" xmlns="http://www.w3.org/2000/svg">
<circle cx="13" cy="13" r="13" fill="#2775C9"/>
<path d="M13 4C17.9708 4 22 8.02919 22 13C22 17.9708 17.9708 22 13 22C8.02919 22 4 17.9708 4 13C4 8.02919 8.02919 4 13 4ZM14.8855 7.1275C14.7483 7.06 14.611 7.1275 14.5773 7.26419C14.5429 7.2985 14.5429 7.33281 14.5429 7.40088V7.879L14.5486 7.9375C14.5779 8.05322 14.6491 8.154 14.7483 8.22044C17.4224 9.17669 18.7937 12.1467 17.7992 14.7753C17.2851 16.2096 16.1539 17.3014 14.7483 17.8139C14.611 17.8819 14.5429 17.9843 14.5429 18.1553V18.6334L14.5457 18.6829C14.5511 18.737 14.5737 18.7878 14.6101 18.828C14.6466 18.8682 14.695 18.8957 14.7483 18.9062C14.7826 18.9062 14.8512 18.9062 14.8855 18.8725C15.657 18.6316 16.3732 18.2404 16.9929 17.7215C17.6127 17.2027 18.1236 16.5663 18.4964 15.8492C18.8692 15.132 19.0964 14.3482 19.165 13.5429C19.2336 12.7375 19.1422 11.9266 18.8961 11.1567C18.2796 9.21044 16.771 7.74231 14.8855 7.12806V7.1275ZM11.2517 7.09375C11.2174 7.09375 11.1488 7.09375 11.1145 7.1275C10.343 7.36843 9.62676 7.7596 9.00705 8.27847C8.38734 8.79735 7.87639 9.43368 7.50361 10.1508C7.13084 10.868 6.90361 11.6518 6.835 12.4571C6.7664 13.2625 6.85778 14.0734 7.10388 14.8433C7.72038 16.7558 9.19469 18.2239 11.1145 18.8382C11.2517 18.9062 11.389 18.8382 11.4227 18.7015C11.4571 18.6677 11.4571 18.6329 11.4571 18.5648V18.0867L11.4514 18.0417C11.4278 17.9466 11.3395 17.8381 11.2517 17.7796C8.57762 16.8233 7.20625 13.8533 8.20075 11.2248C8.71487 9.79037 9.84606 8.69856 11.2517 8.18612C11.389 8.11806 11.4571 8.01569 11.4571 7.84469V7.36656L11.4542 7.31706C11.4489 7.26305 11.4263 7.21218 11.3899 7.17197C11.3534 7.13177 11.305 7.10434 11.2517 7.09375ZM13.2402 8.869H12.7255L12.676 8.8735C12.5635 8.896 12.4814 8.99275 12.451 9.14237V9.92763L12.3346 9.94562C11.3738 10.1166 10.7719 10.7798 10.7719 11.6005C10.7719 12.7266 11.4571 13.1704 12.8971 13.3414C13.8573 13.5119 14.1655 13.7172 14.1655 14.2634C14.1655 14.809 13.6857 15.1848 13.0343 15.1848C12.1428 15.1848 11.8345 14.8096 11.7316 14.2971C11.6978 14.161 11.5943 14.0924 11.4914 14.0924H10.9086L10.8642 14.0963C10.8087 14.1053 10.7584 14.134 10.7225 14.1773C10.6866 14.2205 10.6676 14.2753 10.669 14.3314V14.3652L10.6876 14.4664C10.8507 15.2674 11.3997 15.8406 12.4859 16.0043V16.8239L12.4904 16.8734C12.5129 16.9847 12.6102 17.0669 12.7604 17.0967H13.2745L13.324 17.0922C13.4365 17.0697 13.5186 16.9729 13.549 16.8239V16.0037L13.6654 15.9812C14.629 15.7776 15.2629 15.0807 15.2629 14.1942C15.2629 12.9994 14.5429 12.5899 13.1029 12.4189C12.0741 12.2823 11.8688 12.0094 11.8688 11.5313C11.8688 11.0532 12.2119 10.7461 12.8971 10.7461C13.5141 10.7461 13.8572 10.9508 14.0282 11.4632C14.0461 11.5128 14.0786 11.5557 14.1216 11.5862C14.1645 11.6166 14.2158 11.6332 14.2684 11.6337H14.8169L14.8613 11.6303C14.917 11.6215 14.9675 11.5927 15.0035 11.5493C15.0396 11.5059 15.0586 11.451 15.0571 11.3946V11.3609L15.0363 11.2636C14.9518 10.9139 14.7592 10.5998 14.486 10.3659C14.2127 10.132 13.8726 9.99028 13.5141 9.96081V9.14237L13.5096 9.09288C13.4871 8.98094 13.3898 8.89881 13.2396 8.869H13.2402Z" fill="white"/>
</svg>
