<svg width="26" height="26" viewBox="0 0 26 26" fill="none" xmlns="http://www.w3.org/2000/svg">
<circle cx="13" cy="13" r="13" fill="#26A17B"/>
<path d="M18.6283 12.2929C18.6283 12.8018 16.7633 13.2277 14.2633 13.3351L14.265 13.3359C13.8487 13.3579 13.4318 13.3669 13.015 13.3628C12.3658 13.3628 11.9067 13.3441 11.745 13.3359C9.24004 13.2285 7.37006 12.8026 7.37006 12.2929C7.37006 11.7832 9.24004 11.3566 11.745 11.2475V12.9117C11.9083 12.924 12.3775 12.9508 13.0258 12.9508C13.8033 12.9508 14.1925 12.9183 14.2633 12.9126V11.2491C16.7633 11.3574 18.6283 11.7841 18.6283 12.2929ZM22.9532 12.7375L13.1033 21.9593C13.0754 21.9854 13.0382 22 12.9996 22C12.9609 22 12.9238 21.9854 12.8958 21.9593L3.04677 12.7375C3.02366 12.7163 3.00811 12.6884 3.00242 12.6579C2.99672 12.6274 3.00116 12.596 3.01511 12.5681L6.66174 5.08307C6.67378 5.05791 6.693 5.03668 6.7171 5.02195C6.7412 5.00721 6.76914 4.9996 6.79757 5.00002H19.2041C19.2322 5.00014 19.2597 5.0081 19.2833 5.02295C19.3069 5.03781 19.3257 5.05895 19.3374 5.08388L22.9849 12.5681C22.9988 12.596 23.0033 12.6274 22.9976 12.6579C22.9919 12.6884 22.9763 12.7163 22.9532 12.7375ZM19.2216 12.4086C19.2216 11.7523 17.095 11.2035 14.2658 11.0757V9.5873H17.7541V7.31564H8.25672V9.5873H11.7442V11.0765C8.90921 11.2035 6.77757 11.7523 6.77757 12.4094C6.77757 13.0673 8.90921 13.6144 11.7442 13.7431V18.516H14.265V13.7414C17.0933 13.6136 19.2216 13.0656 19.2216 12.4086Z" fill="white"/>
</svg>
